<svg width="42" height="42" viewBox="0 0 42 42" fill="none" xmlns="http://www.w3.org/2000/svg">
<path d="M0 0H41.8957V22.6729L39.822 25.9211L41.8957 28.8121V42H0V20.6264L1.29608 19.1323L0 17.703V0Z" fill="#016FD0"/>
<path d="M8.13306 29.2666V22.6727H15.0975L15.8447 23.6492L16.6166 22.6727H41.8959V28.8119C41.8959 28.8119 41.2348 29.26 40.4702 29.2666H26.4726L25.6301 28.2272V29.2666H22.8695V27.4923C22.8695 27.4923 22.4923 27.74 21.6771 27.74H20.7374V29.2666H16.5576L15.8114 28.2692L15.0538 29.2666H8.13306Z" fill="white"/>
<path d="M0 17.7028L1.57051 14.0323H4.28655L5.17783 16.0884V14.0323H8.55411L9.08469 15.5184L9.59907 14.0323H24.7551V14.7794C24.7551 14.7794 25.5518 14.0323 26.8612 14.0323L31.7788 14.0495L32.6547 16.0787V14.0323H35.4801L36.2578 15.1979V14.0323H39.1091V20.6263H36.2578L35.5125 19.4569V20.6263H31.3613L30.9439 19.5868H29.8279L29.4172 20.6263H26.602C25.4753 20.6263 24.7551 19.8944 24.7551 19.8944V20.6263H20.5104L19.668 19.5868V20.6263H3.88418L3.46701 19.5868H2.35458L1.94035 20.6263H0V17.7028Z" fill="white"/>
<path d="M2.12633 14.8452L0.00805664 19.7825H1.38716L1.77801 18.7938H4.0502L4.43902 19.7825H5.84851L3.73225 14.8452H2.12633ZM2.91005 15.9942L3.60265 17.7219H2.21544L2.91005 15.9942Z" fill="#016FD0"/>
<path d="M5.99438 19.7817V14.8444L7.95417 14.8517L9.09405 18.035L10.2066 14.8444H12.1508V19.7817H10.9195V16.1437L9.6143 19.7817H8.53447L7.22566 16.1437V19.7817H5.99438Z" fill="#016FD0"/>
<path d="M12.9932 19.7817V14.8444H17.011V15.9488H14.2374V16.7933H16.9462V17.8328H14.2374V18.7098H17.011V19.7817H12.9932Z" fill="#016FD0"/>
<path d="M17.7236 14.8452V19.7825H18.9549V18.0284H19.4733L20.9497 19.7825H22.4543L20.8342 17.9635C21.4991 17.9072 22.185 17.3351 22.185 16.447C22.185 15.408 21.3715 14.8452 20.4636 14.8452H17.7236ZM18.9549 15.9496H20.3624C20.7 15.9496 20.9456 16.2143 20.9456 16.4693C20.9456 16.7973 20.6274 16.989 20.3806 16.989H18.9549V15.9496Z" fill="#016FD0"/>
<path d="M23.9449 19.7817H22.6877V14.8444H23.9449V19.7817Z" fill="#016FD0"/>
<path d="M26.926 19.7817H26.6546C25.3416 19.7817 24.5444 18.7447 24.5444 17.3333C24.5444 15.8871 25.3327 14.8444 26.9908 14.8444H28.3517V16.0137H26.941C26.2679 16.0137 25.7919 16.5403 25.7919 17.3455C25.7919 18.3017 26.3362 18.7033 27.1204 18.7033H27.4444L26.926 19.7817Z" fill="#016FD0"/>
<path d="M29.6051 14.8452L27.4868 19.7825H28.8659L29.2568 18.7938H31.529L31.9178 19.7825H33.3273L31.211 14.8452H29.6051ZM30.3888 15.9942L31.0814 17.7219H29.6942L30.3888 15.9942Z" fill="#016FD0"/>
<path d="M33.4712 19.7817V14.8444H35.0366L37.0354 17.9465V14.8444H38.2667V19.7817H36.7519L34.7025 16.5984V19.7817H33.4712Z" fill="#016FD0"/>
<path d="M8.9751 28.422V23.4847H12.9929V24.5891H10.2193V25.4336H12.9281V26.4731H10.2193V27.3501H12.9929V28.422H8.9751Z" fill="#016FD0"/>
<path d="M28.6626 28.422V23.4847H32.6804V24.5891H29.9068V25.4336H32.6027V26.4731H29.9068V27.3501H32.6804V28.422H28.6626Z" fill="#016FD0"/>
<path d="M13.1491 28.422L15.1054 25.9838L13.1025 23.4847H14.6538L15.8466 25.0296L17.0434 23.4847H18.5339L16.5574 25.9534L18.5173 28.422H16.9663L15.8081 26.9014L14.6781 28.422H13.1491Z" fill="#016FD0"/>
<path d="M18.6636 23.4855V28.4229H19.9273V26.8637H21.2233C22.32 26.8637 23.1512 26.2805 23.1512 25.1462C23.1512 24.2066 22.4993 23.4855 21.3833 23.4855H18.6636ZM19.9273 24.6021H21.2922C21.6465 24.6021 21.8997 24.8198 21.8997 25.1706C21.8997 25.5001 21.6477 25.739 21.2881 25.739H19.9273V24.6021Z" fill="#016FD0"/>
<path d="M23.6858 23.4847V28.422H24.9171V26.668H25.4355L26.9118 28.422H28.4165L26.7964 26.603C27.4613 26.5468 28.1471 25.9747 28.1471 25.0865C28.1471 24.0475 27.3337 23.4847 26.4258 23.4847H23.6858ZM24.9171 24.5891H26.3245C26.6622 24.5891 26.9078 24.8539 26.9078 25.1088C26.9078 25.4368 26.5895 25.6285 26.3427 25.6285H24.9171V24.5891Z" fill="#016FD0"/>
<path d="M33.2511 28.422V27.3501H35.7152C36.0798 27.3501 36.2377 27.1526 36.2377 26.936C36.2377 26.7284 36.0803 26.5186 35.7152 26.5186H34.6017C33.6338 26.5186 33.0947 25.9274 33.0947 25.0398C33.0947 24.2481 33.5884 23.4847 35.0267 23.4847H37.4244L36.906 24.5956H34.8323C34.4359 24.5956 34.3138 24.8041 34.3138 25.0032C34.3138 25.2079 34.4646 25.4336 34.7675 25.4336H35.9339C37.0129 25.4336 37.4811 26.0472 37.4811 26.8507C37.4811 27.7145 36.9594 28.422 35.8752 28.422H33.2511Z" fill="#016FD0"/>
<path d="M37.7699 28.422V27.3501H40.234C40.5986 27.3501 40.7565 27.1526 40.7565 26.936C40.7565 26.7284 40.5991 26.5186 40.234 26.5186H39.1205C38.1526 26.5186 37.6135 25.9274 37.6135 25.0398C37.6135 24.2481 38.1072 23.4847 39.5455 23.4847H41.9432L41.4248 24.5956H39.3511C38.9547 24.5956 38.8327 24.8041 38.8327 25.0032C38.8327 25.2079 38.9834 25.4336 39.2863 25.4336H40.4527C41.5317 25.4336 41.9999 26.0472 41.9999 26.8507C41.9999 27.7145 41.4782 28.422 40.394 28.422H37.7699Z" fill="#016FD0"/>
</svg>
