<svg width="61" height="22" viewBox="0 0 61 22" fill="none" xmlns="http://www.w3.org/2000/svg">
<g clip-path="url(#clip0_6_3276)" filter="url(#filter0_d_6_3276)">
<path d="M14.1556 13.7337C17.9092 13.7516 21.3352 10.6725 21.3352 6.92651C21.3352 2.83012 17.9092 -0.00136198 14.1556 4.91485e-07H10.9252C7.12659 -0.00136198 4 2.83096 4 6.92651C4 10.6733 7.12659 13.7517 10.9252 13.7337H14.1556Z" fill="#0079BE"/>
<path d="M10.9405 0.567627C7.4695 0.568717 4.65682 3.38221 4.65601 6.85463C4.65682 10.3264 7.46947 13.1397 10.9405 13.1408C14.4124 13.1397 17.2256 10.3264 17.2261 6.85463C17.2256 3.38221 14.4124 0.568717 10.9405 0.567627ZM6.95694 6.85463C6.96021 5.15781 8.01994 3.71087 9.51429 3.13588V10.5725C8.01994 9.99784 6.96018 8.55169 6.95694 6.85463ZM12.3662 10.5741V3.13563C13.8611 3.70923 14.9225 5.15699 14.9252 6.85463C14.9225 8.55278 13.8611 9.99945 12.3662 10.5741Z" fill="white"/>
<path d="M23.5366 2.95469C23.5366 2.30504 23.1979 2.34782 22.8731 2.34076V2.15302C23.1546 2.16691 23.4431 2.16691 23.7252 2.16691C24.0285 2.16691 24.4402 2.15302 24.9748 2.15302C26.8447 2.15302 27.863 3.40213 27.863 4.68118C27.863 5.39648 27.4445 7.19466 24.8879 7.19466C24.5198 7.19466 24.18 7.18047 23.8407 7.18047C23.5159 7.18047 23.1979 7.18758 22.873 7.19466V7.00719C23.3061 6.96356 23.5159 6.94915 23.5366 6.45784L23.5366 2.95469ZM24.2446 6.34258C24.2446 6.89874 24.6421 6.96359 24.9958 6.96359C26.5561 6.96359 27.0684 5.78614 27.0684 4.7098C27.0684 3.35959 26.2016 2.38461 24.8081 2.38461C24.5116 2.38461 24.3754 2.40586 24.2446 2.41352L24.2446 6.34258Z" fill="#EBEBEB"/>
<path d="M28.1162 7.00719H28.253C28.4549 7.00719 28.5996 7.00719 28.5996 6.76818V4.81116C28.5996 4.49374 28.4914 4.44956 28.2241 4.30596V4.19015C28.5634 4.08824 28.9684 3.95199 28.9967 3.93019C29.0476 3.90131 29.0907 3.89368 29.1269 3.89368C29.1626 3.89368 29.1776 3.93728 29.1776 3.99532V6.76818C29.1776 7.00719 29.3365 7.00719 29.5387 7.00719H29.6613V7.19494C29.4155 7.19494 29.1626 7.18052 28.9032 7.18052C28.6432 7.18052 28.383 7.18761 28.1162 7.19494V7.00719H28.1162ZM28.8887 2.7816C28.7007 2.7816 28.5351 2.60832 28.5351 2.42055C28.5351 2.23961 28.7084 2.07312 28.8887 2.07312C29.0759 2.07312 29.2427 2.22547 29.2427 2.42055C29.2427 2.61565 29.0833 2.7816 28.8887 2.7816Z" fill="#EBEBEB"/>
<path d="M30.3475 4.85422C30.3475 4.58717 30.2676 4.51523 29.9289 4.3779V4.24086C30.2393 4.13977 30.535 4.04576 30.8818 3.8937C30.9034 3.8937 30.9246 3.90842 30.9246 3.96591V4.43567C31.3369 4.13977 31.6909 3.89368 32.1754 3.89368C32.7885 3.89368 33.0051 4.34163 33.0051 4.90487V6.76821C33.0051 7.00719 33.1639 7.00719 33.3664 7.00719H33.4964V7.19494C33.243 7.19494 32.9904 7.18052 32.731 7.18052C32.4707 7.18052 32.2105 7.18761 31.9508 7.19494V7.00719H32.0805C32.2832 7.00719 32.4269 7.00719 32.4269 6.76821V4.89806C32.4269 4.48578 32.1754 4.28386 31.763 4.28386C31.5323 4.28386 31.1638 4.47164 30.9246 4.63074V6.76816C30.9246 7.00716 31.0842 7.00716 31.2868 7.00716H31.4165V7.19491C31.1638 7.19491 30.9107 7.18047 30.6508 7.18047C30.391 7.18047 30.1306 7.18758 29.8708 7.19491V7.00716H30.0011C30.2033 7.00716 30.3474 7.00716 30.3474 6.76816V4.85422H30.3475Z" fill="#EBEBEB"/>
<path d="M34.0453 5.20137C34.0303 5.26653 34.0303 5.37468 34.0453 5.62047C34.0878 6.30633 34.5295 6.86961 35.1064 6.86961C35.5039 6.86961 35.8151 6.65297 36.0819 6.38593L36.1827 6.4873C35.8503 6.92765 35.4388 7.30312 34.847 7.30312C33.6984 7.30312 33.4673 6.19053 33.4673 5.72868C33.4673 4.31277 34.4205 3.89368 34.9257 3.89368C35.511 3.89368 36.1397 4.26184 36.1465 5.02752C36.1465 5.07139 36.1465 5.11418 36.1397 5.15805L36.0743 5.20137H34.0453ZM35.3238 4.97005C35.5039 4.97005 35.5252 4.87604 35.5252 4.78966C35.5252 4.42122 35.3015 4.12502 34.8968 4.12502C34.4568 4.12502 34.1535 4.44956 34.0668 4.97005H35.3238Z" fill="#EBEBEB"/>
<path d="M36.3127 7.00722H36.5078C36.7094 7.00722 36.8539 7.00722 36.8539 6.76821V4.73895C36.8539 4.51523 36.5871 4.47164 36.4784 4.41387V4.30596C37.0057 4.0817 37.2948 3.89368 37.3605 3.89368C37.4032 3.89368 37.4245 3.91548 37.4245 3.98796V4.63786H37.4398C37.6199 4.35637 37.9237 3.89368 38.3638 3.89368C38.5444 3.89368 38.7753 4.0163 38.7753 4.27653C38.7753 4.47164 38.6385 4.64549 38.4363 4.64549C38.2115 4.64549 38.2115 4.47164 37.9592 4.47164C37.8363 4.47164 37.4322 4.63786 37.4322 5.07139V6.76821C37.4322 7.00719 37.5763 7.00719 37.7788 7.00719H38.1829V7.19496C37.7856 7.18758 37.4834 7.18052 37.1722 7.18052C36.8763 7.18052 36.5727 7.18761 36.3128 7.19496L36.3127 7.00722Z" fill="#EBEBEB"/>
<path d="M39.0934 6.1905C39.1875 6.66736 39.476 7.07204 40.0035 7.07204C40.4286 7.07204 40.5877 6.81208 40.5877 6.55921C40.5877 5.70685 39.0138 5.98125 39.0138 4.81852C39.0138 4.41387 39.3392 3.89368 40.1332 3.89368C40.3641 3.89368 40.6744 3.95907 40.9559 4.10377L41.0071 4.8398H40.8406C40.7687 4.38525 40.5161 4.12505 40.0534 4.12505C39.7645 4.12505 39.4904 4.2913 39.4904 4.60164C39.4904 5.44746 41.1657 5.18669 41.1657 6.32053C41.1657 6.79712 40.7828 7.30314 39.9234 7.30314C39.6346 7.30314 39.2953 7.20205 39.0427 7.0579L38.9631 6.22709L39.0934 6.1905Z" fill="#EBEBEB"/>
<path d="M47.6866 3.4604H47.5065C47.3692 2.61567 46.7697 2.27587 45.9612 2.27587C45.1301 2.27587 43.9241 2.83173 43.9241 4.56509C43.9241 6.02511 44.9647 7.072 46.0765 7.072C46.7912 7.072 47.3839 6.58097 47.5283 5.82237L47.694 5.86543L47.5283 6.91995C47.225 7.10824 46.4089 7.3031 45.9318 7.3031C44.2423 7.3031 43.1738 6.21234 43.1738 4.58716C43.1738 3.10643 44.4951 2.04425 45.9105 2.04425C46.4953 2.04425 47.0585 2.23282 47.6147 2.42792L47.6866 3.4604Z" fill="#EBEBEB"/>
<path d="M47.9473 7.00718H48.0841C48.2866 7.00718 48.4315 7.00718 48.4315 6.76817V2.74565C48.4315 2.27587 48.3231 2.2614 48.0484 2.18211V2.06657C48.3372 1.97286 48.6405 1.84258 48.7923 1.75568C48.871 1.71263 48.9294 1.67609 48.9506 1.67609C48.9948 1.67609 49.0092 1.71971 49.0092 1.77773V6.76817C49.0092 7.00718 49.1678 7.00718 49.3703 7.00718H49.4921V7.19493C49.2476 7.19493 48.9948 7.18048 48.7345 7.18048C48.4749 7.18048 48.2149 7.1876 47.9473 7.19493V7.00718H47.9473Z" fill="#EBEBEB"/>
<path d="M52.5841 6.79709C52.5841 6.92762 52.6631 6.9347 52.7857 6.9347C52.8726 6.9347 52.9806 6.92762 53.0748 6.92762V7.07967C52.764 7.10828 52.1718 7.26006 52.0344 7.30312L51.9982 7.28129V6.69682C51.5655 7.05049 51.2328 7.30312 50.7197 7.30312C50.3297 7.30312 49.9254 7.05049 49.9254 6.44419V4.5945C49.9254 4.40675 49.8968 4.22606 49.4929 4.19012V4.05278C49.7532 4.0457 50.3298 4.00235 50.424 4.00235C50.5042 4.00235 50.5042 4.05278 50.5042 4.21165V6.07466C50.5042 6.29186 50.5042 6.91285 51.132 6.91285C51.3775 6.91285 51.7023 6.7251 52.0053 6.47305V4.52908C52.0053 4.3852 51.659 4.3059 51.3996 4.23339V4.10341C52.0487 4.05982 52.4538 4.00232 52.5255 4.00232C52.5841 4.00232 52.5841 4.05273 52.5841 4.13257L52.5841 6.79709Z" fill="#EBEBEB"/>
<path d="M54.0212 4.41386C54.3098 4.16831 54.6997 3.89367 55.0972 3.89367C55.9351 3.89367 56.4401 4.62395 56.4401 5.41061C56.4401 6.35674 55.7471 7.30308 54.7138 7.30308C54.1797 7.30308 53.8982 7.1295 53.7102 7.05045L53.4939 7.21613L53.3427 7.13713C53.4067 6.71095 53.4435 6.29186 53.4435 5.85151V2.74562C53.4435 2.27587 53.3345 2.2614 53.0603 2.18211V2.06657C53.35 1.97286 53.6524 1.84258 53.8042 1.75565C53.8838 1.7126 53.9413 1.67609 53.9636 1.67609C54.0067 1.67609 54.0211 1.71971 54.0211 1.77773V4.41383H54.0212V4.41386ZM54.0212 6.37826C54.0212 6.65294 54.2809 7.11563 54.7648 7.11563C55.5376 7.11563 55.8624 6.35674 55.8624 5.71368C55.8624 4.9338 55.2708 4.2839 54.7073 4.2839C54.4394 4.2839 54.216 4.45748 54.0212 4.62395L54.0212 6.37826Z" fill="#EBEBEB"/>
<path d="M22.8647 11.3943H22.9201C23.0612 11.3943 23.2105 11.3753 23.2105 11.1706V9.11166C23.2105 8.90672 23.0612 8.8874 22.9201 8.8874H22.8647V8.76941C23.0182 8.76941 23.2539 8.78494 23.4471 8.78494C23.6433 8.78494 23.8787 8.76941 24.0634 8.76941V8.8874H24.0081C23.8672 8.8874 23.7177 8.90675 23.7177 9.11166V11.1706C23.7177 11.3753 23.8672 11.3943 24.0081 11.3943H24.0634V11.5129C23.8749 11.5129 23.6386 11.4974 23.4427 11.4974C23.2501 11.4974 23.0182 11.5129 22.8647 11.5129V11.3943Z" fill="#EBEBEB"/>
<path d="M24.0635 11.5295C23.8735 11.5295 23.6381 11.5137 23.4425 11.5137C23.2503 11.5137 23.0193 11.5295 22.8648 11.5295H22.8479V11.5126V11.3946V11.3775H22.8648H22.9198C23.0623 11.3742 23.1921 11.3627 23.1934 11.1706V9.11164C23.1921 8.91954 23.0624 8.9067 22.9198 8.90401H22.8479V8.88741V8.75195H22.8648C23.0193 8.75195 23.2547 8.76749 23.4468 8.76749C23.6425 8.76749 23.8777 8.75195 24.0635 8.75195H24.0809V8.76994V8.90401H24.0635H24.0084C23.8659 8.90673 23.7354 8.91954 23.7346 9.11164V11.1706C23.7354 11.3627 23.8659 11.3742 24.0084 11.3775H24.0809V11.3946V11.5295H24.0635ZM24.0466 11.496V11.412H24.0084C23.8681 11.412 23.7011 11.3878 23.7002 11.1706V9.11164C23.7011 8.89447 23.8681 8.86994 24.0084 8.86994H24.0466V8.78656C23.8651 8.78656 23.6376 8.80182 23.4468 8.80182C23.2602 8.80182 23.0343 8.78765 22.8822 8.78656V8.86994H22.9198C23.0599 8.86994 23.2275 8.89447 23.2275 9.11164V11.1706C23.2275 11.3878 23.0599 11.412 22.9198 11.412H22.8822V11.496C23.0343 11.4943 23.2563 11.4802 23.4425 11.4802C23.6337 11.4802 23.8613 11.4949 24.0466 11.496Z" fill="#EBEBEB"/>
<path d="M26.7632 10.7381L26.7711 10.7305V9.25687C26.7711 8.93423 26.5469 8.88736 26.4291 8.88736H26.3425V8.76935C26.5275 8.76935 26.7081 8.78488 26.8926 8.78488C27.0536 8.78488 27.2155 8.76935 27.3763 8.76935V8.88736H27.3174C27.152 8.88736 26.9673 8.91867 26.9673 9.3863V11.1749C26.9673 11.3123 26.9713 11.4496 26.9907 11.5715H26.8411L24.8179 9.31548V10.9349C24.8179 11.2769 24.8841 11.3943 25.1871 11.3943H25.2535V11.5129C25.0849 11.5129 24.9162 11.4973 24.747 11.4973C24.5707 11.4973 24.3898 11.5129 24.2126 11.5129V11.3943H24.2677C24.5388 11.3943 24.6211 11.2101 24.6211 10.8959V9.24054C24.6211 9.02064 24.4399 8.88739 24.2639 8.88739H24.2127V8.7694C24.362 8.7694 24.5151 8.78491 24.6642 8.78491C24.7822 8.78491 24.8964 8.7694 25.014 8.7694L26.7632 10.7381Z" fill="#EBEBEB"/>
<path d="M26.9904 11.5886L26.8283 11.5826L24.8341 9.35989V10.9349C24.8388 11.2766 24.8908 11.3736 25.1868 11.3774H25.271V11.3943V11.5295H25.2535C25.0835 11.5295 24.9143 11.5137 24.7467 11.5137C24.5706 11.5137 24.3902 11.5295 24.212 11.5295H24.1949V11.5126V11.3774H24.212H24.2673C24.527 11.3761 24.6011 11.2093 24.6041 10.8959V9.24081C24.6036 9.03154 24.4319 8.90455 24.2635 8.90401H24.1948V8.88657V8.7525H24.212C24.3622 8.7525 24.5161 8.76749 24.6635 8.76749C24.7804 8.76749 24.8943 8.7525 25.0267 8.75823L26.7538 10.7025V9.25719C26.7516 8.94437 26.5432 8.90676 26.4287 8.90401H26.3246V8.88657V8.7525H26.3421C26.5277 8.7525 26.7086 8.76749 26.8922 8.76749C27.0522 8.76749 27.2132 8.7525 27.3756 8.7525H27.3928V8.7694V8.90398H27.3756H27.3171C27.1549 8.90864 26.9884 8.92278 26.9838 9.3863V11.1747C26.9838 11.312 26.9879 11.4493 27.007 11.5684L27.0108 11.5886H26.9904V11.5886ZM26.8411 11.554H26.9711C26.9534 11.436 26.9504 11.3052 26.9504 11.1747V9.3863C26.9504 8.91461 27.1479 8.86995 27.3171 8.86995H27.3586V8.78654C27.2038 8.78763 27.0485 8.8018 26.8923 8.8018C26.7125 8.8018 26.5376 8.78763 26.3596 8.78654L26.3593 8.86995H26.4288C26.5495 8.86995 26.788 8.92387 26.788 9.25716L26.7825 10.7422L26.7746 10.7504L26.7613 10.7627L25.0138 8.78654C24.8972 8.78654 24.7832 8.8018 24.6636 8.8018C24.5195 8.8018 24.3721 8.78763 24.2295 8.78654L24.2287 8.86992H24.2636C24.4481 8.86992 24.6375 9.0108 24.6375 9.24078V10.8959C24.6375 11.2101 24.55 11.4112 24.2674 11.4123L24.2295 11.4112V11.4959C24.3998 11.4943 24.5748 11.4801 24.7467 11.4801C24.9108 11.4801 25.074 11.4943 25.2364 11.4959V11.4123H25.1868C24.8775 11.4112 24.8007 11.2766 24.8004 10.9348V9.27128L26.8411 11.554ZM26.7539 10.7303V10.7289L26.7506 10.7261L26.7539 10.7303Z" fill="#EBEBEB"/>
<path d="M27.9643 8.96558C27.6692 8.96558 27.658 9.03646 27.5992 9.3231H27.4812C27.4967 9.21328 27.5164 9.10347 27.5283 8.98902C27.5441 8.87893 27.5517 8.76936 27.5517 8.65549H27.6463C27.6779 8.77348 27.776 8.76939 27.8826 8.76939H29.9097C30.0159 8.76939 30.114 8.76557 30.1222 8.64734L30.2159 8.66314C30.2007 8.76939 30.1849 8.87542 30.1729 8.98166C30.1658 9.08769 30.1658 9.19393 30.1658 9.29966L30.0475 9.34353C30.0393 9.19829 30.0197 8.96558 29.7568 8.96558H29.1123V11.0567C29.1123 11.3597 29.25 11.3943 29.438 11.3943H29.5129V11.5129C29.3597 11.5129 29.0843 11.4973 28.8725 11.4973C28.6368 11.4973 28.3613 11.5129 28.2079 11.5129V11.3943H28.2829C28.4995 11.3943 28.609 11.375 28.609 11.0649V8.96558H27.9643Z" fill="#EBEBEB"/>
<path d="M29.5136 11.5295C29.3588 11.5295 29.0838 11.5137 28.8726 11.5137C28.6372 11.5137 28.3623 11.5295 28.208 11.5295H28.1917V11.5129V11.3774H28.208H28.283C28.4996 11.3723 28.5868 11.3695 28.5917 11.0649V8.98277H27.9644V8.96557V8.94813H28.6258V11.0649C28.6258 11.3801 28.4988 11.412 28.283 11.4123H28.2252V11.4951C28.3803 11.4943 28.6446 11.4801 28.8727 11.4801C29.0776 11.4801 29.3403 11.4943 29.4956 11.4951V11.4123H29.4381C29.2482 11.412 29.0953 11.3654 29.0953 11.0567V8.94813H29.7569C30.0207 8.94922 30.055 9.17348 30.0637 9.31927L30.1485 9.28793C30.1485 9.18547 30.149 9.08274 30.1561 8.9792C30.1676 8.8781 30.182 8.77782 30.1967 8.67755L30.1367 8.66746C30.1185 8.78191 30.0081 8.78763 29.9092 8.78654H27.8827H27.8622C27.7699 8.78654 27.6688 8.78218 27.6336 8.6724H27.5688C27.5682 8.78112 27.5606 8.88658 27.5456 8.99119C27.5341 9.09912 27.5161 9.20294 27.5014 9.30676H27.5857C27.6374 9.03288 27.6712 8.94405 27.9644 8.94816V8.9656V8.98277C27.6739 8.98794 27.6799 9.03699 27.6159 9.32747L27.6129 9.34082H27.5993H27.4617L27.4639 9.32039C27.4797 9.2103 27.4996 9.10073 27.5113 8.98628C27.5276 8.87728 27.5352 8.76829 27.5352 8.65547V8.63831H27.5519H27.6598L27.6625 8.65057C27.6895 8.74976 27.7622 8.7503 27.8622 8.75194H27.8827H29.9092C30.0188 8.7503 30.0983 8.74867 30.1051 8.64591L30.1068 8.62738L30.1245 8.63119L30.2354 8.64866L30.2329 8.66583C30.2171 8.77101 30.2016 8.87728 30.1901 8.98274C30.1822 9.08738 30.1822 9.19365 30.1822 9.29965V9.31191L30.1713 9.31627L30.0321 9.36693L30.031 9.34404C30.0207 9.19635 30.0051 8.98271 29.7569 8.98271H29.1296V11.0567C29.1331 11.3531 29.2508 11.3736 29.438 11.3774H29.5301V11.3943V11.5294L29.5136 11.5295Z" fill="#EBEBEB"/>
<path d="M30.3418 11.3943H30.3971C30.5383 11.3943 30.6878 11.3753 30.6878 11.1706V9.11166C30.6878 8.90672 30.5383 8.8874 30.3971 8.8874H30.3418V8.76941C30.581 8.76941 30.9904 8.78494 31.3198 8.78494C31.6506 8.78494 32.0585 8.76941 32.3255 8.76941C32.319 8.93808 32.3226 9.19804 32.3342 9.37056L32.2157 9.40214C32.1969 9.14684 32.1498 8.94274 31.7369 8.94274H31.1912V9.97195H31.6582C31.8939 9.97195 31.9454 9.8387 31.9686 9.62591H32.0863C32.0787 9.77984 32.0746 9.93301 32.0746 10.0862C32.0746 10.2358 32.0787 10.3848 32.0863 10.5341L31.9686 10.5575C31.9454 10.3219 31.9335 10.1687 31.662 10.1687H31.1912V11.084C31.1912 11.3399 31.4182 11.3399 31.67 11.3399C32.1416 11.3399 32.3495 11.308 32.4675 10.8606L32.5777 10.8875C32.5261 11.0963 32.4793 11.3042 32.4444 11.5129C32.1926 11.5129 31.7405 11.4974 31.3874 11.4974C31.0331 11.4974 30.5658 11.5129 30.3418 11.5129V11.3943Z" fill="#EBEBEB"/>
<path d="M32.4438 11.5295C32.1915 11.5295 31.7397 11.5134 31.3869 11.5134C31.0329 11.5134 30.5658 11.5295 30.3415 11.5295H30.325V11.5129V11.3943V11.3774H30.3415H30.3966C30.5391 11.3753 30.6683 11.3627 30.6702 11.1706V9.11162C30.6683 8.91979 30.5391 8.90698 30.3966 8.90398H30.325V8.88739V8.7525H30.3415C30.5813 8.7525 30.9901 8.76749 31.3195 8.76749C31.65 8.76749 32.0577 8.7525 32.3253 8.7525H32.343L32.3422 8.76994C32.3394 8.82907 32.3384 8.8988 32.3384 8.97295C32.3384 9.1089 32.3422 9.25741 32.3501 9.36943L32.3506 9.3836L32.3376 9.38744L32.1994 9.42341L32.1986 9.40324C32.1755 9.14819 32.1414 8.96317 31.7368 8.95935H31.2073L31.2067 9.95423H31.658C31.8842 9.95205 31.9248 9.83624 31.9515 9.62451L31.9529 9.60898H31.9681H32.1036L32.1033 9.62666C32.0957 9.7798 32.0907 9.93294 32.0907 10.0861C32.0907 10.2349 32.0957 10.3839 32.1033 10.5335L32.1036 10.5474L32.0894 10.5507L31.9529 10.5779L31.9515 10.5594C31.9245 10.3196 31.9226 10.1883 31.6615 10.1853L31.2073 10.185V11.084C31.2076 11.3227 31.4136 11.3213 31.6697 11.3227C32.1428 11.3199 32.3324 11.2971 32.451 10.8556L32.4548 10.8398L32.4714 10.8428L32.5973 10.8752L32.5935 10.8916C32.5428 11.0998 32.4957 11.3074 32.4605 11.5156L32.4572 11.5295H32.4438ZM32.4294 11.4952C32.4635 11.297 32.5084 11.0981 32.5567 10.9003L32.479 10.8806C32.3613 11.3205 32.1334 11.3597 31.6697 11.3567C31.4223 11.3567 31.1743 11.3567 31.1732 11.0839V10.1515H31.6615C31.9359 10.1485 31.964 10.3141 31.9833 10.5379L32.0684 10.5202C32.0607 10.3754 32.0572 10.2302 32.0572 10.0861C32.0572 9.9381 32.0607 9.79098 32.0684 9.64298H31.9833C31.9615 9.84763 31.8975 9.9915 31.658 9.98878H31.1732V8.92496H31.7368C32.1455 8.92221 32.2133 9.13315 32.2308 9.3803L32.3155 9.35741C32.3087 9.24651 32.304 9.10426 32.304 8.97292C32.304 8.90562 32.3057 8.84213 32.3079 8.78654C32.0409 8.78763 31.643 8.8018 31.3196 8.8018C30.9966 8.8018 30.5991 8.78763 30.3585 8.78654V8.86992H30.3966C30.5367 8.86992 30.704 8.89444 30.7045 9.11162V11.1706C30.704 11.3872 30.5367 11.4112 30.3966 11.4123H30.3585V11.4952C30.5877 11.4949 31.0416 11.4802 31.3868 11.4802C31.7334 11.4802 32.176 11.4949 32.4294 11.4952Z" fill="#EBEBEB"/>
<path d="M33.1079 9.18575C33.1079 8.89908 32.951 8.88737 32.8286 8.88737H32.7581V8.7691C32.8839 8.7691 33.1273 8.78491 33.3671 8.78491C33.6028 8.78491 33.7916 8.7691 33.9996 8.7691C34.4944 8.7691 34.935 8.9029 34.935 9.46151C34.935 9.81439 34.6993 10.0307 34.3889 10.1531L35.0606 11.1586C35.1707 11.3248 35.2489 11.3714 35.4418 11.3943V11.5128C35.3121 11.5128 35.1862 11.4973 35.0568 11.4973C34.935 11.4973 34.8088 11.5128 34.6875 11.5128C34.3851 11.1158 34.1251 10.6913 33.8698 10.2389H33.6112V11.0804C33.6112 11.3834 33.7521 11.3943 33.9327 11.3943H34.0036V11.5129C33.7791 11.5129 33.5521 11.4973 33.3278 11.4973C33.139 11.4973 32.9542 11.5129 32.7581 11.5129V11.3943H32.8286C32.9747 11.3943 33.1079 11.3284 33.1079 11.1826V9.18575ZM33.6112 10.0975H33.803C34.1963 10.0975 34.408 9.94821 34.408 9.4844C34.408 9.13506 34.1843 8.9108 33.8341 8.9108C33.7161 8.9108 33.666 8.92306 33.6111 8.92661V10.0975H33.6112Z" fill="#EBEBEB"/>
<path d="M35.4417 11.5295C35.3101 11.5295 35.185 11.5137 35.0559 11.5137C34.936 11.5137 34.8106 11.5295 34.6736 11.5229C34.3722 11.1276 34.1139 10.7055 33.8599 10.2564H33.6277V11.0799C33.6318 11.3756 33.7506 11.3731 33.9324 11.3775H34.0204V11.3944V11.5295H34.0029C33.7784 11.5295 33.5504 11.5137 33.3272 11.5137C33.1394 11.5137 32.9552 11.5295 32.7579 11.5295H32.7407V11.5126V11.3775H32.7579H32.8285C32.9702 11.3766 33.0895 11.3151 33.0901 11.1826V9.18582C33.0871 8.90679 32.9506 8.9084 32.8285 8.90434H32.7407V8.88744V8.75201H32.7579C32.8852 8.75201 33.1277 8.76752 33.3669 8.76752C33.6015 8.76752 33.7904 8.75201 33.9997 8.75201C34.4948 8.7531 34.951 8.8899 34.9523 9.4605C34.9523 9.81556 34.7177 10.0371 34.4144 10.1608L35.0747 11.1494C35.1845 11.3123 35.2529 11.353 35.4442 11.3775L35.4586 11.3796V11.3944V11.5295H35.4417V11.5295ZM33.6106 10.222H33.8793L33.8839 10.2308C34.14 10.6823 34.3981 11.1063 34.6875 11.4959C34.8074 11.4959 34.9335 11.4799 35.0559 11.4799C35.1815 11.4799 35.3025 11.4935 35.4248 11.4954V11.4093C35.2403 11.3864 35.154 11.3314 35.0466 11.1681L34.3629 10.1449L34.3823 10.137C34.6897 10.016 34.9172 9.80594 34.9175 9.46039C34.9172 8.91513 34.4937 8.78872 33.9997 8.78654C33.7923 8.78654 33.6037 8.80207 33.3669 8.80207C33.1362 8.80207 32.9032 8.78763 32.7745 8.78654V8.86992H32.8285C32.9506 8.87022 33.1244 8.89036 33.1244 9.18577V11.1826C33.1244 11.3403 32.9764 11.4123 32.8285 11.4126H32.7745V11.4954C32.9637 11.4948 33.1427 11.4799 33.3272 11.4799C33.547 11.4799 33.7686 11.4949 33.9861 11.4954V11.4126H33.9324C33.7531 11.4123 33.5934 11.3899 33.5934 11.0798V10.222H33.6105H33.6106ZM33.6106 10.1141H33.5934V8.9108L33.6084 8.90943C33.6621 8.90537 33.7152 8.89417 33.834 8.89417C34.1921 8.89417 34.4248 9.12688 34.4253 9.48518C34.4242 9.95442 34.1992 10.1138 33.8029 10.1141H33.6106V10.1141ZM33.8029 10.0804C34.192 10.0771 34.3877 9.94194 34.3918 9.48521C34.3896 9.14187 34.1763 8.92878 33.834 8.92742C33.7277 8.92742 33.6779 8.93723 33.6277 8.94161V10.0804H33.8029Z" fill="#EBEBEB"/>
<path d="M38.1098 10.7381L38.1169 10.7305V9.25687C38.1169 8.93423 37.8932 8.88736 37.7755 8.88736H37.6894V8.76935C37.8739 8.76935 38.0543 8.78488 38.2393 8.78488C38.4006 8.78488 38.5611 8.76935 38.7232 8.76935V8.88736H38.6641C38.499 8.88736 38.3142 8.91867 38.3142 9.3863V11.1749C38.3142 11.3123 38.3181 11.4496 38.3374 11.5715H38.1883L36.1648 9.31548V10.9349C36.1648 11.2769 36.2315 11.3943 36.534 11.3943H36.6008V11.5129C36.4321 11.5129 36.2629 11.4973 36.0942 11.4973C35.9168 11.4973 35.7361 11.5129 35.5596 11.5129V11.3943H35.6141C35.8855 11.3943 35.968 11.2101 35.968 10.8959V9.24054C35.968 9.02064 35.7873 8.88739 35.6108 8.88739H35.5596V8.7694C35.7084 8.7694 35.8623 8.78491 36.0114 8.78491C36.1286 8.78491 36.243 8.7694 36.361 8.7694L38.1098 10.7381Z" fill="#EBEBEB"/>
<path d="M38.3375 11.5883L38.1757 11.5829L36.1813 9.35989V10.9346C36.1859 11.2766 36.2377 11.3736 36.5342 11.3774H36.6173V11.3943V11.5295H36.6001C36.4301 11.5295 36.2617 11.5134 36.0933 11.5134C35.9178 11.5134 35.7363 11.5295 35.5595 11.5295H35.5417V11.5129V11.3774H35.5595H35.614C35.8734 11.3763 35.9478 11.2093 35.9502 10.8948V9.24053C35.9499 9.03123 35.7786 8.90428 35.6107 8.90398H35.5417V8.88738V8.75195H35.5595C35.7093 8.75195 35.863 8.76746 36.0113 8.76746C36.1268 8.76746 36.2407 8.75195 36.3726 8.75738L38.0999 10.7025V9.25658C38.0988 8.94431 37.8896 8.90561 37.7754 8.904H37.6716V8.88738V8.75195H37.6888C37.8746 8.75195 38.0555 8.76746 38.2392 8.76746C38.3994 8.76746 38.5605 8.75195 38.7223 8.75195H38.7394V8.76967V8.904H38.7223H38.664C38.5018 8.90836 38.3348 8.92278 38.3307 9.38632V11.1747C38.3307 11.312 38.3343 11.4482 38.3542 11.5692L38.3563 11.5883H38.3375ZM38.1882 11.554H38.3174C38.3002 11.436 38.2964 11.3052 38.2964 11.1747V9.38629C38.2966 8.91458 38.4956 8.87101 38.664 8.86964H38.7051V8.78653C38.5509 8.78762 38.3953 8.80179 38.2391 8.80179C38.0588 8.80179 37.8835 8.78762 37.7056 8.78653V8.86964H37.7754C37.8963 8.87101 38.1345 8.92387 38.1345 9.25658L38.1291 10.7422L38.1214 10.7504L38.1095 10.7629L36.3606 8.78656C36.244 8.78656 36.1301 8.80182 36.0113 8.80182C35.8658 8.80182 35.7189 8.78765 35.5758 8.78656V8.86967H35.6107C35.7952 8.87103 35.9846 9.01028 35.9846 9.24053V10.8948C35.9846 11.2104 35.8957 11.4112 35.614 11.4123L35.5758 11.412V11.4951C35.7456 11.4943 35.9208 11.4801 36.0933 11.4801C36.2582 11.4801 36.4214 11.4943 36.5838 11.4951V11.4123H36.5342C36.2247 11.412 36.1473 11.2766 36.1467 10.9346V9.27184L38.1882 11.554ZM38.0999 10.7305V10.7291L38.0969 10.7261L38.0999 10.7305Z" fill="#EBEBEB"/>
<path d="M39.3551 10.9507C39.3153 11.084 39.2679 11.187 39.2679 11.257C39.2679 11.3753 39.4333 11.3943 39.5625 11.3943H39.6063V11.5129C39.4488 11.5044 39.2883 11.4974 39.13 11.4974C38.9886 11.4974 38.848 11.5045 38.7063 11.5129V11.3943H38.73C38.8831 11.3943 39.0131 11.3041 39.0711 11.1387L39.7006 9.33536C39.7513 9.18985 39.8227 8.99338 39.8464 8.84762C39.9715 8.80484 40.129 8.72636 40.2034 8.67895C40.2156 8.67489 40.2225 8.67078 40.2347 8.67078C40.2465 8.67078 40.2541 8.67078 40.2628 8.68304C40.2742 8.7141 40.2857 8.7498 40.2982 8.78114L41.0211 10.8368C41.0683 10.9742 41.1148 11.1194 41.1659 11.2377C41.2133 11.3478 41.2961 11.3943 41.4261 11.3943H41.4492V11.5129C41.2724 11.5044 41.0953 11.4974 40.9073 11.4974C40.7146 11.4974 40.5176 11.5045 40.3173 11.5129V11.3943H40.3609C40.4509 11.3943 40.6045 11.3791 40.6045 11.2807C40.6045 11.2298 40.5691 11.1238 40.5253 10.9976L40.3724 10.5417H39.4805L39.3551 10.9507ZM39.9284 9.2095H39.9205L39.5551 10.3218H40.2895L39.9284 9.2095Z" fill="#EBEBEB"/>
<path d="M41.4479 11.5295C41.2711 11.5216 41.0942 11.5134 40.907 11.5134C40.7144 11.5134 40.5187 11.5216 40.3176 11.5295L40.2999 11.5306V11.5129V11.3769H40.3171H40.3604C40.4514 11.3769 40.5866 11.3562 40.5866 11.2808C40.5877 11.236 40.5522 11.1281 40.5089 11.0031L40.3593 10.5586H39.4925L39.3704 10.9556C39.3306 11.0897 39.2835 11.1935 39.2838 11.2576C39.2851 11.3535 39.432 11.3769 39.5623 11.3769H39.6228V11.3946V11.5306L39.6051 11.5295C39.4478 11.5216 39.2873 11.5134 39.1307 11.5134C38.9898 11.5134 38.8481 11.5216 38.7072 11.5295L38.689 11.5306V11.5129V11.3769H38.7061H38.7296C38.8759 11.3764 38.998 11.2933 39.0547 11.1333L39.6838 9.3297C39.7354 9.18392 39.8062 8.98799 39.8403 8.83131C39.9634 8.78962 40.1212 8.7106 40.1969 8.66264C40.2078 8.65909 40.2188 8.65364 40.2349 8.65364C40.2444 8.65337 40.2656 8.65582 40.2782 8.67656C40.2893 8.70896 40.3016 8.74387 40.3136 8.77575L41.0373 10.8312C41.0837 10.9691 41.1305 11.1143 41.1818 11.2304C41.2273 11.3353 41.2995 11.3764 41.4259 11.377H41.466V11.3947V11.5307L41.4479 11.5295ZM40.3342 11.4944C40.5288 11.4876 40.7193 11.4799 40.907 11.4799C41.0896 11.4799 41.2604 11.4876 41.4313 11.4944V11.4123H41.4258C41.2913 11.4131 41.1983 11.3603 41.15 11.2445C41.0988 11.1251 41.0509 10.9794 41.0049 10.8417L40.2814 8.78659C40.2694 8.75526 40.258 8.71956 40.2476 8.69177C40.2443 8.68795 40.2451 8.68795 40.2419 8.68795H40.2347C40.2266 8.68795 40.222 8.6904 40.2119 8.69313C40.1361 8.74245 39.9784 8.81957 39.862 8.85036C39.8377 8.99914 39.7672 9.19533 39.7159 9.34085L39.087 11.1448C39.0271 11.3153 38.8895 11.4126 38.7295 11.4123H38.7233V11.4944C38.8579 11.4876 38.9941 11.4799 39.1306 11.4799C39.2824 11.4799 39.4377 11.4876 39.5876 11.4944V11.4123H39.5623C39.4345 11.4107 39.2557 11.3962 39.2508 11.2575C39.2511 11.1791 39.2993 11.0785 39.3377 10.9458L39.3549 10.951L39.3377 10.9453L39.4671 10.5251H40.3833L40.541 10.9922C40.5852 11.1183 40.6209 11.223 40.6209 11.2807C40.6154 11.4014 40.4495 11.4099 40.3604 11.4123H40.3342L40.3342 11.4944ZM39.5309 10.3387L39.9072 9.19231H39.9203H39.9285H39.9402L40.3132 10.3387H39.5309ZM39.5781 10.3046H40.2658L39.9238 9.25144L39.5781 10.3046Z" fill="#EBEBEB"/>
<path d="M41.6219 8.96558C41.3271 8.96558 41.3154 9.03646 41.2562 9.3231H41.1382C41.1537 9.21328 41.1736 9.10347 41.1859 8.98902C41.2017 8.87893 41.2088 8.76936 41.2088 8.65549H41.3036C41.335 8.77348 41.4336 8.76939 41.5391 8.76939H43.5672C43.6727 8.76939 43.7708 8.76557 43.779 8.64734L43.873 8.66314C43.858 8.76939 43.8425 8.87542 43.8304 8.98166C43.822 9.08769 43.822 9.19393 43.822 9.29966L43.7043 9.34353C43.6969 9.19829 43.6773 8.96558 43.4138 8.96558H42.7694V11.0567C42.7694 11.3597 42.9073 11.3943 43.0953 11.3943H43.1699V11.5129C43.0168 11.5129 42.7421 11.4973 42.5296 11.4973C42.2942 11.4973 42.0186 11.5129 41.8655 11.5129V11.3943H41.9399C42.1565 11.3943 42.2666 11.375 42.2666 11.0649V8.96558H41.6219Z" fill="#EBEBEB"/>
<path d="M43.1698 11.5295C43.0156 11.5295 42.7404 11.5137 42.5295 11.5137C42.2946 11.5137 42.0194 11.5295 41.8654 11.5295H41.848V11.5129V11.3775H41.8654H41.9398C42.1564 11.3723 42.2434 11.3696 42.2488 11.0649L42.2482 8.9828H41.6218V8.96561V8.94817H42.2829V11.0649C42.2829 11.3802 42.1556 11.4112 41.9398 11.4121H41.882V11.496C42.0376 11.4943 42.3014 11.4802 42.5295 11.4802C42.7346 11.4802 42.9974 11.4944 43.1527 11.496V11.4121H43.0946C42.9057 11.4112 42.7526 11.3657 42.7521 11.0567V8.94817H43.4137C43.6775 8.94926 43.7121 9.17352 43.7195 9.3193L43.8053 9.28797C43.8053 9.18551 43.8056 9.08278 43.8132 8.97978C43.8241 8.87868 43.8388 8.77786 43.8533 8.67755L43.7939 8.66747C43.7759 8.78192 43.665 8.78821 43.5671 8.78655H41.5389H41.5191C41.4264 8.78764 41.3261 8.78219 41.2904 8.67183H41.2261C41.225 8.78083 41.2176 8.88658 41.2021 8.99122C41.1918 9.0994 41.1724 9.20349 41.1577 9.30677H41.2419C41.294 9.03289 41.3281 8.94405 41.6218 8.94817V8.96561L41.6218 8.98277C41.3305 8.98771 41.337 9.037 41.2727 9.32748L41.2697 9.34083H41.2561H41.1182L41.1206 9.32118C41.137 9.21031 41.1566 9.10074 41.168 8.98711C41.1841 8.87729 41.1918 8.76829 41.1918 8.65548V8.63831H41.2086H41.316L41.3193 8.65058C41.3468 8.74976 41.4184 8.75031 41.519 8.75194L41.5389 8.75249H43.5671C43.6755 8.75034 43.7548 8.74867 43.7616 8.64624L43.7627 8.62744L43.7813 8.63128L43.8927 8.64872L43.8897 8.66589C43.8737 8.77107 43.8587 8.87735 43.8467 8.9828C43.8388 9.08744 43.8388 9.19398 43.8388 9.29971V9.31197L43.8276 9.31633L43.6884 9.36702L43.6876 9.3441C43.6775 9.19644 43.6619 8.98277 43.4137 8.98277H42.7862V11.0567C42.7903 11.3532 42.9077 11.3736 43.0946 11.3774H43.1867V11.3943V11.5295L43.1698 11.5295Z" fill="#EBEBEB"/>
<path d="M44.0181 11.3943H44.0731C44.2151 11.3943 44.3636 11.3753 44.3636 11.1706V9.11166C44.3636 8.90672 44.2151 8.8874 44.0731 8.8874H44.0181V8.76941C44.1715 8.76941 44.4069 8.78494 44.599 8.78494C44.7963 8.78494 45.032 8.76941 45.2168 8.76941V8.8874H45.1617C45.0203 8.8874 44.8705 8.90675 44.8705 9.11166V11.1706C44.8705 11.3753 45.0203 11.3943 45.1617 11.3943H45.2168V11.5129C45.0279 11.5129 44.7919 11.4974 44.5961 11.4974C44.4031 11.4974 44.1715 11.5129 44.0181 11.5129V11.3943Z" fill="#EBEBEB"/>
<path d="M45.2168 11.5295C45.0269 11.5295 44.7917 11.5134 44.5958 11.5134C44.4037 11.5134 44.1716 11.5295 44.0181 11.5295H44.001V11.5129V11.3943V11.3774H44.0181H44.0732C44.2151 11.3753 44.3454 11.363 44.346 11.1706V9.11162C44.3454 8.91979 44.2151 8.90668 44.0732 8.90398H44.001V8.88739V8.7525H44.0181C44.1716 8.7525 44.4075 8.76749 44.5991 8.76749C44.795 8.76749 45.0307 8.7525 45.2168 8.7525H45.2335V8.76937V8.90398H45.2168H45.1618C45.0182 8.90671 44.8893 8.91979 44.8874 9.11162V11.1706C44.8893 11.363 45.0182 11.3753 45.1618 11.3774H45.2335V11.3943V11.5295H45.2168ZM45.1991 11.4952V11.412H45.1618C45.0209 11.412 44.8542 11.3872 44.8542 11.1706V9.11162C44.8542 8.89444 45.0209 8.86992 45.1618 8.86992H45.1991V8.78654C45.0176 8.78763 44.7907 8.8018 44.5991 8.8018C44.413 8.8018 44.1876 8.78763 44.0353 8.78654V8.86992H44.0732C44.213 8.86992 44.3803 8.89444 44.3808 9.11162V11.1706C44.3803 11.3872 44.213 11.412 44.0732 11.412H44.0353V11.4952C44.1868 11.4935 44.4092 11.4801 44.5958 11.4801C44.7863 11.4801 45.0139 11.4943 45.1991 11.4952Z" fill="#EBEBEB"/>
<path d="M46.7838 8.71051C47.6215 8.71051 48.2891 9.22988 48.2891 10.0667C48.2891 10.9709 47.6408 11.5717 46.8043 11.5717C45.9704 11.5717 45.3345 11.0057 45.3345 10.1607C45.3345 9.34351 45.9666 8.71051 46.7838 8.71051ZM46.8432 11.3987C47.6057 11.3987 47.7384 10.7261 47.7384 10.1531C47.7384 9.57867 47.4289 8.88327 46.7762 8.88327C46.0885 8.88327 45.8844 9.49638 45.8844 10.0226C45.8844 10.7261 46.2064 11.3987 46.8432 11.3987Z" fill="#EBEBEB"/>
<path d="M45.3169 10.1607C45.3186 9.33399 45.9584 8.69445 46.7837 8.69336V8.71053V8.72712C45.9761 8.72712 45.351 9.35198 45.3502 10.1607C45.3521 10.9962 45.9791 11.5537 46.8042 11.554C47.6325 11.5537 48.2716 10.9613 48.2729 10.0659C48.2721 9.23971 47.6146 8.72821 46.7838 8.72712V8.71053V8.69336C47.6279 8.6939 48.3045 9.21845 48.3062 10.0659C48.3054 10.9796 47.6486 11.5867 46.8042 11.5883C45.9638 11.5867 45.3186 11.015 45.317 10.1607H45.3169V10.1607ZM45.8674 10.0226C45.8684 9.49397 46.075 8.86558 46.7764 8.86558C47.4435 8.86724 47.7549 9.57572 47.756 10.1531C47.7549 10.7262 47.6201 11.4151 46.8435 11.4151V11.3987V11.3818C47.5906 11.3807 47.7201 10.7262 47.7219 10.1531C47.7219 9.58335 47.4151 8.9013 46.7764 8.90045C46.1022 8.90127 45.9028 9.49912 45.9014 10.0226C45.902 10.7226 46.2211 11.3801 46.8435 11.3818V11.3987V11.4151C46.1911 11.4142 45.8684 10.7303 45.8674 10.0226Z" fill="#EBEBEB"/>
<path d="M50.9373 10.7381L50.9452 10.7305V9.25687C50.9452 8.93423 50.7207 8.88736 50.6027 8.88736H50.5176V8.76935C50.7018 8.76935 50.8825 8.78488 51.0667 8.78488C51.2283 8.78488 51.3893 8.76935 51.5506 8.76935V8.88736H51.4912C51.3266 8.88736 51.1416 8.91867 51.1416 9.3863V11.1749C51.1416 11.3123 51.1455 11.4496 51.1654 11.5715H51.0163L48.9922 9.31548V10.9349C48.9922 11.2769 49.0587 11.3943 49.3612 11.3943H49.4284V11.5129C49.2592 11.5129 49.0906 11.4973 48.9216 11.4973C48.7447 11.4973 48.5636 11.5129 48.3867 11.5129V11.3943H48.442C48.7137 11.3943 48.7952 11.2101 48.7952 10.8959V9.24054C48.7952 9.02064 48.6153 8.88739 48.4379 8.88739H48.3867V8.7694C48.536 8.7694 48.6894 8.78491 48.8385 8.78491C48.9565 8.78491 49.0701 8.7694 49.1884 8.7694L50.9373 10.7381Z" fill="#EBEBEB"/>
<path d="M51.1657 11.5883L51.003 11.5826L49.0092 9.35986V10.9349C49.0135 11.2766 49.0655 11.3733 49.3607 11.3769H49.4457V11.3946V11.5295H49.4285C49.2582 11.5295 49.0896 11.5137 48.9217 11.5137C48.7453 11.5137 48.565 11.5295 48.3865 11.5295H48.3701V11.5126V11.3769H48.3865H48.4421C48.7012 11.3761 48.7756 11.2093 48.7789 10.8959V9.24054C48.7783 9.03126 48.6069 8.90428 48.438 8.90401H48.3701V8.88739V8.7525H48.3865C48.5372 8.7525 48.6903 8.76752 48.8385 8.76752C48.9552 8.76752 49.0685 8.7525 49.2015 8.75825L50.928 10.7025V9.25719C50.9269 8.94439 50.7177 8.90676 50.6027 8.90404H50.4994V8.88744V8.75256H50.5171C50.7021 8.75256 50.8833 8.76754 51.0661 8.76754C51.2275 8.76754 51.3877 8.75256 51.5507 8.75256H51.5675V8.76942V8.90404H51.5507H51.4912C51.3296 8.90867 51.1624 8.92338 51.1591 9.38635V11.1747C51.1591 11.3121 51.162 11.4491 51.1812 11.5693L51.1844 11.5883H51.1657V11.5883ZM51.0164 11.554H51.145C51.1279 11.436 51.1248 11.3052 51.1248 11.1747V9.3863C51.1248 8.91379 51.323 8.87101 51.4914 8.86965H51.5338V8.78654C51.3788 8.78763 51.2235 8.8018 51.0663 8.8018C50.8875 8.8018 50.7117 8.78763 50.5338 8.78654V8.86965H50.6027C50.7246 8.87101 50.9616 8.92472 50.9616 9.25713L50.9573 10.7422L50.9499 10.7504L50.9374 10.7629L49.1886 8.78656C49.0727 8.78656 48.958 8.80182 48.8387 8.80182C48.6939 8.80182 48.5465 8.78765 48.4035 8.78656V8.86968H48.4381C48.6226 8.87104 48.8125 9.01028 48.8125 9.24054V10.8959C48.8125 11.2101 48.7248 11.4112 48.4422 11.4123L48.4035 11.412V11.4952C48.5741 11.4943 48.749 11.4802 48.9218 11.4802C49.0855 11.4802 49.2482 11.4943 49.4115 11.4952V11.4123H49.3607C49.0523 11.412 48.9752 11.2766 48.9752 10.9349V9.2713L51.0164 11.554ZM50.9281 10.7305V10.7291L50.9248 10.7261L50.9281 10.7305Z" fill="#EBEBEB"/>
<path d="M52.1821 10.9507C52.1437 11.084 52.096 11.187 52.096 11.257C52.096 11.3753 52.2614 11.3943 52.3903 11.3943H52.4342V11.5129C52.2769 11.5044 52.1157 11.4974 51.9584 11.4974C51.8164 11.4974 51.6755 11.5045 51.5347 11.5129V11.3943H51.557C51.711 11.3943 51.8412 11.3041 51.8993 11.1387L52.5288 9.33536C52.5794 9.18985 52.6505 8.99338 52.6735 8.84762C52.7993 8.80484 52.9563 8.72636 53.0317 8.67895C53.0429 8.67489 53.0508 8.67078 53.0628 8.67078C53.0746 8.67078 53.0819 8.67078 53.0898 8.68304C53.1018 8.7141 53.1141 8.7498 53.1258 8.78114L53.8484 10.8368C53.8956 10.9742 53.9425 11.1194 53.9942 11.2377C54.0414 11.3478 54.1242 11.3943 54.2534 11.3943H54.2774V11.5129C54.1002 11.5044 53.9234 11.4974 53.7346 11.4974C53.5424 11.4974 53.3457 11.5045 53.1451 11.5129V11.3943H53.1888C53.2784 11.3943 53.4326 11.3791 53.4326 11.2807C53.4326 11.2298 53.3969 11.1238 53.3531 10.9976L53.2005 10.5417H52.3083L52.1821 10.9507ZM52.7565 9.2095H52.7487L52.3827 10.3218H53.1181L52.7565 9.2095Z" fill="#EBEBEB"/>
<path d="M54.2758 11.5295C54.0989 11.5224 53.9224 11.5137 53.7346 11.5137C53.543 11.5137 53.3463 11.5224 53.1458 11.5295L53.1283 11.5306V11.5126V11.3774H53.1452H53.188C53.2795 11.3774 53.415 11.3562 53.4153 11.2807C53.416 11.236 53.3806 11.1289 53.3368 11.003L53.1875 10.5586H52.3201L52.1986 10.9556C52.1594 11.0902 52.1125 11.1935 52.1133 11.257C52.1133 11.3535 52.2604 11.3774 52.3904 11.3774H52.4503V11.3943V11.5306L52.4329 11.5295C52.2757 11.5224 52.1149 11.5137 51.9585 11.5137C51.8176 11.5137 51.6764 11.5224 51.5348 11.5295L51.5176 11.5306V11.5126V11.3774H51.5348H51.5571C51.7037 11.3769 51.8263 11.2927 51.8836 11.1333L52.5125 9.32965C52.5626 9.18387 52.6334 8.98795 52.6683 8.83181C52.7918 8.78903 52.9495 8.71055 53.0259 8.66256C53.0362 8.65902 53.0468 8.65439 53.0629 8.65439C53.0733 8.6533 53.0934 8.65575 53.1059 8.67728C53.1177 8.7081 53.1291 8.74376 53.1422 8.77565L53.8648 10.8311C53.9117 10.969 53.9589 11.1142 54.0098 11.2311C54.0558 11.3352 54.1275 11.3764 54.2529 11.3774H54.2937V11.3943V11.5306L54.2758 11.5295ZM53.1621 11.4949C53.3564 11.4875 53.5477 11.4799 53.7346 11.4799C53.9175 11.4799 54.0889 11.4875 54.26 11.4943L54.2594 11.4123H54.2529C54.1199 11.4126 54.027 11.3602 53.9782 11.2444C53.9264 11.1251 53.8796 10.9793 53.8327 10.8422L53.1095 8.78655C53.0978 8.75521 53.0858 8.71951 53.0763 8.69281C53.073 8.6879 53.0733 8.6879 53.0702 8.6879H53.0629C53.0547 8.6879 53.0503 8.69063 53.0408 8.69335C52.9642 8.74159 52.8067 8.82004 52.6904 8.85031C52.6661 8.99909 52.5947 9.19501 52.5441 9.3408L51.9149 11.1447C51.8552 11.3153 51.7179 11.4126 51.5571 11.4123H51.5513V11.4943C51.6865 11.4875 51.8217 11.4799 51.9585 11.4799C52.1108 11.4799 52.2658 11.4875 52.4171 11.4943V11.4123H52.3904C52.2626 11.4106 52.0833 11.3968 52.0787 11.257C52.0795 11.179 52.1282 11.079 52.1661 10.9458L52.1822 10.9509L52.1661 10.9452L52.2955 10.525H53.212L53.3694 10.9921C53.4128 11.1185 53.4485 11.2229 53.4485 11.2807C53.4427 11.4014 53.2779 11.4098 53.1879 11.4123H53.1621V11.4949H53.1621ZM52.3593 10.3384L52.7362 9.19229H52.7482H52.7566H52.7689L53.1403 10.3384H52.3593ZM52.4065 10.3046H53.0937L52.752 9.25197L52.4065 10.3046Z" fill="#EBEBEB"/>
<path d="M55.2674 11.1276C55.2674 11.2848 55.3764 11.3317 55.5023 11.3477C55.6634 11.3597 55.8402 11.3597 56.0217 11.3398C56.1863 11.32 56.328 11.2257 56.3983 11.1276C56.461 11.0409 56.4964 10.9308 56.5201 10.8444H56.634C56.591 11.0684 56.5359 11.2892 56.4885 11.5129C56.1435 11.5129 55.7969 11.4973 55.4516 11.4973C55.1053 11.4973 54.7601 11.5129 54.4143 11.5129V11.3943H54.4682C54.6105 11.3943 54.7642 11.3753 54.7642 11.1314V9.11166C54.7642 8.90672 54.6105 8.8874 54.4682 8.8874H54.4143V8.76941C54.6219 8.76941 54.8266 8.78494 55.0345 8.78494C55.2356 8.78494 55.4318 8.76941 55.6323 8.76941V8.8874H55.5334C55.3846 8.8874 55.2674 8.89176 55.2674 9.0994V11.1276Z" fill="#EBEBEB"/>
<path d="M56.4886 11.5295C56.1423 11.5295 55.7966 11.5137 55.4518 11.5137C55.1057 11.5137 54.7599 11.5295 54.4136 11.5295H54.397V11.5126V11.3775H54.4136H54.4684C54.6109 11.3742 54.7455 11.3644 54.7472 11.1314V9.11089C54.7455 8.91987 54.6117 8.90679 54.4684 8.90404H54.397V8.88745V8.75256H54.4136C54.6226 8.75256 54.8273 8.76755 55.0349 8.76755C55.2343 8.76755 55.4306 8.75256 55.6325 8.75256H55.6486V8.76946V8.90404H55.6325H55.5338C55.3815 8.9084 55.2867 8.90132 55.2837 9.09945V11.1276C55.2848 11.2739 55.3807 11.3135 55.5034 11.3306C55.5728 11.3355 55.6456 11.3385 55.7213 11.3385C55.8175 11.3385 55.9175 11.3339 56.0189 11.323C56.1791 11.3042 56.317 11.2118 56.3846 11.1181C56.4451 11.0342 56.48 10.9262 56.5034 10.8404L56.5069 10.8274H56.52H56.6549L56.6513 10.8481C56.607 11.0729 56.553 11.2925 56.5053 11.5162L56.5021 11.5296H56.4887H56.4886V11.5295ZM56.4745 11.4952C56.52 11.2821 56.5715 11.0736 56.6137 10.8611H56.5331C56.5085 10.9466 56.4736 11.0521 56.4118 11.1379C56.3385 11.2398 56.193 11.3357 56.0227 11.3567C55.9197 11.3674 55.8178 11.3728 55.7213 11.3728C55.6453 11.3728 55.5715 11.3693 55.5003 11.3643C55.3725 11.3502 55.2485 11.2957 55.2491 11.1276V9.09939C55.2491 8.88113 55.3872 8.86995 55.5338 8.86995H55.615V8.78657C55.4213 8.78766 55.2306 8.80208 55.0349 8.80208C54.8313 8.80208 54.6324 8.78766 54.4307 8.78657V8.86995H54.4684C54.6087 8.86995 54.7803 8.89448 54.7803 9.11084V11.1314C54.7803 11.3856 54.6095 11.412 54.4684 11.412H54.4307V11.4952C54.7706 11.4949 55.1104 11.4802 55.4518 11.4802C55.7932 11.4802 56.1344 11.4949 56.4745 11.4952Z" fill="#EBEBEB"/>
<path d="M56.5863 8.65765C56.8231 8.65765 57 8.83968 57 9.07293C57 9.3051 56.8231 9.48549 56.5863 9.48549C56.3495 9.48549 56.1724 9.3051 56.1724 9.07293C56.1723 8.83971 56.3495 8.65765 56.5863 8.65765ZM56.5863 9.40837C56.7713 9.40837 56.9136 9.25033 56.9136 9.07293C56.9136 8.89445 56.7735 8.73504 56.5863 8.73504C56.4002 8.73504 56.2579 8.89448 56.2579 9.07293C56.2579 9.25033 56.4002 9.40837 56.5863 9.40837ZM56.3803 9.29093V9.27049C56.4312 9.26341 56.4405 9.26504 56.4405 9.23343V8.92715C56.4405 8.88412 56.4358 8.86941 56.3822 8.87156V8.85058H56.5939C56.6669 8.85058 56.7337 8.88519 56.7337 8.96039C56.7337 9.02198 56.6928 9.06748 56.6358 9.0852L56.7037 9.18C56.7356 9.22305 56.7713 9.26341 56.795 9.27755V9.2909H56.7144C56.6757 9.2909 56.6419 9.20943 56.5655 9.10016H56.5198V9.23777C56.5198 9.26501 56.5293 9.26338 56.5803 9.27047V9.2909L56.3803 9.29093ZM56.5198 9.07293H56.5686C56.622 9.07293 56.647 9.03233 56.647 8.96721C56.647 8.90126 56.6083 8.87807 56.5658 8.87807H56.5198V9.07293Z" fill="#EBEBEB"/>
<path d="M14.1556 13.7337C17.9092 13.7516 21.3352 10.6725 21.3352 6.92651C21.3352 2.83012 17.9092 -0.00136198 14.1556 4.91485e-07H10.9252C7.12659 -0.00136198 4 2.83096 4 6.92651C4 10.6733 7.12659 13.7517 10.9252 13.7337H14.1556Z" fill="#0079BE"/>
<path d="M10.9405 0.567627C7.4695 0.568717 4.65682 3.38221 4.65601 6.85463C4.65682 10.3264 7.46947 13.1397 10.9405 13.1408C14.4124 13.1397 17.2256 10.3264 17.2261 6.85463C17.2256 3.38221 14.4124 0.568717 10.9405 0.567627ZM6.95694 6.85463C6.96021 5.15781 8.01994 3.71087 9.51429 3.13588V10.5725C8.01994 9.99784 6.96018 8.55169 6.95694 6.85463ZM12.3662 10.5741V3.13563C13.8611 3.70923 14.9225 5.15699 14.9252 6.85463C14.9225 8.55278 13.8611 9.99945 12.3662 10.5741Z" fill="white"/>
<path d="M23.5366 2.95469C23.5366 2.30504 23.1979 2.34782 22.8731 2.34076V2.15302C23.1546 2.16691 23.4431 2.16691 23.7252 2.16691C24.0285 2.16691 24.4402 2.15302 24.9748 2.15302C26.8447 2.15302 27.863 3.40213 27.863 4.68118C27.863 5.39648 27.4445 7.19466 24.8879 7.19466C24.5198 7.19466 24.18 7.18047 23.8407 7.18047C23.5159 7.18047 23.1979 7.18758 22.873 7.19466V7.00719C23.3061 6.96356 23.5159 6.94915 23.5366 6.45784L23.5366 2.95469ZM24.2446 6.34258C24.2446 6.89874 24.6421 6.96359 24.9958 6.96359C26.5561 6.96359 27.0684 5.78614 27.0684 4.7098C27.0684 3.35959 26.2016 2.38461 24.8081 2.38461C24.5116 2.38461 24.3754 2.40586 24.2446 2.41352L24.2446 6.34258Z" fill="#EBEBEB"/>
<path d="M28.1162 7.00719H28.253C28.4549 7.00719 28.5996 7.00719 28.5996 6.76818V4.81116C28.5996 4.49374 28.4914 4.44956 28.2241 4.30596V4.19015C28.5634 4.08824 28.9684 3.95199 28.9967 3.93019C29.0476 3.90131 29.0907 3.89368 29.1269 3.89368C29.1626 3.89368 29.1776 3.93728 29.1776 3.99532V6.76818C29.1776 7.00719 29.3365 7.00719 29.5387 7.00719H29.6613V7.19494C29.4155 7.19494 29.1626 7.18052 28.9032 7.18052C28.6432 7.18052 28.383 7.18761 28.1162 7.19494V7.00719H28.1162ZM28.8887 2.7816C28.7007 2.7816 28.5351 2.60832 28.5351 2.42055C28.5351 2.23961 28.7084 2.07312 28.8887 2.07312C29.0759 2.07312 29.2427 2.22547 29.2427 2.42055C29.2427 2.61565 29.0833 2.7816 28.8887 2.7816Z" fill="#EBEBEB"/>
<path d="M30.3475 4.85422C30.3475 4.58717 30.2676 4.51523 29.9289 4.3779V4.24086C30.2393 4.13977 30.535 4.04576 30.8818 3.8937C30.9034 3.8937 30.9246 3.90842 30.9246 3.96591V4.43567C31.3369 4.13977 31.6909 3.89368 32.1754 3.89368C32.7885 3.89368 33.0051 4.34163 33.0051 4.90487V6.76821C33.0051 7.00719 33.1639 7.00719 33.3664 7.00719H33.4964V7.19494C33.243 7.19494 32.9904 7.18052 32.731 7.18052C32.4707 7.18052 32.2105 7.18761 31.9508 7.19494V7.00719H32.0805C32.2832 7.00719 32.4269 7.00719 32.4269 6.76821V4.89806C32.4269 4.48578 32.1754 4.28386 31.763 4.28386C31.5323 4.28386 31.1638 4.47164 30.9246 4.63074V6.76816C30.9246 7.00716 31.0842 7.00716 31.2868 7.00716H31.4165V7.19491C31.1638 7.19491 30.9107 7.18047 30.6508 7.18047C30.391 7.18047 30.1306 7.18758 29.8708 7.19491V7.00716H30.0011C30.2033 7.00716 30.3474 7.00716 30.3474 6.76816V4.85422H30.3475Z" fill="#EBEBEB"/>
<path d="M34.0453 5.20137C34.0303 5.26653 34.0303 5.37468 34.0453 5.62047C34.0878 6.30633 34.5295 6.86961 35.1064 6.86961C35.5039 6.86961 35.8151 6.65297 36.0819 6.38593L36.1827 6.4873C35.8503 6.92765 35.4388 7.30312 34.847 7.30312C33.6984 7.30312 33.4673 6.19053 33.4673 5.72868C33.4673 4.31277 34.4205 3.89368 34.9257 3.89368C35.511 3.89368 36.1397 4.26184 36.1465 5.02752C36.1465 5.07139 36.1465 5.11418 36.1397 5.15805L36.0743 5.20137H34.0453ZM35.3238 4.97005C35.5039 4.97005 35.5252 4.87604 35.5252 4.78966C35.5252 4.42122 35.3015 4.12502 34.8968 4.12502C34.4568 4.12502 34.1535 4.44956 34.0668 4.97005H35.3238Z" fill="#EBEBEB"/>
<path d="M36.3127 7.00722H36.5078C36.7094 7.00722 36.8539 7.00722 36.8539 6.76821V4.73895C36.8539 4.51523 36.5871 4.47164 36.4784 4.41387V4.30596C37.0057 4.0817 37.2948 3.89368 37.3605 3.89368C37.4032 3.89368 37.4245 3.91548 37.4245 3.98796V4.63786H37.4398C37.6199 4.35637 37.9237 3.89368 38.3638 3.89368C38.5444 3.89368 38.7753 4.0163 38.7753 4.27653C38.7753 4.47164 38.6385 4.64549 38.4363 4.64549C38.2115 4.64549 38.2115 4.47164 37.9592 4.47164C37.8363 4.47164 37.4322 4.63786 37.4322 5.07139V6.76821C37.4322 7.00719 37.5763 7.00719 37.7788 7.00719H38.1829V7.19496C37.7856 7.18758 37.4834 7.18052 37.1722 7.18052C36.8763 7.18052 36.5727 7.18761 36.3128 7.19496L36.3127 7.00722Z" fill="#EBEBEB"/>
<path d="M39.0934 6.1905C39.1875 6.66736 39.476 7.07204 40.0035 7.07204C40.4286 7.07204 40.5877 6.81208 40.5877 6.55921C40.5877 5.70685 39.0138 5.98125 39.0138 4.81852C39.0138 4.41387 39.3392 3.89368 40.1332 3.89368C40.3641 3.89368 40.6744 3.95907 40.9559 4.10377L41.0071 4.8398H40.8406C40.7687 4.38525 40.5161 4.12505 40.0534 4.12505C39.7645 4.12505 39.4904 4.2913 39.4904 4.60164C39.4904 5.44746 41.1657 5.18669 41.1657 6.32053C41.1657 6.79712 40.7828 7.30314 39.9234 7.30314C39.6346 7.30314 39.2953 7.20205 39.0427 7.0579L38.9631 6.22709L39.0934 6.1905Z" fill="#EBEBEB"/>
<path d="M47.6866 3.4604H47.5065C47.3692 2.61567 46.7697 2.27587 45.9612 2.27587C45.1301 2.27587 43.9241 2.83173 43.9241 4.56509C43.9241 6.02511 44.9647 7.072 46.0765 7.072C46.7912 7.072 47.3839 6.58097 47.5283 5.82237L47.694 5.86543L47.5283 6.91995C47.225 7.10824 46.4089 7.3031 45.9318 7.3031C44.2423 7.3031 43.1738 6.21234 43.1738 4.58716C43.1738 3.10643 44.4951 2.04425 45.9105 2.04425C46.4953 2.04425 47.0585 2.23282 47.6147 2.42792L47.6866 3.4604Z" fill="#EBEBEB"/>
<path d="M47.9473 7.00718H48.0841C48.2866 7.00718 48.4315 7.00718 48.4315 6.76817V2.74565C48.4315 2.27587 48.3231 2.2614 48.0484 2.18211V2.06657C48.3372 1.97286 48.6405 1.84258 48.7923 1.75568C48.871 1.71263 48.9294 1.67609 48.9506 1.67609C48.9948 1.67609 49.0092 1.71971 49.0092 1.77773V6.76817C49.0092 7.00718 49.1678 7.00718 49.3703 7.00718H49.4921V7.19493C49.2476 7.19493 48.9948 7.18048 48.7345 7.18048C48.4749 7.18048 48.2149 7.1876 47.9473 7.19493V7.00718H47.9473Z" fill="#EBEBEB"/>
<path d="M52.5841 6.79709C52.5841 6.92762 52.6631 6.9347 52.7857 6.9347C52.8726 6.9347 52.9806 6.92762 53.0748 6.92762V7.07967C52.764 7.10828 52.1718 7.26006 52.0344 7.30312L51.9982 7.28129V6.69682C51.5655 7.05049 51.2328 7.30312 50.7197 7.30312C50.3297 7.30312 49.9254 7.05049 49.9254 6.44419V4.5945C49.9254 4.40675 49.8968 4.22606 49.4929 4.19012V4.05278C49.7532 4.0457 50.3298 4.00235 50.424 4.00235C50.5042 4.00235 50.5042 4.05278 50.5042 4.21165V6.07466C50.5042 6.29186 50.5042 6.91285 51.132 6.91285C51.3775 6.91285 51.7023 6.7251 52.0053 6.47305V4.52908C52.0053 4.3852 51.659 4.3059 51.3996 4.23339V4.10341C52.0487 4.05982 52.4538 4.00232 52.5255 4.00232C52.5841 4.00232 52.5841 4.05273 52.5841 4.13257L52.5841 6.79709Z" fill="#EBEBEB"/>
<path d="M54.0212 4.41386C54.3098 4.16831 54.6997 3.89367 55.0972 3.89367C55.9351 3.89367 56.4401 4.62395 56.4401 5.41061C56.4401 6.35674 55.7471 7.30308 54.7138 7.30308C54.1797 7.30308 53.8982 7.1295 53.7102 7.05045L53.4939 7.21613L53.3427 7.13713C53.4067 6.71095 53.4435 6.29186 53.4435 5.85151V2.74562C53.4435 2.27587 53.3345 2.2614 53.0603 2.18211V2.06657C53.35 1.97286 53.6524 1.84258 53.8042 1.75565C53.8838 1.7126 53.9413 1.67609 53.9636 1.67609C54.0067 1.67609 54.0211 1.71971 54.0211 1.77773V4.41383H54.0212V4.41386ZM54.0212 6.37826C54.0212 6.65294 54.2809 7.11563 54.7648 7.11563C55.5376 7.11563 55.8624 6.35674 55.8624 5.71368C55.8624 4.9338 55.2708 4.2839 54.7073 4.2839C54.4394 4.2839 54.216 4.45748 54.0212 4.62395L54.0212 6.37826Z" fill="#EBEBEB"/>
<path d="M22.8647 11.3943H22.9201C23.0612 11.3943 23.2105 11.3753 23.2105 11.1706V9.11166C23.2105 8.90672 23.0612 8.8874 22.9201 8.8874H22.8647V8.76941C23.0182 8.76941 23.2539 8.78494 23.4471 8.78494C23.6433 8.78494 23.8787 8.76941 24.0634 8.76941V8.8874H24.0081C23.8672 8.8874 23.7177 8.90675 23.7177 9.11166V11.1706C23.7177 11.3753 23.8672 11.3943 24.0081 11.3943H24.0634V11.5129C23.8749 11.5129 23.6386 11.4974 23.4427 11.4974C23.2501 11.4974 23.0182 11.5129 22.8647 11.5129V11.3943Z" fill="#EBEBEB"/>
<path d="M24.0635 11.5295C23.8735 11.5295 23.6381 11.5137 23.4425 11.5137C23.2503 11.5137 23.0193 11.5295 22.8648 11.5295H22.8479V11.5126V11.3946V11.3775H22.8648H22.9198C23.0623 11.3742 23.1921 11.3627 23.1934 11.1706V9.11164C23.1921 8.91954 23.0624 8.9067 22.9198 8.90401H22.8479V8.88741V8.75195H22.8648C23.0193 8.75195 23.2547 8.76749 23.4468 8.76749C23.6425 8.76749 23.8777 8.75195 24.0635 8.75195H24.0809V8.76994V8.90401H24.0635H24.0084C23.8659 8.90673 23.7354 8.91954 23.7346 9.11164V11.1706C23.7354 11.3627 23.8659 11.3742 24.0084 11.3775H24.0809V11.3946V11.5295H24.0635ZM24.0466 11.496V11.412H24.0084C23.8681 11.412 23.7011 11.3878 23.7002 11.1706V9.11164C23.7011 8.89447 23.8681 8.86994 24.0084 8.86994H24.0466V8.78656C23.8651 8.78656 23.6376 8.80182 23.4468 8.80182C23.2602 8.80182 23.0343 8.78765 22.8822 8.78656V8.86994H22.9198C23.0599 8.86994 23.2275 8.89447 23.2275 9.11164V11.1706C23.2275 11.3878 23.0599 11.412 22.9198 11.412H22.8822V11.496C23.0343 11.4943 23.2563 11.4802 23.4425 11.4802C23.6337 11.4802 23.8613 11.4949 24.0466 11.496Z" fill="#EBEBEB"/>
<path d="M26.7632 10.7381L26.7711 10.7305V9.25687C26.7711 8.93423 26.5469 8.88736 26.4291 8.88736H26.3425V8.76935C26.5275 8.76935 26.7081 8.78488 26.8926 8.78488C27.0536 8.78488 27.2155 8.76935 27.3763 8.76935V8.88736H27.3174C27.152 8.88736 26.9673 8.91867 26.9673 9.3863V11.1749C26.9673 11.3123 26.9713 11.4496 26.9907 11.5715H26.8411L24.8179 9.31548V10.9349C24.8179 11.2769 24.8841 11.3943 25.1871 11.3943H25.2535V11.5129C25.0849 11.5129 24.9162 11.4973 24.747 11.4973C24.5707 11.4973 24.3898 11.5129 24.2126 11.5129V11.3943H24.2677C24.5388 11.3943 24.6211 11.2101 24.6211 10.8959V9.24054C24.6211 9.02064 24.4399 8.88739 24.2639 8.88739H24.2127V8.7694C24.362 8.7694 24.5151 8.78491 24.6642 8.78491C24.7822 8.78491 24.8964 8.7694 25.014 8.7694L26.7632 10.7381Z" fill="#EBEBEB"/>
<path d="M26.9904 11.5886L26.8283 11.5826L24.8341 9.35989V10.9349C24.8388 11.2766 24.8908 11.3736 25.1868 11.3774H25.271V11.3943V11.5295H25.2535C25.0835 11.5295 24.9143 11.5137 24.7467 11.5137C24.5706 11.5137 24.3902 11.5295 24.212 11.5295H24.1949V11.5126V11.3774H24.212H24.2673C24.527 11.3761 24.6011 11.2093 24.6041 10.8959V9.24081C24.6036 9.03154 24.4319 8.90455 24.2635 8.90401H24.1948V8.88657V8.7525H24.212C24.3622 8.7525 24.5161 8.76749 24.6635 8.76749C24.7804 8.76749 24.8943 8.7525 25.0267 8.75823L26.7538 10.7025V9.25719C26.7516 8.94437 26.5432 8.90676 26.4287 8.90401H26.3246V8.88657V8.7525H26.3421C26.5277 8.7525 26.7086 8.76749 26.8922 8.76749C27.0522 8.76749 27.2132 8.7525 27.3756 8.7525H27.3928V8.7694V8.90398H27.3756H27.3171C27.1549 8.90864 26.9884 8.92278 26.9838 9.3863V11.1747C26.9838 11.312 26.9879 11.4493 27.007 11.5684L27.0108 11.5886H26.9904V11.5886ZM26.8411 11.554H26.9711C26.9534 11.436 26.9504 11.3052 26.9504 11.1747V9.3863C26.9504 8.91461 27.1479 8.86995 27.3171 8.86995H27.3586V8.78654C27.2038 8.78763 27.0485 8.8018 26.8923 8.8018C26.7125 8.8018 26.5376 8.78763 26.3596 8.78654L26.3593 8.86995H26.4288C26.5495 8.86995 26.788 8.92387 26.788 9.25716L26.7825 10.7422L26.7746 10.7504L26.7613 10.7627L25.0138 8.78654C24.8972 8.78654 24.7832 8.8018 24.6636 8.8018C24.5195 8.8018 24.3721 8.78763 24.2295 8.78654L24.2287 8.86992H24.2636C24.4481 8.86992 24.6375 9.0108 24.6375 9.24078V10.8959C24.6375 11.2101 24.55 11.4112 24.2674 11.4123L24.2295 11.4112V11.4959C24.3998 11.4943 24.5748 11.4801 24.7467 11.4801C24.9108 11.4801 25.074 11.4943 25.2364 11.4959V11.4123H25.1868C24.8775 11.4112 24.8007 11.2766 24.8004 10.9348V9.27128L26.8411 11.554ZM26.7539 10.7303V10.7289L26.7506 10.7261L26.7539 10.7303Z" fill="#EBEBEB"/>
<path d="M27.9643 8.96558C27.6692 8.96558 27.658 9.03646 27.5992 9.3231H27.4812C27.4967 9.21328 27.5164 9.10347 27.5283 8.98902C27.5441 8.87893 27.5517 8.76936 27.5517 8.65549H27.6463C27.6779 8.77348 27.776 8.76939 27.8826 8.76939H29.9097C30.0159 8.76939 30.114 8.76557 30.1222 8.64734L30.2159 8.66314C30.2007 8.76939 30.1849 8.87542 30.1729 8.98166C30.1658 9.08769 30.1658 9.19393 30.1658 9.29966L30.0475 9.34353C30.0393 9.19829 30.0197 8.96558 29.7568 8.96558H29.1123V11.0567C29.1123 11.3597 29.25 11.3943 29.438 11.3943H29.5129V11.5129C29.3597 11.5129 29.0843 11.4973 28.8725 11.4973C28.6368 11.4973 28.3613 11.5129 28.2079 11.5129V11.3943H28.2829C28.4995 11.3943 28.609 11.375 28.609 11.0649V8.96558H27.9643Z" fill="#EBEBEB"/>
<path d="M29.5136 11.5295C29.3588 11.5295 29.0838 11.5137 28.8726 11.5137C28.6372 11.5137 28.3623 11.5295 28.208 11.5295H28.1917V11.5129V11.3774H28.208H28.283C28.4996 11.3723 28.5868 11.3695 28.5917 11.0649V8.98277H27.9644V8.96557V8.94813H28.6258V11.0649C28.6258 11.3801 28.4988 11.412 28.283 11.4123H28.2252V11.4951C28.3803 11.4943 28.6446 11.4801 28.8727 11.4801C29.0776 11.4801 29.3403 11.4943 29.4956 11.4951V11.4123H29.4381C29.2482 11.412 29.0953 11.3654 29.0953 11.0567V8.94813H29.7569C30.0207 8.94922 30.055 9.17348 30.0637 9.31927L30.1485 9.28793C30.1485 9.18547 30.149 9.08274 30.1561 8.9792C30.1676 8.8781 30.182 8.77782 30.1967 8.67755L30.1367 8.66746C30.1185 8.78191 30.0081 8.78763 29.9092 8.78654H27.8827H27.8622C27.7699 8.78654 27.6688 8.78218 27.6336 8.6724H27.5688C27.5682 8.78112 27.5606 8.88658 27.5456 8.99119C27.5341 9.09912 27.5161 9.20294 27.5014 9.30676H27.5857C27.6374 9.03288 27.6712 8.94405 27.9644 8.94816V8.9656V8.98277C27.6739 8.98794 27.6799 9.03699 27.6159 9.32747L27.6129 9.34082H27.5993H27.4617L27.4639 9.32039C27.4797 9.2103 27.4996 9.10073 27.5113 8.98628C27.5276 8.87728 27.5352 8.76829 27.5352 8.65547V8.63831H27.5519H27.6598L27.6625 8.65057C27.6895 8.74976 27.7622 8.7503 27.8622 8.75194H27.8827H29.9092C30.0188 8.7503 30.0983 8.74867 30.1051 8.64591L30.1068 8.62738L30.1245 8.63119L30.2354 8.64866L30.2329 8.66583C30.2171 8.77101 30.2016 8.87728 30.1901 8.98274C30.1822 9.08738 30.1822 9.19365 30.1822 9.29965V9.31191L30.1713 9.31627L30.0321 9.36693L30.031 9.34404C30.0207 9.19635 30.0051 8.98271 29.7569 8.98271H29.1296V11.0567C29.1331 11.3531 29.2508 11.3736 29.438 11.3774H29.5301V11.3943V11.5294L29.5136 11.5295Z" fill="#EBEBEB"/>
<path d="M30.3418 11.3943H30.3971C30.5383 11.3943 30.6878 11.3753 30.6878 11.1706V9.11166C30.6878 8.90672 30.5383 8.8874 30.3971 8.8874H30.3418V8.76941C30.581 8.76941 30.9904 8.78494 31.3198 8.78494C31.6506 8.78494 32.0585 8.76941 32.3255 8.76941C32.319 8.93808 32.3226 9.19804 32.3342 9.37056L32.2157 9.40214C32.1969 9.14684 32.1498 8.94274 31.7369 8.94274H31.1912V9.97195H31.6582C31.8939 9.97195 31.9454 9.8387 31.9686 9.62591H32.0863C32.0787 9.77984 32.0746 9.93301 32.0746 10.0862C32.0746 10.2358 32.0787 10.3848 32.0863 10.5341L31.9686 10.5575C31.9454 10.3219 31.9335 10.1687 31.662 10.1687H31.1912V11.084C31.1912 11.3399 31.4182 11.3399 31.67 11.3399C32.1416 11.3399 32.3495 11.308 32.4675 10.8606L32.5777 10.8875C32.5261 11.0963 32.4793 11.3042 32.4444 11.5129C32.1926 11.5129 31.7405 11.4974 31.3874 11.4974C31.0331 11.4974 30.5658 11.5129 30.3418 11.5129V11.3943Z" fill="#EBEBEB"/>
<path d="M32.4438 11.5295C32.1915 11.5295 31.7397 11.5134 31.3869 11.5134C31.0329 11.5134 30.5658 11.5295 30.3415 11.5295H30.325V11.5129V11.3943V11.3774H30.3415H30.3966C30.5391 11.3753 30.6683 11.3627 30.6702 11.1706V9.11162C30.6683 8.91979 30.5391 8.90698 30.3966 8.90398H30.325V8.88739V8.7525H30.3415C30.5813 8.7525 30.9901 8.76749 31.3195 8.76749C31.65 8.76749 32.0577 8.7525 32.3253 8.7525H32.343L32.3422 8.76994C32.3394 8.82907 32.3384 8.8988 32.3384 8.97295C32.3384 9.1089 32.3422 9.25741 32.3501 9.36943L32.3506 9.3836L32.3376 9.38744L32.1994 9.42341L32.1986 9.40324C32.1755 9.14819 32.1414 8.96317 31.7368 8.95935H31.2073L31.2067 9.95423H31.658C31.8842 9.95205 31.9248 9.83624 31.9515 9.62451L31.9529 9.60898H31.9681H32.1036L32.1033 9.62666C32.0957 9.7798 32.0907 9.93294 32.0907 10.0861C32.0907 10.2349 32.0957 10.3839 32.1033 10.5335L32.1036 10.5474L32.0894 10.5507L31.9529 10.5779L31.9515 10.5594C31.9245 10.3196 31.9226 10.1883 31.6615 10.1853L31.2073 10.185V11.084C31.2076 11.3227 31.4136 11.3213 31.6697 11.3227C32.1428 11.3199 32.3324 11.2971 32.451 10.8556L32.4548 10.8398L32.4714 10.8428L32.5973 10.8752L32.5935 10.8916C32.5428 11.0998 32.4957 11.3074 32.4605 11.5156L32.4572 11.5295H32.4438ZM32.4294 11.4952C32.4635 11.297 32.5084 11.0981 32.5567 10.9003L32.479 10.8806C32.3613 11.3205 32.1334 11.3597 31.6697 11.3567C31.4223 11.3567 31.1743 11.3567 31.1732 11.0839V10.1515H31.6615C31.9359 10.1485 31.964 10.3141 31.9833 10.5379L32.0684 10.5202C32.0607 10.3754 32.0572 10.2302 32.0572 10.0861C32.0572 9.9381 32.0607 9.79098 32.0684 9.64298H31.9833C31.9615 9.84763 31.8975 9.9915 31.658 9.98878H31.1732V8.92496H31.7368C32.1455 8.92221 32.2133 9.13315 32.2308 9.3803L32.3155 9.35741C32.3087 9.24651 32.304 9.10426 32.304 8.97292C32.304 8.90562 32.3057 8.84213 32.3079 8.78654C32.0409 8.78763 31.643 8.8018 31.3196 8.8018C30.9966 8.8018 30.5991 8.78763 30.3585 8.78654V8.86992H30.3966C30.5367 8.86992 30.704 8.89444 30.7045 9.11162V11.1706C30.704 11.3872 30.5367 11.4112 30.3966 11.4123H30.3585V11.4952C30.5877 11.4949 31.0416 11.4802 31.3868 11.4802C31.7334 11.4802 32.176 11.4949 32.4294 11.4952Z" fill="#EBEBEB"/>
<path d="M33.1079 9.18575C33.1079 8.89908 32.951 8.88737 32.8286 8.88737H32.7581V8.7691C32.8839 8.7691 33.1273 8.78491 33.3671 8.78491C33.6028 8.78491 33.7916 8.7691 33.9996 8.7691C34.4944 8.7691 34.935 8.9029 34.935 9.46151C34.935 9.81439 34.6993 10.0307 34.3889 10.1531L35.0606 11.1586C35.1707 11.3248 35.2489 11.3714 35.4418 11.3943V11.5128C35.3121 11.5128 35.1862 11.4973 35.0568 11.4973C34.935 11.4973 34.8088 11.5128 34.6875 11.5128C34.3851 11.1158 34.1251 10.6913 33.8698 10.2389H33.6112V11.0804C33.6112 11.3834 33.7521 11.3943 33.9327 11.3943H34.0036V11.5129C33.7791 11.5129 33.5521 11.4973 33.3278 11.4973C33.139 11.4973 32.9542 11.5129 32.7581 11.5129V11.3943H32.8286C32.9747 11.3943 33.1079 11.3284 33.1079 11.1826V9.18575ZM33.6112 10.0975H33.803C34.1963 10.0975 34.408 9.94821 34.408 9.4844C34.408 9.13506 34.1843 8.9108 33.8341 8.9108C33.7161 8.9108 33.666 8.92306 33.6111 8.92661V10.0975H33.6112Z" fill="#EBEBEB"/>
<path d="M35.4417 11.5295C35.3101 11.5295 35.185 11.5137 35.0559 11.5137C34.936 11.5137 34.8106 11.5295 34.6736 11.5229C34.3722 11.1276 34.1139 10.7055 33.8599 10.2564H33.6277V11.0799C33.6318 11.3756 33.7506 11.3731 33.9324 11.3775H34.0204V11.3944V11.5295H34.0029C33.7784 11.5295 33.5504 11.5137 33.3272 11.5137C33.1394 11.5137 32.9552 11.5295 32.7579 11.5295H32.7407V11.5126V11.3775H32.7579H32.8285C32.9702 11.3766 33.0895 11.3151 33.0901 11.1826V9.18582C33.0871 8.90679 32.9506 8.9084 32.8285 8.90434H32.7407V8.88744V8.75201H32.7579C32.8852 8.75201 33.1277 8.76752 33.3669 8.76752C33.6015 8.76752 33.7904 8.75201 33.9997 8.75201C34.4948 8.7531 34.951 8.8899 34.9523 9.4605C34.9523 9.81556 34.7177 10.0371 34.4144 10.1608L35.0747 11.1494C35.1845 11.3123 35.2529 11.353 35.4442 11.3775L35.4586 11.3796V11.3944V11.5295H35.4417V11.5295ZM33.6106 10.222H33.8793L33.8839 10.2308C34.14 10.6823 34.3981 11.1063 34.6875 11.4959C34.8074 11.4959 34.9335 11.4799 35.0559 11.4799C35.1815 11.4799 35.3025 11.4935 35.4248 11.4954V11.4093C35.2403 11.3864 35.154 11.3314 35.0466 11.1681L34.3629 10.1449L34.3823 10.137C34.6897 10.016 34.9172 9.80594 34.9175 9.46039C34.9172 8.91513 34.4937 8.78872 33.9997 8.78654C33.7923 8.78654 33.6037 8.80207 33.3669 8.80207C33.1362 8.80207 32.9032 8.78763 32.7745 8.78654V8.86992H32.8285C32.9506 8.87022 33.1244 8.89036 33.1244 9.18577V11.1826C33.1244 11.3403 32.9764 11.4123 32.8285 11.4126H32.7745V11.4954C32.9637 11.4948 33.1427 11.4799 33.3272 11.4799C33.547 11.4799 33.7686 11.4949 33.9861 11.4954V11.4126H33.9324C33.7531 11.4123 33.5934 11.3899 33.5934 11.0798V10.222H33.6105H33.6106ZM33.6106 10.1141H33.5934V8.9108L33.6084 8.90943C33.6621 8.90537 33.7152 8.89417 33.834 8.89417C34.1921 8.89417 34.4248 9.12688 34.4253 9.48518C34.4242 9.95442 34.1992 10.1138 33.8029 10.1141H33.6106V10.1141ZM33.8029 10.0804C34.192 10.0771 34.3877 9.94194 34.3918 9.48521C34.3896 9.14187 34.1763 8.92878 33.834 8.92742C33.7277 8.92742 33.6779 8.93723 33.6277 8.94161V10.0804H33.8029Z" fill="#EBEBEB"/>
<path d="M38.1098 10.7381L38.1169 10.7305V9.25687C38.1169 8.93423 37.8932 8.88736 37.7755 8.88736H37.6894V8.76935C37.8739 8.76935 38.0543 8.78488 38.2393 8.78488C38.4006 8.78488 38.5611 8.76935 38.7232 8.76935V8.88736H38.6641C38.499 8.88736 38.3142 8.91867 38.3142 9.3863V11.1749C38.3142 11.3123 38.3181 11.4496 38.3374 11.5715H38.1883L36.1648 9.31548V10.9349C36.1648 11.2769 36.2315 11.3943 36.534 11.3943H36.6008V11.5129C36.4321 11.5129 36.2629 11.4973 36.0942 11.4973C35.9168 11.4973 35.7361 11.5129 35.5596 11.5129V11.3943H35.6141C35.8855 11.3943 35.968 11.2101 35.968 10.8959V9.24054C35.968 9.02064 35.7873 8.88739 35.6108 8.88739H35.5596V8.7694C35.7084 8.7694 35.8623 8.78491 36.0114 8.78491C36.1286 8.78491 36.243 8.7694 36.361 8.7694L38.1098 10.7381Z" fill="#EBEBEB"/>
<path d="M38.3375 11.5883L38.1757 11.5829L36.1813 9.35989V10.9346C36.1859 11.2766 36.2377 11.3736 36.5342 11.3774H36.6173V11.3943V11.5295H36.6001C36.4301 11.5295 36.2617 11.5134 36.0933 11.5134C35.9178 11.5134 35.7363 11.5295 35.5595 11.5295H35.5417V11.5129V11.3774H35.5595H35.614C35.8734 11.3763 35.9478 11.2093 35.9502 10.8948V9.24053C35.9499 9.03123 35.7786 8.90428 35.6107 8.90398H35.5417V8.88738V8.75195H35.5595C35.7093 8.75195 35.863 8.76746 36.0113 8.76746C36.1268 8.76746 36.2407 8.75195 36.3726 8.75738L38.0999 10.7025V9.25658C38.0988 8.94431 37.8896 8.90561 37.7754 8.904H37.6716V8.88738V8.75195H37.6888C37.8746 8.75195 38.0555 8.76746 38.2392 8.76746C38.3994 8.76746 38.5605 8.75195 38.7223 8.75195H38.7394V8.76967V8.904H38.7223H38.664C38.5018 8.90836 38.3348 8.92278 38.3307 9.38632V11.1747C38.3307 11.312 38.3343 11.4482 38.3542 11.5692L38.3563 11.5883H38.3375ZM38.1882 11.554H38.3174C38.3002 11.436 38.2964 11.3052 38.2964 11.1747V9.38629C38.2966 8.91458 38.4956 8.87101 38.664 8.86964H38.7051V8.78653C38.5509 8.78762 38.3953 8.80179 38.2391 8.80179C38.0588 8.80179 37.8835 8.78762 37.7056 8.78653V8.86964H37.7754C37.8963 8.87101 38.1345 8.92387 38.1345 9.25658L38.1291 10.7422L38.1214 10.7504L38.1095 10.7629L36.3606 8.78656C36.244 8.78656 36.1301 8.80182 36.0113 8.80182C35.8658 8.80182 35.7189 8.78765 35.5758 8.78656V8.86967H35.6107C35.7952 8.87103 35.9846 9.01028 35.9846 9.24053V10.8948C35.9846 11.2104 35.8957 11.4112 35.614 11.4123L35.5758 11.412V11.4951C35.7456 11.4943 35.9208 11.4801 36.0933 11.4801C36.2582 11.4801 36.4214 11.4943 36.5838 11.4951V11.4123H36.5342C36.2247 11.412 36.1473 11.2766 36.1467 10.9346V9.27184L38.1882 11.554ZM38.0999 10.7305V10.7291L38.0969 10.7261L38.0999 10.7305Z" fill="#EBEBEB"/>
<path d="M39.3551 10.9507C39.3153 11.084 39.2679 11.187 39.2679 11.257C39.2679 11.3753 39.4333 11.3943 39.5625 11.3943H39.6063V11.5129C39.4488 11.5044 39.2883 11.4974 39.13 11.4974C38.9886 11.4974 38.848 11.5045 38.7063 11.5129V11.3943H38.73C38.8831 11.3943 39.0131 11.3041 39.0711 11.1387L39.7006 9.33536C39.7513 9.18985 39.8227 8.99338 39.8464 8.84762C39.9715 8.80484 40.129 8.72636 40.2034 8.67895C40.2156 8.67489 40.2225 8.67078 40.2347 8.67078C40.2465 8.67078 40.2541 8.67078 40.2628 8.68304C40.2742 8.7141 40.2857 8.7498 40.2982 8.78114L41.0211 10.8368C41.0683 10.9742 41.1148 11.1194 41.1659 11.2377C41.2133 11.3478 41.2961 11.3943 41.4261 11.3943H41.4492V11.5129C41.2724 11.5044 41.0953 11.4974 40.9073 11.4974C40.7146 11.4974 40.5176 11.5045 40.3173 11.5129V11.3943H40.3609C40.4509 11.3943 40.6045 11.3791 40.6045 11.2807C40.6045 11.2298 40.5691 11.1238 40.5253 10.9976L40.3724 10.5417H39.4805L39.3551 10.9507ZM39.9284 9.2095H39.9205L39.5551 10.3218H40.2895L39.9284 9.2095Z" fill="#EBEBEB"/>
<path d="M41.4479 11.5295C41.2711 11.5216 41.0942 11.5134 40.907 11.5134C40.7144 11.5134 40.5187 11.5216 40.3176 11.5295L40.2999 11.5306V11.5129V11.3769H40.3171H40.3604C40.4514 11.3769 40.5866 11.3562 40.5866 11.2808C40.5877 11.236 40.5522 11.1281 40.5089 11.0031L40.3593 10.5586H39.4925L39.3704 10.9556C39.3306 11.0897 39.2835 11.1935 39.2838 11.2576C39.2851 11.3535 39.432 11.3769 39.5623 11.3769H39.6228V11.3946V11.5306L39.6051 11.5295C39.4478 11.5216 39.2873 11.5134 39.1307 11.5134C38.9898 11.5134 38.8481 11.5216 38.7072 11.5295L38.689 11.5306V11.5129V11.3769H38.7061H38.7296C38.8759 11.3764 38.998 11.2933 39.0547 11.1333L39.6838 9.3297C39.7354 9.18392 39.8062 8.98799 39.8403 8.83131C39.9634 8.78962 40.1212 8.7106 40.1969 8.66264C40.2078 8.65909 40.2188 8.65364 40.2349 8.65364C40.2444 8.65337 40.2656 8.65582 40.2782 8.67656C40.2893 8.70896 40.3016 8.74387 40.3136 8.77575L41.0373 10.8312C41.0837 10.9691 41.1305 11.1143 41.1818 11.2304C41.2273 11.3353 41.2995 11.3764 41.4259 11.377H41.466V11.3947V11.5307L41.4479 11.5295ZM40.3342 11.4944C40.5288 11.4876 40.7193 11.4799 40.907 11.4799C41.0896 11.4799 41.2604 11.4876 41.4313 11.4944V11.4123H41.4258C41.2913 11.4131 41.1983 11.3603 41.15 11.2445C41.0988 11.1251 41.0509 10.9794 41.0049 10.8417L40.2814 8.78659C40.2694 8.75526 40.258 8.71956 40.2476 8.69177C40.2443 8.68795 40.2451 8.68795 40.2419 8.68795H40.2347C40.2266 8.68795 40.222 8.6904 40.2119 8.69313C40.1361 8.74245 39.9784 8.81957 39.862 8.85036C39.8377 8.99914 39.7672 9.19533 39.7159 9.34085L39.087 11.1448C39.0271 11.3153 38.8895 11.4126 38.7295 11.4123H38.7233V11.4944C38.8579 11.4876 38.9941 11.4799 39.1306 11.4799C39.2824 11.4799 39.4377 11.4876 39.5876 11.4944V11.4123H39.5623C39.4345 11.4107 39.2557 11.3962 39.2508 11.2575C39.2511 11.1791 39.2993 11.0785 39.3377 10.9458L39.3549 10.951L39.3377 10.9453L39.4671 10.5251H40.3833L40.541 10.9922C40.5852 11.1183 40.6209 11.223 40.6209 11.2807C40.6154 11.4014 40.4495 11.4099 40.3604 11.4123H40.3342L40.3342 11.4944ZM39.5309 10.3387L39.9072 9.19231H39.9203H39.9285H39.9402L40.3132 10.3387H39.5309ZM39.5781 10.3046H40.2658L39.9238 9.25144L39.5781 10.3046Z" fill="#EBEBEB"/>
<path d="M41.6219 8.96558C41.3271 8.96558 41.3154 9.03646 41.2562 9.3231H41.1382C41.1537 9.21328 41.1736 9.10347 41.1859 8.98902C41.2017 8.87893 41.2088 8.76936 41.2088 8.65549H41.3036C41.335 8.77348 41.4336 8.76939 41.5391 8.76939H43.5672C43.6727 8.76939 43.7708 8.76557 43.779 8.64734L43.873 8.66314C43.858 8.76939 43.8425 8.87542 43.8304 8.98166C43.822 9.08769 43.822 9.19393 43.822 9.29966L43.7043 9.34353C43.6969 9.19829 43.6773 8.96558 43.4138 8.96558H42.7694V11.0567C42.7694 11.3597 42.9073 11.3943 43.0953 11.3943H43.1699V11.5129C43.0168 11.5129 42.7421 11.4973 42.5296 11.4973C42.2942 11.4973 42.0186 11.5129 41.8655 11.5129V11.3943H41.9399C42.1565 11.3943 42.2666 11.375 42.2666 11.0649V8.96558H41.6219Z" fill="#EBEBEB"/>
<path d="M43.1698 11.5295C43.0156 11.5295 42.7404 11.5137 42.5295 11.5137C42.2946 11.5137 42.0194 11.5295 41.8654 11.5295H41.848V11.5129V11.3775H41.8654H41.9398C42.1564 11.3723 42.2434 11.3696 42.2488 11.0649L42.2482 8.9828H41.6218V8.96561V8.94817H42.2829V11.0649C42.2829 11.3802 42.1556 11.4112 41.9398 11.4121H41.882V11.496C42.0376 11.4943 42.3014 11.4802 42.5295 11.4802C42.7346 11.4802 42.9974 11.4944 43.1527 11.496V11.4121H43.0946C42.9057 11.4112 42.7526 11.3657 42.7521 11.0567V8.94817H43.4137C43.6775 8.94926 43.7121 9.17352 43.7195 9.3193L43.8053 9.28797C43.8053 9.18551 43.8056 9.08278 43.8132 8.97978C43.8241 8.87868 43.8388 8.77786 43.8533 8.67755L43.7939 8.66747C43.7759 8.78192 43.665 8.78821 43.5671 8.78655H41.5389H41.5191C41.4264 8.78764 41.3261 8.78219 41.2904 8.67183H41.2261C41.225 8.78083 41.2176 8.88658 41.2021 8.99122C41.1918 9.0994 41.1724 9.20349 41.1577 9.30677H41.2419C41.294 9.03289 41.3281 8.94405 41.6218 8.94817V8.96561L41.6218 8.98277C41.3305 8.98771 41.337 9.037 41.2727 9.32748L41.2697 9.34083H41.2561H41.1182L41.1206 9.32118C41.137 9.21031 41.1566 9.10074 41.168 8.98711C41.1841 8.87729 41.1918 8.76829 41.1918 8.65548V8.63831H41.2086H41.316L41.3193 8.65058C41.3468 8.74976 41.4184 8.75031 41.519 8.75194L41.5389 8.75249H43.5671C43.6755 8.75034 43.7548 8.74867 43.7616 8.64624L43.7627 8.62744L43.7813 8.63128L43.8927 8.64872L43.8897 8.66589C43.8737 8.77107 43.8587 8.87735 43.8467 8.9828C43.8388 9.08744 43.8388 9.19398 43.8388 9.29971V9.31197L43.8276 9.31633L43.6884 9.36702L43.6876 9.3441C43.6775 9.19644 43.6619 8.98277 43.4137 8.98277H42.7862V11.0567C42.7903 11.3532 42.9077 11.3736 43.0946 11.3774H43.1867V11.3943V11.5295L43.1698 11.5295Z" fill="#EBEBEB"/>
<path d="M44.0181 11.3943H44.0731C44.2151 11.3943 44.3636 11.3753 44.3636 11.1706V9.11166C44.3636 8.90672 44.2151 8.8874 44.0731 8.8874H44.0181V8.76941C44.1715 8.76941 44.4069 8.78494 44.599 8.78494C44.7963 8.78494 45.032 8.76941 45.2168 8.76941V8.8874H45.1617C45.0203 8.8874 44.8705 8.90675 44.8705 9.11166V11.1706C44.8705 11.3753 45.0203 11.3943 45.1617 11.3943H45.2168V11.5129C45.0279 11.5129 44.7919 11.4974 44.5961 11.4974C44.4031 11.4974 44.1715 11.5129 44.0181 11.5129V11.3943Z" fill="#EBEBEB"/>
<path d="M45.2168 11.5295C45.0269 11.5295 44.7917 11.5134 44.5958 11.5134C44.4037 11.5134 44.1716 11.5295 44.0181 11.5295H44.001V11.5129V11.3943V11.3774H44.0181H44.0732C44.2151 11.3753 44.3454 11.363 44.346 11.1706V9.11162C44.3454 8.91979 44.2151 8.90668 44.0732 8.90398H44.001V8.88739V8.7525H44.0181C44.1716 8.7525 44.4075 8.76749 44.5991 8.76749C44.795 8.76749 45.0307 8.7525 45.2168 8.7525H45.2335V8.76937V8.90398H45.2168H45.1618C45.0182 8.90671 44.8893 8.91979 44.8874 9.11162V11.1706C44.8893 11.363 45.0182 11.3753 45.1618 11.3774H45.2335V11.3943V11.5295H45.2168ZM45.1991 11.4952V11.412H45.1618C45.0209 11.412 44.8542 11.3872 44.8542 11.1706V9.11162C44.8542 8.89444 45.0209 8.86992 45.1618 8.86992H45.1991V8.78654C45.0176 8.78763 44.7907 8.8018 44.5991 8.8018C44.413 8.8018 44.1876 8.78763 44.0353 8.78654V8.86992H44.0732C44.213 8.86992 44.3803 8.89444 44.3808 9.11162V11.1706C44.3803 11.3872 44.213 11.412 44.0732 11.412H44.0353V11.4952C44.1868 11.4935 44.4092 11.4801 44.5958 11.4801C44.7863 11.4801 45.0139 11.4943 45.1991 11.4952Z" fill="#EBEBEB"/>
<path d="M46.7838 8.71051C47.6215 8.71051 48.2891 9.22988 48.2891 10.0667C48.2891 10.9709 47.6408 11.5717 46.8043 11.5717C45.9704 11.5717 45.3345 11.0057 45.3345 10.1607C45.3345 9.34351 45.9666 8.71051 46.7838 8.71051ZM46.8432 11.3987C47.6057 11.3987 47.7384 10.7261 47.7384 10.1531C47.7384 9.57867 47.4289 8.88327 46.7762 8.88327C46.0885 8.88327 45.8844 9.49638 45.8844 10.0226C45.8844 10.7261 46.2064 11.3987 46.8432 11.3987Z" fill="#EBEBEB"/>
<path d="M45.3169 10.1607C45.3186 9.33399 45.9584 8.69445 46.7837 8.69336V8.71053V8.72712C45.9761 8.72712 45.351 9.35198 45.3502 10.1607C45.3521 10.9962 45.9791 11.5537 46.8042 11.554C47.6325 11.5537 48.2716 10.9613 48.2729 10.0659C48.2721 9.23971 47.6146 8.72821 46.7838 8.72712V8.71053V8.69336C47.6279 8.6939 48.3045 9.21845 48.3062 10.0659C48.3054 10.9796 47.6486 11.5867 46.8042 11.5883C45.9638 11.5867 45.3186 11.015 45.317 10.1607H45.3169V10.1607ZM45.8674 10.0226C45.8684 9.49397 46.075 8.86558 46.7764 8.86558C47.4435 8.86724 47.7549 9.57572 47.756 10.1531C47.7549 10.7262 47.6201 11.4151 46.8435 11.4151V11.3987V11.3818C47.5906 11.3807 47.7201 10.7262 47.7219 10.1531C47.7219 9.58335 47.4151 8.9013 46.7764 8.90045C46.1022 8.90127 45.9028 9.49912 45.9014 10.0226C45.902 10.7226 46.2211 11.3801 46.8435 11.3818V11.3987V11.4151C46.1911 11.4142 45.8684 10.7303 45.8674 10.0226Z" fill="#EBEBEB"/>
<path d="M50.9373 10.7381L50.9452 10.7305V9.25687C50.9452 8.93423 50.7207 8.88736 50.6027 8.88736H50.5176V8.76935C50.7018 8.76935 50.8825 8.78488 51.0667 8.78488C51.2283 8.78488 51.3893 8.76935 51.5506 8.76935V8.88736H51.4912C51.3266 8.88736 51.1416 8.91867 51.1416 9.3863V11.1749C51.1416 11.3123 51.1455 11.4496 51.1654 11.5715H51.0163L48.9922 9.31548V10.9349C48.9922 11.2769 49.0587 11.3943 49.3612 11.3943H49.4284V11.5129C49.2592 11.5129 49.0906 11.4973 48.9216 11.4973C48.7447 11.4973 48.5636 11.5129 48.3867 11.5129V11.3943H48.442C48.7137 11.3943 48.7952 11.2101 48.7952 10.8959V9.24054C48.7952 9.02064 48.6153 8.88739 48.4379 8.88739H48.3867V8.7694C48.536 8.7694 48.6894 8.78491 48.8385 8.78491C48.9565 8.78491 49.0701 8.7694 49.1884 8.7694L50.9373 10.7381Z" fill="#EBEBEB"/>
<path d="M51.1657 11.5883L51.003 11.5826L49.0092 9.35986V10.9349C49.0135 11.2766 49.0655 11.3733 49.3607 11.3769H49.4457V11.3946V11.5295H49.4285C49.2582 11.5295 49.0896 11.5137 48.9217 11.5137C48.7453 11.5137 48.565 11.5295 48.3865 11.5295H48.3701V11.5126V11.3769H48.3865H48.4421C48.7012 11.3761 48.7756 11.2093 48.7789 10.8959V9.24054C48.7783 9.03126 48.6069 8.90428 48.438 8.90401H48.3701V8.88739V8.7525H48.3865C48.5372 8.7525 48.6903 8.76752 48.8385 8.76752C48.9552 8.76752 49.0685 8.7525 49.2015 8.75825L50.928 10.7025V9.25719C50.9269 8.94439 50.7177 8.90676 50.6027 8.90404H50.4994V8.88744V8.75256H50.5171C50.7021 8.75256 50.8833 8.76754 51.0661 8.76754C51.2275 8.76754 51.3877 8.75256 51.5507 8.75256H51.5675V8.76942V8.90404H51.5507H51.4912C51.3296 8.90867 51.1624 8.92338 51.1591 9.38635V11.1747C51.1591 11.3121 51.162 11.4491 51.1812 11.5693L51.1844 11.5883H51.1657V11.5883ZM51.0164 11.554H51.145C51.1279 11.436 51.1248 11.3052 51.1248 11.1747V9.3863C51.1248 8.91379 51.323 8.87101 51.4914 8.86965H51.5338V8.78654C51.3788 8.78763 51.2235 8.8018 51.0663 8.8018C50.8875 8.8018 50.7117 8.78763 50.5338 8.78654V8.86965H50.6027C50.7246 8.87101 50.9616 8.92472 50.9616 9.25713L50.9573 10.7422L50.9499 10.7504L50.9374 10.7629L49.1886 8.78656C49.0727 8.78656 48.958 8.80182 48.8387 8.80182C48.6939 8.80182 48.5465 8.78765 48.4035 8.78656V8.86968H48.4381C48.6226 8.87104 48.8125 9.01028 48.8125 9.24054V10.8959C48.8125 11.2101 48.7248 11.4112 48.4422 11.4123L48.4035 11.412V11.4952C48.5741 11.4943 48.749 11.4802 48.9218 11.4802C49.0855 11.4802 49.2482 11.4943 49.4115 11.4952V11.4123H49.3607C49.0523 11.412 48.9752 11.2766 48.9752 10.9349V9.2713L51.0164 11.554ZM50.9281 10.7305V10.7291L50.9248 10.7261L50.9281 10.7305Z" fill="#EBEBEB"/>
<path d="M52.1821 10.9507C52.1437 11.084 52.096 11.187 52.096 11.257C52.096 11.3753 52.2614 11.3943 52.3903 11.3943H52.4342V11.5129C52.2769 11.5044 52.1157 11.4974 51.9584 11.4974C51.8164 11.4974 51.6755 11.5045 51.5347 11.5129V11.3943H51.557C51.711 11.3943 51.8412 11.3041 51.8993 11.1387L52.5288 9.33536C52.5794 9.18985 52.6505 8.99338 52.6735 8.84762C52.7993 8.80484 52.9563 8.72636 53.0317 8.67895C53.0429 8.67489 53.0508 8.67078 53.0628 8.67078C53.0746 8.67078 53.0819 8.67078 53.0898 8.68304C53.1018 8.7141 53.1141 8.7498 53.1258 8.78114L53.8484 10.8368C53.8956 10.9742 53.9425 11.1194 53.9942 11.2377C54.0414 11.3478 54.1242 11.3943 54.2534 11.3943H54.2774V11.5129C54.1002 11.5044 53.9234 11.4974 53.7346 11.4974C53.5424 11.4974 53.3457 11.5045 53.1451 11.5129V11.3943H53.1888C53.2784 11.3943 53.4326 11.3791 53.4326 11.2807C53.4326 11.2298 53.3969 11.1238 53.3531 10.9976L53.2005 10.5417H52.3083L52.1821 10.9507ZM52.7565 9.2095H52.7487L52.3827 10.3218H53.1181L52.7565 9.2095Z" fill="#EBEBEB"/>
<path d="M54.2758 11.5295C54.0989 11.5224 53.9224 11.5137 53.7346 11.5137C53.543 11.5137 53.3463 11.5224 53.1458 11.5295L53.1283 11.5306V11.5126V11.3774H53.1452H53.188C53.2795 11.3774 53.415 11.3562 53.4153 11.2807C53.416 11.236 53.3806 11.1289 53.3368 11.003L53.1875 10.5586H52.3201L52.1986 10.9556C52.1594 11.0902 52.1125 11.1935 52.1133 11.257C52.1133 11.3535 52.2604 11.3774 52.3904 11.3774H52.4503V11.3943V11.5306L52.4329 11.5295C52.2757 11.5224 52.1149 11.5137 51.9585 11.5137C51.8176 11.5137 51.6764 11.5224 51.5348 11.5295L51.5176 11.5306V11.5126V11.3774H51.5348H51.5571C51.7037 11.3769 51.8263 11.2927 51.8836 11.1333L52.5125 9.32965C52.5626 9.18387 52.6334 8.98795 52.6683 8.83181C52.7918 8.78903 52.9495 8.71055 53.0259 8.66256C53.0362 8.65902 53.0468 8.65439 53.0629 8.65439C53.0733 8.6533 53.0934 8.65575 53.1059 8.67728C53.1177 8.7081 53.1291 8.74376 53.1422 8.77565L53.8648 10.8311C53.9117 10.969 53.9589 11.1142 54.0098 11.2311C54.0558 11.3352 54.1275 11.3764 54.2529 11.3774H54.2937V11.3943V11.5306L54.2758 11.5295ZM53.1621 11.4949C53.3564 11.4875 53.5477 11.4799 53.7346 11.4799C53.9175 11.4799 54.0889 11.4875 54.26 11.4943L54.2594 11.4123H54.2529C54.1199 11.4126 54.027 11.3602 53.9782 11.2444C53.9264 11.1251 53.8796 10.9793 53.8327 10.8422L53.1095 8.78655C53.0978 8.75521 53.0858 8.71951 53.0763 8.69281C53.073 8.6879 53.0733 8.6879 53.0702 8.6879H53.0629C53.0547 8.6879 53.0503 8.69063 53.0408 8.69335C52.9642 8.74159 52.8067 8.82004 52.6904 8.85031C52.6661 8.99909 52.5947 9.19501 52.5441 9.3408L51.9149 11.1447C51.8552 11.3153 51.7179 11.4126 51.5571 11.4123H51.5513V11.4943C51.6865 11.4875 51.8217 11.4799 51.9585 11.4799C52.1108 11.4799 52.2658 11.4875 52.4171 11.4943V11.4123H52.3904C52.2626 11.4106 52.0833 11.3968 52.0787 11.257C52.0795 11.179 52.1282 11.079 52.1661 10.9458L52.1822 10.9509L52.1661 10.9452L52.2955 10.525H53.212L53.3694 10.9921C53.4128 11.1185 53.4485 11.2229 53.4485 11.2807C53.4427 11.4014 53.2779 11.4098 53.1879 11.4123H53.1621V11.4949H53.1621ZM52.3593 10.3384L52.7362 9.19229H52.7482H52.7566H52.7689L53.1403 10.3384H52.3593ZM52.4065 10.3046H53.0937L52.752 9.25197L52.4065 10.3046Z" fill="#EBEBEB"/>
<path d="M55.2674 11.1276C55.2674 11.2848 55.3764 11.3317 55.5023 11.3477C55.6634 11.3597 55.8402 11.3597 56.0217 11.3398C56.1863 11.32 56.328 11.2257 56.3983 11.1276C56.461 11.0409 56.4964 10.9308 56.5201 10.8444H56.634C56.591 11.0684 56.5359 11.2892 56.4885 11.5129C56.1435 11.5129 55.7969 11.4973 55.4516 11.4973C55.1053 11.4973 54.7601 11.5129 54.4143 11.5129V11.3943H54.4682C54.6105 11.3943 54.7642 11.3753 54.7642 11.1314V9.11166C54.7642 8.90672 54.6105 8.8874 54.4682 8.8874H54.4143V8.76941C54.6219 8.76941 54.8266 8.78494 55.0345 8.78494C55.2356 8.78494 55.4318 8.76941 55.6323 8.76941V8.8874H55.5334C55.3846 8.8874 55.2674 8.89176 55.2674 9.0994V11.1276Z" fill="#EBEBEB"/>
<path d="M56.4886 11.5295C56.1423 11.5295 55.7966 11.5137 55.4518 11.5137C55.1057 11.5137 54.7599 11.5295 54.4136 11.5295H54.397V11.5126V11.3775H54.4136H54.4684C54.6109 11.3742 54.7455 11.3644 54.7472 11.1314V9.11089C54.7455 8.91987 54.6117 8.90679 54.4684 8.90404H54.397V8.88745V8.75256H54.4136C54.6226 8.75256 54.8273 8.76755 55.0349 8.76755C55.2343 8.76755 55.4306 8.75256 55.6325 8.75256H55.6486V8.76946V8.90404H55.6325H55.5338C55.3815 8.9084 55.2867 8.90132 55.2837 9.09945V11.1276C55.2848 11.2739 55.3807 11.3135 55.5034 11.3306C55.5728 11.3355 55.6456 11.3385 55.7213 11.3385C55.8175 11.3385 55.9175 11.3339 56.0189 11.323C56.1791 11.3042 56.317 11.2118 56.3846 11.1181C56.4451 11.0342 56.48 10.9262 56.5034 10.8404L56.5069 10.8274H56.52H56.6549L56.6513 10.8481C56.607 11.0729 56.553 11.2925 56.5053 11.5162L56.5021 11.5296H56.4887H56.4886V11.5295ZM56.4745 11.4952C56.52 11.2821 56.5715 11.0736 56.6137 10.8611H56.5331C56.5085 10.9466 56.4736 11.0521 56.4118 11.1379C56.3385 11.2398 56.193 11.3357 56.0227 11.3567C55.9197 11.3674 55.8178 11.3728 55.7213 11.3728C55.6453 11.3728 55.5715 11.3693 55.5003 11.3643C55.3725 11.3502 55.2485 11.2957 55.2491 11.1276V9.09939C55.2491 8.88113 55.3872 8.86995 55.5338 8.86995H55.615V8.78657C55.4213 8.78766 55.2306 8.80208 55.0349 8.80208C54.8313 8.80208 54.6324 8.78766 54.4307 8.78657V8.86995H54.4684C54.6087 8.86995 54.7803 8.89448 54.7803 9.11084V11.1314C54.7803 11.3856 54.6095 11.412 54.4684 11.412H54.4307V11.4952C54.7706 11.4949 55.1104 11.4802 55.4518 11.4802C55.7932 11.4802 56.1344 11.4949 56.4745 11.4952Z" fill="#EBEBEB"/>
<path d="M56.5863 8.65765C56.8231 8.65765 57 8.83968 57 9.07293C57 9.3051 56.8231 9.48549 56.5863 9.48549C56.3495 9.48549 56.1724 9.3051 56.1724 9.07293C56.1723 8.83971 56.3495 8.65765 56.5863 8.65765ZM56.5863 9.40837C56.7713 9.40837 56.9136 9.25033 56.9136 9.07293C56.9136 8.89445 56.7735 8.73504 56.5863 8.73504C56.4002 8.73504 56.2579 8.89448 56.2579 9.07293C56.2579 9.25033 56.4002 9.40837 56.5863 9.40837ZM56.3803 9.29093V9.27049C56.4312 9.26341 56.4405 9.26504 56.4405 9.23343V8.92715C56.4405 8.88412 56.4358 8.86941 56.3822 8.87156V8.85058H56.5939C56.6669 8.85058 56.7337 8.88519 56.7337 8.96039C56.7337 9.02198 56.6928 9.06748 56.6358 9.0852L56.7037 9.18C56.7356 9.22305 56.7713 9.26341 56.795 9.27755V9.2909H56.7144C56.6757 9.2909 56.6419 9.20943 56.5655 9.10016H56.5198V9.23777C56.5198 9.26501 56.5293 9.26338 56.5803 9.27047V9.2909L56.3803 9.29093ZM56.5198 9.07293H56.5686C56.622 9.07293 56.647 9.03233 56.647 8.96721C56.647 8.90126 56.6083 8.87807 56.5658 8.87807H56.5198V9.07293Z" fill="#EBEBEB"/>
</g>
<defs>
<filter id="filter0_d_6_3276" x="0" y="0" width="61" height="21.7337" filterUnits="userSpaceOnUse" color-interpolation-filters="sRGB">
<feFlood flood-opacity="0" result="BackgroundImageFix"/>
<feColorMatrix in="SourceAlpha" type="matrix" values="0 0 0 0 0 0 0 0 0 0 0 0 0 0 0 0 0 0 127 0" result="hardAlpha"/>
<feOffset dy="4"/>
<feGaussianBlur stdDeviation="2"/>
<feComposite in2="hardAlpha" operator="out"/>
<feColorMatrix type="matrix" values="0 0 0 0 0 0 0 0 0 0 0 0 0 0 0 0 0 0 0.25 0"/>
<feBlend mode="normal" in2="BackgroundImageFix" result="effect1_dropShadow_6_3276"/>
<feBlend mode="normal" in="SourceGraphic" in2="effect1_dropShadow_6_3276" result="shape"/>
</filter>
<clipPath id="clip0_6_3276">
<rect width="53" height="13.7337" fill="white" transform="translate(4)"/>
</clipPath>
</defs>
</svg>
