<svg width="53" height="10" viewBox="0 0 53 10" fill="none" xmlns="http://www.w3.org/2000/svg">
<path d="M32.5689 4.50686C32.5737 3.36773 32.1466 2.22696 31.2871 1.36729C30.4256 0.505857 29.282 0.0791007 28.1405 0.0859572C28.1351 0.0859572 28.1298 0.0856018 28.1241 0.0856018C25.6454 0.0856018 23.6792 2.05129 23.6792 4.53074C23.6792 6.98572 25.6696 8.97552 28.1241 8.97552C30.6036 8.97552 32.5695 7.00948 32.5695 4.53074C32.5695 4.52258 32.5689 4.5149 32.5689 4.50686Z" fill="#F26E21"/>
<path d="M22.8526 6.41106C22.1883 7.07614 21.5751 7.33598 20.9146 7.35004C19.3056 7.33562 18.1226 6.14401 18.1226 4.44514C18.1226 3.58997 18.4464 2.88907 18.9593 2.29031C19.4403 1.83364 20.06 1.53857 20.7726 1.53857C21.5419 1.53857 22.1405 1.79498 22.8239 2.47886V0.512818C22.1406 0.171057 21.5417 0 20.7726 0C19.686 0.0776676 18.6614 0.51672 17.8755 1.20615C17.649 1.40996 17.432 1.63492 17.2479 1.89239C16.6739 2.63644 16.3269 3.54753 16.3269 4.53096C16.3269 7.00959 18.2937 8.89016 20.7725 8.89016C20.7846 8.89016 20.7965 8.88909 20.8082 8.88897C20.8249 8.88921 20.8413 8.89016 20.8579 8.89016C21.5416 8.89016 22.1405 8.71957 22.9097 8.37757L22.8526 6.41106C22.8238 6.4399 22.8812 6.46674 22.8526 6.49405V6.41106Z" fill="#E7E8E3"/>
<path d="M38.181 1.22424L36.2451 5.98383L34.0224 0.341522H32.2275L35.7322 8.97539H36.6724L40.3482 0.341522H38.5534L38.181 1.22424Z" fill="#E7E8E3"/>
<path d="M41.0325 4.1029V8.71933H45.6488H45.7339V7.35111H44.2808H42.7421V5.81277V5.04366H45.6488V3.58996H42.7421V1.79498H45.7339V0.341522H41.0325V4.1029Z" fill="#E7E8E3"/>
<path d="M2.39398 0.341522H0V8.71933H2.39386C3.67591 8.71933 4.61608 8.3771 5.38542 7.77869C6.32559 7.00935 6.92423 5.81289 6.92423 4.53084C6.92435 2.05115 5.1289 0.341522 2.39398 0.341522ZM4.3599 6.6677C3.84697 7.09493 3.16309 7.35111 2.13722 7.35111H1.62428V1.79486H2.05163C3.0775 1.79486 3.76138 1.9658 4.27443 2.4785C4.87272 2.99109 5.21484 3.76091 5.21484 4.53049C5.30031 5.29983 4.95843 6.15429 4.3599 6.6677Z" fill="#E7E8E3"/>
<path d="M9.31825 0.34082H7.69409V8.7184H9.31825V0.34082Z" fill="#E7E8E3"/>
<path d="M13.4211 3.58997C12.3954 3.24809 12.1387 2.99144 12.1387 2.56421C12.1387 2.05128 12.6516 1.62393 13.3355 1.62393C13.8484 1.62393 14.2758 1.79499 14.7032 2.30792L15.5583 1.1967C14.8742 0.598056 14.0197 0.256531 13.0793 0.256531C11.6257 0.256531 10.4289 1.2824 10.4289 2.64968C10.4289 3.84673 10.9423 4.35955 12.4808 4.95796C13.1647 5.21401 13.4212 5.29984 13.5925 5.47078C13.9338 5.64148 14.1051 5.98372 14.1051 6.32524C14.1051 7.00924 13.5925 7.52229 12.8227 7.52229C12.0526 7.52229 11.3693 7.09494 11.0273 6.41094L10.0015 7.43682C10.7712 8.54804 11.7115 9.06086 12.9083 9.06086C14.6178 9.06086 15.814 7.94964 15.814 6.32524C15.8142 4.87237 15.3018 4.27396 13.4211 3.58997Z" fill="#E7E8E3"/>
<path d="M50.3503 5.21401C51.6321 4.95795 52.3162 4.10278 52.3162 2.82086C52.3162 1.2824 51.2048 0.341522 49.3244 0.341522H46.8452V8.71933H48.4694V5.38507H48.7261L51.0336 8.71933H53L50.3503 5.21401ZM48.9821 4.18813H48.4695V1.62392H48.9821C50.008 1.62392 50.6066 2.05116 50.6066 2.90656C50.6066 3.76102 50.0081 4.18813 48.9821 4.18813Z" fill="#E7E8E3"/>
</svg>
