<svg width="53" height="21" viewBox="0 0 53 21" fill="none" xmlns="http://www.w3.org/2000/svg">
<path fill-rule="evenodd" clip-rule="evenodd" d="M8.27378 4.42192C8.88891 4.2215 9.53196 4.11997 10.1789 4.12111C13.0868 4.12111 15.514 6.1437 16.0698 8.83381L20.1902 8.01016C19.2448 3.43855 15.123 0 10.1796 0C9.04658 0 7.95936 0.180487 6.94019 0.514243L8.27378 4.42192Z" fill="#FFCA05"/>
<path fill-rule="evenodd" clip-rule="evenodd" d="M3.48941 17.6669L6.30987 14.5492C5.05076 13.4584 4.25647 11.867 4.25647 10.0943C4.25647 8.3217 5.04932 6.73098 6.30772 5.64161L3.48797 2.52393C1.34935 4.37606 0 7.08121 0 10.0943C0 13.1082 1.34935 15.814 3.48941 17.6669Z" fill="#00A4DF"/>
<path fill-rule="evenodd" clip-rule="evenodd" d="M16.0705 11.357C15.5126 14.0464 13.0882 16.0676 10.1832 16.0676C9.53513 16.0689 8.891 15.9666 8.27521 15.7646L6.94019 19.6766C7.95865 20.0103 9.04873 20.1901 10.1825 20.1901C15.1201 20.1901 19.2412 16.7544 20.1902 12.1857L16.0705 11.357Z" fill="#EE4123"/>
<path fill-rule="evenodd" clip-rule="evenodd" d="M31.8545 13.4111L31.8517 13.414L31.7349 13.3352C31.3983 13.8824 30.8755 14.3265 30.213 14.6144C28.9546 15.1637 27.7886 15.0226 26.9513 14.2849L26.8747 14.4024C26.8732 14.4009 26.8733 14.4002 26.8718 14.4002L25.4437 16.546C25.7989 16.7939 26.1794 17.0032 26.5789 17.1705C28.1567 17.8295 29.7703 17.7987 31.3603 17.1039C32.5113 16.6033 33.413 15.8398 34.0304 14.8722L31.8545 13.4111ZM27.3961 8.11614C26.0675 8.68911 25.3821 9.94178 25.5232 11.41L31.1526 8.97632C30.1843 7.83324 28.9252 7.45507 27.3961 8.11614ZM23.6589 14.6538C23.4993 14.3878 23.3567 14.112 23.232 13.828C22.5824 12.3132 22.5516 10.7461 23.0995 9.24132C23.7026 7.59116 24.8542 6.32775 26.3432 5.68459C28.2147 4.87526 30.2839 5.03498 32.0773 6.10429C33.2168 6.76034 34.0247 7.77451 34.6377 9.20766C34.7165 9.39101 34.7846 9.58725 34.8519 9.75413L23.6589 14.6538ZM38.7639 2.52393V14.4554L40.611 15.2074L39.5617 17.6669L37.5234 16.8146C37.0657 16.6148 36.7542 16.3104 36.5185 15.9666C36.2929 15.6156 36.1246 15.1358 36.1246 14.4876V2.52393H38.7639ZM43.5482 11.4157C43.5472 11.8969 43.649 12.3727 43.8466 12.8114C44.0442 13.2501 44.3332 13.6416 44.6941 13.9597L42.8019 16.084C42.1427 15.4978 41.6154 14.7782 41.2552 13.973C40.8949 13.1677 40.7097 12.2951 40.712 11.4129C40.7112 10.5311 40.8977 9.65929 41.2591 8.85501C41.6205 8.05074 42.1485 7.33237 42.8083 6.74745L44.7027 8.8696C44.3398 9.18711 44.0491 9.57858 43.8499 10.0177C43.6508 10.4569 43.5479 10.9336 43.5482 11.4157ZM46.9144 14.802C48.5417 14.8035 49.8996 13.6453 50.2162 12.1047L52.9972 12.6749C52.4171 15.5175 49.9118 17.6554 46.9115 17.6526C46.2418 17.6523 45.5766 17.5432 44.942 17.3295L45.8472 14.6273C46.1824 14.739 46.542 14.8013 46.9144 14.802ZM46.923 5.18467C49.9254 5.18682 52.4278 7.33332 53.0001 10.1796L50.2183 10.7454C50.0658 9.98235 49.654 9.29557 49.0529 8.80148C48.4518 8.3074 47.6983 8.03642 46.9201 8.03449C46.5572 8.03457 46.1966 8.09309 45.8523 8.20782L44.9556 5.50267C45.5898 5.29082 46.2543 5.18342 46.923 5.18467Z" fill="white"/>
</svg>
