<svg width="53" height="24" viewBox="0 0 53 24" fill="none" xmlns="http://www.w3.org/2000/svg">
<g clip-path="url(#clip0_6_3413)">
<rect x="5" y="4" width="43" height="16" fill="white"/>
<path d="M22.1739 23.2419L0.27832 23.2498V23.1971C0.27832 23.1681 0.313242 22.9802 0.355923 22.7795C0.398604 22.5788 0.46496 22.2595 0.50338 22.0701C0.541797 21.8806 0.607485 21.5586 0.64935 21.3546C0.691214 21.1505 0.760771 20.8107 0.803921 20.5993C0.847071 20.388 0.914668 20.0541 0.954134 19.8573C0.9936 19.6606 1.05949 19.3386 1.10056 19.1418C1.14163 18.9451 1.21164 18.6052 1.25615 18.3866C1.30066 18.1679 1.36832 17.834 1.4065 17.6446C1.44469 17.4551 1.50537 17.1629 1.54135 16.9953C1.57733 16.8277 1.6232 16.6011 1.64329 16.4918C1.66337 16.3825 1.72836 16.0605 1.7877 15.7763C1.84705 15.4921 1.91256 15.1701 1.93329 15.0608C1.95402 14.9515 2.01983 14.6295 2.07954 14.3453C2.13924 14.0611 2.20483 13.7391 2.22529 13.6298C2.24575 13.5205 2.3117 13.1985 2.37185 12.9143C2.432 12.6301 2.49692 12.3141 2.51611 12.2121C2.53531 12.11 2.58789 11.8477 2.63295 11.6291C2.67802 11.4104 2.76329 10.999 2.82245 10.7148C2.88161 10.4306 2.98279 9.93571 3.0473 9.61506C3.11181 9.29441 3.18891 8.91281 3.21861 8.76706C3.24833 8.62131 3.30205 8.35896 3.33801 8.18406C3.37396 8.00916 3.43925 7.69315 3.4831 7.48181C3.52694 7.27048 3.59827 6.92465 3.64162 6.71331C3.68496 6.50198 3.75175 6.17404 3.79004 5.98456C3.82833 5.79509 3.89368 5.47908 3.93526 5.28231C3.97684 5.08555 4.04837 4.73973 4.0942 4.51381C4.14004 4.2879 4.21683 3.94208 4.26484 3.74531C4.31285 3.54855 4.38073 3.31005 4.41568 3.21531C4.45063 3.12058 4.54712 2.91521 4.6301 2.75894L4.78097 2.47482L4.91813 2.29519C4.99357 2.1964 5.12825 2.04028 5.21743 1.94827C5.30661 1.85625 5.45708 1.7178 5.55182 1.64059C5.64656 1.56338 5.7837 1.45918 5.85657 1.40904C5.92945 1.35889 6.07255 1.2711 6.17457 1.21395C6.2766 1.15679 6.4197 1.08195 6.49257 1.04763C6.56545 1.01331 6.71451 0.950669 6.82382 0.908432C6.93313 0.866195 7.14182 0.795397 7.28757 0.751104C7.43332 0.706811 7.70691 0.640048 7.89554 0.602742C8.08418 0.565436 8.3823 0.515608 8.55804 0.492014L8.87757 0.449116L30.7864 0.440775L52.6953 0.432434V0.4851C52.6953 0.514066 52.6602 0.70197 52.6172 0.902664C52.5742 1.10336 52.5025 1.44644 52.4577 1.66506C52.4129 1.88369 52.3476 2.1997 52.3124 2.36731C52.2773 2.53493 52.2109 2.8569 52.1648 3.08281C52.1186 3.30873 52.0477 3.65455 52.0071 3.85131C51.9665 4.04808 51.9007 4.37005 51.861 4.56681C51.8212 4.76358 51.7551 5.08555 51.714 5.28231C51.6729 5.47908 51.6092 5.78913 51.5724 5.97131C51.5356 6.1535 51.4691 6.48144 51.4245 6.70006C51.3799 6.91869 51.3083 7.26451 51.2653 7.46856C51.2224 7.67261 51.1569 7.98863 51.1199 8.17081C51.0829 8.353 51.0163 8.68094 50.9718 8.89956C50.9274 9.11819 50.856 9.46401 50.813 9.66806C50.7701 9.87211 50.7061 10.1822 50.6708 10.3571C50.6355 10.532 50.5692 10.8599 50.5233 11.0858C50.4775 11.3117 50.4106 11.6397 50.3748 11.8146C50.3389 11.9895 50.2749 12.2995 50.2325 12.5036C50.1901 12.7076 50.1176 13.0594 50.0714 13.2853C50.0252 13.5112 49.9591 13.8332 49.9245 14.0008C49.8898 14.1684 49.825 14.4844 49.7805 14.7031C49.7359 14.9217 49.665 15.2675 49.6229 15.4716C49.5808 15.6756 49.5147 15.9976 49.4761 16.1871C49.4375 16.3765 49.3704 16.7045 49.327 16.9158C49.2836 17.1272 49.2126 17.473 49.1694 17.6843C49.1261 17.8957 49.0613 18.2117 49.0253 18.3866C48.9894 18.5615 48.9236 18.8834 48.8792 19.1021C48.8348 19.3207 48.7626 19.6652 48.7187 19.8677L48.6389 20.2358L48.5438 20.4904C48.4915 20.6305 48.4129 20.8166 48.3691 20.9041C48.3254 20.9915 48.2362 21.1458 48.171 21.2469C48.1058 21.3481 48.0149 21.4776 47.969 21.5349C47.9231 21.5921 47.785 21.7399 47.6621 21.8633L47.4386 22.0876L47.2235 22.2405C47.1053 22.3245 46.9778 22.41 46.9404 22.4304C46.903 22.4509 46.7604 22.5236 46.6237 22.5921C46.487 22.6606 46.2938 22.7477 46.1944 22.7858C46.0951 22.8238 45.8983 22.8885 45.7572 22.9296C45.616 22.9708 45.4648 23.0112 45.4211 23.0196C45.3773 23.028 45.2256 23.0594 45.0838 23.0894C44.942 23.1194 44.6558 23.1643 44.4478 23.1891L44.0696 23.2341L22.1739 23.2419ZM14.3839 17.5783H14.9536L14.9697 17.5364C14.9786 17.5133 14.9858 17.4591 14.9858 17.4159C14.9858 17.3728 15.0046 17.2157 15.0276 17.067C15.0505 16.9183 15.1044 16.576 15.1473 16.3063C15.1902 16.0367 15.2544 15.6312 15.29 15.4053C15.3256 15.1794 15.369 14.8902 15.3865 14.7627C15.404 14.6352 15.4254 14.5308 15.434 14.5308C15.4426 14.5308 15.4795 14.5872 15.5159 14.656L15.5821 14.7813L15.729 14.9293L15.8759 15.0773L16.0567 15.1497L16.2375 15.2221L16.4531 15.25L16.6686 15.278L16.9421 15.2612L17.2157 15.2444L17.5119 15.1677L17.8081 15.0911L17.9671 15.0185C18.0545 14.9786 18.2095 14.8916 18.3116 14.8251L18.4971 14.7043L18.67 14.5314C18.7652 14.4364 18.8993 14.2839 18.9682 14.1926C19.037 14.1014 19.0933 14.0201 19.0933 14.0119C19.0933 14.0038 19.1271 13.9473 19.1685 13.8863C19.2098 13.8254 19.2944 13.6563 19.3565 13.5106C19.4185 13.3648 19.5155 13.1025 19.572 12.9276L19.6747 12.6096L19.7278 12.3341C19.757 12.1826 19.7946 11.9322 19.8113 11.7776L19.8417 11.4966L19.8241 11.2581L19.8066 11.0196L19.7513 10.7811L19.696 10.5426L19.6065 10.364L19.517 10.1854L19.3441 10.0021L19.1712 9.81885L18.9666 9.71313L18.7621 9.60741L18.5368 9.55348L18.3116 9.49955L18.0863 9.48301L17.8611 9.46648L17.6102 9.49531L17.3592 9.52414L17.1544 9.57644L16.9496 9.62873L16.7717 9.71107C16.6739 9.75636 16.5315 9.83329 16.4553 9.88202C16.3791 9.93075 16.3006 9.98681 16.2807 10.0066C16.2608 10.0264 16.2133 10.0631 16.175 10.0881L16.1054 10.1336L16.1541 9.90082C16.1808 9.7728 16.2032 9.65316 16.2038 9.63494L16.2048 9.60181H15.719H15.2331L15.148 10.1384C15.1011 10.4336 15.0271 10.8897 14.9836 11.1521C14.94 11.4144 14.8743 11.8079 14.8376 12.0266C14.8008 12.2452 14.7353 12.6328 14.692 12.8878C14.6486 13.1429 14.577 13.5483 14.5328 13.7888C14.4886 14.0293 14.4238 14.3811 14.3888 14.5706C14.3539 14.76 14.2881 15.1178 14.2426 15.3656C14.1972 15.6133 14.1242 16.0069 14.0803 16.2401C14.0365 16.4733 13.9652 16.8429 13.9218 17.0616C13.8785 17.2802 13.8365 17.4859 13.8286 17.5187L13.8141 17.5783H14.3839ZM16.8368 14.5144L16.6156 14.5277L16.471 14.5022L16.3263 14.4767L16.1795 14.4096L16.0326 14.3425L15.93 14.2446L15.8273 14.1466L15.7681 14.0141C15.7355 13.9412 15.6937 13.8174 15.6751 13.739L15.6414 13.5964L15.6549 13.368L15.6684 13.1396L15.7367 12.7818C15.7742 12.5851 15.8417 12.2154 15.8865 11.9603C15.9314 11.7053 15.9993 11.3315 16.0375 11.1298L16.1068 10.7631L16.2588 10.6366C16.3423 10.5671 16.4747 10.4739 16.5529 10.4296L16.6951 10.3489L16.8806 10.2915L17.0661 10.2341L17.3046 10.22L17.5431 10.206L17.7373 10.2474L17.9315 10.2888L18.0685 10.3519L18.2056 10.4151L18.3205 10.5306L18.4354 10.6461L18.4974 10.7685C18.5315 10.8358 18.5794 10.9675 18.6039 11.0612L18.6483 11.2316L18.6347 11.7351L18.6211 12.2386L18.553 12.5362C18.5156 12.6999 18.4443 12.9503 18.3947 13.0927L18.3044 13.3516L18.1938 13.5611C18.133 13.6764 18.0392 13.8322 17.9854 13.9073C17.9316 13.9824 17.8458 14.0797 17.7948 14.1235C17.7438 14.1673 17.6584 14.2358 17.605 14.2756L17.5079 14.3481L17.283 14.4246L17.0581 14.5011L16.8368 14.5144ZM22.3396 15.2429L22.6311 15.2463L22.9226 15.2197C23.0829 15.2051 23.3452 15.1746 23.5056 15.152C23.6659 15.1294 23.9429 15.0789 24.121 15.0397L24.445 14.9684L24.4611 14.849C24.47 14.7833 24.5064 14.5878 24.542 14.4145L24.6067 14.0994L24.5924 14.0851L24.5782 14.0708L24.4791 14.1186C24.4246 14.145 24.255 14.2077 24.1021 14.2581L23.8241 14.3497L23.5323 14.4062L23.2406 14.4627L22.7768 14.4636L22.3131 14.4646L22.1541 14.4138C22.0666 14.3858 21.938 14.3347 21.8682 14.3002L21.7414 14.2374L21.6367 14.1429L21.5321 14.0483L21.4504 13.9056L21.3687 13.7628L21.3175 13.5838L21.2663 13.4047L21.266 13.0734L21.2656 12.7421L21.311 12.4465L21.3565 12.1509L21.7553 12.1323L22.1541 12.1136L23.6282 12.1231L25.1023 12.1326L25.1468 11.9437C25.1712 11.8399 25.2087 11.6253 25.2299 11.4667L25.2686 11.1786L25.2694 10.9361L25.2702 10.6937L25.2283 10.5127L25.1863 10.3317L25.1169 10.2119C25.0787 10.146 25.0115 10.0505 24.9674 9.99962C24.9234 9.94879 24.8448 9.87712 24.7927 9.84035C24.7407 9.80359 24.6384 9.74181 24.5656 9.70306L24.4331 9.63262L24.2016 9.57682L23.9701 9.52103L23.6848 9.49376L23.3996 9.46648L23.1346 9.48374L22.8696 9.50099L22.5516 9.56206L22.2336 9.62312L22.0348 9.70259C21.9255 9.74629 21.7586 9.82599 21.6638 9.8797C21.5691 9.93341 21.4379 10.0208 21.3723 10.074C21.3067 10.1271 21.1932 10.2304 21.12 10.3036C21.0468 10.3767 20.9385 10.5081 20.8793 10.5956C20.8202 10.683 20.7295 10.838 20.6778 10.9401C20.6262 11.0421 20.5588 11.1852 20.5282 11.258C20.4976 11.3309 20.442 11.48 20.4046 11.5893C20.3672 11.6986 20.3084 11.9073 20.274 12.0531C20.2395 12.1988 20.1923 12.4387 20.1691 12.5862L20.1268 12.8544L20.1272 13.2487L20.1276 13.6431L20.1679 13.8153C20.19 13.9101 20.2324 14.0532 20.262 14.1333C20.2916 14.2135 20.3464 14.3327 20.3837 14.3983C20.421 14.4639 20.5007 14.5695 20.5608 14.633C20.6209 14.6965 20.7297 14.7928 20.8026 14.847C20.8754 14.9013 21.0052 14.9776 21.0909 15.0166L21.2467 15.0875L21.4639 15.14C21.5834 15.1689 21.7637 15.2031 21.8646 15.2161C21.9655 15.229 22.1792 15.2411 22.3396 15.2429ZM22.8387 11.5098C22.1051 11.5098 21.5048 11.5046 21.5048 11.4981C21.5048 11.4917 21.5361 11.3993 21.5744 11.2928C21.6126 11.1862 21.6798 11.0277 21.7237 10.9404L21.8034 10.7817L21.9788 10.6073L22.1541 10.433L22.3263 10.3506C22.4211 10.3053 22.5463 10.256 22.6046 10.241C22.6629 10.226 22.8298 10.2062 22.9756 10.1968L23.2406 10.1799L23.4441 10.2061L23.6476 10.2322L23.7955 10.2999L23.9434 10.3676L24.0245 10.4551C24.0691 10.5032 24.1223 10.574 24.1426 10.6125L24.1797 10.6825L24.2041 10.8378L24.2286 10.9931L24.2006 11.2514L24.1726 11.5098H22.8387ZM30.7667 15.2431L31.0584 15.2463L31.3895 15.2071C31.5716 15.1855 31.814 15.1497 31.9281 15.1276C32.0423 15.1055 32.2272 15.0615 32.3389 15.03C32.4506 14.9984 32.5517 14.9643 32.5636 14.9541C32.5754 14.944 32.607 14.8237 32.6337 14.6869C32.6605 14.55 32.6942 14.3665 32.7087 14.2791C32.7231 14.1916 32.7306 14.1154 32.7253 14.1097C32.72 14.1039 32.7004 14.1113 32.6818 14.1261C32.6633 14.1408 32.5332 14.1955 32.3929 14.2477L32.1377 14.3424L31.7743 14.4129L31.411 14.4833L31.102 14.4727L30.7931 14.4622L30.6176 14.4013L30.4421 14.3405L30.3065 14.2218L30.1709 14.1032L30.0809 13.9394L29.991 13.7756L29.9482 13.5564L29.9053 13.3372L29.9056 13.0529L29.9059 12.7686L29.9579 12.4241L30.01 12.0796L30.0651 11.8941C30.0954 11.792 30.1296 11.6728 30.1412 11.6291C30.1528 11.5853 30.2014 11.4601 30.2492 11.3508C30.297 11.2415 30.3823 11.0726 30.4387 10.9754L30.5413 10.7987L30.6673 10.6681L30.7933 10.5376L30.9267 10.4549L31.0601 10.3721L31.2314 10.3193C31.3257 10.2903 31.4922 10.2526 31.6015 10.2356L31.8003 10.2046L32.0918 10.2193L32.3833 10.2339L32.7278 10.3028L33.0723 10.3718L33.2124 10.4241C33.2894 10.4528 33.3559 10.4763 33.36 10.4763C33.3641 10.4763 33.3826 10.3779 33.401 10.2577C33.4195 10.1374 33.4524 9.93961 33.4741 9.81807C33.4958 9.69652 33.5084 9.59184 33.502 9.58545C33.4956 9.57906 33.392 9.56262 33.2719 9.54891C33.1517 9.53521 32.8251 9.51087 32.5461 9.49483L32.0388 9.46568L31.681 9.49313L31.3233 9.52058L31.0583 9.57627L30.7933 9.63196L30.6226 9.70022C30.5287 9.73776 30.3912 9.80551 30.3171 9.85077C30.2429 9.89603 30.1485 9.95691 30.1073 9.98606C30.066 10.0152 29.941 10.1289 29.8293 10.2388L29.6264 10.4385L29.5131 10.6045C29.4507 10.6958 29.3429 10.8862 29.2735 11.0275L29.1473 11.2846L29.0505 11.5628C28.9973 11.7159 28.923 11.9663 28.8854 12.1193L28.817 12.3976L28.7922 12.6493L28.7674 12.9011L28.7676 13.2323L28.7679 13.5636L28.7929 13.7563L28.818 13.949L28.8973 14.1472L28.9767 14.3454L29.0684 14.4887L29.1601 14.632L29.3058 14.7755L29.4516 14.919L29.6058 15.0005L29.76 15.082L29.9626 15.1383C30.074 15.1692 30.235 15.2047 30.3204 15.2172C30.4057 15.2297 30.6063 15.2413 30.7667 15.2431ZM35.1258 15.2333L35.4836 15.223L35.7088 15.1654L35.9341 15.1077L36.0798 15.0388C36.16 15.0009 36.2912 14.9261 36.3713 14.8726C36.4515 14.819 36.5756 14.7173 36.6471 14.6464C36.7185 14.5755 36.8246 14.4546 36.8826 14.3777C36.9407 14.3008 36.9917 14.2414 36.996 14.2457C37.0003 14.25 36.9869 14.3725 36.9663 14.518C36.9457 14.6635 36.9286 14.8571 36.9283 14.9482L36.9278 15.1138H37.4142H37.9005L37.9154 14.7362L37.9303 14.3586L37.9997 13.8683C38.0379 13.5987 38.0995 13.1992 38.1367 12.9806C38.1739 12.7619 38.2385 12.3923 38.2803 12.1591C38.3221 11.9259 38.3883 11.5622 38.4275 11.3508L38.4986 10.9666L38.501 10.6347L38.5034 10.3028L38.4284 10.1494L38.3533 9.99596L38.2515 9.89826L38.1498 9.80056L37.9827 9.7159L37.8156 9.63123L37.5666 9.57584L37.3176 9.52045L36.9747 9.49436L36.6319 9.46827L36.1902 9.4956C35.9473 9.51063 35.6055 9.5403 35.4306 9.56154L35.1126 9.60016L34.8959 9.60098L34.6792 9.6018L34.6476 9.75418C34.6303 9.83799 34.5821 10.0371 34.5405 10.1966C34.499 10.3562 34.4688 10.4906 34.4735 10.4953C34.4782 10.5 34.5941 10.4737 34.7311 10.4368C34.868 10.4 35.159 10.3394 35.3776 10.3021L35.7751 10.2344L36.1329 10.2197L36.4906 10.2049L36.721 10.2453L36.9515 10.2857L37.1053 10.3616L37.2591 10.4376L37.3452 10.5659L37.4314 10.6943L37.4301 10.8967L37.4289 11.0991L37.3833 11.3211L37.3376 11.5432L36.3841 11.5467L35.4306 11.5501L35.1185 11.6357C34.9469 11.6827 34.7568 11.7452 34.6962 11.7745C34.6355 11.8038 34.5748 11.8278 34.5613 11.8278C34.5478 11.8278 34.4457 11.8844 34.3344 11.9536L34.1321 12.0794L33.9727 12.2385C33.8851 12.326 33.7731 12.4572 33.7239 12.5301C33.6747 12.6029 33.5947 12.7552 33.5462 12.8684L33.458 13.0742L33.4175 13.3056L33.377 13.5371V13.7798V14.0226L33.4157 14.2248L33.4544 14.4269L33.5261 14.5588C33.5656 14.6313 33.638 14.7375 33.6871 14.7948L33.7763 14.899L33.9348 14.9953L34.0933 15.0916L34.2747 15.1429C34.3745 15.1712 34.5263 15.2054 34.6122 15.2189L34.7683 15.2435L35.1258 15.2333ZM35.4571 14.4923L35.2451 14.5033L35.1047 14.4676C35.0274 14.4479 34.9103 14.4041 34.8443 14.3701L34.7243 14.3084L34.6588 14.2306C34.6228 14.1878 34.5677 14.1036 34.5365 14.0436L34.4797 13.9346L34.4686 13.6798L34.4574 13.4251L34.5024 13.2706C34.5271 13.1856 34.585 13.0381 34.6312 12.9428L34.7151 12.7696L34.8757 12.6101L35.0364 12.4506L35.207 12.3684L35.3776 12.2863L35.5896 12.2359L35.8016 12.1856H36.4641H37.1266L37.1685 12.2029L37.2104 12.2202L37.1751 12.4281C37.1557 12.5425 37.1094 12.7494 37.0723 12.8878C37.0351 13.0263 36.9695 13.2298 36.9265 13.3401C36.8835 13.4504 36.8483 13.548 36.8483 13.5569C36.8483 13.5657 36.8048 13.6461 36.7515 13.7355L36.6548 13.8979L36.4959 14.0554C36.4085 14.142 36.3273 14.2128 36.3156 14.2128C36.3038 14.2128 36.2502 14.2426 36.1965 14.2791L36.0988 14.3454L35.884 14.4133L35.6691 14.4812L35.4571 14.4923ZM44.0828 15.2428L44.3346 15.2459L44.5731 15.2072C44.7042 15.1859 44.8712 15.1516 44.9441 15.131C45.0169 15.1104 45.1481 15.0569 45.2356 15.0121L45.3946 14.9306L45.5314 14.8102L45.6681 14.6898L45.8122 14.4977C45.8914 14.392 45.9632 14.2877 45.9716 14.2658L45.987 14.2261L45.9736 14.3586C45.9663 14.4314 45.9498 14.5507 45.937 14.6236C45.9242 14.6964 45.9058 14.8366 45.8962 14.9349L45.8786 15.1138H46.3985H46.9183V14.9349V14.7561L46.9975 14.0803C47.0411 13.7087 47.1055 13.2138 47.1407 12.9806C47.1758 12.7474 47.2301 12.4135 47.2613 12.2386C47.2925 12.0637 47.3477 11.7477 47.384 11.5363C47.4203 11.325 47.4859 10.9553 47.5297 10.7148C47.5736 10.4743 47.6438 10.0927 47.6857 9.86681C47.7276 9.6409 47.7928 9.28911 47.8305 9.08506C47.8682 8.88101 47.9358 8.52326 47.9806 8.29006C48.0255 8.05686 48.0911 7.72893 48.1263 7.56131C48.1615 7.3937 48.1903 7.24762 48.1903 7.23669V7.21681H47.6231H47.056L47.0392 7.38244C47.03 7.47353 46.9866 7.77464 46.9427 8.05156C46.8989 8.32849 46.8274 8.76971 46.7839 9.03206C46.7404 9.29441 46.6984 9.54882 46.6906 9.5974L46.6765 9.68574L46.6318 9.66671C46.6072 9.65624 46.4737 9.61923 46.3353 9.58446L46.0835 9.52125L45.739 9.49442L45.3945 9.46759L45.103 9.49475L44.8115 9.52191L44.5465 9.5889L44.2815 9.65588L44.0298 9.77867L43.778 9.90146L43.5925 10.0388L43.407 10.1761L43.2468 10.3479C43.1587 10.4424 43.0314 10.5986 42.964 10.6951L42.8413 10.8706L42.6973 11.1703C42.618 11.3352 42.5216 11.5535 42.483 11.6556C42.4444 11.7576 42.3763 11.9838 42.3317 12.1581L42.2506 12.4752L42.2106 12.8869L42.1706 13.2986L42.2006 13.6298L42.2307 13.9611L42.2661 14.0803C42.2857 14.1459 42.3268 14.2628 42.3576 14.34L42.4135 14.4804L42.5155 14.6185L42.6176 14.7566L42.734 14.852L42.8505 14.9474L43.0095 15.0264C43.097 15.0698 43.2437 15.1259 43.3355 15.1511C43.4274 15.1762 43.5764 15.2064 43.6668 15.2182C43.7571 15.23 43.9444 15.241 44.0828 15.2428ZM44.5347 14.4909L44.3346 14.5015L44.1995 14.4772C44.1252 14.4639 44.0064 14.428 43.9354 14.3976L43.8063 14.3423L43.6977 14.2533L43.5891 14.1643L43.5084 14.0097L43.4276 13.8551L43.3909 13.6828L43.3541 13.5106L43.3572 13.1661L43.3603 12.8216L43.403 12.5168L43.4457 12.2121L43.5121 12.0001C43.5486 11.8835 43.5787 11.7735 43.5789 11.7556C43.5792 11.7377 43.6152 11.6423 43.659 11.5436C43.7029 11.4449 43.7762 11.2925 43.8218 11.2051C43.8675 11.1176 43.9529 10.9813 44.0116 10.9021C44.0703 10.8229 44.1749 10.7037 44.244 10.6371C44.313 10.5705 44.423 10.4832 44.4882 10.4431L44.6068 10.3701L44.8152 10.298L45.0236 10.2259L45.4608 10.2256H45.8981L46.1498 10.2954C46.2883 10.3338 46.4353 10.3784 46.4765 10.3944L46.5515 10.4236L46.5368 10.4963C46.5288 10.5363 46.4973 10.7122 46.4668 10.8871C46.4364 11.062 46.3764 11.3959 46.3335 11.6291C46.2907 11.8623 46.2248 12.2141 46.1871 12.4108C46.1495 12.6076 46.095 12.858 46.066 12.9673C46.037 13.0766 45.9961 13.228 45.9751 13.3038C45.9541 13.3795 45.9041 13.5107 45.864 13.5953C45.8238 13.6799 45.7536 13.8027 45.7079 13.8683C45.6623 13.9339 45.585 14.0248 45.5362 14.0702C45.4875 14.1157 45.382 14.1964 45.3018 14.2497L45.1561 14.3466L44.9454 14.4134L44.7348 14.4803L44.5347 14.4909ZM5.5332 15.1138H6.17708L6.22328 14.8289C6.24869 14.6723 6.29831 14.3712 6.33355 14.1598C6.36879 13.9485 6.43439 13.555 6.47931 13.2853C6.52424 13.0157 6.59159 12.6162 6.62898 12.3976C6.66637 12.1789 6.72577 11.8398 6.76099 11.6439C6.79621 11.448 6.8317 11.2811 6.83987 11.2729L6.85473 11.2581H8.58606H10.3174L10.3366 11.2773L10.3558 11.2965L10.3258 11.4495C10.3093 11.5337 10.2605 11.7934 10.2173 12.0266C10.1741 12.2598 10.1015 12.6533 10.056 12.9011C10.0104 13.1488 9.94455 13.5006 9.90961 13.6828C9.87466 13.865 9.80394 14.2466 9.75245 14.5308C9.70096 14.815 9.65894 15.0625 9.65908 15.0807L9.65934 15.1138H10.3059H10.9524L10.981 14.9482C10.9967 14.8571 11.0221 14.6931 11.0373 14.5838C11.0525 14.4745 11.0891 14.242 11.1187 14.0671C11.1483 13.8922 11.2075 13.5463 11.2502 13.2986C11.2928 13.0508 11.3643 12.6275 11.4089 12.3578C11.4535 12.0882 11.5198 11.6947 11.5561 11.4833C11.5924 11.272 11.657 10.9142 11.6998 10.6883C11.7425 10.4624 11.8137 10.0808 11.858 9.84031C11.9023 9.59983 11.9686 9.23611 12.0055 9.03206C12.0423 8.82801 12.1094 8.45834 12.1546 8.21056C12.1998 7.96279 12.2569 7.67361 12.2814 7.56794L12.3261 7.37581H11.6715H11.0169L10.9991 7.50169C10.9893 7.57092 10.9576 7.7647 10.9288 7.93231C10.8999 8.09993 10.8474 8.39805 10.8121 8.59481C10.7768 8.79158 10.7123 9.16721 10.6688 9.42956C10.6252 9.69191 10.5697 10.0392 10.5454 10.2013L10.5013 10.4961L9.54033 10.5155L8.57937 10.535L7.77448 10.5159C7.33179 10.5054 6.96714 10.4947 6.96414 10.4921C6.96114 10.4896 6.97622 10.3866 6.99764 10.2633C7.01907 10.14 7.05961 9.92578 7.08773 9.78731C7.11585 9.64885 7.16915 9.37458 7.20618 9.17781C7.24321 8.98105 7.28516 8.73659 7.29939 8.63456C7.31363 8.53254 7.34346 8.36261 7.36569 8.25694C7.38792 8.15127 7.43011 7.92869 7.45944 7.76232C7.48878 7.59594 7.52003 7.44092 7.52889 7.41782L7.54501 7.37581H6.89568H6.24635L6.20476 7.60769C6.18188 7.73522 6.15138 7.91708 6.13698 8.01181C6.12257 8.10655 6.07421 8.41064 6.0295 8.68756C5.98479 8.96449 5.91879 9.3759 5.88283 9.60181C5.84687 9.82773 5.78138 10.2391 5.7373 10.5161C5.69323 10.793 5.6205 11.2223 5.57569 11.4701C5.53087 11.7178 5.466 12.0696 5.43152 12.2518C5.39703 12.434 5.33132 12.7798 5.28548 13.0203C5.23965 13.2608 5.17279 13.6007 5.1369 13.7756C5.10101 13.9505 5.06133 14.1532 5.04873 14.2261C5.03612 14.2989 4.9951 14.5091 4.95758 14.6931C4.92005 14.8772 4.88934 15.0471 4.88934 15.0708V15.1138H5.5332ZM12.6611 15.1138H13.2311L13.2472 15.0719C13.2561 15.0488 13.2633 14.9884 13.2633 14.9375C13.2633 14.8867 13.2992 14.6223 13.343 14.3501C13.3868 14.0778 13.4592 13.6345 13.5038 13.3648C13.5485 13.0952 13.6144 12.7017 13.6504 12.4903C13.6863 12.279 13.7503 11.9272 13.7925 11.7086C13.8347 11.4899 13.8994 11.1501 13.9364 10.9533C13.9734 10.7566 14.0461 10.3822 14.098 10.1214C14.1499 9.86067 14.1988 9.63684 14.2067 9.62404L14.2211 9.60077L13.6447 9.60792L13.0682 9.61506L13.0202 9.95956C12.9938 10.149 12.9361 10.5247 12.892 10.7943C12.8478 11.064 12.781 11.4754 12.7435 11.7086C12.7061 11.9418 12.6407 12.3174 12.5983 12.5433C12.5559 12.7692 12.491 13.1151 12.4539 13.3118C12.4169 13.5086 12.3505 13.8544 12.3064 14.0803C12.2622 14.3062 12.2029 14.6044 12.1747 14.7428C12.1464 14.8813 12.116 15.0214 12.1072 15.0542L12.0911 15.1138H12.6611ZM25.9926 15.1138H26.5584L26.5754 14.8744C26.5847 14.7427 26.6167 14.4774 26.6465 14.2848C26.6763 14.0922 26.7373 13.708 26.7821 13.4311C26.8268 13.1541 26.91 12.6932 26.9669 12.4068C27.0238 12.1203 27.0881 11.8356 27.1098 11.7741C27.1316 11.7125 27.1493 11.6458 27.1493 11.6258C27.1493 11.6059 27.1919 11.4971 27.2439 11.384C27.2958 11.271 27.3927 11.098 27.4592 10.9995L27.58 10.8204L27.7416 10.6707L27.9033 10.521L28.1027 10.4258L28.3021 10.3306L28.6068 10.3322L28.9116 10.3337L29.0614 10.3785C29.1438 10.4031 29.2183 10.4233 29.227 10.4233C29.2357 10.4233 29.2428 10.3951 29.2428 10.3607C29.2428 10.3263 29.2726 10.1517 29.3091 9.9728C29.3455 9.79389 29.3753 9.63996 29.3753 9.63074C29.3753 9.62151 29.2889 9.58767 29.1832 9.55554C29.0775 9.52341 28.9314 9.48976 28.8586 9.48076L28.7261 9.46439L28.5538 9.49486C28.4591 9.51162 28.3182 9.54861 28.2408 9.57706C28.1633 9.60552 28.0355 9.67006 27.9567 9.72049C27.8778 9.77091 27.7552 9.86918 27.6842 9.93886C27.6131 10.0085 27.4936 10.149 27.4186 10.251C27.3436 10.3531 27.2652 10.4604 27.2443 10.4895L27.2064 10.5425L27.2294 10.4365C27.2421 10.3782 27.2774 10.1874 27.3078 10.0125C27.3383 9.83765 27.3696 9.67368 27.3773 9.64817L27.3914 9.6018H26.8861H26.3808V9.66567C26.3808 9.70081 26.351 9.91248 26.3145 10.136C26.2781 10.3596 26.218 10.7333 26.181 10.9665C26.144 11.1997 26.0783 11.6052 26.035 11.8675C25.9917 12.1299 25.926 12.5055 25.889 12.7023C25.852 12.8991 25.7862 13.2449 25.7428 13.4708C25.6995 13.6967 25.6275 14.0664 25.5829 14.2923C25.5383 14.5182 25.4849 14.785 25.4643 14.8852C25.4437 14.9853 25.4268 15.0778 25.4268 15.0905V15.1138L25.9926 15.1138ZM39.4233 15.1138H40.0018V14.9368V14.7597L40.0685 14.3207C40.1052 14.0792 40.1656 13.6967 40.2029 13.4708C40.2402 13.2449 40.2866 12.9587 40.3061 12.8348C40.3256 12.7109 40.3773 12.4426 40.421 12.2386C40.4647 12.0345 40.5192 11.8139 40.5422 11.7483C40.5652 11.6827 40.5842 11.6139 40.5844 11.5954C40.5847 11.5769 40.634 11.4578 40.694 11.3308L40.8032 11.0999L40.9473 10.9084L41.0913 10.717L41.249 10.5985C41.3357 10.5333 41.4752 10.4468 41.5589 10.4063L41.7111 10.3326L42.0423 10.3348L42.3736 10.3371L42.504 10.379L42.6344 10.4209L42.6563 10.4073L42.6783 10.3937L42.6794 10.3091C42.68 10.2626 42.7084 10.0896 42.7425 9.92458L42.8044 9.62458L42.7347 9.59731C42.6964 9.58231 42.6055 9.55126 42.5326 9.52831L42.4001 9.48659L42.1616 9.4872L41.9231 9.48781L41.7287 9.55619L41.5343 9.62457L41.3884 9.71257L41.2425 9.80057L41.0527 9.99932L40.863 10.1981L40.761 10.3523C40.705 10.437 40.6556 10.5026 40.6513 10.498C40.6471 10.4934 40.6776 10.3167 40.7191 10.1053C40.7606 9.89398 40.7951 9.69424 40.7957 9.66145L40.7968 9.60182H40.3066H39.8163V9.61871C39.8163 9.628 39.7919 9.79793 39.762 9.99634C39.7321 10.1947 39.6722 10.5777 39.6287 10.8473C39.5853 11.117 39.514 11.5522 39.4704 11.8146C39.4267 12.0769 39.3608 12.4526 39.3241 12.6493C39.2873 12.8461 39.2219 13.1919 39.1788 13.4178C39.1358 13.6437 39.065 14.0074 39.0215 14.2261C38.9781 14.4447 38.9206 14.7339 38.8937 14.8687L38.8448 15.1138L39.4233 15.1138ZM13.782 8.64723L13.9429 8.64781L14.0708 8.60423L14.1987 8.56066L14.3119 8.44584L14.4251 8.33101L14.4847 8.17804L14.5443 8.02506L14.5464 7.79981L14.5486 7.57456L14.4956 7.48661L14.4426 7.39865L14.3503 7.34152L14.258 7.28439H14.0588L13.8596 7.28439L13.7239 7.34511L13.5883 7.40584L13.5096 7.4902L13.4308 7.57456L13.369 7.72031L13.3072 7.86606L13.2955 8.09309L13.2838 8.32013L13.3414 8.43296L13.3989 8.5458L13.51 8.59622L13.6211 8.64665L13.782 8.64723Z" fill="#B3131B"/>
</g>
<defs>
<clipPath id="clip0_6_3413">
<rect width="53" height="23.5585" fill="white"/>
</clipPath>
</defs>
</svg>
