<svg width="53" height="22" viewBox="0 0 53 22" fill="none" xmlns="http://www.w3.org/2000/svg">
<path d="M0 0.641846V16.6886H3.64031V9.97645H9.61886V16.6886H13.2408V0.641846H9.61886V6.81295H3.64031V0.641846H0Z" fill="white"/>
<path d="M44.5822 12.0213C44.6281 11.7554 44.7014 11.2144 44.7014 10.5908C44.7014 7.7116 43.271 4.77734 39.5115 4.77734C35.4677 4.77734 33.6338 8.0417 33.6338 10.9943C33.6338 14.6346 35.8987 16.927 39.8507 16.927C41.4187 16.927 42.8767 16.6886 44.0687 16.2118L43.5919 13.7635C42.62 14.0753 41.6113 14.2403 40.3734 14.2403C38.6862 14.2403 37.2099 13.5251 37.0907 12.0305H44.5822V12.0213ZM37.054 9.54551C37.1457 8.57354 37.7693 7.18894 39.2914 7.18894C40.9603 7.18894 41.3362 8.66523 41.3362 9.54551H37.054Z" fill="white"/>
<path d="M45.8568 16.6886H49.4788V10.7834C49.4788 10.4991 49.5063 10.2149 49.5522 9.97646C49.7906 8.85778 50.6984 8.14255 52.0279 8.14255C52.4314 8.14255 52.7432 8.1884 52.9999 8.23425V4.83235C52.734 4.7865 52.5689 4.7865 52.2388 4.7865C51.1202 4.7865 49.6897 5.50172 49.0937 7.18892H49.002L48.8828 5.04325H45.7651C45.811 6.04273 45.8568 7.16141 45.8568 8.87612V16.6886Z" fill="white"/>
<path fill-rule="evenodd" clip-rule="evenodd" d="M16.9178 0C17.9448 0 18.7792 0.834429 18.7792 1.86142C18.7792 2.88841 17.9448 3.72284 16.9178 3.72284C15.8908 3.72284 15.0564 2.88841 15.0564 1.86142C15.0564 0.834429 15.8908 0 16.9178 0Z" fill="#FFE700"/>
<path fill-rule="evenodd" clip-rule="evenodd" d="M24.5652 13.9744H26.3808C28.2055 13.9744 29.0308 12.8099 29.0308 11.5903C29.0308 10.3708 28.9391 7.61989 26.6926 7.61989C24.1067 7.61989 24.5194 11.0401 24.5377 12.8282C24.5285 13.2133 24.556 13.5984 24.5652 13.9744ZM15.0564 5.03408H18.7792V11.5995C18.7792 12.819 19.4578 13.9836 20.9524 13.9836C20.9616 11.031 20.9524 7.98668 20.8516 5.03408H23.96C24.0242 5.60259 24.0884 6.17111 24.1434 6.73962C25.6105 3.80536 30.2412 4.44723 31.8 6.93218C33.4047 9.49048 33.9548 16.8261 26.3808 16.8261H24.6202C24.6386 18.3116 24.6386 19.8062 24.6386 21.3009H20.9157C20.9157 19.8704 20.9249 18.3666 20.9341 16.8261C16.9086 16.8078 15.0564 14.2586 15.0564 11.5995V5.03408Z" fill="white"/>
</svg>
