<svg width="53" height="41" viewBox="0 0 53 41" fill="none" xmlns="http://www.w3.org/2000/svg">
<g clip-path="url(#clip0_6_3369)">
<path d="M52.8234 32.5499C52.8234 37.0551 49.1549 40.7236 44.6497 40.7236H0.176758V8.35044C0.176758 3.84523 3.84529 0.176697 8.35051 0.176697H52.8234V32.5499Z" fill="white"/>
<path d="M38.3423 24.2474H41.7212C41.8177 24.2474 42.043 24.2152 42.1395 24.2152C42.7831 24.0865 43.3302 23.5072 43.3302 22.7027C43.3302 21.9304 42.7831 21.3512 42.1395 21.1903C42.043 21.1581 41.8499 21.1581 41.7212 21.1581H38.3423V24.2474Z" fill="url(#paint0_linear_6_3369)"/>
<path d="M41.335 2.91199C38.117 2.91199 35.4782 5.51858 35.4782 8.76877V14.8508H43.7485C43.9416 14.8508 44.1669 14.8508 44.3278 14.883C46.1942 14.9795 47.5779 15.9449 47.5779 17.6183C47.5779 18.9377 46.6447 20.064 44.907 20.2892V20.3536C46.8056 20.4823 48.2537 21.5443 48.2537 23.1855C48.2537 24.9554 46.6447 26.1139 44.5208 26.1139H35.446V38.0205H44.0381C47.2561 38.0205 49.8949 35.4139 49.8949 32.1637V2.91199H41.335Z" fill="url(#paint1_linear_6_3369)"/>
<path d="M42.9119 18.0045C42.9119 17.2322 42.3648 16.7173 41.7212 16.6207C41.6568 16.6207 41.4959 16.5886 41.3994 16.5886H38.3423V19.4204H41.3994C41.4959 19.4204 41.689 19.4204 41.7212 19.3882C42.3648 19.2917 42.9119 18.7768 42.9119 18.0045Z" fill="url(#paint2_linear_6_3369)"/>
<path d="M8.96196 2.91199C5.74395 2.91199 3.10518 5.51858 3.10518 8.76877V23.2176C4.74636 24.0221 6.45191 24.537 8.15746 24.537C10.1848 24.537 11.2789 23.3142 11.2789 21.6408V14.8186H16.299V21.6086C16.299 24.2474 14.6578 26.4035 9.09068 26.4035C5.71177 26.4035 3.073 25.6633 3.073 25.6633V37.9883H11.6651C14.8831 37.9883 17.5219 35.3817 17.5219 32.1315V2.91199H8.96196Z" fill="url(#paint3_linear_6_3369)"/>
<path d="M25.1485 2.91199C21.9305 2.91199 19.2917 5.51858 19.2917 8.76877V16.4276C20.772 15.1726 23.3464 14.3681 27.4977 14.5612C29.7181 14.6577 32.0994 15.2691 32.0994 15.2691V17.747C30.9088 17.1356 29.4928 16.5885 27.6586 16.4598C24.5049 16.2346 22.6063 17.7792 22.6063 20.4823C22.6063 23.2176 24.5049 24.7623 27.6586 24.5048C29.4928 24.3761 30.9088 23.7969 32.0994 23.2176V25.6955C32.0994 25.6955 29.7503 26.3069 27.4977 26.4035C23.3464 26.5966 20.772 25.792 19.2917 24.537V38.0527H27.8838C31.1018 38.0527 33.7406 35.4461 33.7406 32.1959V2.91199H25.1485Z" fill="url(#paint4_linear_6_3369)"/>
</g>
<defs>
<linearGradient id="paint0_linear_6_3369" x1="35.4729" y1="22.7066" x2="49.9338" y2="22.7066" gradientUnits="userSpaceOnUse">
<stop stop-color="#007940"/>
<stop offset="0.2285" stop-color="#00873F"/>
<stop offset="0.7433" stop-color="#40A737"/>
<stop offset="1" stop-color="#5CB531"/>
</linearGradient>
<linearGradient id="paint1_linear_6_3369" x1="35.4724" y1="20.4522" x2="49.9344" y2="20.4522" gradientUnits="userSpaceOnUse">
<stop stop-color="#007940"/>
<stop offset="0.2285" stop-color="#00873F"/>
<stop offset="0.7433" stop-color="#40A737"/>
<stop offset="1" stop-color="#5CB531"/>
</linearGradient>
<linearGradient id="paint2_linear_6_3369" x1="35.4725" y1="18.0005" x2="49.934" y2="18.0005" gradientUnits="userSpaceOnUse">
<stop stop-color="#007940"/>
<stop offset="0.2285" stop-color="#00873F"/>
<stop offset="0.7433" stop-color="#40A737"/>
<stop offset="1" stop-color="#5CB531"/>
</linearGradient>
<linearGradient id="paint3_linear_6_3369" x1="3.09836" y1="20.4522" x2="17.7831" y2="20.4522" gradientUnits="userSpaceOnUse">
<stop stop-color="#1F286F"/>
<stop offset="0.4751" stop-color="#004E94"/>
<stop offset="0.8261" stop-color="#0066B1"/>
<stop offset="1" stop-color="#006FBC"/>
</linearGradient>
<linearGradient id="paint4_linear_6_3369" x1="19.2085" y1="20.4522" x2="33.4709" y2="20.4522" gradientUnits="userSpaceOnUse">
<stop stop-color="#6C2C2F"/>
<stop offset="0.1735" stop-color="#882730"/>
<stop offset="0.5731" stop-color="#BE1833"/>
<stop offset="0.8585" stop-color="#DC0436"/>
<stop offset="1" stop-color="#E60039"/>
</linearGradient>
<clipPath id="clip0_6_3369">
<rect width="53" height="40.9003" fill="white"/>
</clipPath>
</defs>
</svg>
