<svg width="53" height="42" viewBox="0 0 53 42" fill="none" xmlns="http://www.w3.org/2000/svg">
<g clip-path="url(#clip0_6_3386)">
<path d="M52.4964 26.7237V26.0829H52.3374L52.1519 26.5101L51.9664 26.0829H51.8074V26.7237H51.9134V26.2431L52.0989 26.6703H52.2314L52.4169 26.2431V26.7237H52.4964ZM51.4364 26.7237V26.1897H51.6484V26.0829H51.1184V26.1897H51.3304V26.7237H51.4364Z" fill="white"/>
<path d="M33.6551 29.4735H19.3186V3.52399H33.6551V29.4735Z" fill="#7375CF"/>
<path d="M20.246 16.4987C20.246 11.2394 22.684 6.54077 26.5 3.524C23.7175 1.30815 20.193 0 16.377 0C7.3405 0 0 7.39507 0 16.4987C0 25.6024 7.3405 32.9975 16.377 32.9975C20.193 32.9975 23.7175 31.6893 26.5 29.4735C22.684 26.4567 20.246 21.7581 20.246 16.4987Z" fill="url(#paint0_linear_6_3386)"/>
<path d="M53 16.4987C53 25.6024 45.6595 32.9975 36.623 32.9975C32.807 32.9975 29.2825 31.6893 26.5 29.4735C30.316 26.4567 32.754 21.7581 32.754 16.4987C32.754 11.2394 30.316 6.54077 26.5 3.524C29.2825 1.30815 32.807 0 36.623 0C45.6595 0 53 7.39507 53 16.4987Z" fill="url(#paint1_linear_6_3386)"/>
<path d="M38.4779 36.8152C38.6634 36.8152 38.9549 36.8419 39.1404 36.922L38.8489 37.8297C38.6369 37.7496 38.4514 37.7229 38.2659 37.7229C37.6564 37.7229 37.3384 38.1233 37.3384 38.8442V41.3003H36.3844V36.922H37.3119V37.4559C37.5769 37.0555 37.9479 36.8152 38.4779 36.8152ZM34.9799 37.7763H33.4429V39.7519C33.4429 40.179 33.6019 40.4727 34.0789 40.4727C34.3174 40.4727 34.6354 40.3926 34.9269 40.2324L35.1919 41.06C34.9004 41.2736 34.4234 41.4071 33.9994 41.4071C32.8864 41.4071 32.4889 40.793 32.4889 39.7786V37.7763H31.6144V36.8953H32.4889V35.5604H33.4429V36.8953H34.9799V37.7763ZM22.8694 38.7107C22.9754 38.0699 23.3464 37.6428 24.0354 37.6428C24.6449 37.6428 25.0424 38.0165 25.1484 38.7107H22.8694ZM26.1289 39.1111C26.1289 37.7496 25.2809 36.8152 24.0619 36.8152C22.7899 36.8152 21.8889 37.7496 21.8889 39.1111C21.8889 40.4994 22.8164 41.4071 24.1149 41.4071C24.7774 41.4071 25.3604 41.2469 25.8904 40.793L25.4134 40.0989C25.0424 40.3926 24.5919 40.5528 24.1414 40.5528C23.5319 40.5528 22.9754 40.2591 22.8429 39.4849H26.0759C26.1024 39.3514 26.1289 39.2446 26.1289 39.1111ZM30.2894 38.0432C30.0244 37.8831 29.4944 37.6695 28.9379 37.6695C28.4079 37.6695 28.1164 37.8564 28.1164 38.1767C28.1164 38.4704 28.4344 38.5505 28.8584 38.6039L29.3089 38.6573C30.2629 38.7908 30.8194 39.1912 30.8194 39.9654C30.8194 40.793 30.1039 41.4071 28.8319 41.4071C28.1164 41.4071 27.4539 41.2202 26.9504 40.8464L27.4009 40.0989C27.7189 40.3392 28.1959 40.5528 28.8584 40.5528C29.4944 40.5528 29.8389 40.3659 29.8389 40.0188C29.8389 39.7786 29.6004 39.6451 29.0704 39.565L28.6199 39.5116C27.6394 39.3781 27.1094 38.9242 27.1094 38.2301C27.1094 37.3491 27.8249 36.8152 28.9114 36.8152C29.6004 36.8152 30.2364 36.9754 30.6869 37.269L30.2894 38.0432ZM41.9494 37.6962C41.7639 37.6962 41.5784 37.7229 41.4194 37.803C41.2604 37.8831 41.1014 37.9632 40.9954 38.0966C40.8894 38.2301 40.7834 38.3636 40.7039 38.5505C40.6244 38.7107 40.5979 38.9242 40.5979 39.1111C40.5979 39.3247 40.6244 39.5116 40.7039 39.6718C40.7834 39.8319 40.8629 39.9921 40.9954 40.1256C41.1279 40.2591 41.2604 40.3392 41.4194 40.4193C41.5784 40.4994 41.7639 40.5261 41.9494 40.5261C42.1349 40.5261 42.3204 40.4994 42.4794 40.4193C42.6384 40.3392 42.7974 40.2591 42.9034 40.1256C43.0359 39.9921 43.1154 39.8586 43.1949 39.6718C43.2744 39.5116 43.3009 39.298 43.3009 39.1111C43.3009 38.8976 43.2744 38.7107 43.1949 38.5505C43.1154 38.3903 43.0359 38.2301 42.9034 38.0966C42.7709 37.9632 42.6384 37.8831 42.4794 37.803C42.3204 37.7496 42.1349 37.6962 41.9494 37.6962ZM41.9494 36.8152C42.2939 36.8152 42.6119 36.8686 42.8769 37.0021C43.1684 37.1089 43.4069 37.269 43.6189 37.4826C43.8309 37.6962 43.9899 37.9365 44.1224 38.2034C44.2284 38.4971 44.3079 38.7908 44.3079 39.1111C44.3079 39.4315 44.2549 39.7519 44.1224 40.0188C44.0164 40.3125 43.8309 40.5528 43.6189 40.7396C43.4069 40.9532 43.1684 41.1134 42.8769 41.2202C42.5854 41.327 42.2674 41.4071 41.9494 41.4071C41.6049 41.4071 41.2869 41.3537 41.0219 41.2202C40.7304 41.1134 40.4919 40.9532 40.2799 40.7396C40.0679 40.5261 39.9089 40.2858 39.7764 40.0188C39.6704 39.7252 39.5909 39.4315 39.5909 39.1111C39.5909 38.7908 39.6439 38.4704 39.7764 38.2034C39.8824 37.9098 40.0679 37.6695 40.2799 37.4826C40.4919 37.269 40.7304 37.1089 41.0219 37.0021C41.2869 36.8686 41.6049 36.8152 41.9494 36.8152ZM17.3574 39.1111C17.3574 38.3369 17.8609 37.6962 18.6824 37.6962C19.4774 37.6962 19.9809 38.3102 19.9809 39.1111C19.9809 39.912 19.4509 40.4994 18.6824 40.4994C17.8609 40.4994 17.3574 39.8853 17.3574 39.1111ZM20.8819 39.1111V36.922H19.9279V37.4559C19.6364 37.0555 19.1859 36.8152 18.5499 36.8152C17.3309 36.8152 16.3769 37.7763 16.3769 39.1111C16.3769 40.446 17.3309 41.4071 18.5499 41.4071C19.1594 41.4071 19.6099 41.1668 19.9279 40.7663V41.3003H20.8819V39.1111ZM15.5554 41.3003V38.5505C15.5554 37.5093 14.8929 36.8152 13.8329 36.8152C13.2764 36.8152 12.6934 36.9754 12.2959 37.5894C12.0044 37.1089 11.5274 36.8152 10.8649 36.8152C10.4144 36.8152 9.93742 36.9487 9.59292 37.4559V36.922H8.63892V41.3003H9.59292V38.8709C9.59292 38.1233 10.0169 37.6962 10.6529 37.6962C11.2889 37.6962 11.6069 38.0966 11.6069 38.8442V41.2736H12.5609V38.8442C12.5609 38.0966 13.0114 37.6695 13.6209 37.6695C14.2569 37.6695 14.5749 38.0699 14.5749 38.8175V41.2469H15.5554V41.3003Z" fill="white"/>
<path d="M45.3148 40.9532V41.06H45.4208C45.4473 41.06 45.4738 41.06 45.4738 41.0333C45.5003 41.0333 45.5003 41.0066 45.5003 40.9799C45.5003 40.9532 45.5003 40.9532 45.4738 40.9532C45.4738 40.9532 45.4473 40.9265 45.4208 40.9265H45.3148V40.9532ZM45.4208 40.8998C45.4738 40.8998 45.5003 40.8998 45.5268 40.9265C45.5533 40.9532 45.5798 40.9799 45.5798 41.0333C45.5798 41.06 45.5798 41.0867 45.5533 41.1134C45.5268 41.1401 45.5003 41.1401 45.4473 41.1401L45.5798 41.3003H45.4738L45.3413 41.1401H45.3148V41.3003H45.2353V40.8998H45.4208ZM45.3943 41.4338C45.4473 41.4338 45.4738 41.4338 45.5268 41.4071C45.5798 41.3804 45.6063 41.3537 45.6328 41.327C45.6593 41.3003 45.6858 41.2736 45.7123 41.2202C45.7388 41.1668 45.7388 41.1401 45.7388 41.0867C45.7388 41.0333 45.7388 41.0066 45.7123 40.9532C45.6858 40.8998 45.6593 40.8731 45.6328 40.8464C45.6063 40.8197 45.5798 40.793 45.5268 40.7663C45.5003 40.7396 45.4473 40.7396 45.3943 40.7396C45.3413 40.7396 45.3148 40.7396 45.2618 40.7663C45.2088 40.793 45.1823 40.8197 45.1558 40.8464C45.1293 40.8731 45.1028 40.9265 45.0763 40.9532C45.0498 41.0066 45.0498 41.0333 45.0498 41.0867C45.0498 41.1401 45.0498 41.1668 45.0763 41.2202C45.1028 41.2736 45.1293 41.3003 45.1558 41.327C45.1823 41.3537 45.2353 41.3804 45.2618 41.4071C45.3148 41.4338 45.3413 41.4338 45.3943 41.4338ZM45.3943 40.6595C45.4473 40.6595 45.5003 40.6595 45.5533 40.6862C45.6063 40.7129 45.6593 40.7396 45.6858 40.7663C45.7123 40.793 45.7653 40.8464 45.7918 40.8998C45.8183 40.9532 45.8183 41.0066 45.8183 41.06C45.8183 41.1134 45.8183 41.1668 45.7918 41.2202C45.7653 41.2736 45.7388 41.327 45.6858 41.3537C45.6328 41.3804 45.6063 41.4338 45.5533 41.4605C45.5003 41.4872 45.4473 41.4872 45.3943 41.4872C45.3413 41.4872 45.2618 41.4872 45.2088 41.4605C45.1558 41.4338 45.1028 41.4071 45.0763 41.3537C45.0498 41.327 44.9968 41.2736 44.9703 41.2202C44.9438 41.1668 44.9438 41.1134 44.9438 41.06C44.9438 41.0066 44.9438 40.9532 44.9703 40.8998C44.9968 40.8464 45.0233 40.793 45.0763 40.7663C45.1028 40.7396 45.1558 40.6862 45.2088 40.6862C45.2618 40.6595 45.3413 40.6595 45.3943 40.6595Z" fill="white"/>
</g>
<defs>
<linearGradient id="paint0_linear_6_3386" x1="13.25" y1="0" x2="13.25" y2="32.9975" gradientUnits="userSpaceOnUse">
<stop stop-color="#EB001B"/>
<stop offset="1" stop-color="#700F1A"/>
</linearGradient>
<linearGradient id="paint1_linear_6_3386" x1="23" y1="7" x2="50" y2="26.5" gradientUnits="userSpaceOnUse">
<stop stop-color="#00A2E5"/>
<stop offset="1" stop-color="#0F4D70"/>
</linearGradient>
<clipPath id="clip0_6_3386">
<rect width="53" height="41.5405" fill="white"/>
</clipPath>
</defs>
</svg>
