<svg width="54" height="42" viewBox="0 0 54 42" fill="none" xmlns="http://www.w3.org/2000/svg">
<g clip-path="url(#clip0_6_3174)">
<path d="M52.9008 41.4103V41.5196H53.0016C53.0239 41.5196 53.043 41.5143 53.0568 41.5058C53.0695 41.4973 53.0769 41.4825 53.0769 41.4645C53.0769 41.4464 53.0695 41.4326 53.0568 41.4241C53.043 41.4146 53.0239 41.4103 53.0016 41.4103H52.9008ZM53.0027 41.334C53.0547 41.334 53.095 41.3456 53.1236 41.369C53.1523 41.3923 53.1661 41.4241 53.1661 41.4645C53.1661 41.4984 53.1555 41.526 53.1321 41.5483C53.1098 41.5695 53.078 41.5833 53.0356 41.5886L53.1693 41.7424H53.0653L52.9411 41.5897H52.9008V41.7424H52.8138V41.334H53.0027ZM52.9762 41.8836C53.0239 41.8836 53.0685 41.874 53.1088 41.856C53.1502 41.8379 53.1862 41.8135 53.217 41.7828C53.2478 41.752 53.2722 41.7159 53.2902 41.6735C53.3072 41.6321 53.3167 41.5875 53.3167 41.5398C53.3167 41.492 53.3072 41.4475 53.2902 41.4061C53.2722 41.3647 53.2478 41.3276 53.217 41.2968C53.1862 41.2661 53.1502 41.2416 53.1088 41.2236C53.0685 41.2066 53.0239 41.1981 52.9762 41.1981C52.9284 41.1981 52.8828 41.2066 52.8414 41.2236C52.799 41.2416 52.7618 41.2661 52.7311 41.2968C52.7003 41.3276 52.6759 41.3647 52.6589 41.4061C52.6409 41.4475 52.6324 41.492 52.6324 41.5398C52.6324 41.5875 52.6409 41.6321 52.6589 41.6735C52.6759 41.7159 52.7003 41.752 52.7311 41.7828C52.7618 41.8135 52.799 41.8379 52.8414 41.856C52.8828 41.874 52.9284 41.8836 52.9762 41.8836V41.8836ZM52.9762 41.0995C53.0388 41.0995 53.096 41.1111 53.1512 41.1345C53.2053 41.1568 53.252 41.1886 53.2934 41.2289C53.3337 41.2682 53.3655 41.3149 53.3889 41.369C53.4122 41.422 53.4239 41.4793 53.4239 41.5398C53.4239 41.6003 53.4122 41.6576 53.3889 41.7106C53.3655 41.7637 53.3337 41.8103 53.2934 41.8507C53.252 41.8899 53.2053 41.9217 53.1512 41.9451C53.096 41.9684 53.0388 41.9801 52.9762 41.9801C52.9125 41.9801 52.8541 41.9684 52.799 41.9451C52.7438 41.9217 52.6961 41.8899 52.6557 41.8507C52.6154 41.8103 52.5836 41.7637 52.5602 41.7106C52.5369 41.6576 52.5252 41.6003 52.5252 41.5398C52.5252 41.4793 52.5369 41.422 52.5602 41.369C52.5836 41.3149 52.6154 41.2682 52.6557 41.2289C52.6961 41.1886 52.7438 41.1568 52.799 41.1345C52.8541 41.1111 52.9125 41.0995 52.9762 41.0995V41.0995ZM11.6386 39.526C11.6386 38.7472 12.1489 38.1075 12.9829 38.1075C13.7797 38.1075 14.3176 38.7197 14.3176 39.526C14.3176 40.3324 13.7797 40.9446 12.9829 40.9446C12.1489 40.9446 11.6386 40.3048 11.6386 39.526V39.526ZM15.2258 39.526V37.3107H14.2624V37.8486C13.9569 37.4496 13.4932 37.1992 12.863 37.1992C11.6205 37.1992 10.6466 38.1732 10.6466 39.526C10.6466 40.8798 11.6205 41.8528 12.863 41.8528C13.4932 41.8528 13.9569 41.6024 14.2624 41.2035V41.7414H15.2258V39.526ZM47.7815 39.526C47.7815 38.7472 48.2918 38.1075 49.1258 38.1075C49.9237 38.1075 50.4605 38.7197 50.4605 39.526C50.4605 40.3324 49.9237 40.9446 49.1258 40.9446C48.2918 40.9446 47.7815 40.3048 47.7815 39.526ZM51.3698 39.526V35.5314H50.4054V37.8486C50.0998 37.4496 49.6361 37.1992 49.0059 37.1992C47.7635 37.1992 46.7895 38.1732 46.7895 39.526C46.7895 40.8798 47.7635 41.8528 49.0059 41.8528C49.6361 41.8528 50.0998 41.6024 50.4054 41.2035V41.7414H51.3698V39.526ZM27.1843 38.0618C27.805 38.0618 28.204 38.4512 28.3058 39.1366H26.0066C26.1095 38.4968 26.4979 38.0618 27.1843 38.0618ZM27.2034 37.1992C25.9048 37.1992 24.9966 38.1446 24.9966 39.526C24.9966 40.935 25.9419 41.8528 27.2682 41.8528C27.9355 41.8528 28.5467 41.6862 29.0846 41.2321L28.6124 40.518C28.2411 40.8141 27.7679 40.9817 27.3233 40.9817C26.7026 40.9817 26.1371 40.6942 25.9981 39.8963H29.2883C29.2978 39.7764 29.3074 39.6555 29.3074 39.526C29.2978 38.1446 28.4448 37.1992 27.2034 37.1992ZM38.8362 39.526C38.8362 38.7472 39.3466 38.1075 40.1805 38.1075C40.9773 38.1075 41.5152 38.7197 41.5152 39.526C41.5152 40.3324 40.9773 40.9446 40.1805 40.9446C39.3466 40.9446 38.8362 40.3048 38.8362 39.526V39.526ZM42.4235 39.526V37.3107H41.4601V37.8486C41.1534 37.4496 40.6908 37.1992 40.0606 37.1992C38.8182 37.1992 37.8442 38.1732 37.8442 39.526C37.8442 40.8798 38.8182 41.8528 40.0606 41.8528C40.6908 41.8528 41.1534 41.6024 41.4601 41.2035V41.7414H42.4235V39.526ZM33.3954 39.526C33.3954 40.8703 34.3312 41.8528 35.7593 41.8528C36.4267 41.8528 36.8713 41.7042 37.353 41.3244L36.8904 40.5456C36.5286 40.8056 36.1487 40.9446 35.7307 40.9446C34.9615 40.935 34.3959 40.3791 34.3959 39.526C34.3959 38.673 34.9615 38.117 35.7307 38.1075C36.1487 38.1075 36.5286 38.2465 36.8904 38.5064L37.353 37.7276C36.8713 37.3478 36.4267 37.1992 35.7593 37.1992C34.3312 37.1992 33.3954 38.1817 33.3954 39.526V39.526ZM45.8165 37.1992C45.2606 37.1992 44.8988 37.4592 44.6484 37.8486V37.3107H43.6935V41.7414H44.6579V39.2576C44.6579 38.5244 44.973 38.117 45.6033 38.117C45.7985 38.117 46.0022 38.1446 46.2059 38.2284L46.503 37.3202C46.2897 37.2364 46.0118 37.1992 45.8165 37.1992V37.1992ZM19.9908 37.6629C19.5271 37.3573 18.8884 37.1992 18.1839 37.1992C17.0614 37.1992 16.3388 37.7372 16.3388 38.6178C16.3388 39.3403 16.8767 39.786 17.8677 39.9249L18.3229 39.9897C18.8513 40.0639 19.1006 40.2029 19.1006 40.4533C19.1006 40.796 18.7483 40.9913 18.0905 40.9913C17.4232 40.9913 16.9415 40.778 16.6168 40.5276L16.1627 41.2777C16.6911 41.6671 17.3584 41.8528 18.081 41.8528C19.3605 41.8528 20.1022 41.2501 20.1022 40.4066C20.1022 39.6279 19.5186 39.2204 18.5542 39.0815L18.1001 39.0157C17.6831 38.9605 17.3489 38.8777 17.3489 38.5807C17.3489 38.256 17.664 38.0618 18.1924 38.0618C18.7579 38.0618 19.3054 38.2751 19.5738 38.4417L19.9908 37.6629ZM32.4214 37.1992C31.8655 37.1992 31.5037 37.4592 31.2543 37.8486V37.3107H30.2994V41.7414H31.2628V39.2576C31.2628 38.5244 31.5779 38.117 32.2082 38.117C32.4034 38.117 32.6071 38.1446 32.8108 38.2284L33.1079 37.3202C32.8946 37.2364 32.6167 37.1992 32.4214 37.1992V37.1992ZM24.1997 37.3107H22.6242V35.9664H21.6502V37.3107H20.7515V38.1913H21.6502V40.2125C21.6502 41.2406 22.0491 41.8528 23.1886 41.8528C23.6067 41.8528 24.0883 41.7233 24.3939 41.5101L24.1159 40.6846C23.8284 40.8512 23.5133 40.935 23.2629 40.935C22.7812 40.935 22.6242 40.6379 22.6242 40.1934V38.1913H24.1997V37.3107ZM9.79457 41.7414V38.9605C9.79457 37.9133 9.1272 37.2088 8.05135 37.1992C7.48584 37.1897 6.90229 37.3658 6.49381 37.9876C6.18824 37.4963 5.70654 37.1992 5.02963 37.1992C4.55642 37.1992 4.09383 37.3382 3.73203 37.8571V37.3107H2.76758V41.7414H3.74051V39.2852C3.74051 38.5159 4.16703 38.1075 4.82591 38.1075C5.4657 38.1075 5.7893 38.5244 5.7893 39.2756V41.7414H6.7633V39.2852C6.7633 38.5159 7.20786 38.1075 7.84764 38.1075C8.50546 38.1075 8.82057 38.5244 8.82057 39.2756V41.7414H9.79457Z" fill="white"/>
<path d="M53.4949 27.0086V26.3614H53.3262L53.131 26.806L52.9368 26.3614H52.7671V27.0086H52.887V26.5205L53.0695 26.9418H53.1936L53.3761 26.5195V27.0086H53.4949ZM52.4244 27.0086V26.4717H52.6408V26.3625H52.0891V26.4717H52.3056V27.0086H52.4244Z" fill="white"/>
<path d="M34.312 29.7928H19.7109V3.5563H34.312V29.7928Z" fill="#FE5F00"/>
<path d="M20.6463 16.6719C20.6463 11.3497 23.1386 6.60885 27.0197 3.55365C24.1816 1.31954 20.5996 -0.0139252 16.7068 -0.0139252C7.491 -0.0139252 0.0205078 7.45645 0.0205078 16.6719C0.0205078 25.8873 7.491 33.3577 16.7068 33.3577C20.5996 33.3577 24.1816 32.0243 27.0197 29.7901C23.1386 26.735 20.6463 21.9941 20.6463 16.6719Z" fill="url(#paint0_linear_6_3174)"/>
<path d="M54.0042 16.6719C54.0042 25.8873 46.5337 33.3577 37.3179 33.3577C33.4251 33.3577 29.8431 32.0243 27.0039 29.7901C30.8861 26.735 33.3784 21.9941 33.3784 16.6719C33.3784 11.3497 30.8861 6.60885 27.0039 3.55365C29.8431 1.31954 33.4251 -0.0139252 37.3179 -0.0139252C46.5337 -0.0139252 54.0042 7.45645 54.0042 16.6719Z" fill="url(#paint1_linear_6_3174)"/>
</g>
<defs>
<linearGradient id="paint0_linear_6_3174" x1="13.5201" y1="33.3577" x2="13.5201" y2="-0.0139269" gradientUnits="userSpaceOnUse">
<stop stop-color="#700F1A"/>
<stop offset="1" stop-color="#EB001B"/>
</linearGradient>
<linearGradient id="paint1_linear_6_3174" x1="54" y1="35" x2="24.5" y2="17" gradientUnits="userSpaceOnUse">
<stop stop-color="#C17D15"/>
<stop offset="1" stop-color="#F79F1B"/>
</linearGradient>
<clipPath id="clip0_6_3174">
<rect width="54" height="42" fill="white"/>
</clipPath>
</defs>
</svg>
