<svg width="53" height="16" viewBox="0 0 53 16" fill="none" xmlns="http://www.w3.org/2000/svg">
<path d="M4.10742 1.72253H8.47992C8.87742 1.72253 10.0699 1.59003 10.5999 3.44503C10.9974 4.63753 11.5274 6.49253 12.3224 9.27503H12.5874C13.3824 6.36003 14.0449 4.37253 14.3099 3.44503C14.8399 1.59003 16.1649 1.72253 16.6949 1.72253H20.8024V14.4425H16.5624V6.89003H16.2974L14.0449 14.4425H10.8649L8.61242 6.89003H8.21492V14.4425H4.10742M22.5249 1.72253H26.7649V9.27503H27.1624L29.9449 3.04753C30.4749 1.85503 31.6674 1.72253 31.6674 1.72253H35.6424V14.4425H31.4024V6.89003H31.1374L28.3549 13.1175C27.8249 14.31 26.4999 14.4425 26.4999 14.4425H22.5249M41.3399 10.6V14.4425H37.3649V7.81753H50.3499C49.8199 9.40753 47.9649 10.6 45.8449 10.6" fill="#0F754E"/>
<path d="M50.6151 7.02247C51.1451 4.63747 49.5551 1.72247 46.1101 1.72247H37.1001C37.3651 4.50497 39.7501 7.02247 42.2676 7.02247" fill="url(#paint0_linear_6_3396)"/>
<defs>
<linearGradient id="paint0_linear_6_3396" x1="49.0251" y1="-2.66993e-05" x2="38.4251" y2="-2.66993e-05" gradientUnits="userSpaceOnUse">
<stop stop-color="#1F5CD7"/>
<stop offset="1" stop-color="#02AEFF"/>
</linearGradient>
</defs>
</svg>
