<?xml version="1.0" encoding="UTF-8" standalone="no"?>
<!-- Created with Inkscape (http://www.inkscape.org/) -->

<svg
   version="1.1"
   id="svg1"
   width="412.97751"
   height="265.76898"
   viewBox="0 0 412.97751 265.76898"
   xmlns="http://www.w3.org/2000/svg"
   xmlns:svg="http://www.w3.org/2000/svg">
  <defs
     id="defs1" />
  <g
     id="g1"
     transform="translate(-29.115674,-128.60337)">
    <path
       style="fill:#ffffff;fill-opacity:1"
       d="m 53.996125,393.81094 c -9.775972,-1.74119 -17.597511,-7.63116 -21.9946,-16.56292 -2.954183,-6.00079 -3.132669,-6.97016 -2.722457,-14.78572 0.501252,-9.5501 2.997007,-14.99907 9.475071,-20.68688 6.449074,-5.66236 11.663078,-7.43455 21.839028,-7.42286 11.264094,0.0129 17.365414,2.4406 24.023634,9.55877 6.18244,6.60953 7.82886,10.75448 7.89535,19.87705 0.0455,6.24565 -0.4115,8.45866 -2.72222,13.1816 -6.14159,12.55295 -20.895251,19.49454 -35.793806,16.84096 z m 16.384179,-15.29817 c 5.005817,-3.81813 7.024647,-8.74303 6.508577,-15.87759 -0.47149,-6.51835 -2.44636,-9.96875 -7.785545,-13.60257 -7.779228,-5.2945 -19.745835,-1.36639 -23.360807,7.66831 -3.751604,9.37618 -0.971636,17.6164 7.850638,23.27039 4.276242,2.74055 12.18245,2.05362 16.787137,-1.45854 z m 30.712866,-14.23016 v -29.5 h 6.7757 6.77569 l 13.47431,18.03658 13.4743,18.03659 0.27256,-18.03659 0.27256,-18.03658 h 6.97744 6.97744 v 29.5 29.5 h -6.7757 -6.77569 l -13.47431,-18.03658 -13.4743,-18.03659 -0.27256,18.03659 -0.27256,18.03658 h -6.97744 -6.97744 z m 67,0 v -29.5 h 23 23 v 5.5 5.5 h -15.5 -15.5 v 6 6 h 14 14 v 6 6 h -14 -14 v 6 6 h 16 16 v 6 6 h -23.5 -23.5 z m 77,0 v -29.5 h 7.5 7.5 v 23 23 h 12.5 12.5 v 6.5 6.5 h -20 -20 z m 47,0 v -29.5 h 7.5 7.5 v 29.5 29.5 h -7.5 -7.5 z m 27,0 v -29.5 h 6.88452 6.88452 l 13.61548,18.17419 13.61548,18.17418 V 352.9568 334.78261 h 7 7 v 29.5 29.5 l -6.75,-0.0392 -6.75,-0.0392 -13.5,-18.1483 -13.5,-18.14829 -0.27256,18.1875 -0.27256,18.18749 h -6.97744 -6.97744 z m 67,0 v -29.5 h 7.47012 7.47013 l 0.27987,12.46766 0.27988,12.46767 10.97127,-12.46767 10.97127,-12.46766 h 8.27873 c 4.5533,0 8.27873,0.25194 8.27873,0.55987 0,0.30793 -4.70796,5.75686 -10.46214,12.10872 l -10.46213,11.54885 11.46213,16.79554 c 6.30418,9.23754 11.46214,17.06362 11.46214,17.39128 0,0.32766 -3.9375,0.5875 -8.75,0.57742 l -8.75,-0.0183 -7.5,-11.46337 c -4.125,-6.30485 -7.78329,-11.47161 -8.12954,-11.48168 -0.34624,-0.0101 -2.25874,1.96991 -4.25,4.39998 -3.40385,4.15395 -3.62046,4.84199 -3.62046,11.5 v 7.0817 h -7.5 -7.5 z M 124.20023,274.82045 c -12.88679,-3.16364 -23.34722,-9.21932 -33.692259,-19.50488 -7.68817,-7.64395 -9.80236,-10.49379 -13.74895,-18.53296 -2.56506,-5.225 -5.419337,-12.425 -6.342845,-16 -2.235113,-8.65236 -2.207035,-26.15668 0.0569,-35.47237 6.330625,-26.04942 28.541445,-48.14062 54.541224,-54.2475 6.70167,-1.57409 13.01881,-1.78013 54.57887,-1.78013 53.39222,0 53.59374,0.0219 69,7.49323 26.35916,12.783 41.53128,36.89039 41.57411,66.05822 0.009,5.8033 -0.19208,11.2033 -0.44578,12 -0.25371,0.7967 -0.73244,2.68605 -1.06386,4.19855 l -0.60257,2.75 -17.23095,-0.0137 c -9.47702,-0.008 -18.18598,-0.26997 -19.35325,-0.58324 -2.10107,-0.56389 -2.10483,-0.61627 -0.37651,-5.23635 5.73043,-15.31835 1.05139,-31.75505 -11.96971,-42.04765 -9.60055,-7.58874 -9.83942,-7.61906 -60.03148,-7.61906 h -44.5 l -6,2.41249 c -12.26404,4.93114 -21.76394,17.87123 -23.20567,31.60912 -1.14975,10.95573 5.19903,25.0864 14.42336,32.1025 8.01504,6.09631 13.86025,7.5555 32.58854,8.13536 l 16.80623,0.52035 2.89257,5.73015 c 3.69555,7.32085 13.13218,19.20541 20.06513,25.27018 l 5.39549,4.71985 -32.98283,-0.0736 c -28.30997,-0.0632 -34.03022,-0.33074 -40.37576,-1.88854 z m 111.1343,-0.0499 c -9.44118,-2.47385 -14.8855,-4.93295 -23.28718,-10.51837 -12.71018,-8.44971 -22.61412,-21.32888 -28.30192,-36.80406 -2.80099,-7.62084 -3.0062,-9.13264 -3.07671,-22.66548 -0.0416,-7.975 0.27052,-15.7375 0.6935,-17.25 l 0.76905,-2.75003 h 18.81429 c 10.34785,0 19.0623,0.24802 19.36543,0.55116 0.30314,0.30313 -0.35597,2.89063 -1.46467,5.75 -1.334,3.44038 -2.01583,7.56652 -2.01583,12.19884 0,15.54015 9.19542,28.74792 24.15099,34.68906 5.39601,2.14358 7.0932,2.24351 44.15901,2.60018 22.9386,0.22074 41.52718,-0.042 45.90641,-0.64888 17.93055,-2.48479 30.06347,-13.82575 33.27684,-31.10475 2.20681,-11.86652 -2.24665,-24.19385 -11.94148,-33.05437 -8.593,-7.85353 -13.65946,-9.32209 -33.78909,-9.79412 l -17,-0.39865 -5,-8.64423 c -3.4499,-5.96436 -7.9964,-11.69471 -14.66522,-18.48386 l -9.66522,-9.83962 33.66522,0.45001 c 37.24986,0.49793 40.6998,0.96091 53.67943,7.20387 30.00909,14.43379 46.71403,46.7826 41.06693,79.52536 -1.25118,7.25448 -2.84199,11.97247 -6.73018,19.96013 -4.45843,9.15911 -6.22725,11.59118 -14.22134,19.55383 -7.72013,7.68977 -10.59629,9.807 -18.62962,13.71383 -15.67157,7.62151 -17.13451,7.78008 -71.19741,7.71715 -43.17124,-0.0503 -47.93655,-0.22118 -54.56123,-1.95703 z"
       id="path1" />
  </g>
</svg>
