<?xml version="1.0" encoding="UTF-8" standalone="no"?>
<!-- Created with Inkscape (http://www.inkscape.org/) -->

<svg
   version="1.1"
   id="svg1"
   width="185.65891"
   height="134.53555"
   viewBox="0 0 185.65891 134.53555"
   xmlns="http://www.w3.org/2000/svg"
   xmlns:svg="http://www.w3.org/2000/svg">
  <defs
     id="defs1" />
  <g
     id="g1"
     transform="translate(-48.005465,-81.135049)"
     style="fill:#ffffff;fill-opacity:1">
    <path
       style="fill:#ffffff;fill-opacity:1"
       d="M 183.74592,214.97815 C 170.46412,211.62207 158.37284,200.30809 154.91432,188 c -0.69547,-2.475 -1.6908,-5.0625 -2.21185,-5.75 -0.73483,-0.96958 -11.7503,-1.25 -49.10241,-1.25 -42.901312,0 -48.409049,-0.17791 -50.483187,-1.63069 -4.902006,-3.4335 -5.11728,-5.43774 -5.111296,-47.58719 0.0035,-24.48672 0.403235,-40.71413 1.061367,-43.084138 0.707781,-2.548801 2.106823,-4.446693 4.244423,-5.757838 3.093911,-1.89772 5.215418,-1.948161 71.416283,-1.697982 L 192.9553,81.5 l 2.77235,2.770616 2.77235,2.770615 0.5,24.229389 0.5,24.22938 2.49663,0.35187 c 5.45535,0.76887 15.12832,6.14311 19.93035,11.07317 16.23054,16.66327 15.55027,42.0447 -1.55576,58.04655 -4.19424,3.9235 -8.14247,6.55303 -12.05419,8.0281 -6.55386,2.47139 -18.73778,3.45244 -24.57111,1.97846 z m 21.71323,-7.04875 c 7.3233,-2.74 15.64937,-10.41401 19.24661,-17.73931 2.43052,-4.94942 2.79424,-6.86161 2.79424,-14.69009 0,-7.81852 -0.36512,-9.7435 -2.78131,-14.66366 -4.57881,-9.32398 -13.80712,-17.00265 -23.1418,-19.25578 -10.52012,-2.53927 -23.31034,0.67701 -31.31607,7.87485 -16.89984,15.19441 -15.39132,41.72647 3.09561,54.44581 9.18504,6.31947 21.76107,7.89749 32.10272,4.02818 z m -15.79248,-6.59607 c -1.51952,-1.51951 -0.61261,-6.29189 1.40039,-7.36922 4.14992,-2.22097 9.00302,3.56581 5.73294,6.83589 -1.2834,1.2834 -6.0285,1.63817 -7.13333,0.53333 z M 191.2,187.8 c -0.66,-0.66 -1.2,-3.00384 -1.2,-5.20854 0,-3.50772 0.6247,-4.60438 5,-8.77754 4.31605,-4.11663 5,-5.29802 5,-8.63647 C 200,160.39071 197.61696,158 192.84557,158 c -3.59519,0 -6.38384,2.14982 -8.75579,6.75 -1.31054,2.54168 -4.26195,2.9524 -6.01726,0.83738 -0.90323,-1.08832 -0.84614,-2.17881 0.24867,-4.75 3.76484,-8.84183 13.9541,-12.30298 23.13493,-7.85862 4.84571,2.34577 7.54388,6.45002 7.54388,11.47519 0,4.97243 -2.03583,8.51506 -7.43646,12.94047 -2.64871,2.17042 -4.56354,4.57816 -4.56354,5.73827 0,4.68191 -3.20572,7.26159 -5.8,4.66731 z m -37.92924,-17.05 c 1.26134,-12.02771 8.1002,-22.96732 18.47674,-29.55589 C 177.0727,137.81288 185.67105,135 190.6815,135 H 194 V 127.5 120 H 124 54 v 26.17126 c 0,22.94931 0.203746,26.3964 1.654988,28 C 57.214254,175.89423 60.069142,176 105.01508,176 h 47.70511 z m -87.604093,-6.41667 c -1.236129,-1.23613 -0.678774,-4.11471 0.91512,-4.72634 C 67.451771,159.27314 75.94667,159 85.459343,159 c 14.154065,0 17.521897,0.27247 18.540657,1.5 0.99319,1.19672 0.99319,1.80328 0,3 -1.02317,1.23285 -4.488272,1.5 -19.455778,1.5 -10.015989,0 -18.510889,-0.3 -18.877555,-0.66667 z m 0.48494,-17.21847 c -0.741616,-0.46998 -1.185535,-1.70059 -0.986486,-2.73469 0.346548,-1.80038 2.17669,-1.89124 43.125649,-2.14093 37.54248,-0.22892 42.83512,-0.0747 43.34836,1.26274 0.32154,0.83792 0.0292,2.19276 -0.6497,3.01075 -1.05625,1.27271 -7.16758,1.48506 -42.36187,1.47196 -22.62016,-0.008 -41.734337,-0.39985 -42.475953,-0.86983 z M 193.81492,95.673557 c 0.18897,-2.296026 -0.3202,-4.795764 -1.27305,-6.25 L 190.95389,87 H 124.04838 C 48.400209,87 54,86.354212 54,95.078227 V 100.0136 L 123.75,99.756799 193.5,99.5 Z"
       id="path1" />
  </g>
</svg>
