<svg width="53" height="34" viewBox="0 0 53 34" fill="none" xmlns="http://www.w3.org/2000/svg">
<g clip-path="url(#clip0_6_3380)">
<path d="M10.3601 0.00012207H23.5643C25.4075 0.00012207 26.5539 1.50247 26.1239 3.35177L19.9764 29.7453C19.5426 31.5881 17.6971 33.0918 15.8527 33.0918H2.6498C0.80919 33.0918 -0.339781 31.5881 0.0901981 29.7453L6.24025 3.35177C6.67023 1.50247 8.5147 0.00012207 10.3601 0.00012207Z" fill="#E21836"/>
<path d="M22.4655 0.00012207H37.65C39.4928 0.00012207 38.6618 1.50247 38.2283 3.35177L32.0818 29.7453C31.6505 31.5881 31.7851 33.0918 29.9383 33.0918H14.7539C12.9072 33.0918 11.7643 31.5881 12.1981 29.7453L18.3443 3.35177C18.7808 1.50247 20.6214 0.00012207 22.4655 0.00012207Z" fill="#00447C"/>
<path d="M37.0477 0.00012207H50.2518C52.0976 0.00012207 53.244 1.50247 52.8104 3.35177L46.6639 29.7453C46.2301 31.5881 44.3834 33.0918 42.5379 33.0918H29.3399C27.4932 33.0918 26.3477 31.5881 26.7803 29.7453L32.9278 3.35177C33.3577 1.50247 35.2009 0.00012207 37.0477 0.00012207Z" fill="#007B84"/>
<path d="M13.8087 8.45847C12.4508 8.47231 12.0498 8.45847 11.9217 8.42821C11.8725 8.66219 10.9562 12.8889 10.9536 12.8925C10.7563 13.7476 10.6128 14.3572 10.1252 14.7508C9.84842 14.9796 9.52529 15.09 9.15067 15.09C8.5485 15.09 8.1977 14.791 8.1388 14.2239L8.12754 14.0292C8.12754 14.0292 8.31099 12.8838 8.31099 12.8773C8.31099 12.8773 9.27265 9.02555 9.44483 8.5164C9.45384 8.48743 9.45642 8.47231 9.45867 8.45847C7.58684 8.47488 7.25503 8.45847 7.23218 8.42821C7.21962 8.46973 7.17328 8.70854 7.17328 8.70854L6.19134 13.0498L6.10702 13.418L5.94385 14.6224C5.94385 14.9796 6.01401 15.2712 6.15369 15.5177C6.60105 16.2995 7.87714 16.4166 8.59903 16.4166C9.52915 16.4166 10.4017 16.219 10.9913 15.8582C12.0147 15.2535 12.2825 14.3082 12.5213 13.4682L12.632 13.0373C12.632 13.0373 13.6226 9.03682 13.791 8.5164C13.7974 8.48743 13.8 8.47231 13.8087 8.45847ZM17.1792 11.6857C16.9404 11.6857 16.504 11.7436 16.112 11.9358C15.9697 12.0088 15.8352 12.0931 15.6933 12.1771L15.8214 11.7147L15.7512 11.6368C14.9199 11.8051 14.7339 11.8276 13.966 11.9358L13.9016 11.9786C13.8124 12.7178 13.7333 13.2737 13.4027 14.7268C13.2769 15.2623 13.1462 15.803 13.0152 16.3373L13.0506 16.4052C13.8375 16.3636 14.0763 16.3636 14.7603 16.3749L14.8156 16.3147C14.9025 15.8696 14.9138 15.7653 15.1062 14.8639C15.1967 14.4365 15.3853 13.4973 15.4783 13.1629C15.6492 13.0838 15.8178 13.0059 15.9787 13.0059C16.3621 13.0059 16.3154 13.3403 16.3006 13.4735C16.2842 13.6972 16.1445 14.4278 16.0013 15.055L15.9057 15.4599C15.8391 15.7589 15.766 16.0495 15.6994 16.3459L15.7284 16.4052C16.504 16.3636 16.7405 16.3636 17.4029 16.3749L17.4808 16.3147C17.6005 15.6196 17.6356 15.4335 17.848 14.4213L17.9548 13.9563C18.1624 13.0461 18.2667 12.5846 18.1097 12.2087C17.9436 11.7874 17.5451 11.6857 17.1792 11.6857ZM20.9445 12.6386C20.5322 12.7178 20.2693 12.7706 20.0079 12.8047C19.7489 12.8462 19.4962 12.8839 19.0978 12.9392L19.0662 12.9679L19.0373 12.9907C18.9957 13.2875 18.9668 13.544 18.9117 13.8455C18.8651 14.1574 18.7933 14.5117 18.6765 15.0209C18.586 15.4106 18.5394 15.5465 18.4879 15.6836C18.4377 15.8207 18.3823 15.9539 18.2806 16.3372L18.3044 16.3726L18.3244 16.4051C18.6968 16.3874 18.9404 16.3749 19.1908 16.3726C19.4408 16.3636 19.6999 16.3726 20.1009 16.3749L20.136 16.3462L20.1737 16.3147C20.2316 15.969 20.2403 15.876 20.2757 15.7074C20.3108 15.5265 20.3713 15.2761 20.5197 14.6073C20.5898 14.2932 20.668 13.9801 20.7408 13.6595C20.8164 13.3402 20.8956 13.0258 20.9709 12.7117L20.9596 12.6737L20.9445 12.6386ZM20.9533 11.3538C20.5787 11.1327 19.9211 11.2028 19.4786 11.5083C19.0374 11.8076 18.9872 12.2324 19.3605 12.4564C19.7287 12.6714 20.3888 12.6073 20.8274 12.2993C21.2677 11.9936 21.3227 11.5726 20.9533 11.3538ZM23.2189 16.4744C23.9768 16.4744 24.7537 16.2655 25.3385 15.6457C25.7884 15.143 25.9947 14.395 26.0662 14.087C26.2989 13.0661 26.1177 12.5895 25.8902 12.2992C25.5445 11.8567 24.9336 11.7147 24.2999 11.7147C23.9189 11.7147 23.0113 11.7524 22.3023 12.406C21.7931 12.8775 21.5579 13.5174 21.4159 14.1308C21.2727 14.7558 21.1079 15.881 22.1426 16.2997C22.4619 16.4368 22.9221 16.4744 23.2189 16.4744ZM23.1597 14.1774C23.3344 13.4044 23.5407 12.7556 24.0672 12.7556C24.4798 12.7556 24.5098 13.2383 24.3263 14.014C24.2935 14.1861 24.1429 14.8263 23.9392 15.0989C23.7969 15.3 23.6286 15.422 23.4426 15.422C23.3872 15.422 23.058 15.422 23.0528 14.9331C23.0502 14.6917 23.0995 14.4452 23.1597 14.1774ZM27.9609 16.375L28.0201 16.3148C28.1041 15.8697 28.1179 15.7651 28.304 14.864C28.397 14.4366 28.5894 13.4974 28.6799 13.163C28.8511 13.0835 29.0168 13.0057 29.1829 13.0057C29.5636 13.0057 29.5173 13.3401 29.5022 13.4733C29.4883 13.6973 29.3487 14.4276 29.2029 15.0548L29.1124 15.4597C29.0432 15.759 28.9679 16.0493 28.9013 16.346L28.9303 16.4053C29.7085 16.3637 29.936 16.3637 30.6022 16.375L30.6827 16.3148C30.7995 15.6193 30.8311 15.4333 31.0499 14.4214L31.1542 13.9561C31.3627 13.0459 31.4683 12.5847 31.3138 12.2088C31.1429 11.7875 30.7419 11.6858 30.3811 11.6858C30.142 11.6858 29.7033 11.7434 29.3136 11.9359C29.1742 12.0089 29.0345 12.0929 28.8974 12.1772L29.0168 11.7148L28.9528 11.6365C28.1218 11.8052 27.9319 11.8277 27.165 11.9359L27.1061 11.9787C27.0131 12.7179 26.9374 13.2734 26.6069 14.7269C26.4811 15.2624 26.3504 15.8031 26.2197 16.3374L26.2548 16.4053C27.043 16.3637 27.2783 16.3637 27.9609 16.375ZM33.6785 16.4051C33.7275 16.1663 34.0181 14.7508 34.0207 14.7508C34.0207 14.7508 34.2681 13.7123 34.2833 13.6746C34.2833 13.6746 34.3612 13.5665 34.439 13.5237H34.5536C35.6347 13.5237 36.8554 13.5237 37.8123 12.8198C38.4633 12.337 38.9084 11.6242 39.107 10.7578C39.1585 10.5453 39.1965 10.2927 39.1965 10.0401C39.1965 9.70824 39.1299 9.37996 38.9374 9.12345C38.4495 8.44083 37.4779 8.42828 36.3563 8.42313C36.3527 8.42313 35.8033 8.42828 35.8033 8.42828C34.3676 8.44598 33.7918 8.44083 33.5553 8.41187C33.5353 8.51646 33.4977 8.70249 33.4977 8.70249C33.4977 8.70249 32.9834 11.086 32.9834 11.0899C32.9834 11.0899 31.7526 16.1576 31.6947 16.3964C32.9483 16.3813 33.4623 16.3813 33.6785 16.4051ZM34.6315 12.171C34.6315 12.171 35.1783 9.79224 35.1757 9.80125L35.1934 9.67927L35.2012 9.58626L35.4197 9.60879C35.4197 9.60879 36.5474 9.70566 36.5738 9.70824C37.0189 9.88042 37.2024 10.3242 37.0743 10.9036C36.9574 11.433 36.614 11.8781 36.1728 12.0931C35.8094 12.2752 35.3643 12.2904 34.9057 12.2904H34.609L34.6315 12.171ZM38.0361 14.2215C37.8916 14.8375 37.7255 15.9627 38.7551 16.3637C39.0833 16.5034 39.3775 16.5449 39.6765 16.5297C39.9922 16.5127 40.2848 16.3543 40.5558 16.1265C40.5313 16.2201 40.5068 16.3138 40.4824 16.4078L40.529 16.468C41.2696 16.4367 41.4994 16.4367 42.3017 16.4429L42.3745 16.3875C42.4916 15.6988 42.602 15.03 42.9065 13.7124C43.0549 13.0812 43.2029 12.4562 43.3551 11.8277L43.3313 11.7585C42.5029 11.912 42.2815 11.9448 41.4846 12.0578L41.4241 12.107C41.416 12.1711 41.4077 12.2325 41.3999 12.294C41.276 12.0938 41.0964 11.9229 40.8193 11.8164C40.465 11.677 39.6327 11.8566 38.9173 12.508C38.4146 12.9731 38.1732 13.6103 38.0361 14.2215ZM39.7759 14.2592C39.9533 13.4999 40.157 12.8575 40.6848 12.8575C41.0186 12.8575 41.1943 13.1655 41.1586 13.6908C41.1302 13.8218 41.0997 13.9599 41.0633 14.1159C41.0105 14.3416 40.9532 14.5652 40.8976 14.7892C40.8409 14.9424 40.7749 15.0869 40.7025 15.1832C40.5667 15.3756 40.2436 15.495 40.0575 15.495C40.0048 15.495 39.6791 15.495 39.6678 15.0148C39.6652 14.7757 39.7145 14.5295 39.7759 14.2592ZM48.8617 11.7523L48.7976 11.6793C47.9779 11.8453 47.8295 11.8717 47.0764 11.9734L47.0211 12.0288C47.0185 12.0378 47.0162 12.0516 47.0124 12.0642L47.0098 12.0516C46.4491 13.3451 46.4656 13.0661 46.0092 14.0844C46.0066 14.038 46.0066 14.0091 46.004 13.9598L45.8898 11.7523L45.818 11.6793C44.9593 11.8453 44.9391 11.8717 44.1461 11.9734L44.0843 12.0288C44.0756 12.0552 44.0756 12.0841 44.0704 12.1157L44.0756 12.1269C44.1747 12.6335 44.1509 12.5205 44.2503 13.32C44.2967 13.7123 44.3585 14.1069 44.4048 14.4944C44.483 15.1429 44.5268 15.4622 44.6224 16.4518C44.0868 17.3356 43.96 17.67 43.4444 18.4456L43.448 18.4534L43.0849 19.0275C43.0434 19.088 43.0058 19.1295 42.953 19.1472C42.8951 19.1759 42.8197 19.181 42.7151 19.181H42.514L42.215 20.1755L43.2407 20.1932C43.8429 20.1907 44.2214 19.909 44.4251 19.5306L45.0701 18.4254H45.0598L45.1277 18.3475C45.5615 17.4135 48.8617 11.7523 48.8617 11.7523ZM38.036 24.8134H37.6009L39.2114 19.4866H39.7457L39.9153 18.9379L39.9317 19.5481C39.9117 19.9253 40.2085 20.2597 40.988 20.2043H41.8894L42.1997 19.1786H41.8605C41.6654 19.1786 41.575 19.1294 41.5863 19.0238L41.5698 18.403H39.9005V18.4062C39.3607 18.4175 37.749 18.458 37.4226 18.5449C37.0277 18.6466 36.6116 18.9459 36.6116 18.9459L36.7751 18.3966H35.2135L34.8881 19.4866L33.2561 24.8948H32.9394L32.6288 25.9131H35.7391L35.6348 26.2527H37.1674L37.2691 25.9131H37.6991L38.036 24.8134ZM36.7599 20.569C36.5099 20.6382 36.0445 20.848 36.0445 20.848L36.4584 19.4866H37.6991L37.3998 20.4785C37.3998 20.4785 37.0164 20.5011 36.7599 20.569ZM36.7838 22.5139C36.7838 22.5139 36.394 22.5628 36.1375 22.6207C35.8849 22.6973 35.4111 22.9387 35.4111 22.9387L35.8385 21.5219H37.0856L36.7838 22.5139ZM36.0886 24.826H34.844L35.2048 23.6303H36.4455L36.0886 24.826ZM39.0857 21.5219H40.8797L40.6219 22.3568H38.8041L38.5312 23.2695H40.1218L38.9174 24.9653C38.8331 25.0899 38.7575 25.134 38.6735 25.169C38.5891 25.2119 38.4784 25.2621 38.3503 25.2621H37.9091L37.6059 26.2617H38.76C39.36 26.2617 39.7143 25.9888 39.976 25.6306L40.8018 24.5003L40.9791 25.6479C41.0168 25.8629 41.1713 25.9888 41.2759 26.0377C41.3914 26.0956 41.5108 26.1951 41.6795 26.2099C41.8603 26.2176 41.991 26.2237 42.0779 26.2237H42.645L42.9855 25.105H42.7618C42.6334 25.105 42.4123 25.0834 42.3746 25.0432C42.337 24.9943 42.337 24.919 42.3167 24.8044L42.1368 23.6541H41.4001L41.7232 23.2695H43.5375L43.8165 22.3568H42.1368L42.3985 21.5219H44.073L44.3836 20.4924H39.3912L39.0857 21.5219ZM23.9341 25.0584L24.3528 23.6655H26.0737L26.3881 22.6295H24.6656L24.9286 21.7721H26.6118L26.9236 20.7689H22.712L22.4066 21.7721H23.3634L23.1082 22.6295H22.1488L21.8308 23.6832H22.7873L22.2293 25.5261C22.154 25.77 22.2647 25.863 22.3348 25.9763C22.4066 26.0867 22.4793 26.1598 22.6428 26.2013C22.8115 26.2389 22.927 26.2615 23.0841 26.2615H25.0241L25.3698 25.1138L24.5098 25.2319C24.3438 25.2319 23.8839 25.212 23.9341 25.0584ZM24.1315 18.3903L23.6954 19.1785C23.602 19.3507 23.518 19.4575 23.4424 19.5067C23.3758 19.5483 23.2438 19.5656 23.0526 19.5656H22.8251L22.521 20.574H23.2766C23.64 20.574 23.919 20.4407 24.0523 20.3741C24.1955 20.2975 24.2332 20.3413 24.3439 20.2344L24.5991 20.0133H26.9588L27.272 18.9635H25.5447L25.8462 18.3903H24.1315ZM27.6152 25.0787C27.575 25.0207 27.6039 24.9187 27.6654 24.7063L28.3104 22.5715H30.6048C30.9392 22.5667 31.1805 22.5628 31.3376 22.5516C31.5062 22.5339 31.6897 22.4737 31.8896 22.3656C32.0959 22.2523 32.2014 22.1329 32.2906 21.9958C32.39 21.859 32.5496 21.5597 32.6868 21.0981L33.4975 18.3966L31.1165 18.4105C31.1165 18.4105 30.3833 18.5186 30.0605 18.638C29.7348 18.7712 29.2694 19.1433 29.2694 19.1433L29.4844 18.4027H28.0136L25.9545 25.2319C25.8814 25.4971 25.8325 25.6895 25.8212 25.8051C25.8174 25.9296 25.9783 26.0529 26.0826 26.1459C26.2058 26.2389 26.388 26.2238 26.5628 26.2389C26.7465 26.2528 27.0079 26.2614 27.3687 26.2614H28.499L28.8459 25.0899L27.834 25.1855C27.7259 25.1855 27.6477 25.1276 27.6152 25.0787ZM28.7265 21.1297H31.1364L30.9833 21.6099C30.9617 21.6211 30.9102 21.5861 30.6649 21.615H28.5781L28.7265 21.1297ZM29.2093 19.5192H31.6395L31.4647 20.0975C31.4647 20.0975 30.3193 20.0863 30.1358 20.1201C29.3287 20.2598 28.8572 20.691 28.8572 20.691L29.2093 19.5192ZM31.0372 23.2179C31.0172 23.2897 30.9857 23.3334 30.9416 23.3663C30.8927 23.3978 30.8135 23.4091 30.6954 23.4091H30.352L30.3723 22.8243H28.9439L28.886 25.6832C28.8838 25.8895 28.9037 26.0089 29.0547 26.1045C29.2056 26.2239 29.6707 26.239 30.2966 26.239H31.1917L31.5148 25.1689L30.7356 25.2117L30.4765 25.2268C30.4411 25.2117 30.4073 25.1979 30.3697 25.1602C30.3369 25.1277 30.2815 25.1476 30.2905 24.9413L30.2966 24.2085L31.1138 24.1747C31.555 24.1747 31.7436 24.0312 31.9046 23.8944C32.0581 23.7634 32.1083 23.6128 32.1662 23.4091L32.3033 22.7602H31.1804L31.0372 23.2179Z" fill="#FEFEFE"/>
</g>
<defs>
<clipPath id="clip0_6_3380">
<rect width="53" height="33.125" fill="white"/>
</clipPath>
</defs>
</svg>
