<svg width="54" height="17" viewBox="0 0 54 17" fill="none" xmlns="http://www.w3.org/2000/svg">
<path d="M39.2548 0.680589C37.9999 0.221465 36.6733 -0.0089266 35.3377 0.000264527C31.0183 0.000264527 27.9678 2.18489 27.9462 5.3209C27.9192 7.62479 30.114 8.9231 31.7742 9.69287C33.4777 10.4843 34.0473 10.983 34.0419 11.6905C34.0311 12.7665 32.6813 13.2544 31.426 13.2544C29.7009 13.2544 28.7588 13.0132 27.3091 12.4088L26.7719 12.1567L26.1591 15.767C27.2092 16.2061 29.1016 16.5829 31.0561 16.6154C35.6482 16.6154 38.6501 14.4443 38.6852 11.1077C38.723 9.26733 37.5352 7.87686 35.0353 6.72763C33.5155 5.98225 32.5733 5.48352 32.5733 4.72731C32.5733 4.05782 33.3805 3.34226 35.0677 3.34226C36.1907 3.31498 37.3066 3.52651 38.3423 3.96296L38.7473 4.14456L39.3601 0.656195L39.2548 0.680589ZM50.4635 0.292994H47.089C46.0389 0.292994 45.2479 0.583013 44.789 1.62925L38.2992 16.3904H42.8912L43.809 13.97L49.4134 13.9754C49.5457 14.5419 49.9506 16.3904 49.9506 16.3904H54L50.4635 0.292994ZM21.7344 0.15747H26.1105L23.3731 16.263H19.0024L21.7344 0.15205V0.15747ZM10.6256 9.03423L11.0791 11.2704L15.3553 0.292994H19.9905L13.1038 16.3687H8.47943L4.7 2.7568C4.63878 2.53235 4.49503 2.33959 4.29775 2.21742C2.93554 1.51091 1.49219 0.974749 0 0.620958L0.059391 0.28215H7.10263C8.05829 0.320097 8.82767 0.620958 9.08414 1.64551L10.6229 9.04236L10.6256 9.03423ZM45.0643 10.6768L46.8083 6.17198C46.7867 6.22077 47.1673 5.24229 47.3887 4.63786L47.6883 6.02833L48.7007 10.6741H45.0616L45.0643 10.6768Z" fill="white"/>
</svg>
