<svg width="199" height="199" viewBox="0 0 199 199" fill="none" xmlns="http://www.w3.org/2000/svg">
<path d="M169.896 87.0625C159.635 58.0831 131.962 37.3125 99.5 37.3125C67.0381 37.3125 39.3647 58.0831 29.1037 87.0625H24.875V111.938C24.875 153.168 58.2697 186.562 99.5 186.562C140.73 186.562 174.125 153.168 174.125 111.938V87.0625H169.896ZM127.484 109.699C127.484 123.442 116.353 134.574 102.609 134.574H96.3906C82.6472 134.574 71.5156 123.442 71.5156 109.699C71.5156 95.9553 82.6472 84.8238 96.3906 84.8238H102.609C116.353 84.8238 127.484 95.9553 127.484 109.699Z" fill="#FFC000"/>
<path d="M99.5 12.4375C58.2697 12.4375 24.875 45.8322 24.875 87.0625C24.875 128.293 58.2697 161.688 99.5 161.688C140.73 161.688 174.125 128.293 174.125 87.0625C174.125 45.8322 140.73 12.4375 99.5 12.4375ZM127.484 87.0625C127.484 100.806 116.353 111.938 102.609 111.938H96.3906C82.6472 111.938 71.5156 100.806 71.5156 87.0625C71.5156 73.3191 82.6472 62.1875 96.3906 62.1875H102.609C116.353 62.1875 127.484 73.3191 127.484 87.0625Z" fill="#FFDAEC"/>
<path d="M79.9114 48.2573C78.6676 49.501 76.5532 49.501 75.3095 48.2573L70.3967 43.4066C69.1529 42.1629 69.1529 40.0485 70.3967 38.8048C71.6404 37.561 73.7548 37.561 74.9986 38.8048L79.8492 43.6554C81.1551 44.8991 81.1551 47.0135 79.9114 48.2573Z" fill="#00A6ED"/>
<path d="M38.8049 87.1869C37.5611 88.4306 37.5611 90.545 38.8049 91.7888C40.0486 93.0947 42.163 93.0947 43.4068 91.7888L48.2574 86.9381C49.5011 85.6944 49.5011 83.58 48.2574 82.3363C47.0136 81.0925 44.8993 81.0925 43.6555 82.3363L38.8049 87.1869Z" fill="#00A6ED"/>
<path d="M144.524 104.226C143.28 102.983 143.28 100.868 144.524 99.6244L149.374 94.7738C150.618 93.53 152.732 93.53 153.976 94.7738C155.22 96.0175 155.22 98.1319 153.976 99.3756L149.126 104.226C147.882 105.532 145.767 105.532 144.524 104.226Z" fill="#00A6ED"/>
<path d="M73.1324 135.32C71.8886 136.564 69.7743 136.564 68.5305 135.32L63.6799 130.469C62.4361 129.226 62.4361 127.111 63.6799 125.868C64.9236 124.624 67.038 124.624 68.2818 125.868L73.1324 130.718C74.4383 131.962 74.4383 134.076 73.1324 135.32Z" fill="#00A6ED"/>
<path d="M132.086 49.8741C130.842 51.1179 130.842 53.2323 132.086 54.476C133.33 55.7819 135.444 55.7819 136.688 54.476L141.539 49.6254C142.782 48.3816 142.782 46.2673 141.539 45.0235C140.295 43.7798 138.181 43.7798 136.937 45.0235L132.086 49.8741Z" fill="#00A6ED"/>
<path d="M100.992 37.4366C99.7486 38.6804 99.7486 40.7948 100.992 42.0385C102.236 43.3444 104.351 43.3444 105.594 42.0385L110.445 37.1879C111.689 35.9441 111.689 33.8298 110.445 32.586C109.201 31.3423 107.087 31.3423 105.843 32.586L100.992 37.4366Z" fill="#FF6DC6"/>
<path d="M149.374 73.1325C150.618 74.3763 152.732 74.3763 153.976 73.1325C155.282 71.8888 155.282 69.7744 153.976 68.5306L149.126 63.68C147.882 62.4363 145.767 62.4363 144.524 63.68C143.28 64.9238 143.28 67.0381 144.524 68.2819L149.374 73.1325Z" fill="#FF6DC6"/>
<path d="M51.2424 61.2542C49.9986 60.0105 49.9986 57.8961 51.2424 56.6523L56.093 51.8017C57.3368 50.558 59.4511 50.558 60.6949 51.8017C61.9386 53.0455 61.9386 55.1598 60.6949 56.4036L55.8443 61.2542C54.6005 62.4978 52.4861 62.4978 51.2424 61.2542Z" fill="#FF6DC6"/>
<path d="M88.5549 143.156C87.3111 144.399 87.3111 146.514 88.5549 147.758C89.7986 149.063 91.913 149.063 93.1568 147.758L98.0074 142.907C99.2511 141.663 99.2511 139.549 98.0074 138.305C96.7636 137.061 94.6493 137.061 93.4055 138.305L88.5549 143.156Z" fill="#FF6DC6"/>
<path d="M135.32 129.101C134.076 130.345 131.962 130.345 130.718 129.101L125.867 124.251C124.624 123.007 124.624 120.893 125.867 119.649C127.111 118.405 129.226 118.405 130.469 119.649L135.32 124.499C136.626 125.743 136.626 127.858 135.32 129.101Z" fill="#FF6DC6"/>
<path d="M62.3116 111.004C63.5553 112.248 65.6697 112.248 66.9134 111.004C68.2194 109.698 68.2194 107.646 66.9134 106.402L62.063 101.552C60.8193 100.308 58.7049 100.308 57.4611 101.552C56.2174 102.795 56.2174 104.91 57.4611 106.153L62.3116 111.004Z" fill="#FF6DC6"/>
</svg>
