<?xml version="1.0" encoding="UTF-8" standalone="no"?>
<!-- Created with Inkscape (http://www.inkscape.org/) -->

<svg
   version="1.1"
   id="svg1"
   width="188.30583"
   height="119.87105"
   viewBox="0 0 188.30583 119.87105"
   xmlns="http://www.w3.org/2000/svg"
   xmlns:svg="http://www.w3.org/2000/svg">
  <defs
     id="defs1" />
  <g
     id="g1"
     transform="translate(-2.2562351,-2.0370684)">
    <path
       style="fill:#7d2d91;fill-opacity:1;stroke:#f4c56d;stroke-width:1;stroke-dasharray:none;stroke-opacity:1"
       d="M 24.440352,117.89223 C 12.767897,112.06857 13.261759,111.12023 10.054499,99.278827 L 9.1320653,56.069911 C 8.1771334,11.338681 8.2983454,7.9455049 3.2245734,7.9455049 c -1.0102072,0 -0.046373,-1.45577 -0.046373,-2.92244 0,-2.54815 -0.9014781,-2.4109 18.2096326,-2.4109 19.111111,0 18.721166,-0.64878 18.721166,1.89937 0,1.67901 0.389945,3.43397 -1.121166,3.43397 -5.400156,0 -6.968554,11.5750361 -6.3673,54.6963161 0.7673,55.029899 14.745406,48.742139 14.745406,48.742139 0,0 14.989199,5.62223 14.78079,-46.287809 -0.185909,-46.30593 0.579855,-47.92915 -6.142424,-55.1960801 -1.317968,-1.424746 0.19696,-6.9736927 0.19696,-6.9736927 L 170.61013,2.5944581 c 0,0 17.77689,1.8908968 17.89305,31.8320229 0.077,19.85175 -17.31847,25.30107 -17.31847,25.30107 0,0 18.27274,5.38584 18.85503,31.551276 0.65924,29.623343 -13.4843,30.129283 -13.4843,30.129283 l -145.167607,-0.0496 z m 60.503881,-1.17956 c -0.378705,-0.98689 1.06618,-3.47549 3.210855,-5.53022 2.144675,-2.05473 3.89941,-4.45942 3.89941,-5.34376 0,-1.75097 2.925015,-3.22056 6.442385,-3.2368 1.22335,-0.006 3.592187,-2.40565 5.264087,-5.333333 1.6719,-2.92769 3.5219,-5.32307 4.11111,-5.32307 0.58922,0 1.16128,-0.75 1.27126,-1.66666 0.69604,-5.80161 2.05025,-10.333336 3.08789,-10.333336 0.66407,0 0.83092,-1.5 0.37079,-3.33333 -0.51549,-2.05387 -0.26935,-3.33333 0.64126,-3.33333 1.8408,0 1.95833,-4.87902 0.14454,-6 -1.50343,-0.92917 -1.7322,-6.33898 -0.52362,-12.3819 0.51734,-2.5867 1.82029,-4.31284 3.60844,-4.78045 2.76973,-0.7243 2.13879,-2.81652 -0.86259,-2.86038 -2.5629,-0.0375 -0.84169,-9.95896 3.24959,-18.73157 1.3905,-2.98153 2.52818,-7.88173 2.52818,-10.88932 0,-5.43881 -0.0254,-5.46634 -4.70106,-5.09535 -4.70798,0.37355 -7.19915,-1.00795 -4.65402,-2.5809201 2.81903,-1.742256 1.19173,-3.499566 -2.8687,-3.097916 -3.19375,0.31592 -4.90082,1.56122 -7,5.1064761 -9.623349,16.25262 -11.760531,18.87539 -14.623813,17.94651 -1.550484,-0.50299 -4.318291,-1.00168 -6.150682,-1.10819 l -3.33162,-0.19366 -1.535153,27.33333 c -0.844334,15.03334 -2.195104,33.546906 -3.001713,41.141266 -2.342363,22.053783 -2.625983,20.924553 5.322584,21.191903 5.204637,0.17506 6.628444,-0.19042 6.10059,-1.56599 z m 76.949157,-7.33244 c 3.11566,-5.31085 4.49036,-24.901593 2.31053,-32.927339 -1.99664,-7.35132 -6.22056,-12.5074 -10.2462,-12.5074 h -3.23656 v 23.420986 c 0,13.294553 0.58512,24.514303 1.35329,25.949653 1.87079,3.49559 6.56249,1.61494 9.81894,-3.9359 z M 136.65164,82.278831 c 1.98319,-6.4374 2.01997,-9 0.12916,-9 -1.90782,0 -6.05964,6.34946 -6.05964,9.267116 0,1.98409 5.31063,1.74489 5.93048,-0.267116 z m -5.87472,-22.43752 c 0.8156,-1.52397 1.12636,-3.70002 0.69057,-4.83567 -0.43579,-1.13564 -0.0874,-2.91419 0.77415,-3.95232 1.18653,-1.42967 1.19211,-2.2619 0.023,-3.431 -1.16909,-1.1691 -1.54348,-1.11019 -1.54348,0.24285 0,0.98249 -0.86226,2.45249 -1.91613,3.26667 -1.05386,0.81418 -2.32064,3.73032 -2.81505,6.48032 -0.72689,4.0431 -0.49675,5 1.20254,5 1.15582,0 2.76879,-1.24688 3.5844,-2.77085 z m -3.96205,-0.0659 c 0.10546,-2.05937 2.27837,-7.52823 2.58125,-6.4966 1.0171,3.46431 0.7811,5.45824 -0.80149,6.77168 -1.45552,1.20797 -1.85257,1.1466 -1.77976,-0.27508 z m 31.75647,-6.64295 c 5.80151,-6.22719 7.13197,-28.88589 2.2504,-38.3258 -2.0973,-4.05574 -6.29429,-6.3895461 -8.75532,-4.8685501 -1.49583,0.9244701 -1.92797,43.6468901 -0.45638,45.1184801 1.64659,1.64658 4.32418,0.90649 6.9613,-1.92413 z m -36.29463,-8.52031 c 0,-1.1 -0.5,-2 -1.11111,-2 -0.61111,0 -1.11111,0.9 -1.11111,2 0,1.1 0.5,2 1.11111,2 0.61111,0 1.11111,-0.9 1.11111,-2 z m -1.52027,-4.40917 c -0.41052,-0.41051 -1.48639,-8.4e-4 -2.39084,0.91038 -1.30702,1.31682 -1.15387,1.46998 0.74639,0.7464 1.31496,-0.50071 2.05496,-1.24626 1.64445,-1.65678 z m 9.29805,1.07583 c 0.45322,-0.73333 0.18863,-1.33333 -0.58798,-1.33333 -0.77661,0 -1.41202,0.6 -1.41202,1.33333 0,0.73334 0.26459,1.33334 0.58798,1.33334 0.32338,0 0.95879,-0.6 1.41202,-1.33334 z m -1.31313,-14.254 c 2.33961,-5.59947 2.35729,-5.74599 0.69337,-5.74599 -1.55256,0 -3.35683,3.32501 -4.58257,8.44505 -1.24171,5.18672 1.34411,3.39219 3.8892,-2.69906 z"
       id="path11" />
  </g>
</svg>
