<?xml version="1.0" encoding="UTF-8" standalone="no"?>
<!-- Created with Inkscape (http://www.inkscape.org/) -->

<svg
   width="275.4313mm"
   height="80.66098mm"
   viewBox="0 0 275.43131 80.660981"
   version="1.1"
   id="svg5"
   xmlns="http://www.w3.org/2000/svg"
   xmlns:svg="http://www.w3.org/2000/svg">
  <defs
     id="defs2" />
  <g
     id="layer1"
     transform="translate(31.711564,-108.63275)">
    <path
       style="fill:#000000;stroke-width:0.264583"
       d="m 145.42697,189.02392 c -11.843,-1.32902 -22.69184,-10.25743 -26.31119,-21.65367 -1.45945,-4.59536 -1.42163,-3.87327 -1.52777,-29.17032 l -0.0985,-23.48177 h 2.52551 2.52552 v 3.96875 3.96875 h 14.81666 14.81667 v 2.51355 2.51354 H 137.3572 122.54054 v 15.72356 c 0,9.83448 0.10725,16.49465 0.28634,17.78232 1.55428,11.17482 10.3024,20.35476 21.54178,22.60511 0.87313,0.17482 2.98642,0.33128 4.69621,0.3477 l 3.10871,0.0299 1.4e-4,2.41432 1.5e-4,2.41432 -0.82682,0.16537 c -1.05831,0.21166 -3.23791,0.15961 -5.92006,-0.14138 z m 45.77292,0 c -3.37122,-0.37832 -6.89787,-1.43081 -10.05417,-3.00055 -9.71773,-4.833 -16.27543,-14.05606 -17.58446,-24.7316 -0.17013,-1.3875 -0.27491,-10.69024 -0.27491,-24.40781 v -22.1658 h 2.51354 2.51354 v 3.96875 3.96875 h 14.81667 14.81667 v 2.51355 2.51354 h -14.82929 -14.82929 l 0.0863,16.99948 0.0863,16.99947 0.69616,2.54558 c 2.38114,8.707 9.29515,16.02065 17.67727,18.69907 2.79384,0.89274 4.70867,1.18345 8.0035,1.21509 l 3.1087,0.0299 1.5e-4,2.41432 1.5e-4,2.41432 -0.82683,0.16537 c -1.0583,0.21166 -3.23791,0.15961 -5.92005,-0.14138 z M 67.639476,188.77279 c -4.217027,-0.60769 -9.063233,-2.53111 -13.067495,-5.18639 -2.936055,-1.94694 -7.419427,-6.43031 -9.366367,-9.36637 -2.677612,-4.03794 -4.498575,-8.639 -5.26842,-13.31182 -0.45089,-2.73682 -0.383667,-8.83875 0.128479,-11.66192 1.750528,-9.64968 7.923615,-18.35209 16.621553,-23.43196 8.761529,-5.117 20.650933,-5.61719 30.336331,-1.27625 8.082796,3.62267 15.696833,12.38331 18.140023,20.87175 1.17867,4.09505 1.23735,5.2575 1.23735,24.50862 v 18.35388 h -2.24496 -2.24496 l -0.0701,-7.70166 -0.0701,-7.70167 -1.32292,1.94288 c -1.814231,2.66444 -5.860845,6.63783 -8.814142,8.65466 -5.772005,3.94174 -11.483573,5.63282 -18.803329,5.56728 -1.981851,-0.0177 -4.317738,-0.13521 -5.190863,-0.26103 z m -1.634998,-7.37963 c -0.08977,-1.16416 -0.115768,-2.11666 -0.05776,-2.11666 0.058,0 0.938853,0.17652 1.957443,0.39228 2.957129,0.62636 8.673441,0.4785 11.31084,-0.29257 0.413895,-0.12101 0.463021,0.0911 0.463021,1.99912 0,1.93562 0.04779,2.1345 0.512955,2.1345 0.678556,0 0.757187,-0.70744 0.941075,-8.46667 0.08105,-3.41974 0.216654,-7.06921 0.301353,-8.10993 l 0.153995,-1.89222 -1.020834,-0.48352 c -1.578305,-0.74758 -3.124567,-2.46367 -3.805393,-4.22335 -0.478891,-1.23776 -0.630092,-2.26191 -0.726879,-4.92346 -0.110895,-3.04943 0.224483,-7.73358 0.629226,-8.78832 0.207812,-0.54155 1.058622,-0.54173 1.266402,-2.7e-4 0.08833,0.23019 0.1606,2.71731 0.1606,5.52694 0,4.59696 0.04957,5.16964 0.495077,5.71982 0.353317,0.43633 0.771083,0.6114 1.458989,0.6114 1.797439,0 1.866017,-0.2223 2.014683,-6.53078 l 0.132292,-5.6136 h 0.661458 0.661459 l 0.187793,5.29167 c 0.103288,2.91041 0.249261,5.53914 0.324385,5.84162 0.134157,0.54014 1.138986,1.16984 1.866767,1.16984 0.203319,0 0.672619,-0.26789 1.042884,-0.59532 0.672312,-0.59451 0.673354,-0.60253 0.778246,-5.97578 0.104447,-5.3505 0.238448,-6.09602 1.040397,-5.78828 0.451276,0.17317 0.598122,0.90033 0.999829,4.95104 0.676672,6.82338 -0.586497,10.89849 -4.044551,13.04814 l -1.341284,0.83379 0.177467,6.88351 c 0.09761,3.78594 0.247721,7.56432 0.333589,8.39641 0.142092,1.37695 0.200681,1.48903 0.652071,1.24746 0.43076,-0.23054 0.495948,-0.59162 0.495948,-2.74713 v -2.48169 l 1.298432,-0.95314 c 0.714137,-0.52422 2.232184,-1.9411 3.373438,-3.1486 6.726589,-7.1171 8.553185,-17.95462 4.503444,-26.71976 -5.635641,-12.1976 -19.637468,-17.67676 -31.92948,-12.49455 -3.82724,1.61353 -7.921135,4.91911 -10.407517,8.40347 -1.451801,2.03451 -3.120115,5.48568 -3.745294,7.74772 -0.595397,2.15428 -0.820846,7.81124 -0.412247,10.34413 1.016653,6.30219 5.083778,12.84777 10.007703,16.10627 l 1.130824,0.74835 -0.17463,2.31329 c -0.163206,2.16196 -0.138809,2.33247 0.372954,2.60636 0.301172,0.16118 0.599215,0.29306 0.662315,0.29306 0.0631,0 0.192233,-2.58961 0.286965,-5.75469 0.09473,-3.16508 0.242839,-6.72774 0.329128,-7.91703 l 0.156893,-2.16234 -1.080895,-0.55143 c -1.592604,-0.81249 -2.908734,-2.26149 -3.840813,-4.22857 -0.787932,-1.66287 -0.826011,-1.8957 -0.826011,-5.05053 0,-3.15483 0.03808,-3.38765 0.826011,-5.05052 1.428004,-3.01369 3.686619,-4.72143 6.260092,-4.73325 1.651381,-0.008 2.789684,0.49068 4.298682,1.88162 2.209943,2.03705 3.202329,4.89288 2.965371,8.53354 -0.246094,3.78105 -1.723242,6.6056 -4.367792,8.35194 l -1.383406,0.91354 1.14e-4,1.6 c 1.91e-4,2.64833 0.533596,15.33348 0.659723,15.68907 0.06452,0.1819 0.355441,0.33073 0.646493,0.33073 0.4987,0 0.519785,-0.12196 0.365964,-2.11667 z m 3.548496,-2.65079 c -0.839348,-0.13298 -1.988081,-0.36618 -2.552742,-0.51823 l -1.026652,-0.27645 -0.161891,-3.63507 c -0.08904,-1.9993 -0.200551,-4.55803 -0.247806,-5.68609 l -0.08591,-2.051 1.110609,-0.65086 c 5.01432,-2.93859 6.354345,-11.59178 2.657568,-17.16121 -3.743217,-5.6394 -10.682502,-4.87301 -13.669314,1.50967 -2.355051,5.03262 -1.413777,11.25234 2.209985,14.60306 0.775301,0.71689 1.628304,1.42655 1.895565,1.57703 0.452715,0.25491 0.472609,0.55783 0.291042,4.43194 l -0.194887,4.15833 -1.096614,-0.8551 c -4.009294,-3.12631 -7.041149,-7.73055 -8.409786,-12.77127 -0.819364,-3.01774 -0.820216,-8.62412 -0.0019,-11.62738 2.083877,-7.64669 7.787264,-13.69581 15.401007,-16.33459 2.42439,-0.84024 2.624661,-0.86568 6.862889,-0.87156 3.789439,-0.005 4.644988,0.0748 6.482292,0.60655 2.839505,0.8218 6.747298,2.90452 8.920397,4.75427 5.69036,4.84366 8.466781,11.35783 8.065212,18.92298 -0.309362,5.82808 -2.454603,10.81581 -6.470097,15.0431 -1.376579,1.44919 -3.416985,3.05677 -3.606239,2.84125 -0.05093,-0.058 -0.155689,-2.10297 -0.232796,-4.54439 l -0.140192,-4.43894 0.700606,-0.36848 c 1.258027,-0.66167 2.903545,-2.62254 3.786338,-4.51198 0.808482,-1.73038 0.872426,-2.07691 0.973114,-5.27369 0.117154,-3.71955 -0.337926,-8.60121 -0.905132,-9.70935 -0.619482,-1.21027 -1.900232,-1.37574 -2.901154,-0.37481 -0.645472,0.64547 -0.649456,0.68137 -0.653483,5.88698 -0.0021,2.88065 -0.105794,5.39809 -0.230143,5.5943 -0.124349,0.19622 -0.449948,0.31384 -0.723553,0.26137 -0.462301,-0.0887 -0.506913,-0.47854 -0.631164,-5.51614 -0.07353,-2.9814 -0.230918,-5.6182 -0.349739,-5.85953 -0.527479,-1.07136 -2.462805,-1.16301 -3.298381,-0.15621 -0.212825,0.25644 -0.386937,2.24334 -0.518292,5.91454 -0.190881,5.33493 -0.217175,5.53115 -0.751475,5.60747 -0.531714,0.076 -0.56057,-0.0647 -0.727604,-3.54756 -0.09558,-1.99466 -0.173847,-4.50621 -0.173847,-5.58123 0,-1.72244 -0.07713,-2.03169 -0.649433,-2.60399 -1.406665,-1.40667 -2.891835,-0.39423 -3.316669,2.26098 -0.486042,3.03776 -0.629147,8.18956 -0.284075,10.22683 0.555498,3.27961 2.407838,6.27016 4.584872,7.40214 l 0.731568,0.38039 -0.172868,6.01042 c -0.09508,3.30573 -0.191138,6.03525 -0.213466,6.06559 -0.02233,0.0303 -0.749996,0.24161 -1.617036,0.4695 -1.937305,0.50918 -6.599671,0.72264 -8.65877,0.39642 z M -31.711564,155.45089 v -32.82144 l 13.824479,0.0891 c 15.5280836,0.10013 15.1347434,0.056 20.2513008,2.26999 8.2885992,3.58649 12.5320582,9.31492 13.5594982,18.30457 0.819471,7.17 -1.138562,14.24599 -5.188558,18.75056 -2.5980706,2.88968 -7.2541207,5.60785 -12.1519286,7.09422 l -2.3812499,0.72265 -11.5755205,0.0952 -11.575521,0.0952 v 9.11067 9.11067 h -2.38125 -2.38125 z m 27.8176406,9.46299 c 4.1357814,-0.97487 8.7496199,-3.55205 10.9012274,-6.08918 2.6041931,-3.0708 3.808669,-6.3847 4.058385,-11.16591 0.483556,-9.2585 -3.4712032,-15.69588 -11.53585649,-18.77756 -3.54301951,-1.35387 -4.63371131,-1.45352 -15.96170851,-1.45847 l -10.517188,-0.005 v 19.07308 19.07308 l 10.649479,-0.11824 c 8.4139617,-0.0934 11.0181337,-0.20514 12.4056616,-0.5322 z M 25.438435,148.45254 v -39.81979 h 2.38125 2.38125 v 39.81979 39.81979 h -2.38125 -2.38125 z m 183.695365,19.7776 c 0.10795,-21.79622 0.047,-20.85552 1.66396,-25.68422 2.58366,-7.71553 9.61898,-15.28308 17.26877,-18.57521 3.77513,-1.62464 8.72443,-2.63654 12.87503,-2.63234 2.83141,0.003 2.77812,-0.0503 2.77812,2.77289 v 2.45222 l -1.68521,-0.13528 c -1.92871,-0.15481 -5.92325,0.26297 -8.19809,0.85742 -5.45623,1.42582 -10.83992,5.10547 -14.48085,9.89744 -1.66167,2.18697 -3.73515,6.38285 -4.52306,9.15281 -0.59864,2.10457 -0.60256,2.23045 -0.68363,22.02656 l -0.0815,19.9099 h -2.51637 -2.5164 z"
       id="path854" />
  </g>
</svg>
