<?xml version="1.0" encoding="UTF-8" standalone="no"?>
<!-- Created with Inkscape (http://www.inkscape.org/) -->

<svg
   width="116.07998mm"
   height="116.00018mm"
   viewBox="0 0 116.07998 116.00018"
   version="1.1"
   id="svg5"
   inkscape:version="1.1.1 (3bf5ae0d25, 2021-09-20)"
   sodipodi:docname="logo-icon.svg"
   inkscape:export-filename="C:\Users\Immanuel\bitmap.png"
   inkscape:export-xdpi="96"
   inkscape:export-ydpi="96"
   xmlns:inkscape="http://www.inkscape.org/namespaces/inkscape"
   xmlns:sodipodi="http://sodipodi.sourceforge.net/DTD/sodipodi-0.dtd"
   xmlns="http://www.w3.org/2000/svg"
   xmlns:svg="http://www.w3.org/2000/svg">
  <sodipodi:namedview
     id="namedview7"
     pagecolor="#ffffff"
     bordercolor="#999999"
     borderopacity="1"
     inkscape:pageshadow="0"
     inkscape:pageopacity="0"
     inkscape:pagecheckerboard="0"
     inkscape:document-units="mm"
     showgrid="false"
     fit-margin-top="0"
     fit-margin-left="0"
     fit-margin-right="0"
     fit-margin-bottom="0"
     inkscape:zoom="0.90509668"
     inkscape:cx="210.47475"
     inkscape:cy="265.71747"
     inkscape:window-width="1920"
     inkscape:window-height="1009"
     inkscape:window-x="-8"
     inkscape:window-y="-8"
     inkscape:window-maximized="1"
     inkscape:current-layer="layer1" />
  <defs
     id="defs2" />
  <g
     inkscape:label="Layer 1"
     inkscape:groupmode="layer"
     id="layer1"
     transform="translate(-48.175626,-73.37268)">
    <path
       style="fill:#000000;stroke-width:0.264583"
       d="m 99.176007,189.06689 c -1.67348,-0.21373 -3.63802,-0.53682 -4.36562,-0.71799 l -1.322917,-0.3294 -0.216035,-5.78119 c -0.118819,-3.17965 -0.173812,-5.82341 -0.122205,-5.87501 0.0516,-0.0516 0.982257,0.13798 2.068117,0.42131 2.90573,0.75817 7.541383,1.31301 10.970123,1.31301 4.21559,0 10.338,-0.85001 12.72789,-1.7671 0.40789,-0.15652 0.42706,0.27502 0.24996,5.62744 -0.1055,3.18832 -0.28703,5.89662 -0.4034,6.01844 -0.11637,0.12182 -1.50495,0.45201 -3.08572,0.73376 -3.95113,0.70423 -12.35637,0.88595 -16.500193,0.35673 z m -12.105463,-2.88185 c -1.783059,-0.62961 -3.410857,-1.28495 -3.617333,-1.45631 -0.266959,-0.22156 -0.34217,-0.70843 -0.26035,-1.68539 0.06328,-0.75561 0.291129,-6.49353 0.506333,-12.75092 0.215204,-6.2574 0.46595,-13.229 0.55721,-15.49245 l 0.165934,-4.11536 -1.757326,-0.86513 c -4.096038,-2.01647 -7.291302,-6.25601 -8.798443,-11.67394 -0.682808,-2.45459 -0.682808,-9.71624 0,-12.17083 1.387925,-4.98937 4.274582,-9.09153 7.884199,-11.20406 1.880839,-1.10076 4.703149,-1.60918 6.928443,-1.24811 4.379034,0.71052 8.441976,4.07866 10.552596,8.748 2.682233,5.93395 2.502983,13.86204 -0.45038,19.9187 -1.71928,3.52586 -4.66226,6.55704 -7.64896,7.8782 l -1.216872,0.53828 0.0031,1.77356 c 0.0019,0.97545 0.176133,6.59558 0.387559,12.48918 0.562599,15.68267 0.662815,18.17031 0.82342,20.43906 0.13185,1.86258 0.10105,2.04923 -0.33605,2.03639 -0.26466,-0.008 -1.94007,-0.52926 -3.723129,-1.15887 z m 34.331436,-0.21606 c 5.3e-4,-0.76399 0.11479,-4.48469 0.25391,-8.26823 0.13911,-3.78354 0.37642,-10.7487 0.52737,-15.47813 0.15094,-4.72942 0.34022,-9.57713 0.42062,-10.77268 l 0.14618,-2.17373 -1.799,-0.86261 c -2.67988,-1.28499 -5.25559,-3.93983 -6.62494,-6.82848 -2.53576,-5.34916 -3.00424,-11.74242 -1.63571,-22.3222 0.74691,-5.77415 1.22572,-6.74334 2.77305,-5.61305 0.48861,0.35692 0.52028,0.86849 0.65104,10.51719 0.12176,8.98447 0.19022,10.23966 0.59979,10.99744 1.25982,2.33088 5.26849,2.29917 6.38348,-0.0505 0.30067,-0.63361 0.4233,-2.94132 0.57379,-10.79801 0.12596,-6.57578 0.29069,-10.11716 0.48178,-10.35772 0.51318,-0.64601 1.36557,-0.72957 2.0218,-0.19818 l 0.61455,0.49762 0.17601,10.02749 c 0.15119,8.61382 0.23824,10.14782 0.61743,10.8811 1.16441,2.25171 4.92762,2.34611 6.28024,0.15753 0.53832,-0.87102 0.56653,-1.31132 0.70407,-10.98936 0.13278,-9.34237 0.17916,-10.11785 0.63218,-10.57087 0.58114,-0.58114 1.00925,-0.61485 1.67024,-0.13151 0.57056,0.41719 0.9113,2.69541 1.6086,10.75512 0.47569,5.49809 0.39908,8.69511 -0.28644,11.95393 -1.12701,5.35765 -4.2459,9.82935 -8.36562,11.9942 -1.66341,0.8741 -1.8106,1.02037 -1.80829,1.79702 0.001,0.46501 0.11643,3.40532 0.25566,6.53401 0.13923,3.1287 0.37468,9.31995 0.52323,13.75834 0.14854,4.43838 0.34125,9.46296 0.42823,11.16572 l 0.15816,3.09592 -1.01462,0.43182 c -1.3787,0.58677 -6.30179,2.23987 -6.67054,2.23987 -0.18228,0 -0.29684,-0.53715 -0.29625,-1.38906 z M 77.608235,181.86 C 72.683456,179.00891 69.75442,176.80601 65.996969,173.12731 51.640424,159.07165 45.443654,139.38659 49.29774,120.07946 53.47867,99.13499 68.986028,82.01545 89.386429,75.823054 107.51892,70.319067 127.76453,74.232357 142.56768,86.1025 c 15.42545,12.369145 23.60926,32.38161 21.30331,52.09456 -1.99185,17.0278 -11.86448,32.80132 -26.33039,42.06812 -3.46689,2.22087 -5.51255,3.27621 -5.78388,2.98385 -0.13099,-0.14114 -0.3199,-2.95373 -0.41982,-6.2502 l -0.18166,-5.99358 0.68757,-0.48871 c 4.35112,-3.09269 7.84997,-6.28705 10.53352,-9.61683 9.31739,-11.56113 12.69529,-26.91898 9.06751,-41.22607 -4.58923,-18.09881 -20.48029,-32.087466 -39.29741,-34.59292 -21.294125,-2.835261 -42.206219,9.873774 -49.772487,30.24853 -6.205186,16.70959 -1.867025,36.29149 10.860579,49.02328 2.381273,2.38206 6.064429,5.43497 7.580656,6.28349 0.363701,0.20354 0.428424,0.70737 0.401368,3.12453 -0.0603,5.38739 -0.355016,9.62874 -0.669055,9.62874 -0.163711,0 -1.486376,-0.68818 -2.939256,-1.52929 z m 21.937732,-6.56764 c -1.3245,-0.20466 -3.34856,-0.63946 -4.49792,-0.96623 l -2.089743,-0.59413 -0.304679,-8.86354 c -0.167571,-4.87495 -0.316399,-9.71105 -0.330729,-10.7469 l -0.02605,-1.88336 1.752491,-1.02489 c 2.13636,-1.24939 5.22025,-4.45024 6.370273,-6.61187 3.98959,-7.49899 3.99256,-17.55013 0.007,-24.71215 -3.156483,-5.6726 -7.891494,-8.75044 -13.464363,-8.75205 -5.391176,-0.002 -9.903012,3.0102 -13.111185,8.75205 -4.143248,7.41541 -3.931502,17.97209 0.509593,25.40593 1.344117,2.24988 4.381923,5.24274 6.316545,6.22309 l 1.361935,0.69015 -0.158755,3.22114 c -0.08732,1.77163 -0.234654,5.33451 -0.327419,7.9175 -0.09277,2.583 -0.232887,4.69636 -0.311383,4.69636 -0.392441,0 -4.284959,-3.17681 -6.092343,-4.97216 -10.74661,-10.67504 -15.408658,-26.13092 -12.346882,-40.93305 1.085493,-5.2478 4.043969,-11.92943 7.263479,-16.40434 5.681927,-7.897511 14.462992,-14.251353 23.289045,-16.851588 7.409803,-2.182994 16.427143,-2.361506 23.655233,-0.468291 13.11485,3.435106 23.70292,12.133039 29.38929,24.142829 1.61562,3.41224 2.47124,5.99719 3.34659,10.11056 0.5336,2.50742 0.61986,3.66144 0.62298,8.33437 0.003,4.63494 -0.0857,5.86482 -0.61004,8.4546 -0.9105,4.49672 -1.99039,7.65373 -4.03155,11.78603 -2.31026,4.67709 -4.65878,7.97989 -8.18708,11.51375 -2.53873,2.54273 -5.8331,5.28729 -6.34647,5.28729 -0.18148,0 -0.53154,-8.35282 -0.63164,-15.0713 l -0.0334,-2.23901 1.19062,-0.64936 c 0.65485,-0.35715 2.14753,-1.61179 3.31708,-2.78808 4.76283,-4.7903 6.54833,-11.23527 5.90674,-21.321 -0.37394,-5.87827 -1.16228,-11.74525 -1.73214,-12.89097 -1.31888,-2.65168 -4.3937,-2.76759 -6.2847,-0.23692 -0.52287,0.69974 -0.55101,1.15047 -0.67781,10.85753 -0.14169,10.84722 -0.16248,11.00161 -1.48151,11.00161 -1.2966,0 -1.35846,-0.45183 -1.50802,-11.01465 -0.15355,-10.84475 -0.17642,-10.99318 -1.85196,-12.01481 -1.79687,-1.09562 -4.56965,-0.37014 -5.43097,1.42096 -0.26114,0.54302 -0.39653,3.28169 -0.53064,10.733 -0.19252,10.69732 -0.21753,10.8755 -1.52632,10.8755 -1.29431,0 -1.3563,-0.45232 -1.51628,-11.06377 -0.13374,-8.87172 -0.19724,-9.95578 -0.62605,-10.68796 -1.50539,-2.57045 -4.7421,-2.56807 -6.24876,0.005 -1.29607,2.21306 -2.23111,17.34447 -1.40503,22.73705 1.0278,6.70945 3.70913,11.20977 8.36721,14.0435 l 1.71979,1.04624 -0.0527,1.8159 c -0.51009,17.5725 -0.67603,20.87653 -1.06384,21.18255 -0.49309,0.3891 -3.28757,1.0376 -6.66524,1.54676 -3.16563,0.47721 -9.671,0.45778 -12.882633,-0.0385 z"
       id="path1371" />
  </g>
</svg>
