<?xml version="1.0" standalone="no"?>
<!DOCTYPE svg PUBLIC "-//W3C//DTD SVG 20010904//EN"
 "http://www.w3.org/TR/2001/REC-SVG-20010904/DTD/svg10.dtd">
<svg version="1.0" xmlns="http://www.w3.org/2000/svg"
 width="700.000000pt" height="700.000000pt" viewBox="0 0 700.000000 700.000000"
 preserveAspectRatio="xMidYMid meet">
<metadata>
Created by potrace 1.14, written by Peter Selinger 2001-2017
</metadata>
<g transform="translate(0.000000,700.000000) scale(0.100000,-0.100000)"
fill="#000000" stroke="none">
<path d="M3422 6335 c-78 -15 -143 -48 -527 -271 -170 -100 -314 -183 -320
-185 -5 -2 -55 -31 -110 -63 -323 -190 -715 -416 -722 -416 -4 0 -14 -6 -22
-14 -9 -8 -38 -26 -66 -40 -27 -15 -59 -32 -70 -39 -37 -23 -90 -54 -135 -79
-25 -14 -142 -82 -260 -150 -407 -235 -390 -223 -420 -292 -17 -36 -19 -74
-19 -373 -1 -320 0 -336 20 -379 12 -25 20 -46 18 -47 -36 -26 -138 -110 -149
-124 -155 -190 -214 -379 -189 -611 10 -89 14 -110 33 -167 45 -131 115 -239
210 -320 l56 -49 0 -234 c0 -145 4 -249 11 -272 17 -57 55 -94 154 -151 50
-28 106 -61 126 -73 37 -22 222 -128 314 -181 44 -25 268 -155 378 -219 18
-10 138 -79 267 -154 129 -75 399 -231 600 -347 201 -117 427 -247 503 -291
76 -43 152 -88 170 -98 99 -58 230 -76 340 -47 69 19 82 26 557 301 140 81
271 157 290 167 19 11 91 53 160 93 68 40 138 81 155 90 44 25 460 265 680
393 105 60 302 175 439 254 138 79 264 155 282 168 18 13 41 44 53 68 20 40
21 60 21 290 0 201 3 247 14 254 19 10 83 71 121 114 184 206 226 576 96 839
-45 91 -51 100 -100 159 -34 40 -100 98 -169 147 -2 1 6 20 17 42 19 37 20 59
21 371 1 357 -3 385 -50 439 -17 20 -173 116 -391 242 -199 116 -364 210 -366
210 -3 0 -24 14 -48 30 -24 17 -46 30 -48 30 -3 0 -101 56 -218 123 -118 68
-239 138 -269 156 -30 17 -62 36 -70 41 -18 11 -297 170 -325 186 -11 6 -69
40 -130 76 -60 35 -148 86 -195 113 -47 26 -101 58 -120 70 -19 12 -73 43
-119 70 -47 26 -101 57 -120 68 -54 30 -132 69 -145 71 -13 3 -102 17 -131 20
-11 2 -48 -2 -83 -9z"/>
</g>
</svg>
