<?xml version="1.0" standalone="no"?>
<!DOCTYPE svg PUBLIC "-//W3C//DTD SVG 20010904//EN"
 "http://www.w3.org/TR/2001/REC-SVG-20010904/DTD/svg10.dtd">
<svg version="1.0" xmlns="http://www.w3.org/2000/svg"
 width="700.000000pt" height="700.000000pt" viewBox="0 0 700.000000 700.000000"
 preserveAspectRatio="xMidYMid meet">
<metadata>
Created by potrace 1.14, written by Peter Selinger 2001-2017
</metadata>
<g transform="translate(0.000000,700.000000) scale(0.100000,-0.100000)"
fill="#000000" stroke="none">
<path d="M2225 5978 c-387 -39 -767 -188 -1090 -427 -126 -93 -339 -306 -433
-433 -248 -332 -404 -739 -429 -1119 -6 -99 -6 -100 -37 -116 -65 -33 -106
-75 -138 -141 -28 -57 -33 -77 -33 -137 1 -81 32 -159 84 -209 l29 -28 -44
-55 c-145 -178 -173 -406 -74 -607 35 -71 109 -159 164 -197 l36 -24 0 -320
c0 -176 5 -360 10 -409 37 -321 254 -594 553 -697 45 -15 111 -33 147 -38 90
-15 4970 -15 5060 0 330 52 591 292 681 624 20 74 22 109 27 461 l4 382 25 13
c44 24 139 136 172 204 35 70 61 174 61 246 0 121 -51 261 -132 360 l-46 57
30 28 c73 70 104 194 74 297 -22 74 -69 135 -139 176 -56 33 -57 34 -57 80 0
126 -48 374 -106 548 -189 567 -608 1036 -1152 1290 -206 96 -477 169 -716
192 -135 14 -2399 13 -2531 -1z m2533 -209 c373 -40 717 -179 1012 -408 178
-137 359 -343 479 -542 147 -247 250 -560 268 -816 l6 -93 -2506 0 -2507 0 0
-105 0 -105 2579 0 2580 0 26 -22 c15 -14 28 -38 31 -59 5 -30 1 -42 -23 -69
-30 -33 -31 -34 -149 -41 -193 -13 -284 -37 -489 -132 -156 -72 -231 -94 -365
-108 -83 -9 -137 -9 -220 0 -134 14 -207 36 -369 111 -226 103 -335 129 -554
130 -225 0 -359 -29 -555 -121 -135 -64 -190 -85 -272 -103 -156 -35 -376 -28
-518 16 -37 11 -121 45 -187 75 -230 107 -344 133 -569 133 -225 0 -343 -27
-565 -130 -161 -74 -235 -96 -366 -110 -128 -14 -298 -1 -401 31 -37 12 -124
47 -193 79 -205 94 -286 116 -477 129 -100 7 -129 12 -146 27 -31 29 -40 62
-28 100 22 66 9 64 492 64 281 0 439 4 443 10 3 6 3 53 -1 105 l-7 95 -363 0
-364 0 0 54 c0 81 38 287 76 413 228 755 889 1304 1674 1392 114 13 2411 13
2528 0z m-1454 -3378 c-15 -14 -1018 -554 -1029 -554 -11 0 -1014 540 -1029
554 -6 5 417 9 1029 9 605 0 1035 -4 1029 -9z m-1775 -393 c399 -216 735 -393
746 -393 11 0 347 177 746 393 l726 392 1391 0 1392 0 0 -120 0 -120 -1110 0
-1110 0 0 -105 0 -105 1110 0 1110 0 0 -62 c0 -314 -187 -564 -476 -638 -76
-20 -116 -20 -2554 -20 -2432 0 -2478 0 -2554 20 -202 51 -369 201 -436 392
-33 95 -40 174 -40 471 l0 287 166 0 167 0 726 -392z"/>
<path d="M2310 5435 l0 -105 160 0 160 0 0 105 0 105 -160 0 -160 0 0 -105z"/>
<path d="M3340 5435 l0 -105 160 0 160 0 0 105 0 105 -160 0 -160 0 0 -105z"/>
<path d="M4370 5435 l0 -105 160 0 160 0 0 105 0 105 -160 0 -160 0 0 -105z"/>
<path d="M1794 5077 c-2 -7 -3 -56 -2 -108 l3 -94 160 0 160 0 0 105 0 105
-158 3 c-125 2 -159 0 -163 -11z"/>
<path d="M2824 5077 c-2 -7 -3 -56 -2 -108 l3 -94 160 0 160 0 0 105 0 105
-158 3 c-125 2 -159 0 -163 -11z"/>
<path d="M3854 5077 c-2 -7 -3 -56 -2 -108 l3 -94 160 0 160 0 0 105 0 105
-158 3 c-125 2 -159 0 -163 -11z"/>
<path d="M4884 5077 c-2 -7 -3 -56 -2 -108 l3 -94 160 0 160 0 0 105 0 105
-158 3 c-125 2 -159 0 -163 -11z"/>
</g>
</svg>
