<?xml version="1.0" standalone="no"?>
<!DOCTYPE svg PUBLIC "-//W3C//DTD SVG 20010904//EN"
 "http://www.w3.org/TR/2001/REC-SVG-20010904/DTD/svg10.dtd">
<svg version="1.0" xmlns="http://www.w3.org/2000/svg"
 width="700.000000pt" height="700.000000pt" viewBox="0 0 700.000000 700.000000"
 preserveAspectRatio="xMidYMid meet">
<metadata>
Created by potrace 1.14, written by Peter Selinger 2001-2017
</metadata>
<g transform="translate(0.000000,700.000000) scale(0.100000,-0.100000)"
fill="#000000" stroke="none">
<path d="M3345 6564 c-115 -8 -301 -35 -414 -60 -500 -112 -921 -344 -1287
-709 -447 -446 -707 -1003 -764 -1635 -13 -149 -13 -1171 0 -1320 56 -628 316
-1186 760 -1631 310 -311 641 -515 1050 -647 276 -89 510 -125 810 -125 714 0
1351 263 1856 767 448 449 707 1005 764 1636 13 149 13 1171 0 1320 -57 631
-316 1187 -764 1636 -419 418 -932 672 -1516 748 -120 16 -392 27 -495 20z
m514 -698 c33 -17 51 -54 51 -103 0 -32 -11 -47 -102 -140 -57 -58 -116 -112
-132 -120 -76 -40 -170 43 -146 129 10 34 187 222 225 238 31 13 73 11 104 -4z
m-1143 -318 c67 -67 115 -124 119 -140 20 -79 -49 -146 -132 -130 -31 6 -216
180 -239 224 -41 79 9 157 101 158 37 0 46 -7 151 -112z m2246 -128 c33 -26
52 -73 43 -107 -9 -38 -209 -240 -251 -253 -64 -21 -134 34 -134 105 0 43 23
76 128 178 97 93 103 97 145 97 29 0 53 -7 69 -20z m-2868 -224 c45 -19 66
-52 66 -104 0 -41 -5 -48 -97 -144 -106 -109 -134 -128 -186 -128 -67 0 -119
76 -96 138 13 35 195 220 234 238 38 17 39 17 79 0z m3234 -529 c101 -101 114
-118 115 -150 2 -89 -82 -144 -161 -103 -15 8 -71 59 -124 114 -94 97 -98 103
-98 145 0 74 51 121 120 112 28 -4 55 -26 148 -118z m-3645 -557 c36 -28 50
-83 33 -124 -8 -17 -62 -78 -120 -136 -104 -102 -107 -105 -152 -105 -39 0
-50 5 -75 33 -33 37 -38 85 -15 130 16 30 180 193 211 210 33 18 90 14 118 -8z
m2095 -116 c170 -35 325 -118 446 -239 62 -63 156 -191 156 -215 0 -24 -92
-152 -153 -213 -106 -106 -214 -172 -367 -223 l-85 -29 -275 0 -275 0 -85 29
c-154 51 -265 119 -368 224 -62 62 -152 188 -152 212 0 24 94 152 156 215 118
118 275 203 439 238 101 22 459 23 563 1z m1633 -333 c24 -24 29 -38 29 -77 0
-46 -2 -49 -102 -152 -116 -118 -151 -139 -204 -122 -49 16 -74 53 -74 108 0
45 2 48 113 159 112 112 113 113 161 113 39 0 53 -5 77 -29z m-3268 -215 c18
-7 78 -61 135 -118 92 -95 102 -109 102 -142 0 -74 -42 -116 -117 -116 -32 0
-47 11 -141 103 -109 106 -137 150 -127 197 7 31 50 76 80 83 33 8 34 8 68 -7z
m2415 -640 c32 -17 205 -191 221 -223 38 -74 -36 -165 -122 -149 -24 4 -60 34
-142 116 -110 110 -110 110 -110 159 0 88 77 137 153 97z m-2076 -324 c112
-112 118 -120 118 -159 0 -75 -67 -126 -138 -105 -56 17 -238 204 -247 254
-13 69 40 128 115 128 30 0 47 -13 152 -118z m953 -344 c31 -28 44 -73 34
-113 -11 -39 -214 -241 -252 -250 -64 -16 -127 40 -127 113 0 44 2 47 113 159
112 111 115 113 160 113 33 0 53 -6 72 -22z"/>
</g>
</svg>
