<svg width="251" height="163" viewBox="0 0 251 163" fill="none" xmlns="http://www.w3.org/2000/svg">
<g filter="url(#filter0_d_2_3155)">
<rect x="247" y="2" width="153" height="243" rx="8" transform="rotate(90 247 2)" fill="black"/>
</g>
<rect x="249" width="153" height="243" rx="8" transform="rotate(90 249 0)" fill="black"/>
<g opacity="0.75">
<path fill-rule="evenodd" clip-rule="evenodd" d="M146 4H149V7H146V4ZM146 19H149V22H146V19ZM149 34H146V37H149V34ZM146 49H149V52H146V49ZM146 64H149V67H146V64ZM146 79H149V82H146V79ZM146 94H149V97H146V94ZM146 108H149V111H146V108ZM146 122H149V125H146V122ZM146 136H149V139H146V136ZM149 150H146V153H149V150ZM134 150H131V153H134V150ZM119 150H116V153H119V150ZM104 150H101V153H104V150ZM89 150H86V153H89V150ZM74 150H71V153H74V150ZM59 150H56V153H59V150ZM44 150H41V153H44V150ZM29 150H26V153H29V150ZM14 150H11V153H14V150ZM134 136H131V139H134V136ZM116 136H119V139H116V136ZM104 136H101V139H104V136ZM86 136H89V139H86V136ZM74 136H71V139H74V136ZM56 136H59V139H56V136ZM44 136H41V139H44V136ZM26 136H29V139H26V136ZM14 136H11V139H14V136ZM134 122H131V125H134V122ZM116 122H119V125H116V122ZM104 122H101V125H104V122ZM86 122H89V125H86V122ZM74 122H71V125H74V122ZM56 122H59V125H56V122ZM44 122H41V125H44V122ZM26 122H29V125H26V122ZM14 122H11V125H14V122ZM134 108H131V111H134V108ZM116 108H119V111H116V108ZM104 108H101V111H104V108ZM86 108H89V111H86V108ZM74 108H71V111H74V108ZM56 108H59V111H56V108ZM44 108H41V111H44V108ZM26 108H29V111H26V108ZM14 108H11V111H14V108ZM134 94H131V97H134V94ZM116 94H119V97H116V94ZM104 94H101V97H104V94ZM86 94H89V97H86V94ZM74 94H71V97H74V94ZM56 94H59V97H56V94ZM44 94H41V97H44V94ZM26 94H29V97H26V94ZM14 94H11V97H14V94ZM134 79H131V82H134V79ZM116 79H119V82H116V79ZM104 79H101V82H104V79ZM86 79H89V82H86V79ZM74 79H71V82H74V79ZM56 79H59V82H56V79ZM44 79H41V82H44V79ZM26 79H29V82H26V79ZM14 79H11V82H14V79ZM134 64H131V67H134V64ZM116 64H119V67H116V64ZM104 64H101V67H104V64ZM86 64H89V67H86V64ZM74 64H71V67H74V64ZM56 64H59V67H56V64ZM44 64H41V67H44V64ZM26 64H29V67H26V64ZM14 64H11V67H14V64ZM134 49H131V52H134V49ZM101 49H104V52H101V49ZM89 49H86V52H89V49ZM71 49H74V52H71V49ZM59 49H56V52H59V49ZM41 49H44V52H41V49ZM29 49H26V52H29V49ZM11 49H14V52H11V49ZM131 34H134V37H131V34ZM104 34H101V37H104V34ZM86 34H89V37H86V34ZM74 34H71V37H74V34ZM56 34H59V37H56V34ZM44 34H41V37H44V34ZM26 34H29V37H26V34ZM14 34H11V37H14V34ZM134 19H131V22H134V19ZM116 19H119V22H116V19ZM104 19H101V22H104V19ZM86 19H89V22H86V19ZM74 19H71V22H74V19ZM56 19H59V22H56V19ZM44 19H41V22H44V19ZM26 19H29V22H26V19ZM14 19H11V22H14V19ZM134 4H131V7H134V4ZM116 4H119V7H116V4ZM104 4H101V7H104V4ZM86 4H89V7H86V4ZM74 4H71V7H74V4ZM56 4H59V7H56V4ZM44 4H41V7H44V4ZM26 4H29V7H26V4ZM14 4H11V7H14V4Z" fill="url(#paint0_linear_2_3155)"/>
<g clip-path="url(#clip0_2_3155)">
<path fill-rule="evenodd" clip-rule="evenodd" d="M294 4H297V7H294V4ZM294 19H297V22H294V19ZM297 34H294V37H297V34ZM294 49H297V52H294V49ZM294 64H297V67H294V64ZM294 79H297V82H294V79ZM294 94H297V97H294V94ZM294 108H297V111H294V108ZM294 122H297V125H294V122ZM294 136H297V139H294V136ZM297 150H294V153H297V150ZM282 150H279V153H282V150ZM267 150H264V153H267V150ZM252 150H249V153H252V150ZM237 150H234V153H237V150ZM222 150H219V153H222V150ZM207 150H204V153H207V150ZM192 150H189V153H192V150ZM177 150H174V153H177V150ZM162 150H159V153H162V150ZM282 136H279V139H282V136ZM264 136H267V139H264V136ZM252 136H249V139H252V136ZM234 136H237V139H234V136ZM222 136H219V139H222V136ZM204 136H207V139H204V136ZM192 136H189V139H192V136ZM174 136H177V139H174V136ZM162 136H159V139H162V136ZM282 122H279V125H282V122ZM264 122H267V125H264V122ZM252 122H249V125H252V122ZM234 122H237V125H234V122ZM222 122H219V125H222V122ZM204 122H207V125H204V122ZM192 122H189V125H192V122ZM174 122H177V125H174V122ZM162 122H159V125H162V122ZM282 108H279V111H282V108ZM264 108H267V111H264V108ZM252 108H249V111H252V108ZM234 108H237V111H234V108ZM222 108H219V111H222V108ZM204 108H207V111H204V108ZM192 108H189V111H192V108ZM174 108H177V111H174V108ZM162 108H159V111H162V108ZM282 94H279V97H282V94ZM264 94H267V97H264V94ZM252 94H249V97H252V94ZM234 94H237V97H234V94ZM222 94H219V97H222V94ZM204 94H207V97H204V94ZM192 94H189V97H192V94ZM174 94H177V97H174V94ZM162 94H159V97H162V94ZM282 79H279V82H282V79ZM264 79H267V82H264V79ZM252 79H249V82H252V79ZM234 79H237V82H234V79ZM222 79H219V82H222V79ZM204 79H207V82H204V79ZM192 79H189V82H192V79ZM174 79H177V82H174V79ZM162 79H159V82H162V79ZM282 64H279V67H282V64ZM264 64H267V67H264V64ZM252 64H249V67H252V64ZM234 64H237V67H234V64ZM222 64H219V67H222V64ZM204 64H207V67H204V64ZM192 64H189V67H192V64ZM174 64H177V67H174V64ZM162 64H159V67H162V64ZM282 49H279V52H282V49ZM249 49H252V52H249V49ZM237 49H234V52H237V49ZM219 49H222V52H219V49ZM207 49H204V52H207V49ZM189 49H192V52H189V49ZM177 49H174V52H177V49ZM159 49H162V52H159V49ZM279 34H282V37H279V34ZM252 34H249V37H252V34ZM234 34H237V37H234V34ZM222 34H219V37H222V34ZM204 34H207V37H204V34ZM192 34H189V37H192V34ZM174 34H177V37H174V34ZM162 34H159V37H162V34ZM282 19H279V22H282V19ZM264 19H267V22H264V19ZM252 19H249V22H252V19ZM234 19H237V22H234V19ZM222 19H219V22H222V19ZM204 19H207V22H204V19ZM192 19H189V22H192V19ZM174 19H177V22H174V19ZM162 19H159V22H162V19ZM282 4H279V7H282V4ZM264 4H267V7H264V4ZM252 4H249V7H252V4ZM234 4H237V7H234V4ZM222 4H219V7H222V4ZM204 4H207V7H204V4ZM192 4H189V7H192V4ZM174 4H177V7H174V4ZM162 4H159V7H162V4Z" fill="url(#paint1_linear_2_3155)"/>
</g>
</g>
<rect x="249" width="153" height="243" rx="8" transform="rotate(90 249 0)" fill="url(#paint2_linear_2_3155)"/>
<rect x="249" y="18" width="27" height="243" transform="rotate(90 249 18)" fill="#8C8C8C"/>
<rect x="226" y="52" width="27" height="201" transform="rotate(90 226 52)" fill="#FEE2E1"/>
<rect x="178" y="52" width="48" height="27" fill="white"/>
<defs>
<filter id="filter0_d_2_3155" x="0" y="2" width="251" height="161" filterUnits="userSpaceOnUse" color-interpolation-filters="sRGB">
<feFlood flood-opacity="0" result="BackgroundImageFix"/>
<feColorMatrix in="SourceAlpha" type="matrix" values="0 0 0 0 0 0 0 0 0 0 0 0 0 0 0 0 0 0 127 0" result="hardAlpha"/>
<feOffset dy="4"/>
<feGaussianBlur stdDeviation="2"/>
<feColorMatrix type="matrix" values="0 0 0 0 0 0 0 0 0 0 0 0 0 0 0 0 0 0 0.25 0"/>
<feBlend mode="normal" in2="BackgroundImageFix" result="effect1_dropShadow_2_3155"/>
<feBlend mode="normal" in="SourceGraphic" in2="effect1_dropShadow_2_3155" result="shape"/>
</filter>
<linearGradient id="paint0_linear_2_3155" x1="80" y1="4" x2="80" y2="153" gradientUnits="userSpaceOnUse">
<stop stop-color="#00B6FF"/>
<stop offset="1" stop-color="#F4DE10"/>
</linearGradient>
<linearGradient id="paint1_linear_2_3155" x1="228" y1="4" x2="228" y2="153" gradientUnits="userSpaceOnUse">
<stop stop-color="#00B6FF"/>
<stop offset="1" stop-color="#F4DE10"/>
</linearGradient>
<linearGradient id="paint2_linear_2_3155" x1="249" y1="243" x2="402" y2="-4.78824e-06" gradientUnits="userSpaceOnUse">
<stop stop-color="white" stop-opacity="0.33"/>
<stop offset="0.390033" stop-color="white" stop-opacity="0.2"/>
<stop offset="1" stop-color="white" stop-opacity="0"/>
</linearGradient>
<clipPath id="clip0_2_3155">
<rect width="85" height="149" fill="white" transform="translate(159 4)"/>
</clipPath>
</defs>
</svg>
