<svg xlmns="http://www.w3.org/2000/svg" class="svg-symbol"><symbol id="httpsc0piktochartcomv2themesbasesvgsstar03svg-original" viewBox="0 0.7839999794960022 32 30.433000564575195" preserveAspectRatio="none" xmlns:xlink="http://www.w3.org/1999/xlink" version="1.1" x="0px" y="0px" enable-background="new 0 0 32 32" xml:space="preserve">
<path xmlns="http://www.w3.org/2000/svg" d="M32,12.408l-11.056-1.607L16,0.784l-4.944,10.018L0,12.408l8,7.799l-1.889,11.01L16,26.018l9.889,5.199L24,20.207L32,12.408  z"></path>
</symbol><symbol id="httpsc0piktochartcomv2themesbasesvgsstar03svg-custom" viewBox="0 0.7839999794960022 32 30.433000564575195" preserveAspectRatio="none" xmlns:xlink="http://www.w3.org/1999/xlink" version="1.1" x="0px" y="0px" enable-background="new 0 0 32 32" xml:space="preserve">
<path xmlns="http://www.w3.org/2000/svg" d="M32,12.408l-11.056-1.607L16,0.784l-4.944,10.018L0,12.408l8,7.799l-1.889,11.01L16,26.018l9.889,5.199L24,20.207L32,12.408  z" fill="currentColor"></path>
</symbol><symbol id="httpsc0piktochartcomv2themesbasesvgs241022dbanner36svg-original" viewBox="0 11.815000534057617 32 8.370000839233398" preserveAspectRatio="none" xmlns:xlink="http://www.w3.org/1999/xlink" version="1.1" x="0px" y="0px" enable-background="new 0 0 32 32" xml:space="preserve">
<path xmlns="http://www.w3.org/2000/svg" d="M31.426,13.229L32,12.536l-0.597-0.721v0H0.597v0L0,12.536l0.574,0.693L0,13.922l0.574,0.693L0,15.307L0.574,16L0,16.693  l0.574,0.693L0,18.078l0.574,0.693L0,19.464l0.597,0.721v0h30.805v0L32,19.464l-0.574-0.693L32,18.078l-0.574-0.693L32,16.693  L31.426,16L32,15.307l-0.574-0.693L32,13.922L31.426,13.229z"></path>
</symbol><symbol id="httpsc0piktochartcomv2themesbasesvgs241022dbanner36svg-custom" viewBox="0 11.815000534057617 32 8.370000839233398" preserveAspectRatio="none" xmlns:xlink="http://www.w3.org/1999/xlink" version="1.1" x="0px" y="0px" enable-background="new 0 0 32 32" xml:space="preserve">
<path xmlns="http://www.w3.org/2000/svg" d="M31.426,13.229L32,12.536l-0.597-0.721v0H0.597v0L0,12.536l0.574,0.693L0,13.922l0.574,0.693L0,15.307L0.574,16L0,16.693  l0.574,0.693L0,18.078l0.574,0.693L0,19.464l0.597,0.721v0h30.805v0L32,19.464l-0.574-0.693L32,18.078l-0.574-0.693L32,16.693  L31.426,16L32,15.307l-0.574-0.693L32,13.922L31.426,13.229z" fill="currentColor"></path>
</symbol><symbol id="httpsc0piktochartcomv2themesbasesvgsfunkyHamburgersvg-original" viewBox="0 4.503000259399414 32 22.993999481201172" preserveAspectRatio="none" xmlns:xlink="http://www.w3.org/1999/xlink" version="1.1" x="0px" y="0px" enable-background="new 0 0 32 32" xml:space="preserve">
<g xmlns="http://www.w3.org/2000/svg">
	<g>
		<path fill="#FFCA66" d="M1.003,16c0,6.345,1.157,11.488,15.013,11.497V4.503C2.003,4.511,1.003,9.654,1.003,16z"></path>
		<path fill="#EEB758" d="M16.047,4.503c-0.01,0-0.021,0-0.031,0v22.994c0.01,0,0.021,0,0.031,0    c13.885,0,15.044-5.147,15.044-11.497C31.091,9.65,30.088,4.503,16.047,4.503z"></path>
	</g>
	<g>
		<path fill="#A1AE39" d="M11.043,12.495c0,0-1.17-1.139-5.015,0c-4.387,1.299-4.556,0-4.556,0s-0.501,1.118-0.501,4.006    c0,2.889,0.501,3.913,0.501,3.913s0.75-0.943,4.556,0c2.402,0.596,2.583,0.782,5.015,0c3.217-1.034,4.973,0,4.973,0v-7.919    C13.007,13.675,11.043,12.495,11.043,12.495z"></path>
		<path fill="#8F9E3A" d="M30.559,12.495c0,0-2.03-0.944-5.475,0c-4.305,1.181-4.514,0-4.514,0s-1.758-1.097-4.554,0v7.919    c0,0,1.476,1,5.056,0c3.029-0.847,3.343-0.22,3.97,0c2.132,1.159,5.517,0,5.517,0s0.501-1.285,0.501-3.977    C31.06,13.745,30.559,12.495,30.559,12.495z"></path>
	</g>
	<g>
		<path fill="#EB6C52" d="M2,14.009c-1.104,0-2,0.822-2,1.835v1.261c0,1.014,0.896,1.835,2,1.835h14.016v-4.931H2z"></path>
		<path fill="#DD5431" d="M30,14.009H16.016v4.931H30c1.104,0,2-0.821,2-1.835v-1.261C32,14.831,31.104,14.009,30,14.009z"></path>
	</g>
</g>
</symbol><symbol id="httpsc0piktochartcomv2themesbasesvgsfunkyHamburgersvg-custom" viewBox="0 4.503000259399414 32 22.993999481201172" preserveAspectRatio="none" xmlns:xlink="http://www.w3.org/1999/xlink" version="1.1" x="0px" y="0px" enable-background="new 0 0 32 32" xml:space="preserve">
<g xmlns="http://www.w3.org/2000/svg">
	<g>
		<path fill="currentColor" d="M1.003,16c0,6.345,1.157,11.488,15.013,11.497V4.503C2.003,4.511,1.003,9.654,1.003,16z"></path>
		<path fill="currentColor" d="M16.047,4.503c-0.01,0-0.021,0-0.031,0v22.994c0.01,0,0.021,0,0.031,0    c13.885,0,15.044-5.147,15.044-11.497C31.091,9.65,30.088,4.503,16.047,4.503z"></path>
	</g>
	<g>
		<path fill="currentColor" d="M11.043,12.495c0,0-1.17-1.139-5.015,0c-4.387,1.299-4.556,0-4.556,0s-0.501,1.118-0.501,4.006    c0,2.889,0.501,3.913,0.501,3.913s0.75-0.943,4.556,0c2.402,0.596,2.583,0.782,5.015,0c3.217-1.034,4.973,0,4.973,0v-7.919    C13.007,13.675,11.043,12.495,11.043,12.495z"></path>
		<path fill="currentColor" d="M30.559,12.495c0,0-2.03-0.944-5.475,0c-4.305,1.181-4.514,0-4.514,0s-1.758-1.097-4.554,0v7.919    c0,0,1.476,1,5.056,0c3.029-0.847,3.343-0.22,3.97,0c2.132,1.159,5.517,0,5.517,0s0.501-1.285,0.501-3.977    C31.06,13.745,30.559,12.495,30.559,12.495z"></path>
	</g>
	<g>
		<path fill="currentColor" d="M2,14.009c-1.104,0-2,0.822-2,1.835v1.261c0,1.014,0.896,1.835,2,1.835h14.016v-4.931H2z"></path>
		<path fill="currentColor" d="M30,14.009H16.016v4.931H30c1.104,0,2-0.821,2-1.835v-1.261C32,14.831,31.104,14.009,30,14.009z"></path>
	</g>
</g>
</symbol><symbol id="httpsc0piktochartcomv2themesbasesvgs29July2015pizzasvg-original" viewBox="0.0 0.0 32.0 32.0" preserveAspectRatio="none" xmlns:xlink="http://www.w3.org/1999/xlink" version="1.1" x="0px" y="0px" enable-background="new 0 0 32 32" xml:space="preserve">
<path xmlns="http://www.w3.org/2000/svg" id="XMLID_3_" fill="#C6965C" d="M16,31.9C7.2,31.9,0.1,24.8,0.1,16S7.2,0.1,16,0.1S31.9,7.2,31.9,16S24.8,31.9,16,31.9z"></path>
<circle xmlns="http://www.w3.org/2000/svg" id="XMLID_4_" fill="#F2C172" cx="16" cy="16" r="14.7"></circle>
<path xmlns="http://www.w3.org/2000/svg" id="XMLID_5_" fill="#F4DC79" d="M19.6,2.6l1.1,0.6c0.3,0.2,0.7,0.3,1.1,0.4L23,4c2.4,0.7,4.2,2.6,5,5l0.4,1.2  c0.1,0.4,0.3,0.7,0.4,1.1l0.6,1.1c1.1,2.3,1.1,4.9,0,7.2l-0.6,1.1c-0.2,0.3-0.3,0.7-0.4,1.1L28,22.9c-0.8,2.4-2.7,4.3-5.1,5.1  l-1.2,0.4c-0.4,0.1-0.7,0.3-1.1,0.4l-2.8,1.4c-1.2,0.6-2.6,0.6-3.8,0l-2.8-1.4c-0.3-0.2-0.7-0.3-1.1-0.4l-1-0.4  c-2.4-0.8-4.3-2.7-5.1-5.1l-0.4-1.2c-0.1-0.4-0.3-0.7-0.4-1.1l-0.6-1.1c-1.1-2.3-1.1-4.9,0-7.2l0.6-1.1c0.2-0.3,0.3-0.7,0.4-1.1  l1.2-3.7C5.1,5.6,5.7,5,6.5,4.7l4.3-1.4l1.6-0.8C14.7,1.4,17.3,1.4,19.6,2.6z"></path>
<path xmlns="http://www.w3.org/2000/svg" id="XMLID_6_" fill="#538E53" d="M7.3,12.7c0.2,0,0.2-0.3,0-0.3C7.1,12.4,7.1,12.7,7.3,12.7z"></path>
<path xmlns="http://www.w3.org/2000/svg" id="XMLID_7_" fill="#538E53" d="M10.5,13.2c0.2,0,0.2-0.3,0-0.3C10.3,12.8,10.3,13.2,10.5,13.2z"></path>
<path xmlns="http://www.w3.org/2000/svg" id="XMLID_8_" fill="#538E53" d="M13.6,13.6c0.2,0,0.2-0.3,0-0.3C13.4,13.3,13.4,13.6,13.6,13.6z"></path>
<path xmlns="http://www.w3.org/2000/svg" id="XMLID_9_" fill="#538E53" d="M16.4,8.9c0.2,0,0.2-0.3,0-0.3C16.2,8.6,16.2,8.9,16.4,8.9z"></path>
<path xmlns="http://www.w3.org/2000/svg" id="XMLID_10_" fill="#538E53" d="M17.7,7.8c0.2,0,0.2-0.3,0-0.3S17.5,7.8,17.7,7.8z"></path>
<path xmlns="http://www.w3.org/2000/svg" id="XMLID_11_" fill="#538E53" d="M18.2,13.6c0.2,0,0.2-0.3,0-0.3C18,13.2,18,13.6,18.2,13.6z"></path>
<path xmlns="http://www.w3.org/2000/svg" id="XMLID_12_" fill="#538E53" d="M24.7,16.2c0.2,0,0.2-0.3,0-0.3C24.5,15.9,24.5,16.2,24.7,16.2z"></path>
<path xmlns="http://www.w3.org/2000/svg" id="XMLID_13_" fill="#538E53" d="M24.3,18.6c0.2,0,0.2-0.3,0-0.3C24.1,18.3,24.1,18.6,24.3,18.6z"></path>
<path xmlns="http://www.w3.org/2000/svg" id="XMLID_14_" fill="#538E53" d="M22.3,19.8c0.2,0,0.2-0.3,0-0.3C22,19.4,22,19.8,22.3,19.8z"></path>
<path xmlns="http://www.w3.org/2000/svg" id="XMLID_15_" fill="#538E53" d="M24.2,21c0.2,0,0.2-0.3,0-0.3S24,21,24.2,21z"></path>
<path xmlns="http://www.w3.org/2000/svg" id="XMLID_16_" fill="#538E53" d="M21.2,16.2c0.2,0,0.2-0.3,0-0.3C21,15.8,21,16.2,21.2,16.2z"></path>
<path xmlns="http://www.w3.org/2000/svg" id="XMLID_17_" fill="#538E53" d="M15.7,19.7c0.2,0,0.2-0.3,0-0.3C15.4,19.4,15.4,19.7,15.7,19.7z"></path>
<path xmlns="http://www.w3.org/2000/svg" id="XMLID_18_" fill="#538E53" d="M18,19.5c0.2,0,0.2-0.3,0-0.3C17.8,19.1,17.8,19.5,18,19.5z"></path>
<path xmlns="http://www.w3.org/2000/svg" id="XMLID_19_" fill="#538E53" d="M21.5,19.4c0.2,0,0.2-0.3,0-0.3S21.3,19.4,21.5,19.4z"></path>
<path xmlns="http://www.w3.org/2000/svg" id="XMLID_20_" fill="#538E53" d="M27.1,14c0.2,0,0.2-0.3,0-0.3S26.9,14,27.1,14z"></path>
<path xmlns="http://www.w3.org/2000/svg" id="XMLID_21_" fill="#538E53" d="M13.8,18.5c0.2,0,0.2-0.3,0-0.3C13.6,18.1,13.6,18.5,13.8,18.5z"></path>
<path xmlns="http://www.w3.org/2000/svg" id="XMLID_22_" fill="#538E53" d="M4.6,14.9c0.2,0,0.2-0.3,0-0.3C4.4,14.6,4.4,14.9,4.6,14.9z"></path>
<path xmlns="http://www.w3.org/2000/svg" id="XMLID_23_" fill="#538E53" d="M5.9,21.6c0.2,0,0.2-0.3,0-0.3C5.7,21.3,5.7,21.6,5.9,21.6z"></path>
<path xmlns="http://www.w3.org/2000/svg" id="XMLID_24_" fill="#538E53" d="M11.4,21.9c0.2,0,0.2-0.3,0-0.3C11.2,21.5,11.2,21.9,11.4,21.9z"></path>
<path xmlns="http://www.w3.org/2000/svg" id="XMLID_25_" fill="#538E53" d="M15.1,20.3c0.2,0,0.2-0.3,0-0.3C14.9,20,14.9,20.3,15.1,20.3z"></path>
<path xmlns="http://www.w3.org/2000/svg" id="XMLID_26_" fill="#538E53" d="M14.4,24.5c0.2,0,0.2-0.3,0-0.3C14.2,24.1,14.2,24.5,14.4,24.5z"></path>
<path xmlns="http://www.w3.org/2000/svg" id="XMLID_27_" fill="#538E53" d="M12.4,23.1c0.2,0,0.2-0.3,0-0.3C12.1,22.7,12.1,23.1,12.4,23.1z"></path>
<path xmlns="http://www.w3.org/2000/svg" id="XMLID_28_" fill="#538E53" d="M9.1,26.2c0.2,0,0.2-0.3,0-0.3C8.9,25.9,8.9,26.2,9.1,26.2z"></path>
<path xmlns="http://www.w3.org/2000/svg" id="XMLID_29_" fill="#538E53" d="M16,27.7C16,27.7,16.1,27.7,16,27.7c0.3,0,0.3-0.3,0.1-0.3H16C15.8,27.3,15.8,27.7,16,27.7z"></path>
<path xmlns="http://www.w3.org/2000/svg" id="XMLID_30_" fill="#538E53" d="M14.8,14.7c0.2,0,0.2-0.3,0-0.3S14.6,14.7,14.8,14.7z"></path>
<path xmlns="http://www.w3.org/2000/svg" id="XMLID_31_" fill="#538E53" d="M12.9,15.4c0.2,0,0.2-0.3,0-0.3C12.7,15.1,12.7,15.4,12.9,15.4z"></path>
<path xmlns="http://www.w3.org/2000/svg" id="XMLID_32_" fill="#538E53" d="M15.7,12.9c0.2,0,0.2-0.3,0-0.3C15.5,12.6,15.5,12.9,15.7,12.9z"></path>
<path xmlns="http://www.w3.org/2000/svg" id="XMLID_33_" fill="#538E53" d="M18.5,15c0.2,0,0.2-0.3,0-0.3S18.3,15,18.5,15z"></path>
<path xmlns="http://www.w3.org/2000/svg" id="XMLID_34_" fill="#538E53" d="M19.4,7c0.2,0,0.2-0.3,0-0.3C19.2,6.7,19.2,7,19.4,7z"></path>
<path xmlns="http://www.w3.org/2000/svg" id="XMLID_35_" fill="#538E53" d="M15,4.2c0.2,0,0.2-0.3,0-0.3C14.8,3.8,14.8,4.2,15,4.2z"></path>
<path xmlns="http://www.w3.org/2000/svg" id="XMLID_36_" fill="#538E53" d="M6.9,8.2c0.2,0,0.2-0.3,0-0.3C6.7,7.9,6.7,8.2,6.9,8.2z"></path>
<path xmlns="http://www.w3.org/2000/svg" id="XMLID_37_" fill="#538E53" d="M25.8,14.6c0.2,0,0.2-0.3,0-0.3C25.6,14.3,25.6,14.6,25.8,14.6z"></path>
<path xmlns="http://www.w3.org/2000/svg" id="XMLID_38_" fill="#538E53" d="M23,23.7c0.2,0,0.2-0.3,0-0.3C22.8,23.4,22.8,23.7,23,23.7z"></path>
<path xmlns="http://www.w3.org/2000/svg" id="XMLID_39_" fill="#538E53" d="M22.5,25.5c0.2,0,0.2-0.3,0-0.3S22.3,25.5,22.5,25.5z"></path>
<circle xmlns="http://www.w3.org/2000/svg" id="XMLID_40_" fill="#C74A30" cx="16" cy="8.4" r="2.9"></circle>
<path xmlns="http://www.w3.org/2000/svg" id="XMLID_41_" fill="#973528" d="M16.5,6.2c0.6,0.1,1.1,0.5,1.4,1c0.1,0.2,0,0.4-0.2,0.4L16.5,8c-0.2,0.1-0.4-0.1-0.4-0.3V6.5  C16.2,6.3,16.3,6.2,16.5,6.2z"></path>
<path xmlns="http://www.w3.org/2000/svg" id="XMLID_42_" fill="#973528" d="M14.1,7.2c0.3-0.5,0.8-0.9,1.4-1c0.2,0,0.3,0.1,0.3,0.3v1.3c0,0.2-0.2,0.3-0.4,0.3l-1.2-0.4  C14,7.6,14,7.4,14.1,7.2z"></path>
<path xmlns="http://www.w3.org/2000/svg" id="XMLID_43_" fill="#973528" d="M16,10.7c-0.3,0-0.6-0.1-0.9-0.2c-0.2-0.1-0.2-0.3-0.1-0.4L15.8,9c0.1-0.2,0.3-0.2,0.5,0  l0.8,1.1c0.1,0.1,0,0.4-0.1,0.4C16.6,10.6,16.3,10.7,16,10.7z"></path>
<path xmlns="http://www.w3.org/2000/svg" id="XMLID_44_" fill="#973528" d="M14.7,9.9c-0.1,0.1-0.3,0.2-0.4,0C14,9.5,13.8,9,13.8,8.4c0-0.1,0-0.1,0-0.2  C13.8,8,14,7.9,14.2,8l1.2,0.4c0.2,0.1,0.3,0.3,0.1,0.4L14.7,9.9z"></path>
<path xmlns="http://www.w3.org/2000/svg" id="XMLID_45_" fill="#973528" d="M16.6,8.4L17.9,8c0.2-0.1,0.4,0.1,0.4,0.2c0,0.1,0,0.1,0,0.2c0,0.5-0.2,1.1-0.5,1.5  c-0.1,0.1-0.3,0.1-0.4,0l-0.8-1.1C16.4,8.7,16.5,8.4,16.6,8.4z"></path>
<ellipse xmlns="http://www.w3.org/2000/svg" id="XMLID_46_" transform="matrix(-0.5878 -0.809 0.809 -0.5878 18.2428 24.5667)" fill="#D7604D" cx="15.38" cy="7.636" rx="0.3" ry="0.2"></ellipse>
<ellipse xmlns="http://www.w3.org/2000/svg" id="XMLID_47_" transform="matrix(-0.9511 0.309 -0.309 -0.9511 32.1555 12.3205)" fill="#D7604D" cx="15.102" cy="8.706" rx="0.3" ry="0.2"></ellipse>
<ellipse xmlns="http://www.w3.org/2000/svg" id="XMLID_48_" fill="#D7604D" cx="16" cy="9.4" rx="0.2" ry="0.3"></ellipse>
<ellipse xmlns="http://www.w3.org/2000/svg" id="XMLID_49_" transform="matrix(0.9511 0.309 -0.309 0.9511 3.5175 -4.7953)" fill="#D7604D" cx="16.898" cy="8.708" rx="0.3" ry="0.2"></ellipse>
<ellipse xmlns="http://www.w3.org/2000/svg" id="XMLID_50_" transform="matrix(0.5878 -0.809 0.809 0.5878 0.6727 16.593)" fill="#D7604D" cx="16.62" cy="7.636" rx="0.3" ry="0.2"></ellipse>
<circle xmlns="http://www.w3.org/2000/svg" id="XMLID_51_" fill="#C74A30" cx="9.4" cy="12.2" r="2.9"></circle>
<path xmlns="http://www.w3.org/2000/svg" id="XMLID_52_" fill="#973528" d="M7.8,10.7c0.4-0.4,1-0.7,1.6-0.7c0.2,0,0.3,0.2,0.3,0.3l-0.3,1.3c0,0.2-0.3,0.3-0.4,0.2  l-1.1-0.7C7.7,11,7.7,10.8,7.8,10.7z"></path>
<path xmlns="http://www.w3.org/2000/svg" id="XMLID_53_" fill="#973528" d="M7.4,13.3c-0.3-0.5-0.4-1.2-0.2-1.7c0.1-0.2,0.3-0.3,0.4-0.2L8.8,12c0.2,0.1,0.2,0.3,0,0.5  l-1,0.9C7.7,13.5,7.5,13.5,7.4,13.3z"></path>
<path xmlns="http://www.w3.org/2000/svg" id="XMLID_54_" fill="#973528" d="M11.4,13.3c-0.2,0.3-0.4,0.5-0.6,0.7c-0.1,0.1-0.4,0.1-0.4-0.1l-0.5-1.2  c-0.1-0.2,0-0.4,0.2-0.4l1.3-0.1c0.2,0,0.3,0.1,0.3,0.3C11.6,12.8,11.5,13.1,11.4,13.3z"></path>
<path xmlns="http://www.w3.org/2000/svg" id="XMLID_55_" fill="#973528" d="M10.1,14c0.1,0.2,0,0.4-0.2,0.4c-0.5,0.1-1.1,0-1.6-0.3c-0.1,0-0.1-0.1-0.2-0.1  c-0.1,0-0.1-0.3,0-0.4l1-0.9c0.1-0.1,0.4-0.1,0.4,0.1L10.1,14z"></path>
<path xmlns="http://www.w3.org/2000/svg" id="XMLID_56_" fill="#973528" d="M9.7,11.6l0.3-1.3c0-0.2,0.2-0.3,0.4-0.2c0.1,0,0.1,0.1,0.2,0.1c0.5,0.3,0.8,0.7,1,1.2  c0.1,0.2-0.1,0.4-0.2,0.4L10,12C9.8,12,9.7,11.8,9.7,11.6z"></path>
<ellipse xmlns="http://www.w3.org/2000/svg" id="XMLID_57_" transform="matrix(-0.9945 0.1045 -0.1045 -0.9945 18.2089 23.6379)" fill="#D7604D" cx="8.485" cy="12.296" rx="0.3" ry="0.2"></ellipse>
<ellipse xmlns="http://www.w3.org/2000/svg" id="XMLID_58_" transform="matrix(-0.2079 0.9781 -0.9781 -0.2079 24.0583 6.8438)" fill="#D7604D" cx="9.258" cy="13.163" rx="0.3" ry="0.2"></ellipse>
<ellipse xmlns="http://www.w3.org/2000/svg" id="XMLID_59_" transform="matrix(0.866 0.5 -0.5 0.866 7.6866 -3.4322)" fill="#D7604D" cx="10.248" cy="12.627" rx="0.3" ry="0.2"></ellipse>
<ellipse xmlns="http://www.w3.org/2000/svg" id="XMLID_60_" transform="matrix(0.7431 -0.6691 0.6691 0.7431 -5.1495 9.7241)" fill="#D7604D" cx="10.091" cy="11.569" rx="0.3" ry="0.2"></ellipse>
<ellipse xmlns="http://www.w3.org/2000/svg" id="XMLID_61_" transform="matrix(-0.4067 -0.9136 0.9136 -0.4067 2.2962 24.1349)" fill="#D7604D" cx="8.985" cy="11.322" rx="0.3" ry="0.2"></ellipse>
<circle xmlns="http://www.w3.org/2000/svg" id="XMLID_62_" fill="#C74A30" cx="9.4" cy="19.8" r="2.9"></circle>
<path xmlns="http://www.w3.org/2000/svg" id="XMLID_63_" fill="#973528" d="M7.3,20.4c-0.2-0.6-0.1-1.2,0.2-1.7c0.1-0.2,0.3-0.2,0.4-0.1l1,0.9C9,19.6,9,19.9,8.8,20  l-1.1,0.7C7.5,20.7,7.3,20.6,7.3,20.4z"></path>
<path xmlns="http://www.w3.org/2000/svg" id="XMLID_64_" fill="#973528" d="M9.4,22.1c-0.6,0-1.2-0.3-1.6-0.7c-0.1-0.1-0.1-0.3,0.1-0.4L9,20.3c0.2-0.1,0.4,0,0.4,0.2  l0.3,1.3C9.7,21.9,9.6,22.1,9.4,22.1z"></path>
<path xmlns="http://www.w3.org/2000/svg" id="XMLID_65_" fill="#973528" d="M11.4,18.7c0.2,0.3,0.2,0.6,0.3,0.8c0,0.2-0.1,0.3-0.3,0.3l-1.3-0.1c-0.2,0-0.3-0.2-0.2-0.4  l0.5-1.2c0.1-0.2,0.3-0.2,0.4-0.1C11,18.2,11.2,18.4,11.4,18.7z"></path>
<path xmlns="http://www.w3.org/2000/svg" id="XMLID_66_" fill="#973528" d="M11.3,20.2c0.2,0,0.3,0.2,0.2,0.4c-0.2,0.5-0.5,0.9-1,1.2c-0.1,0-0.1,0.1-0.2,0.1  c-0.2,0.1-0.4,0-0.4-0.2l-0.3-1.3c0-0.2,0.1-0.4,0.3-0.3L11.3,20.2z"></path>
<path xmlns="http://www.w3.org/2000/svg" id="XMLID_67_" fill="#973528" d="M9.1,19.2l-1-0.9c-0.1,0-0.1-0.3,0-0.4c0.1,0,0.1-0.1,0.2-0.1c0.5-0.3,1-0.4,1.6-0.3  c0.2,0,0.3,0.2,0.2,0.4l-0.5,1.2C9.4,19.3,9.2,19.4,9.1,19.2z"></path>
<ellipse xmlns="http://www.w3.org/2000/svg" id="XMLID_68_" transform="matrix(-0.4067 0.9136 -0.9136 -0.4067 31.6566 20.7105)" fill="#D7604D" cx="9.103" cy="20.634" rx="0.3" ry="0.2"></ellipse>
<ellipse xmlns="http://www.w3.org/2000/svg" id="XMLID_69_" transform="matrix(0.7431 0.6691 -0.6691 0.7431 16.276 -1.5586)" fill="#D7604D" cx="10.168" cy="20.421" rx="0.3" ry="0.2"></ellipse>
<ellipse xmlns="http://www.w3.org/2000/svg" id="XMLID_70_" transform="matrix(0.866 -0.5 0.5 0.866 -8.2641 7.7036)" fill="#D7604D" cx="10.243" cy="19.272" rx="0.3" ry="0.2"></ellipse>
<ellipse xmlns="http://www.w3.org/2000/svg" id="XMLID_71_" transform="matrix(-0.2079 -0.9781 0.9781 -0.2079 -7.3724 31.8406)" fill="#D7604D" cx="9.206" cy="18.905" rx="0.3" ry="0.2"></ellipse>
<ellipse xmlns="http://www.w3.org/2000/svg" id="XMLID_72_" transform="matrix(-0.9945 -0.1045 0.1045 -0.9945 14.8866 40.153)" fill="#D7604D" cx="8.495" cy="19.687" rx="0.3" ry="0.2"></ellipse>
<circle xmlns="http://www.w3.org/2000/svg" id="XMLID_73_" fill="#C74A30" cx="16" cy="23.6" r="2.9"></circle>
<path xmlns="http://www.w3.org/2000/svg" id="XMLID_74_" fill="#973528" d="M15.5,25.8c-0.6-0.1-1.1-0.5-1.4-1c-0.1-0.2,0-0.4,0.2-0.4l1.2-0.4c0.2-0.1,0.4,0.1,0.4,0.3  v1.3C15.8,25.7,15.7,25.8,15.5,25.8z"></path>
<path xmlns="http://www.w3.org/2000/svg" id="XMLID_75_" fill="#973528" d="M17.9,24.8c-0.3,0.5-0.8,0.9-1.4,1c-0.2,0-0.3-0.1-0.3-0.3v-1.3c0-0.2,0.2-0.3,0.4-0.3  l1.2,0.4C18,24.4,18,24.6,17.9,24.8z"></path>
<path xmlns="http://www.w3.org/2000/svg" id="XMLID_76_" fill="#973528" d="M16,21.3c0.3,0,0.6,0.1,0.9,0.2c0.2,0.1,0.2,0.3,0.1,0.4L16.2,23c-0.1,0.2-0.3,0.2-0.5,0  L15,21.9c-0.1-0.1,0-0.4,0.1-0.4C15.4,21.4,15.7,21.3,16,21.3z"></path>
<path xmlns="http://www.w3.org/2000/svg" id="XMLID_77_" fill="#973528" d="M17.3,22.1c0.1-0.1,0.3-0.2,0.4,0c0.3,0.4,0.5,0.9,0.5,1.5c0,0.1,0,0.1,0,0.2  c0,0.2-0.2,0.3-0.4,0.2l-1.2-0.4c-0.2-0.1-0.3-0.3-0.1-0.4L17.3,22.1z"></path>
<path xmlns="http://www.w3.org/2000/svg" id="XMLID_78_" fill="#973528" d="M15.4,23.6L14.1,24c-0.2,0.1-0.4-0.1-0.4-0.2s0-0.1,0-0.2c0-0.5,0.2-1.1,0.5-1.5  c0.1-0.1,0.3-0.1,0.4,0l0.8,1.1C15.6,23.3,15.5,23.6,15.4,23.6z"></path>
<ellipse xmlns="http://www.w3.org/2000/svg" id="XMLID_79_" transform="matrix(0.5878 0.809 -0.809 0.5878 26.4871 -3.3065)" fill="#D7604D" cx="16.488" cy="24.339" rx="0.3" ry="0.2"></ellipse>
<ellipse xmlns="http://www.w3.org/2000/svg" id="XMLID_80_" transform="matrix(0.9511 -0.309 0.309 0.9511 -6.3732 6.3602)" fill="#D7604D" cx="16.894" cy="23.302" rx="0.3" ry="0.2"></ellipse>
<ellipse xmlns="http://www.w3.org/2000/svg" id="XMLID_81_" fill="#D7604D" cx="16" cy="22.6" rx="0.2" ry="0.3"></ellipse>
<ellipse xmlns="http://www.w3.org/2000/svg" id="XMLID_82_" transform="matrix(-0.9511 -0.309 0.309 -0.9511 22.273 50.1277)" fill="#D7604D" cx="15.106" cy="23.3" rx="0.3" ry="0.2"></ellipse>
<ellipse xmlns="http://www.w3.org/2000/svg" id="XMLID_83_" transform="matrix(-0.5878 0.809 -0.809 -0.5878 44.3206 26.0959)" fill="#D7604D" cx="15.512" cy="24.339" rx="0.3" ry="0.2"></ellipse>
<circle xmlns="http://www.w3.org/2000/svg" id="XMLID_84_" fill="#C74A30" cx="22.6" cy="19.8" r="2.9"></circle>
<path xmlns="http://www.w3.org/2000/svg" id="XMLID_85_" fill="#973528" d="M24.2,21.3c-0.4,0.4-1,0.7-1.6,0.7c-0.2,0-0.3-0.2-0.3-0.3l0.3-1.3c0-0.2,0.3-0.3,0.4-0.2  l1.1,0.7C24.3,21,24.3,21.2,24.2,21.3z"></path>
<path xmlns="http://www.w3.org/2000/svg" id="XMLID_86_" fill="#973528" d="M24.6,18.7c0.3,0.5,0.4,1.2,0.2,1.7c-0.1,0.2-0.3,0.3-0.4,0.2L23.2,20  c-0.2-0.1-0.2-0.3,0-0.5l1-0.9C24.3,18.5,24.5,18.5,24.6,18.7z"></path>
<path xmlns="http://www.w3.org/2000/svg" id="XMLID_87_" fill="#973528" d="M20.6,18.7c0.2-0.3,0.4-0.5,0.6-0.7c0.1-0.1,0.4-0.1,0.4,0.1l0.5,1.2c0.1,0.2,0,0.4-0.2,0.4  l-1.3,0.1c-0.2,0-0.3-0.1-0.3-0.3C20.4,19.2,20.5,18.9,20.6,18.7z"></path>
<path xmlns="http://www.w3.org/2000/svg" id="XMLID_88_" fill="#973528" d="M21.9,18c-0.1-0.2,0-0.4,0.2-0.4c0.5-0.1,1.1,0,1.6,0.3c0.1,0,0.1,0.1,0.2,0.1  c0.2,0.1,0.2,0.3,0,0.4l-1,0.9c-0.1,0.1-0.4,0.1-0.4-0.1L21.9,18z"></path>
<path xmlns="http://www.w3.org/2000/svg" id="XMLID_89_" fill="#973528" d="M22.3,20.4L22,21.6c0,0.2-0.2,0.3-0.4,0.2c-0.1,0-0.1-0.1-0.2-0.1c-0.5-0.3-0.8-0.7-1-1.2  c-0.1-0.2,0.1-0.4,0.2-0.4L22,20C22.2,20,22.3,20.2,22.3,20.4z"></path>
<ellipse xmlns="http://www.w3.org/2000/svg" id="XMLID_90_" transform="matrix(0.9945 -0.1045 0.1045 0.9945 -1.9285 2.564)" fill="#D7604D" cx="23.504" cy="19.686" rx="0.3" ry="0.2"></ellipse>
<ellipse xmlns="http://www.w3.org/2000/svg" id="XMLID_91_" transform="matrix(0.2079 -0.9781 0.9781 0.2079 -0.438 37.2689)" fill="#D7604D" cx="22.793" cy="18.905" rx="0.3" ry="0.2"></ellipse>
<ellipse xmlns="http://www.w3.org/2000/svg" id="XMLID_92_" transform="matrix(-0.866 -0.5 0.5 -0.866 30.9629 46.8433)" fill="#D7604D" cx="21.757" cy="19.273" rx="0.3" ry="0.2"></ellipse>
<ellipse xmlns="http://www.w3.org/2000/svg" id="XMLID_93_" transform="matrix(-0.7431 0.6691 -0.6691 -0.7431 51.723 20.9893)" fill="#D7604D" cx="21.833" cy="20.422" rx="0.3" ry="0.2"></ellipse>
<ellipse xmlns="http://www.w3.org/2000/svg" id="XMLID_94_" transform="matrix(0.4067 0.9136 -0.9136 0.4067 32.4345 -8.6775)" fill="#D7604D" cx="22.898" cy="20.633" rx="0.3" ry="0.2"></ellipse>
<circle xmlns="http://www.w3.org/2000/svg" id="XMLID_95_" fill="#C74A30" cx="22.6" cy="12.2" r="2.9"></circle>
<path xmlns="http://www.w3.org/2000/svg" id="XMLID_96_" fill="#973528" d="M24.7,11.6c0.2,0.6,0.1,1.2-0.2,1.7c-0.1,0.2-0.3,0.2-0.4,0.1l-1-0.9c-0.1-0.1-0.1-0.4,0-0.5  l1.1-0.7C24.5,11.3,24.7,11.4,24.7,11.6z"></path>
<path xmlns="http://www.w3.org/2000/svg" id="XMLID_97_" fill="#973528" d="M22.6,9.9c0.6,0,1.2,0.3,1.6,0.7c0.1,0.1,0.1,0.3-0.1,0.4L23,11.7c-0.2,0.1-0.4,0-0.4-0.2  l-0.3-1.3C22.3,10.1,22.4,9.9,22.6,9.9z"></path>
<path xmlns="http://www.w3.org/2000/svg" id="XMLID_98_" fill="#973528" d="M20.6,13.3c-0.2-0.3-0.2-0.6-0.3-0.8c0-0.2,0.1-0.3,0.3-0.3l1.3,0.1c0.2,0,0.3,0.2,0.2,0.4  l-0.5,1.2c-0.1,0.2-0.3,0.2-0.4,0.1C21,13.8,20.8,13.6,20.6,13.3z"></path>
<path xmlns="http://www.w3.org/2000/svg" id="XMLID_99_" fill="#973528" d="M20.7,11.8c-0.2,0-0.3-0.2-0.2-0.4c0.2-0.5,0.5-0.9,1-1.2c0.1,0,0.1-0.1,0.2-0.1  c0.2-0.1,0.4,0,0.4,0.2l0.3,1.3c0,0.2-0.1,0.4-0.3,0.3L20.7,11.8z"></path>
<path xmlns="http://www.w3.org/2000/svg" id="XMLID_100_" fill="#973528" d="M22.9,12.8l1,0.9c0.1,0.1,0.1,0.3,0,0.4c-0.1,0-0.1,0.1-0.2,0.1c-0.5,0.3-1,0.4-1.6,0.3  c-0.2,0-0.3-0.2-0.2-0.4l0.5-1.2C22.6,12.7,22.8,12.6,22.9,12.8z"></path>
<ellipse xmlns="http://www.w3.org/2000/svg" id="XMLID_101_" transform="matrix(0.4067 -0.9136 0.9136 0.4067 3.3114 27.7404)" fill="#D7604D" cx="23.014" cy="11.321" rx="0.3" ry="0.2"></ellipse>
<ellipse xmlns="http://www.w3.org/2000/svg" id="XMLID_102_" transform="matrix(-0.7431 -0.6691 0.6691 -0.7431 30.446 34.829)" fill="#D7604D" cx="21.908" cy="11.571" rx="0.3" ry="0.2"></ellipse>
<ellipse xmlns="http://www.w3.org/2000/svg" id="XMLID_103_" transform="matrix(-0.866 0.5 -0.5 -0.866 46.9044 12.6871)" fill="#D7604D" cx="21.752" cy="12.628" rx="0.3" ry="0.2"></ellipse>
<ellipse xmlns="http://www.w3.org/2000/svg" id="XMLID_104_" transform="matrix(0.2079 0.9781 -0.9781 0.2079 30.8896 -11.8206)" fill="#D7604D" cx="22.743" cy="13.162" rx="0.3" ry="0.2"></ellipse>
<ellipse xmlns="http://www.w3.org/2000/svg" id="XMLID_105_" transform="matrix(0.9945 0.1045 -0.1045 0.9945 1.4136 -2.3901)" fill="#D7604D" cx="23.516" cy="12.295" rx="0.3" ry="0.2"></ellipse>
<path xmlns="http://www.w3.org/2000/svg" id="XMLID_106_" fill="#518E4D" d="M25.6,17.1c-0.1,0-0.2-0.1-0.2-0.2c0.1-0.2,0.3-0.5,0.6-0.6c0.4-0.1,0.8-0.1,1.1,0.1  c0.2,0.1,0.2,0.2,0.4,0.4c0.3,0.3,0.5,0.4,0.8,0.5c-0.6,0.4-1,0.4-1.2,0.4c-0.4-0.1-0.6-0.4-1.1-0.5C25.8,17.1,25.7,17.1,25.6,17.1z  "></path>
<path xmlns="http://www.w3.org/2000/svg" id="XMLID_107_" fill="#518E4D" d="M20.7,24.2c0-0.1,0.1-0.2,0.3-0.1c0.2,0.1,0.4,0.3,0.5,0.7c0.1,0.4,0,0.8-0.2,1  c-0.1,0.2-0.2,0.2-0.5,0.3c-0.3,0.2-0.5,0.5-0.6,0.7c-0.3-0.6-0.3-1-0.2-1.2c0.1-0.4,0.5-0.5,0.6-1C20.7,24.4,20.7,24.3,20.7,24.2z"></path>
<path xmlns="http://www.w3.org/2000/svg" id="XMLID_108_" fill="#518E4D" d="M11.4,22.9c0-0.1,0.2-0.2,0.3-0.1c0.2,0.2,0.4,0.4,0.4,0.8s-0.2,0.8-0.5,0.9  c-0.2,0.1-0.3,0.1-0.5,0.2c-0.3,0.1-0.6,0.4-0.7,0.5c-0.2-0.7-0.1-1.1,0.1-1.3c0.2-0.3,0.6-0.4,0.9-0.8C11.4,23.1,11.4,23,11.4,22.9  z"></path>
<path xmlns="http://www.w3.org/2000/svg" id="XMLID_109_" fill="#518E4D" d="M7.2,16.1c0.1,0,0.2,0.1,0.2,0.2c-0.1,0.2-0.2,0.5-0.5,0.7s-0.8,0.2-1.1,0.1  c-0.2-0.1-0.2-0.2-0.5-0.4c-0.3-0.2-0.6-0.3-0.8-0.3c0.5-0.5,0.9-0.6,1.1-0.6c0.4,0,0.6,0.3,1.2,0.3C7,16.2,7.1,16.2,7.2,16.1z"></path>
<path xmlns="http://www.w3.org/2000/svg" id="XMLID_110_" fill="#518E4D" d="M16.8,16.2c0.1,0.1,0.1,0.2-0.1,0.3c-0.2,0.1-0.5,0.1-0.9-0.1s-0.6-0.5-0.6-0.9  c0-0.2,0.1-0.3,0.1-0.6c0-0.4,0-0.7-0.1-0.9c0.7,0.2,1,0.5,1.1,0.7c0.2,0.4,0.1,0.7,0.3,1.2C16.7,16,16.8,16.1,16.8,16.2z"></path>
<path xmlns="http://www.w3.org/2000/svg" id="XMLID_111_" fill="#518E4D" d="M21.9,8.1c0.1,0,0.2,0.1,0.2,0.2c-0.1,0.2-0.3,0.5-0.6,0.6C21,9.1,20.6,9,20.4,8.8  c-0.2-0.1-0.2-0.2-0.4-0.4c-0.3-0.3-0.5-0.4-0.8-0.5c0.6-0.4,1-0.4,1.2-0.4C20.8,7.6,21,8,21.5,8.1C21.7,8.1,21.8,8.1,21.9,8.1z"></path>
<path xmlns="http://www.w3.org/2000/svg" id="XMLID_112_" fill="#518E4D" d="M11.5,8c0.1,0.1,0.1,0.2,0,0.3c-0.2,0.1-0.5,0.2-0.9,0C10.2,8.2,10,7.9,9.9,7.6  c0-0.2,0-0.3,0-0.6c0-0.4-0.1-0.7-0.2-0.9c0.7,0.1,1,0.3,1.2,0.5c0.1,0.4,0,0.7,0.4,1.2C11.3,7.9,11.4,7.9,11.5,8z"></path>
</symbol><symbol id="httpsc0piktochartcomv2themesbasesvgs29July2015pizzasvg-custom" viewBox="0.0 0.0 32.0 32.0" preserveAspectRatio="none" xmlns:xlink="http://www.w3.org/1999/xlink" version="1.1" x="0px" y="0px" enable-background="new 0 0 32 32" xml:space="preserve">
<path xmlns="http://www.w3.org/2000/svg" id="XMLID_3_" fill="currentColor" d="M16,31.9C7.2,31.9,0.1,24.8,0.1,16S7.2,0.1,16,0.1S31.9,7.2,31.9,16S24.8,31.9,16,31.9z"></path>
<circle xmlns="http://www.w3.org/2000/svg" id="XMLID_4_" fill="currentColor" cx="16" cy="16" r="14.7"></circle>
<path xmlns="http://www.w3.org/2000/svg" id="XMLID_5_" fill="currentColor" d="M19.6,2.6l1.1,0.6c0.3,0.2,0.7,0.3,1.1,0.4L23,4c2.4,0.7,4.2,2.6,5,5l0.4,1.2  c0.1,0.4,0.3,0.7,0.4,1.1l0.6,1.1c1.1,2.3,1.1,4.9,0,7.2l-0.6,1.1c-0.2,0.3-0.3,0.7-0.4,1.1L28,22.9c-0.8,2.4-2.7,4.3-5.1,5.1  l-1.2,0.4c-0.4,0.1-0.7,0.3-1.1,0.4l-2.8,1.4c-1.2,0.6-2.6,0.6-3.8,0l-2.8-1.4c-0.3-0.2-0.7-0.3-1.1-0.4l-1-0.4  c-2.4-0.8-4.3-2.7-5.1-5.1l-0.4-1.2c-0.1-0.4-0.3-0.7-0.4-1.1l-0.6-1.1c-1.1-2.3-1.1-4.9,0-7.2l0.6-1.1c0.2-0.3,0.3-0.7,0.4-1.1  l1.2-3.7C5.1,5.6,5.7,5,6.5,4.7l4.3-1.4l1.6-0.8C14.7,1.4,17.3,1.4,19.6,2.6z"></path>
<path xmlns="http://www.w3.org/2000/svg" id="XMLID_6_" fill="currentColor" d="M7.3,12.7c0.2,0,0.2-0.3,0-0.3C7.1,12.4,7.1,12.7,7.3,12.7z"></path>
<path xmlns="http://www.w3.org/2000/svg" id="XMLID_7_" fill="currentColor" d="M10.5,13.2c0.2,0,0.2-0.3,0-0.3C10.3,12.8,10.3,13.2,10.5,13.2z"></path>
<path xmlns="http://www.w3.org/2000/svg" id="XMLID_8_" fill="currentColor" d="M13.6,13.6c0.2,0,0.2-0.3,0-0.3C13.4,13.3,13.4,13.6,13.6,13.6z"></path>
<path xmlns="http://www.w3.org/2000/svg" id="XMLID_9_" fill="currentColor" d="M16.4,8.9c0.2,0,0.2-0.3,0-0.3C16.2,8.6,16.2,8.9,16.4,8.9z"></path>
<path xmlns="http://www.w3.org/2000/svg" id="XMLID_10_" fill="currentColor" d="M17.7,7.8c0.2,0,0.2-0.3,0-0.3S17.5,7.8,17.7,7.8z"></path>
<path xmlns="http://www.w3.org/2000/svg" id="XMLID_11_" fill="currentColor" d="M18.2,13.6c0.2,0,0.2-0.3,0-0.3C18,13.2,18,13.6,18.2,13.6z"></path>
<path xmlns="http://www.w3.org/2000/svg" id="XMLID_12_" fill="currentColor" d="M24.7,16.2c0.2,0,0.2-0.3,0-0.3C24.5,15.9,24.5,16.2,24.7,16.2z"></path>
<path xmlns="http://www.w3.org/2000/svg" id="XMLID_13_" fill="currentColor" d="M24.3,18.6c0.2,0,0.2-0.3,0-0.3C24.1,18.3,24.1,18.6,24.3,18.6z"></path>
<path xmlns="http://www.w3.org/2000/svg" id="XMLID_14_" fill="currentColor" d="M22.3,19.8c0.2,0,0.2-0.3,0-0.3C22,19.4,22,19.8,22.3,19.8z"></path>
<path xmlns="http://www.w3.org/2000/svg" id="XMLID_15_" fill="currentColor" d="M24.2,21c0.2,0,0.2-0.3,0-0.3S24,21,24.2,21z"></path>
<path xmlns="http://www.w3.org/2000/svg" id="XMLID_16_" fill="currentColor" d="M21.2,16.2c0.2,0,0.2-0.3,0-0.3C21,15.8,21,16.2,21.2,16.2z"></path>
<path xmlns="http://www.w3.org/2000/svg" id="XMLID_17_" fill="currentColor" d="M15.7,19.7c0.2,0,0.2-0.3,0-0.3C15.4,19.4,15.4,19.7,15.7,19.7z"></path>
<path xmlns="http://www.w3.org/2000/svg" id="XMLID_18_" fill="currentColor" d="M18,19.5c0.2,0,0.2-0.3,0-0.3C17.8,19.1,17.8,19.5,18,19.5z"></path>
<path xmlns="http://www.w3.org/2000/svg" id="XMLID_19_" fill="currentColor" d="M21.5,19.4c0.2,0,0.2-0.3,0-0.3S21.3,19.4,21.5,19.4z"></path>
<path xmlns="http://www.w3.org/2000/svg" id="XMLID_20_" fill="currentColor" d="M27.1,14c0.2,0,0.2-0.3,0-0.3S26.9,14,27.1,14z"></path>
<path xmlns="http://www.w3.org/2000/svg" id="XMLID_21_" fill="currentColor" d="M13.8,18.5c0.2,0,0.2-0.3,0-0.3C13.6,18.1,13.6,18.5,13.8,18.5z"></path>
<path xmlns="http://www.w3.org/2000/svg" id="XMLID_22_" fill="currentColor" d="M4.6,14.9c0.2,0,0.2-0.3,0-0.3C4.4,14.6,4.4,14.9,4.6,14.9z"></path>
<path xmlns="http://www.w3.org/2000/svg" id="XMLID_23_" fill="currentColor" d="M5.9,21.6c0.2,0,0.2-0.3,0-0.3C5.7,21.3,5.7,21.6,5.9,21.6z"></path>
<path xmlns="http://www.w3.org/2000/svg" id="XMLID_24_" fill="currentColor" d="M11.4,21.9c0.2,0,0.2-0.3,0-0.3C11.2,21.5,11.2,21.9,11.4,21.9z"></path>
<path xmlns="http://www.w3.org/2000/svg" id="XMLID_25_" fill="currentColor" d="M15.1,20.3c0.2,0,0.2-0.3,0-0.3C14.9,20,14.9,20.3,15.1,20.3z"></path>
<path xmlns="http://www.w3.org/2000/svg" id="XMLID_26_" fill="currentColor" d="M14.4,24.5c0.2,0,0.2-0.3,0-0.3C14.2,24.1,14.2,24.5,14.4,24.5z"></path>
<path xmlns="http://www.w3.org/2000/svg" id="XMLID_27_" fill="currentColor" d="M12.4,23.1c0.2,0,0.2-0.3,0-0.3C12.1,22.7,12.1,23.1,12.4,23.1z"></path>
<path xmlns="http://www.w3.org/2000/svg" id="XMLID_28_" fill="currentColor" d="M9.1,26.2c0.2,0,0.2-0.3,0-0.3C8.9,25.9,8.9,26.2,9.1,26.2z"></path>
<path xmlns="http://www.w3.org/2000/svg" id="XMLID_29_" fill="currentColor" d="M16,27.7C16,27.7,16.1,27.7,16,27.7c0.3,0,0.3-0.3,0.1-0.3H16C15.8,27.3,15.8,27.7,16,27.7z"></path>
<path xmlns="http://www.w3.org/2000/svg" id="XMLID_30_" fill="currentColor" d="M14.8,14.7c0.2,0,0.2-0.3,0-0.3S14.6,14.7,14.8,14.7z"></path>
<path xmlns="http://www.w3.org/2000/svg" id="XMLID_31_" fill="currentColor" d="M12.9,15.4c0.2,0,0.2-0.3,0-0.3C12.7,15.1,12.7,15.4,12.9,15.4z"></path>
<path xmlns="http://www.w3.org/2000/svg" id="XMLID_32_" fill="currentColor" d="M15.7,12.9c0.2,0,0.2-0.3,0-0.3C15.5,12.6,15.5,12.9,15.7,12.9z"></path>
<path xmlns="http://www.w3.org/2000/svg" id="XMLID_33_" fill="currentColor" d="M18.5,15c0.2,0,0.2-0.3,0-0.3S18.3,15,18.5,15z"></path>
<path xmlns="http://www.w3.org/2000/svg" id="XMLID_34_" fill="currentColor" d="M19.4,7c0.2,0,0.2-0.3,0-0.3C19.2,6.7,19.2,7,19.4,7z"></path>
<path xmlns="http://www.w3.org/2000/svg" id="XMLID_35_" fill="currentColor" d="M15,4.2c0.2,0,0.2-0.3,0-0.3C14.8,3.8,14.8,4.2,15,4.2z"></path>
<path xmlns="http://www.w3.org/2000/svg" id="XMLID_36_" fill="currentColor" d="M6.9,8.2c0.2,0,0.2-0.3,0-0.3C6.7,7.9,6.7,8.2,6.9,8.2z"></path>
<path xmlns="http://www.w3.org/2000/svg" id="XMLID_37_" fill="currentColor" d="M25.8,14.6c0.2,0,0.2-0.3,0-0.3C25.6,14.3,25.6,14.6,25.8,14.6z"></path>
<path xmlns="http://www.w3.org/2000/svg" id="XMLID_38_" fill="currentColor" d="M23,23.7c0.2,0,0.2-0.3,0-0.3C22.8,23.4,22.8,23.7,23,23.7z"></path>
<path xmlns="http://www.w3.org/2000/svg" id="XMLID_39_" fill="currentColor" d="M22.5,25.5c0.2,0,0.2-0.3,0-0.3S22.3,25.5,22.5,25.5z"></path>
<circle xmlns="http://www.w3.org/2000/svg" id="XMLID_40_" fill="currentColor" cx="16" cy="8.4" r="2.9"></circle>
<path xmlns="http://www.w3.org/2000/svg" id="XMLID_41_" fill="currentColor" d="M16.5,6.2c0.6,0.1,1.1,0.5,1.4,1c0.1,0.2,0,0.4-0.2,0.4L16.5,8c-0.2,0.1-0.4-0.1-0.4-0.3V6.5  C16.2,6.3,16.3,6.2,16.5,6.2z"></path>
<path xmlns="http://www.w3.org/2000/svg" id="XMLID_42_" fill="currentColor" d="M14.1,7.2c0.3-0.5,0.8-0.9,1.4-1c0.2,0,0.3,0.1,0.3,0.3v1.3c0,0.2-0.2,0.3-0.4,0.3l-1.2-0.4  C14,7.6,14,7.4,14.1,7.2z"></path>
<path xmlns="http://www.w3.org/2000/svg" id="XMLID_43_" fill="currentColor" d="M16,10.7c-0.3,0-0.6-0.1-0.9-0.2c-0.2-0.1-0.2-0.3-0.1-0.4L15.8,9c0.1-0.2,0.3-0.2,0.5,0  l0.8,1.1c0.1,0.1,0,0.4-0.1,0.4C16.6,10.6,16.3,10.7,16,10.7z"></path>
<path xmlns="http://www.w3.org/2000/svg" id="XMLID_44_" fill="currentColor" d="M14.7,9.9c-0.1,0.1-0.3,0.2-0.4,0C14,9.5,13.8,9,13.8,8.4c0-0.1,0-0.1,0-0.2  C13.8,8,14,7.9,14.2,8l1.2,0.4c0.2,0.1,0.3,0.3,0.1,0.4L14.7,9.9z"></path>
<path xmlns="http://www.w3.org/2000/svg" id="XMLID_45_" fill="currentColor" d="M16.6,8.4L17.9,8c0.2-0.1,0.4,0.1,0.4,0.2c0,0.1,0,0.1,0,0.2c0,0.5-0.2,1.1-0.5,1.5  c-0.1,0.1-0.3,0.1-0.4,0l-0.8-1.1C16.4,8.7,16.5,8.4,16.6,8.4z"></path>
<ellipse xmlns="http://www.w3.org/2000/svg" id="XMLID_46_" transform="matrix(-0.5878 -0.809 0.809 -0.5878 18.2428 24.5667)" fill="currentColor" cx="15.38" cy="7.636" rx="0.3" ry="0.2"></ellipse>
<ellipse xmlns="http://www.w3.org/2000/svg" id="XMLID_47_" transform="matrix(-0.9511 0.309 -0.309 -0.9511 32.1555 12.3205)" fill="currentColor" cx="15.102" cy="8.706" rx="0.3" ry="0.2"></ellipse>
<ellipse xmlns="http://www.w3.org/2000/svg" id="XMLID_48_" fill="currentColor" cx="16" cy="9.4" rx="0.2" ry="0.3"></ellipse>
<ellipse xmlns="http://www.w3.org/2000/svg" id="XMLID_49_" transform="matrix(0.9511 0.309 -0.309 0.9511 3.5175 -4.7953)" fill="currentColor" cx="16.898" cy="8.708" rx="0.3" ry="0.2"></ellipse>
<ellipse xmlns="http://www.w3.org/2000/svg" id="XMLID_50_" transform="matrix(0.5878 -0.809 0.809 0.5878 0.6727 16.593)" fill="currentColor" cx="16.62" cy="7.636" rx="0.3" ry="0.2"></ellipse>
<circle xmlns="http://www.w3.org/2000/svg" id="XMLID_51_" fill="currentColor" cx="9.4" cy="12.2" r="2.9"></circle>
<path xmlns="http://www.w3.org/2000/svg" id="XMLID_52_" fill="currentColor" d="M7.8,10.7c0.4-0.4,1-0.7,1.6-0.7c0.2,0,0.3,0.2,0.3,0.3l-0.3,1.3c0,0.2-0.3,0.3-0.4,0.2  l-1.1-0.7C7.7,11,7.7,10.8,7.8,10.7z"></path>
<path xmlns="http://www.w3.org/2000/svg" id="XMLID_53_" fill="currentColor" d="M7.4,13.3c-0.3-0.5-0.4-1.2-0.2-1.7c0.1-0.2,0.3-0.3,0.4-0.2L8.8,12c0.2,0.1,0.2,0.3,0,0.5  l-1,0.9C7.7,13.5,7.5,13.5,7.4,13.3z"></path>
<path xmlns="http://www.w3.org/2000/svg" id="XMLID_54_" fill="currentColor" d="M11.4,13.3c-0.2,0.3-0.4,0.5-0.6,0.7c-0.1,0.1-0.4,0.1-0.4-0.1l-0.5-1.2  c-0.1-0.2,0-0.4,0.2-0.4l1.3-0.1c0.2,0,0.3,0.1,0.3,0.3C11.6,12.8,11.5,13.1,11.4,13.3z"></path>
<path xmlns="http://www.w3.org/2000/svg" id="XMLID_55_" fill="currentColor" d="M10.1,14c0.1,0.2,0,0.4-0.2,0.4c-0.5,0.1-1.1,0-1.6-0.3c-0.1,0-0.1-0.1-0.2-0.1  c-0.1,0-0.1-0.3,0-0.4l1-0.9c0.1-0.1,0.4-0.1,0.4,0.1L10.1,14z"></path>
<path xmlns="http://www.w3.org/2000/svg" id="XMLID_56_" fill="currentColor" d="M9.7,11.6l0.3-1.3c0-0.2,0.2-0.3,0.4-0.2c0.1,0,0.1,0.1,0.2,0.1c0.5,0.3,0.8,0.7,1,1.2  c0.1,0.2-0.1,0.4-0.2,0.4L10,12C9.8,12,9.7,11.8,9.7,11.6z"></path>
<ellipse xmlns="http://www.w3.org/2000/svg" id="XMLID_57_" transform="matrix(-0.9945 0.1045 -0.1045 -0.9945 18.2089 23.6379)" fill="currentColor" cx="8.485" cy="12.296" rx="0.3" ry="0.2"></ellipse>
<ellipse xmlns="http://www.w3.org/2000/svg" id="XMLID_58_" transform="matrix(-0.2079 0.9781 -0.9781 -0.2079 24.0583 6.8438)" fill="currentColor" cx="9.258" cy="13.163" rx="0.3" ry="0.2"></ellipse>
<ellipse xmlns="http://www.w3.org/2000/svg" id="XMLID_59_" transform="matrix(0.866 0.5 -0.5 0.866 7.6866 -3.4322)" fill="currentColor" cx="10.248" cy="12.627" rx="0.3" ry="0.2"></ellipse>
<ellipse xmlns="http://www.w3.org/2000/svg" id="XMLID_60_" transform="matrix(0.7431 -0.6691 0.6691 0.7431 -5.1495 9.7241)" fill="currentColor" cx="10.091" cy="11.569" rx="0.3" ry="0.2"></ellipse>
<ellipse xmlns="http://www.w3.org/2000/svg" id="XMLID_61_" transform="matrix(-0.4067 -0.9136 0.9136 -0.4067 2.2962 24.1349)" fill="currentColor" cx="8.985" cy="11.322" rx="0.3" ry="0.2"></ellipse>
<circle xmlns="http://www.w3.org/2000/svg" id="XMLID_62_" fill="currentColor" cx="9.4" cy="19.8" r="2.9"></circle>
<path xmlns="http://www.w3.org/2000/svg" id="XMLID_63_" fill="currentColor" d="M7.3,20.4c-0.2-0.6-0.1-1.2,0.2-1.7c0.1-0.2,0.3-0.2,0.4-0.1l1,0.9C9,19.6,9,19.9,8.8,20  l-1.1,0.7C7.5,20.7,7.3,20.6,7.3,20.4z"></path>
<path xmlns="http://www.w3.org/2000/svg" id="XMLID_64_" fill="currentColor" d="M9.4,22.1c-0.6,0-1.2-0.3-1.6-0.7c-0.1-0.1-0.1-0.3,0.1-0.4L9,20.3c0.2-0.1,0.4,0,0.4,0.2  l0.3,1.3C9.7,21.9,9.6,22.1,9.4,22.1z"></path>
<path xmlns="http://www.w3.org/2000/svg" id="XMLID_65_" fill="currentColor" d="M11.4,18.7c0.2,0.3,0.2,0.6,0.3,0.8c0,0.2-0.1,0.3-0.3,0.3l-1.3-0.1c-0.2,0-0.3-0.2-0.2-0.4  l0.5-1.2c0.1-0.2,0.3-0.2,0.4-0.1C11,18.2,11.2,18.4,11.4,18.7z"></path>
<path xmlns="http://www.w3.org/2000/svg" id="XMLID_66_" fill="currentColor" d="M11.3,20.2c0.2,0,0.3,0.2,0.2,0.4c-0.2,0.5-0.5,0.9-1,1.2c-0.1,0-0.1,0.1-0.2,0.1  c-0.2,0.1-0.4,0-0.4-0.2l-0.3-1.3c0-0.2,0.1-0.4,0.3-0.3L11.3,20.2z"></path>
<path xmlns="http://www.w3.org/2000/svg" id="XMLID_67_" fill="currentColor" d="M9.1,19.2l-1-0.9c-0.1,0-0.1-0.3,0-0.4c0.1,0,0.1-0.1,0.2-0.1c0.5-0.3,1-0.4,1.6-0.3  c0.2,0,0.3,0.2,0.2,0.4l-0.5,1.2C9.4,19.3,9.2,19.4,9.1,19.2z"></path>
<ellipse xmlns="http://www.w3.org/2000/svg" id="XMLID_68_" transform="matrix(-0.4067 0.9136 -0.9136 -0.4067 31.6566 20.7105)" fill="currentColor" cx="9.103" cy="20.634" rx="0.3" ry="0.2"></ellipse>
<ellipse xmlns="http://www.w3.org/2000/svg" id="XMLID_69_" transform="matrix(0.7431 0.6691 -0.6691 0.7431 16.276 -1.5586)" fill="currentColor" cx="10.168" cy="20.421" rx="0.3" ry="0.2"></ellipse>
<ellipse xmlns="http://www.w3.org/2000/svg" id="XMLID_70_" transform="matrix(0.866 -0.5 0.5 0.866 -8.2641 7.7036)" fill="currentColor" cx="10.243" cy="19.272" rx="0.3" ry="0.2"></ellipse>
<ellipse xmlns="http://www.w3.org/2000/svg" id="XMLID_71_" transform="matrix(-0.2079 -0.9781 0.9781 -0.2079 -7.3724 31.8406)" fill="currentColor" cx="9.206" cy="18.905" rx="0.3" ry="0.2"></ellipse>
<ellipse xmlns="http://www.w3.org/2000/svg" id="XMLID_72_" transform="matrix(-0.9945 -0.1045 0.1045 -0.9945 14.8866 40.153)" fill="currentColor" cx="8.495" cy="19.687" rx="0.3" ry="0.2"></ellipse>
<circle xmlns="http://www.w3.org/2000/svg" id="XMLID_73_" fill="currentColor" cx="16" cy="23.6" r="2.9"></circle>
<path xmlns="http://www.w3.org/2000/svg" id="XMLID_74_" fill="currentColor" d="M15.5,25.8c-0.6-0.1-1.1-0.5-1.4-1c-0.1-0.2,0-0.4,0.2-0.4l1.2-0.4c0.2-0.1,0.4,0.1,0.4,0.3  v1.3C15.8,25.7,15.7,25.8,15.5,25.8z"></path>
<path xmlns="http://www.w3.org/2000/svg" id="XMLID_75_" fill="currentColor" d="M17.9,24.8c-0.3,0.5-0.8,0.9-1.4,1c-0.2,0-0.3-0.1-0.3-0.3v-1.3c0-0.2,0.2-0.3,0.4-0.3  l1.2,0.4C18,24.4,18,24.6,17.9,24.8z"></path>
<path xmlns="http://www.w3.org/2000/svg" id="XMLID_76_" fill="currentColor" d="M16,21.3c0.3,0,0.6,0.1,0.9,0.2c0.2,0.1,0.2,0.3,0.1,0.4L16.2,23c-0.1,0.2-0.3,0.2-0.5,0  L15,21.9c-0.1-0.1,0-0.4,0.1-0.4C15.4,21.4,15.7,21.3,16,21.3z"></path>
<path xmlns="http://www.w3.org/2000/svg" id="XMLID_77_" fill="currentColor" d="M17.3,22.1c0.1-0.1,0.3-0.2,0.4,0c0.3,0.4,0.5,0.9,0.5,1.5c0,0.1,0,0.1,0,0.2  c0,0.2-0.2,0.3-0.4,0.2l-1.2-0.4c-0.2-0.1-0.3-0.3-0.1-0.4L17.3,22.1z"></path>
<path xmlns="http://www.w3.org/2000/svg" id="XMLID_78_" fill="currentColor" d="M15.4,23.6L14.1,24c-0.2,0.1-0.4-0.1-0.4-0.2s0-0.1,0-0.2c0-0.5,0.2-1.1,0.5-1.5  c0.1-0.1,0.3-0.1,0.4,0l0.8,1.1C15.6,23.3,15.5,23.6,15.4,23.6z"></path>
<ellipse xmlns="http://www.w3.org/2000/svg" id="XMLID_79_" transform="matrix(0.5878 0.809 -0.809 0.5878 26.4871 -3.3065)" fill="currentColor" cx="16.488" cy="24.339" rx="0.3" ry="0.2"></ellipse>
<ellipse xmlns="http://www.w3.org/2000/svg" id="XMLID_80_" transform="matrix(0.9511 -0.309 0.309 0.9511 -6.3732 6.3602)" fill="currentColor" cx="16.894" cy="23.302" rx="0.3" ry="0.2"></ellipse>
<ellipse xmlns="http://www.w3.org/2000/svg" id="XMLID_81_" fill="currentColor" cx="16" cy="22.6" rx="0.2" ry="0.3"></ellipse>
<ellipse xmlns="http://www.w3.org/2000/svg" id="XMLID_82_" transform="matrix(-0.9511 -0.309 0.309 -0.9511 22.273 50.1277)" fill="currentColor" cx="15.106" cy="23.3" rx="0.3" ry="0.2"></ellipse>
<ellipse xmlns="http://www.w3.org/2000/svg" id="XMLID_83_" transform="matrix(-0.5878 0.809 -0.809 -0.5878 44.3206 26.0959)" fill="currentColor" cx="15.512" cy="24.339" rx="0.3" ry="0.2"></ellipse>
<circle xmlns="http://www.w3.org/2000/svg" id="XMLID_84_" fill="currentColor" cx="22.6" cy="19.8" r="2.9"></circle>
<path xmlns="http://www.w3.org/2000/svg" id="XMLID_85_" fill="currentColor" d="M24.2,21.3c-0.4,0.4-1,0.7-1.6,0.7c-0.2,0-0.3-0.2-0.3-0.3l0.3-1.3c0-0.2,0.3-0.3,0.4-0.2  l1.1,0.7C24.3,21,24.3,21.2,24.2,21.3z"></path>
<path xmlns="http://www.w3.org/2000/svg" id="XMLID_86_" fill="currentColor" d="M24.6,18.7c0.3,0.5,0.4,1.2,0.2,1.7c-0.1,0.2-0.3,0.3-0.4,0.2L23.2,20  c-0.2-0.1-0.2-0.3,0-0.5l1-0.9C24.3,18.5,24.5,18.5,24.6,18.7z"></path>
<path xmlns="http://www.w3.org/2000/svg" id="XMLID_87_" fill="currentColor" d="M20.6,18.7c0.2-0.3,0.4-0.5,0.6-0.7c0.1-0.1,0.4-0.1,0.4,0.1l0.5,1.2c0.1,0.2,0,0.4-0.2,0.4  l-1.3,0.1c-0.2,0-0.3-0.1-0.3-0.3C20.4,19.2,20.5,18.9,20.6,18.7z"></path>
<path xmlns="http://www.w3.org/2000/svg" id="XMLID_88_" fill="currentColor" d="M21.9,18c-0.1-0.2,0-0.4,0.2-0.4c0.5-0.1,1.1,0,1.6,0.3c0.1,0,0.1,0.1,0.2,0.1  c0.2,0.1,0.2,0.3,0,0.4l-1,0.9c-0.1,0.1-0.4,0.1-0.4-0.1L21.9,18z"></path>
<path xmlns="http://www.w3.org/2000/svg" id="XMLID_89_" fill="currentColor" d="M22.3,20.4L22,21.6c0,0.2-0.2,0.3-0.4,0.2c-0.1,0-0.1-0.1-0.2-0.1c-0.5-0.3-0.8-0.7-1-1.2  c-0.1-0.2,0.1-0.4,0.2-0.4L22,20C22.2,20,22.3,20.2,22.3,20.4z"></path>
<ellipse xmlns="http://www.w3.org/2000/svg" id="XMLID_90_" transform="matrix(0.9945 -0.1045 0.1045 0.9945 -1.9285 2.564)" fill="currentColor" cx="23.504" cy="19.686" rx="0.3" ry="0.2"></ellipse>
<ellipse xmlns="http://www.w3.org/2000/svg" id="XMLID_91_" transform="matrix(0.2079 -0.9781 0.9781 0.2079 -0.438 37.2689)" fill="currentColor" cx="22.793" cy="18.905" rx="0.3" ry="0.2"></ellipse>
<ellipse xmlns="http://www.w3.org/2000/svg" id="XMLID_92_" transform="matrix(-0.866 -0.5 0.5 -0.866 30.9629 46.8433)" fill="currentColor" cx="21.757" cy="19.273" rx="0.3" ry="0.2"></ellipse>
<ellipse xmlns="http://www.w3.org/2000/svg" id="XMLID_93_" transform="matrix(-0.7431 0.6691 -0.6691 -0.7431 51.723 20.9893)" fill="currentColor" cx="21.833" cy="20.422" rx="0.3" ry="0.2"></ellipse>
<ellipse xmlns="http://www.w3.org/2000/svg" id="XMLID_94_" transform="matrix(0.4067 0.9136 -0.9136 0.4067 32.4345 -8.6775)" fill="currentColor" cx="22.898" cy="20.633" rx="0.3" ry="0.2"></ellipse>
<circle xmlns="http://www.w3.org/2000/svg" id="XMLID_95_" fill="currentColor" cx="22.6" cy="12.2" r="2.9"></circle>
<path xmlns="http://www.w3.org/2000/svg" id="XMLID_96_" fill="currentColor" d="M24.7,11.6c0.2,0.6,0.1,1.2-0.2,1.7c-0.1,0.2-0.3,0.2-0.4,0.1l-1-0.9c-0.1-0.1-0.1-0.4,0-0.5  l1.1-0.7C24.5,11.3,24.7,11.4,24.7,11.6z"></path>
<path xmlns="http://www.w3.org/2000/svg" id="XMLID_97_" fill="currentColor" d="M22.6,9.9c0.6,0,1.2,0.3,1.6,0.7c0.1,0.1,0.1,0.3-0.1,0.4L23,11.7c-0.2,0.1-0.4,0-0.4-0.2  l-0.3-1.3C22.3,10.1,22.4,9.9,22.6,9.9z"></path>
<path xmlns="http://www.w3.org/2000/svg" id="XMLID_98_" fill="currentColor" d="M20.6,13.3c-0.2-0.3-0.2-0.6-0.3-0.8c0-0.2,0.1-0.3,0.3-0.3l1.3,0.1c0.2,0,0.3,0.2,0.2,0.4  l-0.5,1.2c-0.1,0.2-0.3,0.2-0.4,0.1C21,13.8,20.8,13.6,20.6,13.3z"></path>
<path xmlns="http://www.w3.org/2000/svg" id="XMLID_99_" fill="currentColor" d="M20.7,11.8c-0.2,0-0.3-0.2-0.2-0.4c0.2-0.5,0.5-0.9,1-1.2c0.1,0,0.1-0.1,0.2-0.1  c0.2-0.1,0.4,0,0.4,0.2l0.3,1.3c0,0.2-0.1,0.4-0.3,0.3L20.7,11.8z"></path>
<path xmlns="http://www.w3.org/2000/svg" id="XMLID_100_" fill="currentColor" d="M22.9,12.8l1,0.9c0.1,0.1,0.1,0.3,0,0.4c-0.1,0-0.1,0.1-0.2,0.1c-0.5,0.3-1,0.4-1.6,0.3  c-0.2,0-0.3-0.2-0.2-0.4l0.5-1.2C22.6,12.7,22.8,12.6,22.9,12.8z"></path>
<ellipse xmlns="http://www.w3.org/2000/svg" id="XMLID_101_" transform="matrix(0.4067 -0.9136 0.9136 0.4067 3.3114 27.7404)" fill="currentColor" cx="23.014" cy="11.321" rx="0.3" ry="0.2"></ellipse>
<ellipse xmlns="http://www.w3.org/2000/svg" id="XMLID_102_" transform="matrix(-0.7431 -0.6691 0.6691 -0.7431 30.446 34.829)" fill="currentColor" cx="21.908" cy="11.571" rx="0.3" ry="0.2"></ellipse>
<ellipse xmlns="http://www.w3.org/2000/svg" id="XMLID_103_" transform="matrix(-0.866 0.5 -0.5 -0.866 46.9044 12.6871)" fill="currentColor" cx="21.752" cy="12.628" rx="0.3" ry="0.2"></ellipse>
<ellipse xmlns="http://www.w3.org/2000/svg" id="XMLID_104_" transform="matrix(0.2079 0.9781 -0.9781 0.2079 30.8896 -11.8206)" fill="currentColor" cx="22.743" cy="13.162" rx="0.3" ry="0.2"></ellipse>
<ellipse xmlns="http://www.w3.org/2000/svg" id="XMLID_105_" transform="matrix(0.9945 0.1045 -0.1045 0.9945 1.4136 -2.3901)" fill="currentColor" cx="23.516" cy="12.295" rx="0.3" ry="0.2"></ellipse>
<path xmlns="http://www.w3.org/2000/svg" id="XMLID_106_" fill="currentColor" d="M25.6,17.1c-0.1,0-0.2-0.1-0.2-0.2c0.1-0.2,0.3-0.5,0.6-0.6c0.4-0.1,0.8-0.1,1.1,0.1  c0.2,0.1,0.2,0.2,0.4,0.4c0.3,0.3,0.5,0.4,0.8,0.5c-0.6,0.4-1,0.4-1.2,0.4c-0.4-0.1-0.6-0.4-1.1-0.5C25.8,17.1,25.7,17.1,25.6,17.1z  "></path>
<path xmlns="http://www.w3.org/2000/svg" id="XMLID_107_" fill="currentColor" d="M20.7,24.2c0-0.1,0.1-0.2,0.3-0.1c0.2,0.1,0.4,0.3,0.5,0.7c0.1,0.4,0,0.8-0.2,1  c-0.1,0.2-0.2,0.2-0.5,0.3c-0.3,0.2-0.5,0.5-0.6,0.7c-0.3-0.6-0.3-1-0.2-1.2c0.1-0.4,0.5-0.5,0.6-1C20.7,24.4,20.7,24.3,20.7,24.2z"></path>
<path xmlns="http://www.w3.org/2000/svg" id="XMLID_108_" fill="currentColor" d="M11.4,22.9c0-0.1,0.2-0.2,0.3-0.1c0.2,0.2,0.4,0.4,0.4,0.8s-0.2,0.8-0.5,0.9  c-0.2,0.1-0.3,0.1-0.5,0.2c-0.3,0.1-0.6,0.4-0.7,0.5c-0.2-0.7-0.1-1.1,0.1-1.3c0.2-0.3,0.6-0.4,0.9-0.8C11.4,23.1,11.4,23,11.4,22.9  z"></path>
<path xmlns="http://www.w3.org/2000/svg" id="XMLID_109_" fill="currentColor" d="M7.2,16.1c0.1,0,0.2,0.1,0.2,0.2c-0.1,0.2-0.2,0.5-0.5,0.7s-0.8,0.2-1.1,0.1  c-0.2-0.1-0.2-0.2-0.5-0.4c-0.3-0.2-0.6-0.3-0.8-0.3c0.5-0.5,0.9-0.6,1.1-0.6c0.4,0,0.6,0.3,1.2,0.3C7,16.2,7.1,16.2,7.2,16.1z"></path>
<path xmlns="http://www.w3.org/2000/svg" id="XMLID_110_" fill="currentColor" d="M16.8,16.2c0.1,0.1,0.1,0.2-0.1,0.3c-0.2,0.1-0.5,0.1-0.9-0.1s-0.6-0.5-0.6-0.9  c0-0.2,0.1-0.3,0.1-0.6c0-0.4,0-0.7-0.1-0.9c0.7,0.2,1,0.5,1.1,0.7c0.2,0.4,0.1,0.7,0.3,1.2C16.7,16,16.8,16.1,16.8,16.2z"></path>
<path xmlns="http://www.w3.org/2000/svg" id="XMLID_111_" fill="currentColor" d="M21.9,8.1c0.1,0,0.2,0.1,0.2,0.2c-0.1,0.2-0.3,0.5-0.6,0.6C21,9.1,20.6,9,20.4,8.8  c-0.2-0.1-0.2-0.2-0.4-0.4c-0.3-0.3-0.5-0.4-0.8-0.5c0.6-0.4,1-0.4,1.2-0.4C20.8,7.6,21,8,21.5,8.1C21.7,8.1,21.8,8.1,21.9,8.1z"></path>
<path xmlns="http://www.w3.org/2000/svg" id="XMLID_112_" fill="currentColor" d="M11.5,8c0.1,0.1,0.1,0.2,0,0.3c-0.2,0.1-0.5,0.2-0.9,0C10.2,8.2,10,7.9,9.9,7.6  c0-0.2,0-0.3,0-0.6c0-0.4-0.1-0.7-0.2-0.9c0.7,0.1,1,0.3,1.2,0.5c0.1,0.4,0,0.7,0.4,1.2C11.3,7.9,11.4,7.9,11.5,8z"></path>
</symbol><symbol id="httpsc0piktochartcomv2themesbasesvgs190121siconspaper20tearsvg-original" viewBox="11.839442253112793 0 8.318343162536621 32.005001068115234" preserveAspectRatio="none" xmlns:xlink="http://www.w3.org/1999/xlink" version="1.1" x="0px" y="0px" enable-background="new 0 0 32 32" xml:space="preserve">
<path xmlns="http://www.w3.org/2000/svg" d="M11.859,10.279c-0.001,0.044-0.003,0.088-0.001,0.131c0.003,0.06,0.012,0.119,0.017,0.178  c0.005,0.065-0.009,0.139,0.018,0.192c0.096,0.191,0.069,0.388,0.044,0.585c-0.006,0.044,0.004,0.063,0.041,0.091  c0.068,0.051,0.125,0.118,0.183,0.18c0.036,0.038,0.058,0.1,0.1,0.12c0.093,0.044,0.097,0.11,0.084,0.195  c-0.013,0.086,0.039,0.191,0.109,0.228c-0.05,0.05-0.032,0.096,0.007,0.142c0.022,0.026,0.05,0.053,0.055,0.084  c0.013,0.069,0.058,0.095,0.115,0.12c0.049,0.022,0.091,0.064,0.078,0.125c-0.012,0.058-0.013,0.108,0.03,0.152  c0.039,0.04,0.08,0.08,0.124,0.124c-0.068,0.039-0.089,0.105-0.106,0.188c-0.011,0.057,0.039,0.076,0.034,0.104  c-0.02,0.122,0.062,0.258-0.053,0.362c0.075,0.087,0.032,0.216,0.124,0.288c0.005,0.004-0.006,0.025-0.004,0.037  c0.002,0.017,0.003,0.038,0.013,0.051c0.05,0.066,0.059,0.131,0.011,0.184c0.048,0.053,0.091,0.102,0.136,0.152  c-0.016,0.009-0.023,0.013-0.029,0.017c-0.102,0.067-0.107,0.103-0.019,0.187c0.068,0.065,0.111,0.15,0.192,0.207  c0.068,0.048,0.114,0.128,0.166,0.188c0.002,0.037-0.006,0.076,0.008,0.103c0.028,0.051,0.068,0.096,0.104,0.142  c0.02,0.026,0.04,0.054,0.067,0.071c0.058,0.037,0.087,0.076,0.052,0.149c-0.023,0.048-0.029,0.104-0.044,0.156  c0.032,0.007,0.057,0.012,0.083,0.017c-0.112,0.041-0.151,0.144-0.177,0.231c-0.019,0.067-0.045,0.143-0.028,0.229  c0.023,0.111,0.004,0.231,0.003,0.347c0,0.03,0.008,0.065-0.004,0.089c-0.067,0.135-0.052,0.284-0.073,0.426  c-0.007,0.048-0.004,0.097-0.007,0.158c0.011,0.005,0.04,0.019,0.082,0.039c-0.061,0.038-0.112,0.069-0.166,0.103  c0.005,0.01,0.021,0.029,0.017,0.037c-0.035,0.071-0.068,0.144-0.114,0.208c-0.033,0.046-0.064,0.081-0.03,0.14  c0.045,0.078,0.087,0.157,0.09,0.25c0,0.012,0.02,0.024,0.024,0.029c-0.051,0.054-0.103,0.108-0.139,0.146  c0.052,0.033,0.107,0.069,0.163,0.102c0.052,0.029,0.061,0.067,0.035,0.119c-0.023,0.047-0.046,0.094-0.065,0.142  c-0.029,0.072-0.047,0.139,0.005,0.216c0.024,0.036,0.007,0.099,0.01,0.15c0.001,0.02,0.003,0.04,0.008,0.06  c0.005,0.021,0.012,0.041,0.02,0.065c0.048-0.002,0.099,0.002,0.09,0.075c-0.006,0.045-0.019,0.09-0.025,0.135  c-0.01,0.082-0.071,0.175,0.048,0.23c0.008,0.004,0.01,0.021,0.015,0.032c-0.007-0.002-0.014-0.003-0.021-0.005  c-0.02,0.04-0.039,0.08-0.058,0.12c0.042,0.022,0.075,0.04,0.099,0.052c-0.019,0.066-0.031,0.122-0.05,0.175  c-0.024,0.069-0.02,0.133,0.023,0.192c0.06,0.082,0.079,0.17,0.046,0.268c-0.013,0.038-0.03,0.076-0.046,0.117  c0.052,0.04,0.03,0.083,0.012,0.135c-0.021,0.06-0.025,0.127-0.035,0.192c-0.004,0.027-0.006,0.055-0.007,0.083  c-0.002,0.075-0.022,0.157,0.002,0.223c0.018,0.049,0.029,0.084,0.005,0.128c-0.044,0.079-0.056,0.151,0.009,0.231  c0.021,0.026,0.007,0.081,0.012,0.122c0.002,0.018,0.007,0.045,0.02,0.052c0.065,0.037,0.06,0.094,0.052,0.155  c-0.006,0.047-0.033,0.097,0.019,0.139c0.009,0.007,0.008,0.032,0.007,0.048c-0.005,0.064-0.023,0.128-0.015,0.19  c0.006,0.047,0.002,0.072-0.039,0.094c-0.055,0.03-0.061,0.094-0.023,0.145c0.015,0.02,0.028,0.052,0.024,0.076  c-0.01,0.059-0.025,0.118-0.046,0.173c-0.017,0.043-0.002,0.067,0.034,0.076c0.093,0.023,0.13,0.098,0.168,0.173  c0.015,0.029,0.03,0.057,0.047,0.09c-0.04,0.048-0.086,0.1-0.127,0.156c-0.011,0.016-0.011,0.047-0.004,0.067  c0.008,0.024,0.03,0.044,0.045,0.066c-0.009-0.001-0.017-0.002-0.026-0.002c-0.017,0.029-0.034,0.057-0.051,0.086  c0.018,0.006,0.019,0.005,0.011,0.031c-0.023,0.076-0.061,0.132-0.14,0.165c0.045,0.039,0.084,0.074,0.124,0.108  c-0.01,0.002-0.019,0.004-0.029,0.007c-0.004,0.029-0.014,0.059-0.011,0.088c0.004,0.032,0.021,0.062,0.031,0.093  c0.02,0.061,0.04,0.122,0.06,0.183c0.008,0,0.016,0,0.024-0.001c-0.021,0.016-0.041,0.033-0.064,0.051  c0.075,0.09,0.149,0.179,0.226,0.27c-0.03,0.017-0.054,0.031-0.063,0.036c0.023,0.055,0.036,0.11,0.066,0.149  c0.034,0.044,0.085,0.074,0.13,0.111c-0.032,0.028-0.055,0.047-0.079,0.069c0.05,0.033,0.094,0.062,0.138,0.092  c0.069,0.047,0.099,0.135,0.054,0.2c-0.039,0.056-0.002,0.057,0.032,0.064c-0.013,0.025-0.023,0.046-0.035,0.07  c0.018,0,0.033,0,0.047,0c-0.015,0.069,0.009,0.104,0.073,0.12c0.025,0.006,0.052,0.022,0.07,0.041  c0.071,0.074,0.009,0.172,0.051,0.255c0.081,0.025,0.172,0.052,0.247,0.075c-0.015,0.053-0.036,0.088-0.031,0.12  c0.007,0.038,0.036,0.071,0.056,0.107c0.007,0.007,0.014,0.013,0.021,0.02c-0.023,0.013-0.047,0.024-0.068,0.039  c-0.111,0.081-0.112,0.087-0.075,0.201c-0.027,0.022-0.073,0.043-0.071,0.06c0.005,0.048,0.03,0.094,0.048,0.145  c-0.125,0.012,0.006,0.156-0.095,0.189c0.025,0.029,0.041,0.048,0.057,0.067c-0.019,0.011-0.033,0.019-0.049,0.029  c0.024,0.02,0.043,0.035,0.062,0.05c-0.05,0.043-0.096,0.082-0.144,0.123c0.097,0.065-0.01,0.115-0.002,0.172  c0.003,0.019-0.014,0.058-0.025,0.059c-0.078,0.01-0.068,0.054-0.049,0.106c0.018,0.05,0.029,0.103,0.051,0.152  c0.038,0.088,0.07,0.174,0.034,0.272c-0.016,0.043-0.039,0.103-0.022,0.133c0.049,0.084,0.007,0.198,0.095,0.268  c0.021,0.017,0.034,0.07,0.023,0.093c-0.037,0.077,0.009,0.113,0.071,0.151c-0.055,0.022-0.106,0.031-0.143,0.059  c-0.038,0.029-0.062,0.077-0.083,0.105c0.031,0.023,0.085,0.043,0.088,0.068c0.008,0.074-0.001,0.15-0.01,0.225  c-0.006,0.046-0.034,0.09-0.034,0.136c0,0.069,0.059,0.103,0.109,0.137c0.042,0.029,0.035,0.041,0.001,0.074  c-0.031,0.03-0.056,0.075-0.064,0.118c-0.012,0.063,0.014,0.142-0.014,0.193c-0.064,0.116-0.007,0.241-0.046,0.355  c-0.01,0.031-0.007,0.078-0.028,0.094c-0.069,0.053-0.102,0.115-0.089,0.202c0.003,0.021-0.002,0.043,0,0.064  c0.007,0.079-0.007,0.149-0.076,0.201c-0.023,0.018-0.04,0.045-0.058,0.069c-0.025,0.034-0.047,0.069-0.077,0.115  c0.012,0.06,0.007,0.066-0.078,0.09c-0.02,0.006-0.037,0.024-0.055,0.036c0.015,0.019,0.028,0.039,0.044,0.057  c0.006,0.007,0.017,0.008,0.011,0.005c-0.004,0.071-0.005,0.131-0.012,0.191c-0.006,0.051-0.015,0.102-0.029,0.152  c-0.007,0.024-0.029,0.042-0.041,0.065c-0.045,0.087-0.09,0.174-0.132,0.263c-0.008,0.017-0.01,0.044-0.002,0.059  c0.022,0.045,0.011,0.194-0.012,0.241c-0.047,0.095-0.088,0.192-0.128,0.29c-0.031,0.076-0.048,0.157-0.085,0.23  c-0.018,0.035-0.028,0.111-0.043,0.174h6.471c0.018-0.029,0.033-0.061,0.031-0.111c-0.001-0.019,0.001-0.044,0.012-0.058  c0.062-0.079,0.032-0.174,0.049-0.252c0.025-0.009,0.048-0.017,0.072-0.025c-0.01-0.021-0.024-0.041-0.028-0.062  c-0.007-0.04-0.015-0.081-0.011-0.121c0.005-0.053,0.029-0.098,0.059-0.145c0.024-0.038,0.029-0.103,0.015-0.148  c-0.022-0.073-0.007-0.129,0.036-0.19c-0.047-0.031-0.104-0.059-0.1-0.129c0.004-0.077-0.037-0.157,0.022-0.232  c0.011-0.014-0.012-0.056-0.02-0.085c-0.006-0.02-0.018-0.04-0.019-0.061c0-0.017,0.02-0.049,0.017-0.05  c-0.062-0.034,0-0.063,0.005-0.086c-0.021-0.029-0.038-0.052-0.055-0.076c0.04-0.009,0.075-0.017,0.11-0.024  c-0.058-0.068,0.03-0.302,0.106-0.338c0.017-0.084,0.03-0.152,0.045-0.226c-0.014-0.013-0.039-0.036-0.063-0.059  c0.008-0.002,0.015-0.005,0.023-0.007c-0.01-0.048-0.017-0.097-0.029-0.145c-0.015-0.063-0.037-0.126-0.048-0.19  c-0.003-0.017,0.02-0.038,0.03-0.058c0.026-0.052,0.091-0.089,0.056-0.165c-0.006-0.013,0.011-0.035,0.016-0.054  c0.004-0.018,0.006-0.037,0.009-0.056c0.004-0.027,0.005-0.054,0.01-0.081c0.003-0.021,0.014-0.042,0.014-0.062  c-0.002-0.045-0.01-0.09-0.013-0.135c-0.003-0.046-0.005-0.093-0.004-0.14c0-0.02,0.003-0.02-0.128-0.064  c-0.004-0.001-0.006-0.007-0.017-0.021c0.023-0.016,0.044-0.031,0.051-0.036c-0.005-0.012-0.018-0.027-0.016-0.04  c0.012-0.078-0.005-0.144-0.048-0.211c-0.025-0.039-0.047-0.107-0.03-0.143c0.052-0.111,0.007-0.191-0.054-0.274  c-0.009-0.012-0.005-0.032-0.009-0.054c-0.093-0.013-0.127-0.055-0.198-0.263c0.11-0.067,0.126-0.101,0.094-0.19  c-0.008-0.022-0.009-0.049-0.005-0.072c0.018-0.097,0.006-0.119-0.089-0.153c-0.001-0.005-0.003-0.011-0.002-0.015  c0.024-0.069,0.073-0.144-0.043-0.18c-0.007-0.002-0.009-0.017-0.013-0.027c-0.023-0.05-0.045-0.1-0.07-0.154  c0.03-0.004,0.054-0.006,0.081-0.01c-0.014-0.047-0.017-0.097-0.042-0.126c-0.026-0.029-0.075-0.038-0.124-0.06  c0.023-0.04,0.043-0.074,0.062-0.108c0-0.021,0-0.044,0-0.068c-0.001-0.036,0.012-0.085-0.006-0.106  c-0.055-0.063-0.12-0.117-0.186-0.169c-0.068-0.053-0.093-0.143-0.05-0.205c0.053-0.075,0.05-0.12-0.007-0.19  c-0.012-0.015-0.027-0.037-0.025-0.053c0.016-0.092,0.018-0.178-0.05-0.253c-0.011-0.013-0.018-0.031-0.022-0.049  c-0.022-0.083-0.042-0.167-0.058-0.228c0.03-0.046,0.061-0.076,0.072-0.112c0.019-0.062,0.016-0.131-0.004-0.189  c-0.026-0.078-0.071-0.15-0.116-0.219c-0.023-0.036-0.068-0.053-0.05-0.113c0.009-0.032-0.004-0.074-0.046-0.102  c-0.076-0.051-0.151-0.108-0.155-0.215c-0.002-0.041-0.022-0.081-0.023-0.121c-0.001-0.028,0.016-0.056,0.022-0.072  c-0.01-0.039-0.018-0.072-0.026-0.105c-0.004-0.015-0.009-0.029-0.013-0.044c-0.01-0.04-0.041-0.091-0.026-0.119  c0.034-0.066,0.002-0.115-0.018-0.169c0.084-0.085,0.174-0.165,0.155-0.298c0.024-0.027,0.04-0.058,0.052-0.09  c0.014-0.037,0.021-0.077,0.037-0.113c0.011-0.026,0.048-0.053,0.043-0.071c-0.022-0.078,0.038-0.116,0.068-0.166  c-0.007-0.019-0.022-0.049-0.017-0.053c0.061-0.049,0.007-0.082-0.011-0.123c-0.031-0.072-0.056-0.146-0.079-0.221  c-0.017-0.056,0.002-0.117-0.003-0.171c-0.011-0.11-0.03-0.218-0.014-0.328c0.008-0.057-0.001-0.1-0.067-0.105  c0.026-0.114,0.05-0.221,0.073-0.327c0.026,0.008,0.047,0.015,0.083,0.026c-0.007-0.043-0.013-0.074-0.018-0.104  c0.049-0.092,0.104-0.184,0.149-0.28c0.029-0.064,0.055-0.13,0.034-0.207c-0.01-0.037,0.001-0.083,0.014-0.121  c0.032-0.096,0.079-0.182,0.181-0.221c-0.03-0.06,0.002-0.136,0.064-0.157c0.054-0.018,0.078-0.053,0.086-0.112  c0.01-0.073-0.028-0.163,0.063-0.213c0.005-0.003,0.011-0.014,0.01-0.02c-0.012-0.063-0.025-0.125-0.038-0.188  c-0.007-0.032-0.022-0.065-0.018-0.096c0.011-0.081,0.03-0.16,0.048-0.24c0.009-0.041,0.022-0.081,0.032-0.122  c0.007-0.027,0.022-0.057,0.015-0.081c-0.019-0.065,0.005-0.09,0.068-0.09c-0.004-0.017-0.008-0.031-0.014-0.053  c0.061-0.012,0.119-0.023,0.183-0.035c-0.02-0.015-0.037-0.028-0.065-0.05c0.073-0.002,0.11-0.031,0.093-0.093  c-0.014-0.053-0.036-0.104-0.061-0.153c-0.032-0.061-0.009-0.117,0.004-0.176c0.008-0.036,0.008-0.073,0.012-0.11  c0.009-0.039,0.012-0.077,0.017-0.115c0.008-0.054,0.002-0.102-0.045-0.138c-0.105-0.082-0.205-0.171-0.314-0.248  c-0.064-0.045-0.065-0.091-0.04-0.153c-0.044-0.043-0.075-0.085,0.01-0.119c0.01-0.004,0.02-0.028,0.017-0.039  c-0.008-0.029-0.023-0.056-0.035-0.084c-0.019-0.043-0.051-0.085-0.056-0.13c-0.009-0.086-0.037-0.163-0.083-0.234  c-0.032-0.05-0.058-0.095,0.019-0.124c-0.044-0.063-0.081-0.126-0.168-0.119c-0.007,0.001-0.02-0.021-0.023-0.033  c-0.009-0.043-0.012-0.088-0.024-0.131c-0.01-0.039-0.01-0.091-0.07-0.096c0.005-0.084-0.106-0.111-0.094-0.212  c0.008-0.066-0.014-0.132,0.049-0.181c-0.046-0.041-0.054-0.252-0.015-0.453c0.003-0.014,0.028-0.023,0.033-0.027  c-0.069-0.039-0.143-0.081-0.209-0.118c-0.006-0.033-0.024-0.066-0.014-0.084c0.036-0.068,0.017-0.147,0.051-0.213  c0.005-0.01,0.006-0.027,0.001-0.035c-0.047-0.077-0.049-0.16-0.047-0.246c0.002-0.062,0.031-0.159,0.062-0.193  c-0.05-0.034-0.098-0.073-0.151-0.102c-0.067-0.037-0.081-0.072-0.05-0.128c-0.024-0.037-0.063-0.069-0.062-0.1  c0.001-0.055,0.032-0.108,0.04-0.163c0.008-0.057,0.035-0.094,0.076-0.134c0.053-0.051,0.109-0.11,0.073-0.203  c-0.01-0.026,0.016-0.067,0.027-0.105c0.014,0.003,0.029,0.006,0.035,0.008c0.009-0.019,0.012-0.044,0.024-0.052  c0.13-0.08,0.153-0.228,0.056-0.35c0.018-0.043,0.027-0.091,0.055-0.123c0.08-0.092,0.082-0.135-0.008-0.224  c0.021-0.039,0.043-0.078,0.064-0.117c-0.012-0.007-0.024-0.015-0.039-0.024c0.064-0.04,0.056-0.158,0.143-0.134  c0.026-0.066,0.047-0.124,0.073-0.181c0.031-0.067,0.007-0.135-0.017-0.188c-0.036-0.083-0.104-0.152-0.01-0.236  c0.002-0.002,0.003-0.009,0.002-0.013c-0.033-0.067,0.02-0.07,0.06-0.085c0.01-0.004,0.025-0.018,0.024-0.027  c-0.005-0.08-0.007-0.157-0.089-0.212c-0.052-0.034-0.08-0.1-0.082-0.167c0.044,0.023,0.081,0.043,0.119,0.063  c-0.019-0.06-0.037-0.116-0.055-0.171c0.005-0.002,0.011-0.004,0.016-0.007c-0.023-0.015-0.046-0.029-0.071-0.045  c0.013-0.008,0.022-0.014,0.031-0.019c-0.023-0.008-0.045-0.015-0.056-0.019c0.007-0.033,0.024-0.063,0.016-0.086  c-0.028-0.079-0.003-0.127,0.063-0.144c-0.012-0.053-0.023-0.098-0.039-0.165c-0.174-0.178-0.251-0.419-0.258-0.686  c-0.001-0.023,0.008-0.047,0.014-0.076c-0.009-0.012-0.022-0.03-0.031-0.042c0.022-0.053,0.041-0.098,0.061-0.146  c-0.047-0.053-0.024-0.132,0.051-0.181c0.016-0.011,0.027-0.039,0.029-0.06c0.009-0.075-0.034-0.16,0.048-0.221  c0.021-0.015,0.035-0.04,0.051-0.061c0.024-0.033,0.047-0.066,0.066-0.091c0-0.07-0.001-0.143,0.001-0.217  c0-0.013,0.015-0.029,0.028-0.036c0.09-0.046,0.123-0.129,0.14-0.208c0.052-0.03,0.094-0.054,0.138-0.079  c-0.035-0.105-0.07-0.213-0.106-0.321c0.058-0.047,0.117-0.095,0.175-0.144c0.004-0.003,0-0.015,0.003-0.02  c0.012-0.017,0.023-0.041,0.04-0.049c0.107-0.05,0.133-0.165,0.171-0.254c0.032-0.077-0.004-0.183-0.011-0.276  c0.001-0.019,0.03-0.037,0.033-0.06c0.012-0.074,0.041-0.152-0.022-0.221c-0.012-0.013-0.014-0.037-0.018-0.056  c-0.013-0.053-0.032-0.106-0.037-0.161c-0.008-0.084-0.059-0.171,0.024-0.25c0.044-0.042,0.088-0.086,0.089-0.163  c0.001-0.114-0.056-0.196-0.112-0.278c0.041-0.114,0.126-0.221,0.023-0.347c-0.014-0.017,0.002-0.059,0.006-0.089  c0.002-0.012,0.012-0.024,0.012-0.036c-0.006-0.123,0.05-0.221,0.12-0.315c0.065-0.088,0.034-0.193-0.06-0.213  c-0.108-0.022-0.171-0.096-0.202-0.208c-0.02-0.073-0.068-0.138-0.09-0.21c-0.013-0.041-0.002-0.091,0.003-0.137  c0.003-0.023,0.031-0.049,0.025-0.066c-0.023-0.064-0.057-0.124-0.045-0.196c0.003-0.02,0.005-0.042,0.015-0.059  c0.018-0.034,0.041-0.065,0.062-0.098c-0.006-0.004-0.012-0.009-0.018-0.013c0.014-0.001,0.028-0.002,0.049-0.003  c-0.016-0.014-0.026-0.023-0.038-0.033c0.096-0.068,0.034-0.153,0.027-0.231c0.01,0.01,0.019,0.019,0.029,0.029  c0.022-0.036,0.045-0.072,0.067-0.107c-0.02-0.025-0.032-0.039-0.051-0.063c0.033-0.004,0.054-0.006,0.081-0.01  c-0.022-0.027-0.039-0.048-0.057-0.07c0.024-0.022,0.044-0.039,0.07-0.064c-0.073-0.03-0.1-0.092-0.07-0.146  c0.029-0.052,0.005-0.082-0.009-0.121c-0.025-0.069-0.057-0.133,0.005-0.206c0.036-0.042,0.057-0.1,0.072-0.155  c0.022-0.082,0.03-0.167,0.049-0.25c0.006-0.028,0.036-0.054,0.035-0.081c-0.002-0.122,0.033-0.234,0.062-0.35  c0.01-0.039,0.082-0.091,0.001-0.142c-0.039-0.025-0.064-0.071-0.089-0.1c0.038-0.054,0.074-0.089,0.091-0.132  c0.028-0.068,0.046-0.14,0.063-0.212c0.035-0.143,0.144-0.254,0.163-0.403c0.08-0.051,0.102-0.124,0.077-0.214  c-0.007-0.027,0.001-0.067-0.015-0.082c-0.033-0.032-0.044-0.063-0.041-0.107c0.002-0.025,0.004-0.059-0.011-0.076  c-0.058-0.067-0.101-0.131-0.113-0.228c-0.012-0.1-0.042-0.195-0.014-0.268c-0.036-0.048-0.08-0.083-0.09-0.126  c-0.018-0.081-0.017-0.167-0.024-0.255c-0.114-0.044-0.115-0.051-0.09-0.17c0.004-0.02-0.023-0.05-0.041-0.07  c-0.01-0.011-0.031-0.013-0.025-0.011c0-0.065,0.015-0.123-0.003-0.166C19.652,0.144,19.625,0.076,19.679,0h-6.842  c-0.043,0.082-0.104,0.161-0.044,0.267c0.022,0.039,0.021,0.082,0.006,0.133c-0.011,0.039,0.034,0.093,0.05,0.142  c0.007,0.022,0.008,0.049,0.004,0.072c-0.015,0.096,0.015,0.17,0.099,0.218c-0.035,0.058-0.069,0.117-0.104,0.176  c0.072,0.031,0.153,0.267,0.133,0.366c0.021,0.011,0.043,0.023,0.046,0.024c-0.014,0.053-0.034,0.095-0.035,0.137  c-0.001,0.059,0.012,0.115-0.029,0.17c-0.015,0.02-0.004,0.072,0.013,0.098C13,1.841,13.04,1.869,13.075,1.904  c-0.032,0.017-0.054,0.028-0.09,0.046c0.042,0.021,0.072,0.034,0.099,0.05c0.045,0.027,0.103,0.047,0.13,0.087  c0.034,0.05,0.094,0.087,0.072,0.178c-0.026,0.108-0.003,0.12,0.114,0.169c0.019,0.008,0.04,0.018,0.051,0.034  c0.032,0.048,0.06,0.098,0.091,0.151c-0.087,0.137-0.131,0.281-0.054,0.419c-0.036,0.044-0.061,0.088-0.098,0.117  c-0.067,0.052-0.05,0.083,0.017,0.107c-0.009,0.04-0.02,0.076-0.025,0.113c-0.004,0.029,0.002,0.059,0.002,0.089  c0,0.031-0.017,0.073-0.002,0.09c0.034,0.042-0.001,0.058-0.019,0.076c-0.069,0.068-0.076,0.137-0.014,0.208  c0.035,0.041,0.077,0.075,0.111,0.117c0.016,0.02,0.019,0.051,0.027,0.077c-0.006,0.003-0.012,0.006-0.018,0.009  c0.023,0.015,0.047,0.029,0.07,0.044c-0.007,0.002-0.013,0.004-0.02,0.006c0,0.023,0,0.046,0,0.069c0,0.101,0.063,0.157,0.14,0.204  c0.054,0.033,0.048,0.078,0.027,0.131c-0.028,0.071-0.09,0.166-0.066,0.212c0.045,0.085,0.038,0.136-0.017,0.2  c-0.007,0.009-0.013,0.027-0.009,0.037c0.022,0.054-0.017,0.07-0.052,0.074c-0.1,0.01-0.14,0.089-0.186,0.158  c-0.028,0.043-0.054,0.096-0.013,0.154c0.011,0.015,0,0.058-0.014,0.077c-0.065,0.087-0.067,0.161-0.007,0.251  c0.012,0.018,0.015,0.049,0.008,0.069c-0.017,0.051-0.044,0.098-0.061,0.149c-0.005,0.016,0.002,0.044,0.014,0.057  c0.036,0.039,0.077,0.073,0.112,0.105c-0.016,0.048-0.018,0.09-0.04,0.113c-0.065,0.067-0.128,0.132-0.163,0.22  c-0.003,0.009-0.012,0.017-0.021,0.022C13.065,6.45,13.05,6.549,13.05,6.658c0,0.016-0.021,0.041-0.038,0.048  c-0.049,0.02-0.101,0.03-0.151,0.048c-0.076,0.027-0.073,0.107-0.096,0.164c-0.023,0.059-0.047,0.1-0.108,0.121  c-0.029,0.01-0.074,0.034-0.076,0.055c-0.006,0.059-0.01,0.13,0.017,0.178c0.028,0.049,0.012,0.066-0.021,0.074  c-0.074,0.018-0.084,0.079-0.082,0.132c0.004,0.084-0.019,0.146-0.08,0.205c-0.033,0.032-0.042,0.089-0.062,0.135  c0.019,0.008,0.035,0.015,0.044,0.019c-0.011,0.036-0.017,0.069-0.029,0.099c-0.034,0.088-0.071,0.176-0.107,0.263  c-0.01,0.025-0.027,0.048-0.034,0.073C12.216,8.313,12.209,8.357,12.2,8.4c-0.008,0.041,0,0.098-0.024,0.121  c-0.044,0.042-0.04,0.075-0.013,0.11c-0.066,0.077-0.165,0.128-0.124,0.252c0.003,0.01-0.01,0.025-0.009,0.037  c0.004,0.045,0.008,0.09,0.016,0.135c0.005,0.033,0.02,0.065,0.02,0.097c0,0.036-0.012,0.073-0.018,0.109  c-0.007,0.054-0.022,0.114-0.057,0.155c-0.059,0.068-0.048,0.129-0.001,0.199c-0.039,0.026-0.073,0.048-0.11,0.072  c0.035,0.063,0.081,0.129-0.001,0.194c-0.003,0.003,0.007,0.018,0.006,0.027c-0.006,0.053-0.016,0.106-0.02,0.159  c-0.005,0.06-0.053,0.12-0.003,0.181C11.865,10.255,11.859,10.269,11.859,10.279z"></path>
</symbol><symbol id="httpsc0piktochartcomv2themesbasesvgs190121siconspaper20tearsvg-custom" viewBox="11.839442253112793 0 8.318343162536621 32.005001068115234" preserveAspectRatio="none" xmlns:xlink="http://www.w3.org/1999/xlink" version="1.1" x="0px" y="0px" enable-background="new 0 0 32 32" xml:space="preserve">
<path xmlns="http://www.w3.org/2000/svg" d="M11.859,10.279c-0.001,0.044-0.003,0.088-0.001,0.131c0.003,0.06,0.012,0.119,0.017,0.178  c0.005,0.065-0.009,0.139,0.018,0.192c0.096,0.191,0.069,0.388,0.044,0.585c-0.006,0.044,0.004,0.063,0.041,0.091  c0.068,0.051,0.125,0.118,0.183,0.18c0.036,0.038,0.058,0.1,0.1,0.12c0.093,0.044,0.097,0.11,0.084,0.195  c-0.013,0.086,0.039,0.191,0.109,0.228c-0.05,0.05-0.032,0.096,0.007,0.142c0.022,0.026,0.05,0.053,0.055,0.084  c0.013,0.069,0.058,0.095,0.115,0.12c0.049,0.022,0.091,0.064,0.078,0.125c-0.012,0.058-0.013,0.108,0.03,0.152  c0.039,0.04,0.08,0.08,0.124,0.124c-0.068,0.039-0.089,0.105-0.106,0.188c-0.011,0.057,0.039,0.076,0.034,0.104  c-0.02,0.122,0.062,0.258-0.053,0.362c0.075,0.087,0.032,0.216,0.124,0.288c0.005,0.004-0.006,0.025-0.004,0.037  c0.002,0.017,0.003,0.038,0.013,0.051c0.05,0.066,0.059,0.131,0.011,0.184c0.048,0.053,0.091,0.102,0.136,0.152  c-0.016,0.009-0.023,0.013-0.029,0.017c-0.102,0.067-0.107,0.103-0.019,0.187c0.068,0.065,0.111,0.15,0.192,0.207  c0.068,0.048,0.114,0.128,0.166,0.188c0.002,0.037-0.006,0.076,0.008,0.103c0.028,0.051,0.068,0.096,0.104,0.142  c0.02,0.026,0.04,0.054,0.067,0.071c0.058,0.037,0.087,0.076,0.052,0.149c-0.023,0.048-0.029,0.104-0.044,0.156  c0.032,0.007,0.057,0.012,0.083,0.017c-0.112,0.041-0.151,0.144-0.177,0.231c-0.019,0.067-0.045,0.143-0.028,0.229  c0.023,0.111,0.004,0.231,0.003,0.347c0,0.03,0.008,0.065-0.004,0.089c-0.067,0.135-0.052,0.284-0.073,0.426  c-0.007,0.048-0.004,0.097-0.007,0.158c0.011,0.005,0.04,0.019,0.082,0.039c-0.061,0.038-0.112,0.069-0.166,0.103  c0.005,0.01,0.021,0.029,0.017,0.037c-0.035,0.071-0.068,0.144-0.114,0.208c-0.033,0.046-0.064,0.081-0.03,0.14  c0.045,0.078,0.087,0.157,0.09,0.25c0,0.012,0.02,0.024,0.024,0.029c-0.051,0.054-0.103,0.108-0.139,0.146  c0.052,0.033,0.107,0.069,0.163,0.102c0.052,0.029,0.061,0.067,0.035,0.119c-0.023,0.047-0.046,0.094-0.065,0.142  c-0.029,0.072-0.047,0.139,0.005,0.216c0.024,0.036,0.007,0.099,0.01,0.15c0.001,0.02,0.003,0.04,0.008,0.06  c0.005,0.021,0.012,0.041,0.02,0.065c0.048-0.002,0.099,0.002,0.09,0.075c-0.006,0.045-0.019,0.09-0.025,0.135  c-0.01,0.082-0.071,0.175,0.048,0.23c0.008,0.004,0.01,0.021,0.015,0.032c-0.007-0.002-0.014-0.003-0.021-0.005  c-0.02,0.04-0.039,0.08-0.058,0.12c0.042,0.022,0.075,0.04,0.099,0.052c-0.019,0.066-0.031,0.122-0.05,0.175  c-0.024,0.069-0.02,0.133,0.023,0.192c0.06,0.082,0.079,0.17,0.046,0.268c-0.013,0.038-0.03,0.076-0.046,0.117  c0.052,0.04,0.03,0.083,0.012,0.135c-0.021,0.06-0.025,0.127-0.035,0.192c-0.004,0.027-0.006,0.055-0.007,0.083  c-0.002,0.075-0.022,0.157,0.002,0.223c0.018,0.049,0.029,0.084,0.005,0.128c-0.044,0.079-0.056,0.151,0.009,0.231  c0.021,0.026,0.007,0.081,0.012,0.122c0.002,0.018,0.007,0.045,0.02,0.052c0.065,0.037,0.06,0.094,0.052,0.155  c-0.006,0.047-0.033,0.097,0.019,0.139c0.009,0.007,0.008,0.032,0.007,0.048c-0.005,0.064-0.023,0.128-0.015,0.19  c0.006,0.047,0.002,0.072-0.039,0.094c-0.055,0.03-0.061,0.094-0.023,0.145c0.015,0.02,0.028,0.052,0.024,0.076  c-0.01,0.059-0.025,0.118-0.046,0.173c-0.017,0.043-0.002,0.067,0.034,0.076c0.093,0.023,0.13,0.098,0.168,0.173  c0.015,0.029,0.03,0.057,0.047,0.09c-0.04,0.048-0.086,0.1-0.127,0.156c-0.011,0.016-0.011,0.047-0.004,0.067  c0.008,0.024,0.03,0.044,0.045,0.066c-0.009-0.001-0.017-0.002-0.026-0.002c-0.017,0.029-0.034,0.057-0.051,0.086  c0.018,0.006,0.019,0.005,0.011,0.031c-0.023,0.076-0.061,0.132-0.14,0.165c0.045,0.039,0.084,0.074,0.124,0.108  c-0.01,0.002-0.019,0.004-0.029,0.007c-0.004,0.029-0.014,0.059-0.011,0.088c0.004,0.032,0.021,0.062,0.031,0.093  c0.02,0.061,0.04,0.122,0.06,0.183c0.008,0,0.016,0,0.024-0.001c-0.021,0.016-0.041,0.033-0.064,0.051  c0.075,0.09,0.149,0.179,0.226,0.27c-0.03,0.017-0.054,0.031-0.063,0.036c0.023,0.055,0.036,0.11,0.066,0.149  c0.034,0.044,0.085,0.074,0.13,0.111c-0.032,0.028-0.055,0.047-0.079,0.069c0.05,0.033,0.094,0.062,0.138,0.092  c0.069,0.047,0.099,0.135,0.054,0.2c-0.039,0.056-0.002,0.057,0.032,0.064c-0.013,0.025-0.023,0.046-0.035,0.07  c0.018,0,0.033,0,0.047,0c-0.015,0.069,0.009,0.104,0.073,0.12c0.025,0.006,0.052,0.022,0.07,0.041  c0.071,0.074,0.009,0.172,0.051,0.255c0.081,0.025,0.172,0.052,0.247,0.075c-0.015,0.053-0.036,0.088-0.031,0.12  c0.007,0.038,0.036,0.071,0.056,0.107c0.007,0.007,0.014,0.013,0.021,0.02c-0.023,0.013-0.047,0.024-0.068,0.039  c-0.111,0.081-0.112,0.087-0.075,0.201c-0.027,0.022-0.073,0.043-0.071,0.06c0.005,0.048,0.03,0.094,0.048,0.145  c-0.125,0.012,0.006,0.156-0.095,0.189c0.025,0.029,0.041,0.048,0.057,0.067c-0.019,0.011-0.033,0.019-0.049,0.029  c0.024,0.02,0.043,0.035,0.062,0.05c-0.05,0.043-0.096,0.082-0.144,0.123c0.097,0.065-0.01,0.115-0.002,0.172  c0.003,0.019-0.014,0.058-0.025,0.059c-0.078,0.01-0.068,0.054-0.049,0.106c0.018,0.05,0.029,0.103,0.051,0.152  c0.038,0.088,0.07,0.174,0.034,0.272c-0.016,0.043-0.039,0.103-0.022,0.133c0.049,0.084,0.007,0.198,0.095,0.268  c0.021,0.017,0.034,0.07,0.023,0.093c-0.037,0.077,0.009,0.113,0.071,0.151c-0.055,0.022-0.106,0.031-0.143,0.059  c-0.038,0.029-0.062,0.077-0.083,0.105c0.031,0.023,0.085,0.043,0.088,0.068c0.008,0.074-0.001,0.15-0.01,0.225  c-0.006,0.046-0.034,0.09-0.034,0.136c0,0.069,0.059,0.103,0.109,0.137c0.042,0.029,0.035,0.041,0.001,0.074  c-0.031,0.03-0.056,0.075-0.064,0.118c-0.012,0.063,0.014,0.142-0.014,0.193c-0.064,0.116-0.007,0.241-0.046,0.355  c-0.01,0.031-0.007,0.078-0.028,0.094c-0.069,0.053-0.102,0.115-0.089,0.202c0.003,0.021-0.002,0.043,0,0.064  c0.007,0.079-0.007,0.149-0.076,0.201c-0.023,0.018-0.04,0.045-0.058,0.069c-0.025,0.034-0.047,0.069-0.077,0.115  c0.012,0.06,0.007,0.066-0.078,0.09c-0.02,0.006-0.037,0.024-0.055,0.036c0.015,0.019,0.028,0.039,0.044,0.057  c0.006,0.007,0.017,0.008,0.011,0.005c-0.004,0.071-0.005,0.131-0.012,0.191c-0.006,0.051-0.015,0.102-0.029,0.152  c-0.007,0.024-0.029,0.042-0.041,0.065c-0.045,0.087-0.09,0.174-0.132,0.263c-0.008,0.017-0.01,0.044-0.002,0.059  c0.022,0.045,0.011,0.194-0.012,0.241c-0.047,0.095-0.088,0.192-0.128,0.29c-0.031,0.076-0.048,0.157-0.085,0.23  c-0.018,0.035-0.028,0.111-0.043,0.174h6.471c0.018-0.029,0.033-0.061,0.031-0.111c-0.001-0.019,0.001-0.044,0.012-0.058  c0.062-0.079,0.032-0.174,0.049-0.252c0.025-0.009,0.048-0.017,0.072-0.025c-0.01-0.021-0.024-0.041-0.028-0.062  c-0.007-0.04-0.015-0.081-0.011-0.121c0.005-0.053,0.029-0.098,0.059-0.145c0.024-0.038,0.029-0.103,0.015-0.148  c-0.022-0.073-0.007-0.129,0.036-0.19c-0.047-0.031-0.104-0.059-0.1-0.129c0.004-0.077-0.037-0.157,0.022-0.232  c0.011-0.014-0.012-0.056-0.02-0.085c-0.006-0.02-0.018-0.04-0.019-0.061c0-0.017,0.02-0.049,0.017-0.05  c-0.062-0.034,0-0.063,0.005-0.086c-0.021-0.029-0.038-0.052-0.055-0.076c0.04-0.009,0.075-0.017,0.11-0.024  c-0.058-0.068,0.03-0.302,0.106-0.338c0.017-0.084,0.03-0.152,0.045-0.226c-0.014-0.013-0.039-0.036-0.063-0.059  c0.008-0.002,0.015-0.005,0.023-0.007c-0.01-0.048-0.017-0.097-0.029-0.145c-0.015-0.063-0.037-0.126-0.048-0.19  c-0.003-0.017,0.02-0.038,0.03-0.058c0.026-0.052,0.091-0.089,0.056-0.165c-0.006-0.013,0.011-0.035,0.016-0.054  c0.004-0.018,0.006-0.037,0.009-0.056c0.004-0.027,0.005-0.054,0.01-0.081c0.003-0.021,0.014-0.042,0.014-0.062  c-0.002-0.045-0.01-0.09-0.013-0.135c-0.003-0.046-0.005-0.093-0.004-0.14c0-0.02,0.003-0.02-0.128-0.064  c-0.004-0.001-0.006-0.007-0.017-0.021c0.023-0.016,0.044-0.031,0.051-0.036c-0.005-0.012-0.018-0.027-0.016-0.04  c0.012-0.078-0.005-0.144-0.048-0.211c-0.025-0.039-0.047-0.107-0.03-0.143c0.052-0.111,0.007-0.191-0.054-0.274  c-0.009-0.012-0.005-0.032-0.009-0.054c-0.093-0.013-0.127-0.055-0.198-0.263c0.11-0.067,0.126-0.101,0.094-0.19  c-0.008-0.022-0.009-0.049-0.005-0.072c0.018-0.097,0.006-0.119-0.089-0.153c-0.001-0.005-0.003-0.011-0.002-0.015  c0.024-0.069,0.073-0.144-0.043-0.18c-0.007-0.002-0.009-0.017-0.013-0.027c-0.023-0.05-0.045-0.1-0.07-0.154  c0.03-0.004,0.054-0.006,0.081-0.01c-0.014-0.047-0.017-0.097-0.042-0.126c-0.026-0.029-0.075-0.038-0.124-0.06  c0.023-0.04,0.043-0.074,0.062-0.108c0-0.021,0-0.044,0-0.068c-0.001-0.036,0.012-0.085-0.006-0.106  c-0.055-0.063-0.12-0.117-0.186-0.169c-0.068-0.053-0.093-0.143-0.05-0.205c0.053-0.075,0.05-0.12-0.007-0.19  c-0.012-0.015-0.027-0.037-0.025-0.053c0.016-0.092,0.018-0.178-0.05-0.253c-0.011-0.013-0.018-0.031-0.022-0.049  c-0.022-0.083-0.042-0.167-0.058-0.228c0.03-0.046,0.061-0.076,0.072-0.112c0.019-0.062,0.016-0.131-0.004-0.189  c-0.026-0.078-0.071-0.15-0.116-0.219c-0.023-0.036-0.068-0.053-0.05-0.113c0.009-0.032-0.004-0.074-0.046-0.102  c-0.076-0.051-0.151-0.108-0.155-0.215c-0.002-0.041-0.022-0.081-0.023-0.121c-0.001-0.028,0.016-0.056,0.022-0.072  c-0.01-0.039-0.018-0.072-0.026-0.105c-0.004-0.015-0.009-0.029-0.013-0.044c-0.01-0.04-0.041-0.091-0.026-0.119  c0.034-0.066,0.002-0.115-0.018-0.169c0.084-0.085,0.174-0.165,0.155-0.298c0.024-0.027,0.04-0.058,0.052-0.09  c0.014-0.037,0.021-0.077,0.037-0.113c0.011-0.026,0.048-0.053,0.043-0.071c-0.022-0.078,0.038-0.116,0.068-0.166  c-0.007-0.019-0.022-0.049-0.017-0.053c0.061-0.049,0.007-0.082-0.011-0.123c-0.031-0.072-0.056-0.146-0.079-0.221  c-0.017-0.056,0.002-0.117-0.003-0.171c-0.011-0.11-0.03-0.218-0.014-0.328c0.008-0.057-0.001-0.1-0.067-0.105  c0.026-0.114,0.05-0.221,0.073-0.327c0.026,0.008,0.047,0.015,0.083,0.026c-0.007-0.043-0.013-0.074-0.018-0.104  c0.049-0.092,0.104-0.184,0.149-0.28c0.029-0.064,0.055-0.13,0.034-0.207c-0.01-0.037,0.001-0.083,0.014-0.121  c0.032-0.096,0.079-0.182,0.181-0.221c-0.03-0.06,0.002-0.136,0.064-0.157c0.054-0.018,0.078-0.053,0.086-0.112  c0.01-0.073-0.028-0.163,0.063-0.213c0.005-0.003,0.011-0.014,0.01-0.02c-0.012-0.063-0.025-0.125-0.038-0.188  c-0.007-0.032-0.022-0.065-0.018-0.096c0.011-0.081,0.03-0.16,0.048-0.24c0.009-0.041,0.022-0.081,0.032-0.122  c0.007-0.027,0.022-0.057,0.015-0.081c-0.019-0.065,0.005-0.09,0.068-0.09c-0.004-0.017-0.008-0.031-0.014-0.053  c0.061-0.012,0.119-0.023,0.183-0.035c-0.02-0.015-0.037-0.028-0.065-0.05c0.073-0.002,0.11-0.031,0.093-0.093  c-0.014-0.053-0.036-0.104-0.061-0.153c-0.032-0.061-0.009-0.117,0.004-0.176c0.008-0.036,0.008-0.073,0.012-0.11  c0.009-0.039,0.012-0.077,0.017-0.115c0.008-0.054,0.002-0.102-0.045-0.138c-0.105-0.082-0.205-0.171-0.314-0.248  c-0.064-0.045-0.065-0.091-0.04-0.153c-0.044-0.043-0.075-0.085,0.01-0.119c0.01-0.004,0.02-0.028,0.017-0.039  c-0.008-0.029-0.023-0.056-0.035-0.084c-0.019-0.043-0.051-0.085-0.056-0.13c-0.009-0.086-0.037-0.163-0.083-0.234  c-0.032-0.05-0.058-0.095,0.019-0.124c-0.044-0.063-0.081-0.126-0.168-0.119c-0.007,0.001-0.02-0.021-0.023-0.033  c-0.009-0.043-0.012-0.088-0.024-0.131c-0.01-0.039-0.01-0.091-0.07-0.096c0.005-0.084-0.106-0.111-0.094-0.212  c0.008-0.066-0.014-0.132,0.049-0.181c-0.046-0.041-0.054-0.252-0.015-0.453c0.003-0.014,0.028-0.023,0.033-0.027  c-0.069-0.039-0.143-0.081-0.209-0.118c-0.006-0.033-0.024-0.066-0.014-0.084c0.036-0.068,0.017-0.147,0.051-0.213  c0.005-0.01,0.006-0.027,0.001-0.035c-0.047-0.077-0.049-0.16-0.047-0.246c0.002-0.062,0.031-0.159,0.062-0.193  c-0.05-0.034-0.098-0.073-0.151-0.102c-0.067-0.037-0.081-0.072-0.05-0.128c-0.024-0.037-0.063-0.069-0.062-0.1  c0.001-0.055,0.032-0.108,0.04-0.163c0.008-0.057,0.035-0.094,0.076-0.134c0.053-0.051,0.109-0.11,0.073-0.203  c-0.01-0.026,0.016-0.067,0.027-0.105c0.014,0.003,0.029,0.006,0.035,0.008c0.009-0.019,0.012-0.044,0.024-0.052  c0.13-0.08,0.153-0.228,0.056-0.35c0.018-0.043,0.027-0.091,0.055-0.123c0.08-0.092,0.082-0.135-0.008-0.224  c0.021-0.039,0.043-0.078,0.064-0.117c-0.012-0.007-0.024-0.015-0.039-0.024c0.064-0.04,0.056-0.158,0.143-0.134  c0.026-0.066,0.047-0.124,0.073-0.181c0.031-0.067,0.007-0.135-0.017-0.188c-0.036-0.083-0.104-0.152-0.01-0.236  c0.002-0.002,0.003-0.009,0.002-0.013c-0.033-0.067,0.02-0.07,0.06-0.085c0.01-0.004,0.025-0.018,0.024-0.027  c-0.005-0.08-0.007-0.157-0.089-0.212c-0.052-0.034-0.08-0.1-0.082-0.167c0.044,0.023,0.081,0.043,0.119,0.063  c-0.019-0.06-0.037-0.116-0.055-0.171c0.005-0.002,0.011-0.004,0.016-0.007c-0.023-0.015-0.046-0.029-0.071-0.045  c0.013-0.008,0.022-0.014,0.031-0.019c-0.023-0.008-0.045-0.015-0.056-0.019c0.007-0.033,0.024-0.063,0.016-0.086  c-0.028-0.079-0.003-0.127,0.063-0.144c-0.012-0.053-0.023-0.098-0.039-0.165c-0.174-0.178-0.251-0.419-0.258-0.686  c-0.001-0.023,0.008-0.047,0.014-0.076c-0.009-0.012-0.022-0.03-0.031-0.042c0.022-0.053,0.041-0.098,0.061-0.146  c-0.047-0.053-0.024-0.132,0.051-0.181c0.016-0.011,0.027-0.039,0.029-0.06c0.009-0.075-0.034-0.16,0.048-0.221  c0.021-0.015,0.035-0.04,0.051-0.061c0.024-0.033,0.047-0.066,0.066-0.091c0-0.07-0.001-0.143,0.001-0.217  c0-0.013,0.015-0.029,0.028-0.036c0.09-0.046,0.123-0.129,0.14-0.208c0.052-0.03,0.094-0.054,0.138-0.079  c-0.035-0.105-0.07-0.213-0.106-0.321c0.058-0.047,0.117-0.095,0.175-0.144c0.004-0.003,0-0.015,0.003-0.02  c0.012-0.017,0.023-0.041,0.04-0.049c0.107-0.05,0.133-0.165,0.171-0.254c0.032-0.077-0.004-0.183-0.011-0.276  c0.001-0.019,0.03-0.037,0.033-0.06c0.012-0.074,0.041-0.152-0.022-0.221c-0.012-0.013-0.014-0.037-0.018-0.056  c-0.013-0.053-0.032-0.106-0.037-0.161c-0.008-0.084-0.059-0.171,0.024-0.25c0.044-0.042,0.088-0.086,0.089-0.163  c0.001-0.114-0.056-0.196-0.112-0.278c0.041-0.114,0.126-0.221,0.023-0.347c-0.014-0.017,0.002-0.059,0.006-0.089  c0.002-0.012,0.012-0.024,0.012-0.036c-0.006-0.123,0.05-0.221,0.12-0.315c0.065-0.088,0.034-0.193-0.06-0.213  c-0.108-0.022-0.171-0.096-0.202-0.208c-0.02-0.073-0.068-0.138-0.09-0.21c-0.013-0.041-0.002-0.091,0.003-0.137  c0.003-0.023,0.031-0.049,0.025-0.066c-0.023-0.064-0.057-0.124-0.045-0.196c0.003-0.02,0.005-0.042,0.015-0.059  c0.018-0.034,0.041-0.065,0.062-0.098c-0.006-0.004-0.012-0.009-0.018-0.013c0.014-0.001,0.028-0.002,0.049-0.003  c-0.016-0.014-0.026-0.023-0.038-0.033c0.096-0.068,0.034-0.153,0.027-0.231c0.01,0.01,0.019,0.019,0.029,0.029  c0.022-0.036,0.045-0.072,0.067-0.107c-0.02-0.025-0.032-0.039-0.051-0.063c0.033-0.004,0.054-0.006,0.081-0.01  c-0.022-0.027-0.039-0.048-0.057-0.07c0.024-0.022,0.044-0.039,0.07-0.064c-0.073-0.03-0.1-0.092-0.07-0.146  c0.029-0.052,0.005-0.082-0.009-0.121c-0.025-0.069-0.057-0.133,0.005-0.206c0.036-0.042,0.057-0.1,0.072-0.155  c0.022-0.082,0.03-0.167,0.049-0.25c0.006-0.028,0.036-0.054,0.035-0.081c-0.002-0.122,0.033-0.234,0.062-0.35  c0.01-0.039,0.082-0.091,0.001-0.142c-0.039-0.025-0.064-0.071-0.089-0.1c0.038-0.054,0.074-0.089,0.091-0.132  c0.028-0.068,0.046-0.14,0.063-0.212c0.035-0.143,0.144-0.254,0.163-0.403c0.08-0.051,0.102-0.124,0.077-0.214  c-0.007-0.027,0.001-0.067-0.015-0.082c-0.033-0.032-0.044-0.063-0.041-0.107c0.002-0.025,0.004-0.059-0.011-0.076  c-0.058-0.067-0.101-0.131-0.113-0.228c-0.012-0.1-0.042-0.195-0.014-0.268c-0.036-0.048-0.08-0.083-0.09-0.126  c-0.018-0.081-0.017-0.167-0.024-0.255c-0.114-0.044-0.115-0.051-0.09-0.17c0.004-0.02-0.023-0.05-0.041-0.07  c-0.01-0.011-0.031-0.013-0.025-0.011c0-0.065,0.015-0.123-0.003-0.166C19.652,0.144,19.625,0.076,19.679,0h-6.842  c-0.043,0.082-0.104,0.161-0.044,0.267c0.022,0.039,0.021,0.082,0.006,0.133c-0.011,0.039,0.034,0.093,0.05,0.142  c0.007,0.022,0.008,0.049,0.004,0.072c-0.015,0.096,0.015,0.17,0.099,0.218c-0.035,0.058-0.069,0.117-0.104,0.176  c0.072,0.031,0.153,0.267,0.133,0.366c0.021,0.011,0.043,0.023,0.046,0.024c-0.014,0.053-0.034,0.095-0.035,0.137  c-0.001,0.059,0.012,0.115-0.029,0.17c-0.015,0.02-0.004,0.072,0.013,0.098C13,1.841,13.04,1.869,13.075,1.904  c-0.032,0.017-0.054,0.028-0.09,0.046c0.042,0.021,0.072,0.034,0.099,0.05c0.045,0.027,0.103,0.047,0.13,0.087  c0.034,0.05,0.094,0.087,0.072,0.178c-0.026,0.108-0.003,0.12,0.114,0.169c0.019,0.008,0.04,0.018,0.051,0.034  c0.032,0.048,0.06,0.098,0.091,0.151c-0.087,0.137-0.131,0.281-0.054,0.419c-0.036,0.044-0.061,0.088-0.098,0.117  c-0.067,0.052-0.05,0.083,0.017,0.107c-0.009,0.04-0.02,0.076-0.025,0.113c-0.004,0.029,0.002,0.059,0.002,0.089  c0,0.031-0.017,0.073-0.002,0.09c0.034,0.042-0.001,0.058-0.019,0.076c-0.069,0.068-0.076,0.137-0.014,0.208  c0.035,0.041,0.077,0.075,0.111,0.117c0.016,0.02,0.019,0.051,0.027,0.077c-0.006,0.003-0.012,0.006-0.018,0.009  c0.023,0.015,0.047,0.029,0.07,0.044c-0.007,0.002-0.013,0.004-0.02,0.006c0,0.023,0,0.046,0,0.069c0,0.101,0.063,0.157,0.14,0.204  c0.054,0.033,0.048,0.078,0.027,0.131c-0.028,0.071-0.09,0.166-0.066,0.212c0.045,0.085,0.038,0.136-0.017,0.2  c-0.007,0.009-0.013,0.027-0.009,0.037c0.022,0.054-0.017,0.07-0.052,0.074c-0.1,0.01-0.14,0.089-0.186,0.158  c-0.028,0.043-0.054,0.096-0.013,0.154c0.011,0.015,0,0.058-0.014,0.077c-0.065,0.087-0.067,0.161-0.007,0.251  c0.012,0.018,0.015,0.049,0.008,0.069c-0.017,0.051-0.044,0.098-0.061,0.149c-0.005,0.016,0.002,0.044,0.014,0.057  c0.036,0.039,0.077,0.073,0.112,0.105c-0.016,0.048-0.018,0.09-0.04,0.113c-0.065,0.067-0.128,0.132-0.163,0.22  c-0.003,0.009-0.012,0.017-0.021,0.022C13.065,6.45,13.05,6.549,13.05,6.658c0,0.016-0.021,0.041-0.038,0.048  c-0.049,0.02-0.101,0.03-0.151,0.048c-0.076,0.027-0.073,0.107-0.096,0.164c-0.023,0.059-0.047,0.1-0.108,0.121  c-0.029,0.01-0.074,0.034-0.076,0.055c-0.006,0.059-0.01,0.13,0.017,0.178c0.028,0.049,0.012,0.066-0.021,0.074  c-0.074,0.018-0.084,0.079-0.082,0.132c0.004,0.084-0.019,0.146-0.08,0.205c-0.033,0.032-0.042,0.089-0.062,0.135  c0.019,0.008,0.035,0.015,0.044,0.019c-0.011,0.036-0.017,0.069-0.029,0.099c-0.034,0.088-0.071,0.176-0.107,0.263  c-0.01,0.025-0.027,0.048-0.034,0.073C12.216,8.313,12.209,8.357,12.2,8.4c-0.008,0.041,0,0.098-0.024,0.121  c-0.044,0.042-0.04,0.075-0.013,0.11c-0.066,0.077-0.165,0.128-0.124,0.252c0.003,0.01-0.01,0.025-0.009,0.037  c0.004,0.045,0.008,0.09,0.016,0.135c0.005,0.033,0.02,0.065,0.02,0.097c0,0.036-0.012,0.073-0.018,0.109  c-0.007,0.054-0.022,0.114-0.057,0.155c-0.059,0.068-0.048,0.129-0.001,0.199c-0.039,0.026-0.073,0.048-0.11,0.072  c0.035,0.063,0.081,0.129-0.001,0.194c-0.003,0.003,0.007,0.018,0.006,0.027c-0.006,0.053-0.016,0.106-0.02,0.159  c-0.005,0.06-0.053,0.12-0.003,0.181C11.865,10.255,11.859,10.269,11.859,10.279z" fill="currentColor"></path>
</symbol><use data-v-3b6c6e39="" xlink:href="#httpsc0piktochartcomv2themesbasesvgsstar03svg-custom" href="#httpsc0piktochartcomv2themesbasesvgsstar03svg-custom"></use><use data-v-3b6c6e39="" xlink:href="#httpsc0piktochartcomv2themesbasesvgs29July2015pizzasvg-original" href="#httpsc0piktochartcomv2themesbasesvgs29July2015pizzasvg-original"></use><use data-v-3b6c6e39="" xlink:href="#httpsc0piktochartcomv2themesbasesvgsfunkyHamburgersvg-original" href="#httpsc0piktochartcomv2themesbasesvgsfunkyHamburgersvg-original"></use><use data-v-3b6c6e39="" xlink:href="#httpsc0piktochartcomv2themesbasesvgs241022dbanner36svg-custom" href="#httpsc0piktochartcomv2themesbasesvgs241022dbanner36svg-custom"></use></svg>