<svg width="1226" height="370" viewBox="0 0 1226 370" fill="none" xmlns="http://www.w3.org/2000/svg">
<path d="M896.69 293.273C882.508 293.273 870.065 289.898 859.36 283.148C848.724 276.398 840.406 266.955 834.406 254.818C828.474 242.682 825.508 228.5 825.508 212.273C825.508 195.909 828.474 181.625 834.406 169.42C840.406 157.216 848.724 147.739 859.36 140.989C870.065 134.239 882.508 130.864 896.69 130.864C910.872 130.864 923.281 134.239 933.917 140.989C944.622 147.739 952.94 157.216 958.872 169.42C964.872 181.625 967.872 195.909 967.872 212.273C967.872 228.5 964.872 242.682 958.872 254.818C952.94 266.955 944.622 276.398 933.917 283.148C923.281 289.898 910.872 293.273 896.69 293.273ZM896.69 271.591C907.462 271.591 916.326 268.83 923.281 263.307C930.235 257.784 935.383 250.523 938.724 241.523C942.065 232.523 943.735 222.773 943.735 212.273C943.735 201.773 942.065 191.989 938.724 182.92C935.383 173.852 930.235 166.523 923.281 160.932C916.326 155.341 907.462 152.545 896.69 152.545C885.917 152.545 877.053 155.341 870.099 160.932C863.144 166.523 857.997 173.852 854.656 182.92C851.315 191.989 849.644 201.773 849.644 212.273C849.644 222.773 851.315 232.523 854.656 241.523C857.997 250.523 863.144 257.784 870.099 263.307C877.053 268.83 885.917 271.591 896.69 271.591ZM1046.75 293.273C1033.66 293.273 1022.11 289.966 1012.08 283.352C1002.06 276.67 994.219 267.261 988.56 255.125C982.901 242.92 980.072 228.5 980.072 211.864C980.072 195.364 982.901 181.045 988.56 168.909C994.219 156.773 1002.09 147.398 1012.19 140.784C1022.28 134.17 1033.94 130.864 1047.16 130.864C1057.39 130.864 1065.47 132.568 1071.4 135.977C1077.4 139.318 1081.97 143.136 1085.11 147.432C1088.31 151.659 1090.8 155.136 1092.57 157.864H1094.62V80.5454H1118.75V290H1095.44V265.864H1092.57C1090.8 268.727 1088.28 272.341 1085 276.705C1081.73 281 1077.06 284.852 1070.99 288.261C1064.92 291.602 1056.84 293.273 1046.75 293.273ZM1050.03 271.591C1059.71 271.591 1067.89 269.068 1074.57 264.023C1081.25 258.909 1086.33 251.852 1089.81 242.852C1093.29 233.784 1095.03 223.318 1095.03 211.455C1095.03 199.727 1093.32 189.466 1089.91 180.67C1086.5 171.807 1081.46 164.92 1074.78 160.011C1068.09 155.034 1059.84 152.545 1050.03 152.545C1039.8 152.545 1031.28 155.17 1024.46 160.42C1017.71 165.602 1012.63 172.659 1009.22 181.591C1005.88 190.455 1004.21 200.409 1004.21 211.455C1004.21 222.636 1005.91 232.795 1009.32 241.932C1012.8 251 1017.91 258.227 1024.66 263.614C1031.48 268.932 1039.94 271.591 1050.03 271.591Z" fill="#FFC000"/>
<path d="M238.5 80.5454H282.784V216.568C282.784 231.841 279.137 245.205 271.841 256.659C264.614 268.114 254.489 277.045 241.466 283.455C228.443 289.795 213.273 292.966 195.955 292.966C178.568 292.966 163.364 289.795 150.341 283.455C137.318 277.045 127.193 268.114 119.966 256.659C112.739 245.205 109.125 231.841 109.125 216.568V80.5454H153.409V212.784C153.409 220.761 155.148 227.852 158.625 234.057C162.171 240.261 167.148 245.136 173.557 248.682C179.966 252.227 187.432 254 195.955 254C204.546 254 212.012 252.227 218.352 248.682C224.762 245.136 229.705 240.261 233.182 234.057C236.727 227.852 238.5 220.761 238.5 212.784V80.5454ZM344.689 199.182V290H301.121V132.909H342.643V160.625H344.484C347.962 151.489 353.791 144.261 361.973 138.943C370.155 133.557 380.075 130.864 391.734 130.864C402.643 130.864 412.155 133.25 420.268 138.023C428.382 142.795 434.689 149.614 439.189 158.477C443.689 167.273 445.939 177.773 445.939 189.977V290H402.371V197.75C402.439 188.136 399.984 180.636 395.007 175.25C390.03 169.795 383.178 167.068 374.45 167.068C368.587 167.068 363.405 168.33 358.905 170.852C354.473 173.375 350.996 177.057 348.473 181.898C346.018 186.67 344.757 192.432 344.689 199.182ZM462.997 290V132.909H506.565V290H462.997ZM484.883 112.659C478.406 112.659 472.849 110.511 468.213 106.216C463.645 101.852 461.361 96.6364 461.361 90.5682C461.361 84.5682 463.645 79.4204 468.213 75.125C472.849 70.7614 478.406 68.5795 484.883 68.5795C491.361 68.5795 496.883 70.7614 501.452 75.125C506.088 79.4204 508.406 84.5682 508.406 90.5682C508.406 96.6364 506.088 101.852 501.452 106.216C496.883 110.511 491.361 112.659 484.883 112.659Z" fill="#142428"/>
<path d="M538.832 290V80.5454H664.423V103.045H564.195V173.818H655.014V196.318H564.195V290H538.832ZM739.597 293.273C725.415 293.273 712.972 289.898 702.268 283.148C691.631 276.398 683.313 266.955 677.313 254.818C671.381 242.682 668.415 228.5 668.415 212.273C668.415 195.909 671.381 181.625 677.313 169.42C683.313 157.216 691.631 147.739 702.268 140.989C712.972 134.239 725.415 130.864 739.597 130.864C753.779 130.864 766.188 134.239 776.824 140.989C787.529 147.739 795.847 157.216 801.779 169.42C807.779 181.625 810.779 195.909 810.779 212.273C810.779 228.5 807.779 242.682 801.779 254.818C795.847 266.955 787.529 276.398 776.824 283.148C766.188 289.898 753.779 293.273 739.597 293.273ZM739.597 271.591C750.37 271.591 759.234 268.83 766.188 263.307C773.143 257.784 778.29 250.523 781.631 241.523C784.972 232.523 786.643 222.773 786.643 212.273C786.643 201.773 784.972 191.989 781.631 182.92C778.29 173.852 773.143 166.523 766.188 160.932C759.234 155.341 750.37 152.545 739.597 152.545C728.824 152.545 719.961 155.341 713.006 160.932C706.052 166.523 700.904 173.852 697.563 182.92C694.222 191.989 692.552 201.773 692.552 212.273C692.552 222.773 694.222 232.523 697.563 241.523C700.904 250.523 706.052 257.784 713.006 263.307C719.961 268.83 728.824 271.591 739.597 271.591Z" fill="#FFC000"/>
<path d="M962.896 204.062C952.635 175.083 924.962 154.312 892.5 154.312C860.038 154.312 832.365 175.083 822.104 204.062H817.875V228.938C817.875 270.168 851.27 303.562 892.5 303.562C933.73 303.562 967.125 270.168 967.125 228.938V204.062H962.896ZM920.484 226.699C920.484 240.442 909.353 251.574 895.609 251.574H889.391C875.647 251.574 864.516 240.442 864.516 226.699C864.516 212.955 875.647 201.824 889.391 201.824H895.609C909.353 201.824 920.484 212.955 920.484 226.699Z" fill="#FFC000"/>
<path d="M892.5 129.438C851.27 129.438 817.875 162.832 817.875 204.062C817.875 245.293 851.27 278.688 892.5 278.688C933.73 278.688 967.125 245.293 967.125 204.062C967.125 162.832 933.73 129.438 892.5 129.438ZM920.484 204.062C920.484 217.806 909.353 228.938 895.609 228.938H889.391C875.647 228.938 864.516 217.806 864.516 204.062C864.516 190.319 875.647 179.188 889.391 179.188H895.609C909.353 179.188 920.484 190.319 920.484 204.062Z" fill="#FFDAEC"/>
<path d="M872.911 165.257C871.667 166.501 869.553 166.501 868.309 165.257L863.396 160.407C862.152 159.163 862.152 157.049 863.396 155.805C864.64 154.561 866.754 154.561 867.998 155.805L872.849 160.655C874.155 161.899 874.155 164.014 872.911 165.257Z" fill="#00A6ED"/>
<path d="M831.805 204.187C830.562 205.431 830.562 207.545 831.805 208.789C833.049 210.095 835.163 210.095 836.407 208.789L841.258 203.938C842.502 202.694 842.502 200.58 841.258 199.336C840.014 198.093 837.9 198.093 836.656 199.336L831.805 204.187Z" fill="#00A6ED"/>
<path d="M937.524 221.226C936.28 219.983 936.28 217.868 937.524 216.624L942.374 211.774C943.618 210.53 945.732 210.53 946.976 211.774C948.22 213.018 948.22 215.132 946.976 216.376L942.126 221.226C940.882 222.532 938.767 222.532 937.524 221.226Z" fill="#00A6ED"/>
<path d="M866.132 252.32C864.889 253.564 862.774 253.564 861.531 252.32L856.68 247.469C855.436 246.226 855.436 244.111 856.68 242.868C857.924 241.624 860.038 241.624 861.282 242.868L866.132 247.718C867.438 248.962 867.438 251.076 866.132 252.32Z" fill="#00A6ED"/>
<path d="M925.086 166.874C923.842 168.118 923.842 170.232 925.086 171.476C926.33 172.782 928.444 172.782 929.688 171.476L934.539 166.625C935.782 165.382 935.782 163.267 934.539 162.024C933.295 160.78 931.181 160.78 929.937 162.024L925.086 166.874Z" fill="#00A6ED"/>
<path d="M893.992 154.437C892.749 155.68 892.749 157.795 893.992 159.039C895.236 160.344 897.351 160.344 898.594 159.039L903.445 154.188C904.689 152.944 904.689 150.83 903.445 149.586C902.201 148.342 900.087 148.342 898.843 149.586L893.992 154.437Z" fill="#FF6DC6"/>
<path d="M942.374 190.133C943.618 191.376 945.732 191.376 946.976 190.133C948.282 188.889 948.282 186.774 946.976 185.531L942.126 180.68C940.882 179.436 938.767 179.436 937.524 180.68C936.28 181.924 936.28 184.038 937.524 185.282L942.374 190.133Z" fill="#FF6DC6"/>
<path d="M844.243 178.254C842.999 177.01 842.999 174.896 844.243 173.652L849.093 168.802C850.337 167.558 852.452 167.558 853.695 168.802C854.939 170.045 854.939 172.16 853.695 173.404L848.845 178.254C847.601 179.498 845.487 179.498 844.243 178.254Z" fill="#FF6DC6"/>
<path d="M881.555 260.156C880.311 261.399 880.311 263.514 881.555 264.758C882.799 266.063 884.913 266.063 886.157 264.758L891.007 259.907C892.251 258.663 892.251 256.549 891.007 255.305C889.764 254.061 887.649 254.061 886.406 255.305L881.555 260.156Z" fill="#FF6DC6"/>
<path d="M928.32 246.101C927.076 247.345 924.962 247.345 923.718 246.101L918.867 241.251C917.624 240.007 917.624 237.893 918.867 236.649C920.111 235.405 922.226 235.405 923.469 236.649L928.32 241.499C929.626 242.743 929.626 244.858 928.32 246.101Z" fill="#FF6DC6"/>
<path d="M855.312 228.004C856.556 229.248 858.67 229.248 859.914 228.004C861.22 226.698 861.22 224.646 859.914 223.402L855.063 218.552C853.82 217.308 851.705 217.308 850.462 218.552C849.218 219.795 849.218 221.91 850.462 223.153L855.312 228.004Z" fill="#FF6DC6"/>
<path d="M810.896 204.062C800.635 175.083 772.962 154.312 740.5 154.312C708.038 154.312 680.365 175.083 670.104 204.062H665.875V228.938C665.875 270.168 699.27 303.562 740.5 303.562C781.73 303.562 815.125 270.168 815.125 228.938V204.062H810.896ZM768.484 226.699C768.484 240.442 757.353 251.574 743.609 251.574H737.391C723.647 251.574 712.516 240.442 712.516 226.699C712.516 212.955 723.647 201.824 737.391 201.824H743.609C757.353 201.824 768.484 212.955 768.484 226.699Z" fill="#FFC000"/>
<path d="M740.5 129.438C699.27 129.438 665.875 162.832 665.875 204.062C665.875 245.293 699.27 278.688 740.5 278.688C781.73 278.688 815.125 245.293 815.125 204.062C815.125 162.832 781.73 129.438 740.5 129.438ZM768.484 204.062C768.484 217.806 757.353 228.938 743.609 228.938H737.391C723.647 228.938 712.516 217.806 712.516 204.062C712.516 190.319 723.647 179.188 737.391 179.188H743.609C757.353 179.188 768.484 190.319 768.484 204.062Z" fill="#FFDAEC"/>
<path d="M720.911 165.257C719.667 166.501 717.553 166.501 716.309 165.257L711.396 160.407C710.152 159.163 710.152 157.049 711.396 155.805C712.64 154.561 714.754 154.561 715.998 155.805L720.849 160.655C722.155 161.899 722.155 164.014 720.911 165.257Z" fill="#00A6ED"/>
<path d="M679.805 204.187C678.562 205.431 678.562 207.545 679.805 208.789C681.049 210.095 683.163 210.095 684.407 208.789L689.258 203.938C690.502 202.694 690.502 200.58 689.258 199.336C688.014 198.093 685.9 198.093 684.656 199.336L679.805 204.187Z" fill="#00A6ED"/>
<path d="M785.524 221.226C784.28 219.983 784.28 217.868 785.524 216.624L790.374 211.774C791.618 210.53 793.732 210.53 794.976 211.774C796.22 213.018 796.22 215.132 794.976 216.376L790.126 221.226C788.882 222.532 786.767 222.532 785.524 221.226Z" fill="#00A6ED"/>
<path d="M714.132 252.32C712.889 253.564 710.774 253.564 709.531 252.32L704.68 247.469C703.436 246.226 703.436 244.111 704.68 242.868C705.924 241.624 708.038 241.624 709.282 242.868L714.132 247.718C715.438 248.962 715.438 251.076 714.132 252.32Z" fill="#00A6ED"/>
<path d="M773.086 166.874C771.842 168.118 771.842 170.232 773.086 171.476C774.33 172.782 776.444 172.782 777.688 171.476L782.539 166.625C783.782 165.382 783.782 163.267 782.539 162.024C781.295 160.78 779.181 160.78 777.937 162.024L773.086 166.874Z" fill="#00A6ED"/>
<path d="M741.992 154.437C740.749 155.68 740.749 157.795 741.992 159.039C743.236 160.344 745.351 160.344 746.594 159.039L751.445 154.188C752.689 152.944 752.689 150.83 751.445 149.586C750.201 148.342 748.087 148.342 746.843 149.586L741.992 154.437Z" fill="#FF6DC6"/>
<path d="M790.374 190.133C791.618 191.376 793.732 191.376 794.976 190.133C796.282 188.889 796.282 186.774 794.976 185.531L790.126 180.68C788.882 179.436 786.767 179.436 785.524 180.68C784.28 181.924 784.28 184.038 785.524 185.282L790.374 190.133Z" fill="#FF6DC6"/>
<path d="M692.243 178.254C690.999 177.01 690.999 174.896 692.243 173.652L697.093 168.802C698.337 167.558 700.452 167.558 701.695 168.802C702.939 170.045 702.939 172.16 701.695 173.404L696.845 178.254C695.601 179.498 693.487 179.498 692.243 178.254Z" fill="#FF6DC6"/>
<path d="M729.555 260.156C728.311 261.399 728.311 263.514 729.555 264.758C730.799 266.063 732.913 266.063 734.157 264.758L739.007 259.907C740.251 258.663 740.251 256.549 739.007 255.305C737.764 254.061 735.649 254.061 734.406 255.305L729.555 260.156Z" fill="#FF6DC6"/>
<path d="M776.32 246.101C775.076 247.345 772.962 247.345 771.718 246.101L766.867 241.251C765.624 240.007 765.624 237.893 766.867 236.649C768.111 235.405 770.226 235.405 771.469 236.649L776.32 241.499C777.626 242.743 777.626 244.858 776.32 246.101Z" fill="#FF6DC6"/>
<path d="M703.312 228.004C704.556 229.248 706.67 229.248 707.914 228.004C709.22 226.698 709.22 224.646 707.914 223.402L703.063 218.552C701.82 217.308 699.705 217.308 698.462 218.552C697.218 219.795 697.218 221.91 698.462 223.153L703.312 228.004Z" fill="#FF6DC6"/>
<rect x="450" y="52" width="42" height="29" fill="#D1D6EE"/>
<path d="M500.216 44.9609L468.744 48.8486C467.029 49.0605 465.4 49.7858 464.096 50.9181L440.147 71.7055C438.126 73.4595 439.492 76.5288 442.148 76.2005L447.635 75.5226C447.154 77.295 447.208 79.1716 447.917 80.9376C447.203 81.9077 446.967 83.1896 447.489 84.3619C447.962 85.4248 448.924 86.0678 449.991 86.2779L452.498 98.7337C452.716 99.8169 453.887 100.415 454.904 99.9629L460.478 97.4812C461.495 97.0283 461.834 95.7575 461.175 94.8707L453.596 84.6732C454.154 83.7396 454.32 82.5941 453.846 81.5313C453.339 80.3905 452.271 79.7223 451.111 79.5746C450.527 78.0601 450.707 76.4111 451.555 75.0391L473.621 72.3138C474.643 72.1871 476.521 71.7606 478.269 70.2443L502.218 49.4569C504.239 47.7015 502.873 44.6332 500.216 44.9609ZM480.545 72.8446C478.096 74.9701 475.468 75.5681 474.03 75.7456L457.668 77.7673L461.239 89.5811C462.791 93.0664 472.588 92.0892 483.122 87.3992C493.656 82.7091 500.938 76.0824 499.386 72.597L492.997 62.0366L480.545 72.8446Z" fill="#142428"/>
</svg>
