<svg><symbol id="httpsc0piktochartcomv2themesbasesvgs190121siconspaper20tearsvg-custom" viewBox="11.839442253112793 0 8.318343162536621 32.005001068115234" preserveAspectRatio="none" xmlns:xlink="http://www.w3.org/1999/xlink" version="1.1" x="0px" y="0px" enable-background="new 0 0 32 32" xml:space="preserve">
<path xmlns="http://www.w3.org/2000/svg" d="M11.859,10.279c-0.001,0.044-0.003,0.088-0.001,0.131c0.003,0.06,0.012,0.119,0.017,0.178  c0.005,0.065-0.009,0.139,0.018,0.192c0.096,0.191,0.069,0.388,0.044,0.585c-0.006,0.044,0.004,0.063,0.041,0.091  c0.068,0.051,0.125,0.118,0.183,0.18c0.036,0.038,0.058,0.1,0.1,0.12c0.093,0.044,0.097,0.11,0.084,0.195  c-0.013,0.086,0.039,0.191,0.109,0.228c-0.05,0.05-0.032,0.096,0.007,0.142c0.022,0.026,0.05,0.053,0.055,0.084  c0.013,0.069,0.058,0.095,0.115,0.12c0.049,0.022,0.091,0.064,0.078,0.125c-0.012,0.058-0.013,0.108,0.03,0.152  c0.039,0.04,0.08,0.08,0.124,0.124c-0.068,0.039-0.089,0.105-0.106,0.188c-0.011,0.057,0.039,0.076,0.034,0.104  c-0.02,0.122,0.062,0.258-0.053,0.362c0.075,0.087,0.032,0.216,0.124,0.288c0.005,0.004-0.006,0.025-0.004,0.037  c0.002,0.017,0.003,0.038,0.013,0.051c0.05,0.066,0.059,0.131,0.011,0.184c0.048,0.053,0.091,0.102,0.136,0.152  c-0.016,0.009-0.023,0.013-0.029,0.017c-0.102,0.067-0.107,0.103-0.019,0.187c0.068,0.065,0.111,0.15,0.192,0.207  c0.068,0.048,0.114,0.128,0.166,0.188c0.002,0.037-0.006,0.076,0.008,0.103c0.028,0.051,0.068,0.096,0.104,0.142  c0.02,0.026,0.04,0.054,0.067,0.071c0.058,0.037,0.087,0.076,0.052,0.149c-0.023,0.048-0.029,0.104-0.044,0.156  c0.032,0.007,0.057,0.012,0.083,0.017c-0.112,0.041-0.151,0.144-0.177,0.231c-0.019,0.067-0.045,0.143-0.028,0.229  c0.023,0.111,0.004,0.231,0.003,0.347c0,0.03,0.008,0.065-0.004,0.089c-0.067,0.135-0.052,0.284-0.073,0.426  c-0.007,0.048-0.004,0.097-0.007,0.158c0.011,0.005,0.04,0.019,0.082,0.039c-0.061,0.038-0.112,0.069-0.166,0.103  c0.005,0.01,0.021,0.029,0.017,0.037c-0.035,0.071-0.068,0.144-0.114,0.208c-0.033,0.046-0.064,0.081-0.03,0.14  c0.045,0.078,0.087,0.157,0.09,0.25c0,0.012,0.02,0.024,0.024,0.029c-0.051,0.054-0.103,0.108-0.139,0.146  c0.052,0.033,0.107,0.069,0.163,0.102c0.052,0.029,0.061,0.067,0.035,0.119c-0.023,0.047-0.046,0.094-0.065,0.142  c-0.029,0.072-0.047,0.139,0.005,0.216c0.024,0.036,0.007,0.099,0.01,0.15c0.001,0.02,0.003,0.04,0.008,0.06  c0.005,0.021,0.012,0.041,0.02,0.065c0.048-0.002,0.099,0.002,0.09,0.075c-0.006,0.045-0.019,0.09-0.025,0.135  c-0.01,0.082-0.071,0.175,0.048,0.23c0.008,0.004,0.01,0.021,0.015,0.032c-0.007-0.002-0.014-0.003-0.021-0.005  c-0.02,0.04-0.039,0.08-0.058,0.12c0.042,0.022,0.075,0.04,0.099,0.052c-0.019,0.066-0.031,0.122-0.05,0.175  c-0.024,0.069-0.02,0.133,0.023,0.192c0.06,0.082,0.079,0.17,0.046,0.268c-0.013,0.038-0.03,0.076-0.046,0.117  c0.052,0.04,0.03,0.083,0.012,0.135c-0.021,0.06-0.025,0.127-0.035,0.192c-0.004,0.027-0.006,0.055-0.007,0.083  c-0.002,0.075-0.022,0.157,0.002,0.223c0.018,0.049,0.029,0.084,0.005,0.128c-0.044,0.079-0.056,0.151,0.009,0.231  c0.021,0.026,0.007,0.081,0.012,0.122c0.002,0.018,0.007,0.045,0.02,0.052c0.065,0.037,0.06,0.094,0.052,0.155  c-0.006,0.047-0.033,0.097,0.019,0.139c0.009,0.007,0.008,0.032,0.007,0.048c-0.005,0.064-0.023,0.128-0.015,0.19  c0.006,0.047,0.002,0.072-0.039,0.094c-0.055,0.03-0.061,0.094-0.023,0.145c0.015,0.02,0.028,0.052,0.024,0.076  c-0.01,0.059-0.025,0.118-0.046,0.173c-0.017,0.043-0.002,0.067,0.034,0.076c0.093,0.023,0.13,0.098,0.168,0.173  c0.015,0.029,0.03,0.057,0.047,0.09c-0.04,0.048-0.086,0.1-0.127,0.156c-0.011,0.016-0.011,0.047-0.004,0.067  c0.008,0.024,0.03,0.044,0.045,0.066c-0.009-0.001-0.017-0.002-0.026-0.002c-0.017,0.029-0.034,0.057-0.051,0.086  c0.018,0.006,0.019,0.005,0.011,0.031c-0.023,0.076-0.061,0.132-0.14,0.165c0.045,0.039,0.084,0.074,0.124,0.108  c-0.01,0.002-0.019,0.004-0.029,0.007c-0.004,0.029-0.014,0.059-0.011,0.088c0.004,0.032,0.021,0.062,0.031,0.093  c0.02,0.061,0.04,0.122,0.06,0.183c0.008,0,0.016,0,0.024-0.001c-0.021,0.016-0.041,0.033-0.064,0.051  c0.075,0.09,0.149,0.179,0.226,0.27c-0.03,0.017-0.054,0.031-0.063,0.036c0.023,0.055,0.036,0.11,0.066,0.149  c0.034,0.044,0.085,0.074,0.13,0.111c-0.032,0.028-0.055,0.047-0.079,0.069c0.05,0.033,0.094,0.062,0.138,0.092  c0.069,0.047,0.099,0.135,0.054,0.2c-0.039,0.056-0.002,0.057,0.032,0.064c-0.013,0.025-0.023,0.046-0.035,0.07  c0.018,0,0.033,0,0.047,0c-0.015,0.069,0.009,0.104,0.073,0.12c0.025,0.006,0.052,0.022,0.07,0.041  c0.071,0.074,0.009,0.172,0.051,0.255c0.081,0.025,0.172,0.052,0.247,0.075c-0.015,0.053-0.036,0.088-0.031,0.12  c0.007,0.038,0.036,0.071,0.056,0.107c0.007,0.007,0.014,0.013,0.021,0.02c-0.023,0.013-0.047,0.024-0.068,0.039  c-0.111,0.081-0.112,0.087-0.075,0.201c-0.027,0.022-0.073,0.043-0.071,0.06c0.005,0.048,0.03,0.094,0.048,0.145  c-0.125,0.012,0.006,0.156-0.095,0.189c0.025,0.029,0.041,0.048,0.057,0.067c-0.019,0.011-0.033,0.019-0.049,0.029  c0.024,0.02,0.043,0.035,0.062,0.05c-0.05,0.043-0.096,0.082-0.144,0.123c0.097,0.065-0.01,0.115-0.002,0.172  c0.003,0.019-0.014,0.058-0.025,0.059c-0.078,0.01-0.068,0.054-0.049,0.106c0.018,0.05,0.029,0.103,0.051,0.152  c0.038,0.088,0.07,0.174,0.034,0.272c-0.016,0.043-0.039,0.103-0.022,0.133c0.049,0.084,0.007,0.198,0.095,0.268  c0.021,0.017,0.034,0.07,0.023,0.093c-0.037,0.077,0.009,0.113,0.071,0.151c-0.055,0.022-0.106,0.031-0.143,0.059  c-0.038,0.029-0.062,0.077-0.083,0.105c0.031,0.023,0.085,0.043,0.088,0.068c0.008,0.074-0.001,0.15-0.01,0.225  c-0.006,0.046-0.034,0.09-0.034,0.136c0,0.069,0.059,0.103,0.109,0.137c0.042,0.029,0.035,0.041,0.001,0.074  c-0.031,0.03-0.056,0.075-0.064,0.118c-0.012,0.063,0.014,0.142-0.014,0.193c-0.064,0.116-0.007,0.241-0.046,0.355  c-0.01,0.031-0.007,0.078-0.028,0.094c-0.069,0.053-0.102,0.115-0.089,0.202c0.003,0.021-0.002,0.043,0,0.064  c0.007,0.079-0.007,0.149-0.076,0.201c-0.023,0.018-0.04,0.045-0.058,0.069c-0.025,0.034-0.047,0.069-0.077,0.115  c0.012,0.06,0.007,0.066-0.078,0.09c-0.02,0.006-0.037,0.024-0.055,0.036c0.015,0.019,0.028,0.039,0.044,0.057  c0.006,0.007,0.017,0.008,0.011,0.005c-0.004,0.071-0.005,0.131-0.012,0.191c-0.006,0.051-0.015,0.102-0.029,0.152  c-0.007,0.024-0.029,0.042-0.041,0.065c-0.045,0.087-0.09,0.174-0.132,0.263c-0.008,0.017-0.01,0.044-0.002,0.059  c0.022,0.045,0.011,0.194-0.012,0.241c-0.047,0.095-0.088,0.192-0.128,0.29c-0.031,0.076-0.048,0.157-0.085,0.23  c-0.018,0.035-0.028,0.111-0.043,0.174h6.471c0.018-0.029,0.033-0.061,0.031-0.111c-0.001-0.019,0.001-0.044,0.012-0.058  c0.062-0.079,0.032-0.174,0.049-0.252c0.025-0.009,0.048-0.017,0.072-0.025c-0.01-0.021-0.024-0.041-0.028-0.062  c-0.007-0.04-0.015-0.081-0.011-0.121c0.005-0.053,0.029-0.098,0.059-0.145c0.024-0.038,0.029-0.103,0.015-0.148  c-0.022-0.073-0.007-0.129,0.036-0.19c-0.047-0.031-0.104-0.059-0.1-0.129c0.004-0.077-0.037-0.157,0.022-0.232  c0.011-0.014-0.012-0.056-0.02-0.085c-0.006-0.02-0.018-0.04-0.019-0.061c0-0.017,0.02-0.049,0.017-0.05  c-0.062-0.034,0-0.063,0.005-0.086c-0.021-0.029-0.038-0.052-0.055-0.076c0.04-0.009,0.075-0.017,0.11-0.024  c-0.058-0.068,0.03-0.302,0.106-0.338c0.017-0.084,0.03-0.152,0.045-0.226c-0.014-0.013-0.039-0.036-0.063-0.059  c0.008-0.002,0.015-0.005,0.023-0.007c-0.01-0.048-0.017-0.097-0.029-0.145c-0.015-0.063-0.037-0.126-0.048-0.19  c-0.003-0.017,0.02-0.038,0.03-0.058c0.026-0.052,0.091-0.089,0.056-0.165c-0.006-0.013,0.011-0.035,0.016-0.054  c0.004-0.018,0.006-0.037,0.009-0.056c0.004-0.027,0.005-0.054,0.01-0.081c0.003-0.021,0.014-0.042,0.014-0.062  c-0.002-0.045-0.01-0.09-0.013-0.135c-0.003-0.046-0.005-0.093-0.004-0.14c0-0.02,0.003-0.02-0.128-0.064  c-0.004-0.001-0.006-0.007-0.017-0.021c0.023-0.016,0.044-0.031,0.051-0.036c-0.005-0.012-0.018-0.027-0.016-0.04  c0.012-0.078-0.005-0.144-0.048-0.211c-0.025-0.039-0.047-0.107-0.03-0.143c0.052-0.111,0.007-0.191-0.054-0.274  c-0.009-0.012-0.005-0.032-0.009-0.054c-0.093-0.013-0.127-0.055-0.198-0.263c0.11-0.067,0.126-0.101,0.094-0.19  c-0.008-0.022-0.009-0.049-0.005-0.072c0.018-0.097,0.006-0.119-0.089-0.153c-0.001-0.005-0.003-0.011-0.002-0.015  c0.024-0.069,0.073-0.144-0.043-0.18c-0.007-0.002-0.009-0.017-0.013-0.027c-0.023-0.05-0.045-0.1-0.07-0.154  c0.03-0.004,0.054-0.006,0.081-0.01c-0.014-0.047-0.017-0.097-0.042-0.126c-0.026-0.029-0.075-0.038-0.124-0.06  c0.023-0.04,0.043-0.074,0.062-0.108c0-0.021,0-0.044,0-0.068c-0.001-0.036,0.012-0.085-0.006-0.106  c-0.055-0.063-0.12-0.117-0.186-0.169c-0.068-0.053-0.093-0.143-0.05-0.205c0.053-0.075,0.05-0.12-0.007-0.19  c-0.012-0.015-0.027-0.037-0.025-0.053c0.016-0.092,0.018-0.178-0.05-0.253c-0.011-0.013-0.018-0.031-0.022-0.049  c-0.022-0.083-0.042-0.167-0.058-0.228c0.03-0.046,0.061-0.076,0.072-0.112c0.019-0.062,0.016-0.131-0.004-0.189  c-0.026-0.078-0.071-0.15-0.116-0.219c-0.023-0.036-0.068-0.053-0.05-0.113c0.009-0.032-0.004-0.074-0.046-0.102  c-0.076-0.051-0.151-0.108-0.155-0.215c-0.002-0.041-0.022-0.081-0.023-0.121c-0.001-0.028,0.016-0.056,0.022-0.072  c-0.01-0.039-0.018-0.072-0.026-0.105c-0.004-0.015-0.009-0.029-0.013-0.044c-0.01-0.04-0.041-0.091-0.026-0.119  c0.034-0.066,0.002-0.115-0.018-0.169c0.084-0.085,0.174-0.165,0.155-0.298c0.024-0.027,0.04-0.058,0.052-0.09  c0.014-0.037,0.021-0.077,0.037-0.113c0.011-0.026,0.048-0.053,0.043-0.071c-0.022-0.078,0.038-0.116,0.068-0.166  c-0.007-0.019-0.022-0.049-0.017-0.053c0.061-0.049,0.007-0.082-0.011-0.123c-0.031-0.072-0.056-0.146-0.079-0.221  c-0.017-0.056,0.002-0.117-0.003-0.171c-0.011-0.11-0.03-0.218-0.014-0.328c0.008-0.057-0.001-0.1-0.067-0.105  c0.026-0.114,0.05-0.221,0.073-0.327c0.026,0.008,0.047,0.015,0.083,0.026c-0.007-0.043-0.013-0.074-0.018-0.104  c0.049-0.092,0.104-0.184,0.149-0.28c0.029-0.064,0.055-0.13,0.034-0.207c-0.01-0.037,0.001-0.083,0.014-0.121  c0.032-0.096,0.079-0.182,0.181-0.221c-0.03-0.06,0.002-0.136,0.064-0.157c0.054-0.018,0.078-0.053,0.086-0.112  c0.01-0.073-0.028-0.163,0.063-0.213c0.005-0.003,0.011-0.014,0.01-0.02c-0.012-0.063-0.025-0.125-0.038-0.188  c-0.007-0.032-0.022-0.065-0.018-0.096c0.011-0.081,0.03-0.16,0.048-0.24c0.009-0.041,0.022-0.081,0.032-0.122  c0.007-0.027,0.022-0.057,0.015-0.081c-0.019-0.065,0.005-0.09,0.068-0.09c-0.004-0.017-0.008-0.031-0.014-0.053  c0.061-0.012,0.119-0.023,0.183-0.035c-0.02-0.015-0.037-0.028-0.065-0.05c0.073-0.002,0.11-0.031,0.093-0.093  c-0.014-0.053-0.036-0.104-0.061-0.153c-0.032-0.061-0.009-0.117,0.004-0.176c0.008-0.036,0.008-0.073,0.012-0.11  c0.009-0.039,0.012-0.077,0.017-0.115c0.008-0.054,0.002-0.102-0.045-0.138c-0.105-0.082-0.205-0.171-0.314-0.248  c-0.064-0.045-0.065-0.091-0.04-0.153c-0.044-0.043-0.075-0.085,0.01-0.119c0.01-0.004,0.02-0.028,0.017-0.039  c-0.008-0.029-0.023-0.056-0.035-0.084c-0.019-0.043-0.051-0.085-0.056-0.13c-0.009-0.086-0.037-0.163-0.083-0.234  c-0.032-0.05-0.058-0.095,0.019-0.124c-0.044-0.063-0.081-0.126-0.168-0.119c-0.007,0.001-0.02-0.021-0.023-0.033  c-0.009-0.043-0.012-0.088-0.024-0.131c-0.01-0.039-0.01-0.091-0.07-0.096c0.005-0.084-0.106-0.111-0.094-0.212  c0.008-0.066-0.014-0.132,0.049-0.181c-0.046-0.041-0.054-0.252-0.015-0.453c0.003-0.014,0.028-0.023,0.033-0.027  c-0.069-0.039-0.143-0.081-0.209-0.118c-0.006-0.033-0.024-0.066-0.014-0.084c0.036-0.068,0.017-0.147,0.051-0.213  c0.005-0.01,0.006-0.027,0.001-0.035c-0.047-0.077-0.049-0.16-0.047-0.246c0.002-0.062,0.031-0.159,0.062-0.193  c-0.05-0.034-0.098-0.073-0.151-0.102c-0.067-0.037-0.081-0.072-0.05-0.128c-0.024-0.037-0.063-0.069-0.062-0.1  c0.001-0.055,0.032-0.108,0.04-0.163c0.008-0.057,0.035-0.094,0.076-0.134c0.053-0.051,0.109-0.11,0.073-0.203  c-0.01-0.026,0.016-0.067,0.027-0.105c0.014,0.003,0.029,0.006,0.035,0.008c0.009-0.019,0.012-0.044,0.024-0.052  c0.13-0.08,0.153-0.228,0.056-0.35c0.018-0.043,0.027-0.091,0.055-0.123c0.08-0.092,0.082-0.135-0.008-0.224  c0.021-0.039,0.043-0.078,0.064-0.117c-0.012-0.007-0.024-0.015-0.039-0.024c0.064-0.04,0.056-0.158,0.143-0.134  c0.026-0.066,0.047-0.124,0.073-0.181c0.031-0.067,0.007-0.135-0.017-0.188c-0.036-0.083-0.104-0.152-0.01-0.236  c0.002-0.002,0.003-0.009,0.002-0.013c-0.033-0.067,0.02-0.07,0.06-0.085c0.01-0.004,0.025-0.018,0.024-0.027  c-0.005-0.08-0.007-0.157-0.089-0.212c-0.052-0.034-0.08-0.1-0.082-0.167c0.044,0.023,0.081,0.043,0.119,0.063  c-0.019-0.06-0.037-0.116-0.055-0.171c0.005-0.002,0.011-0.004,0.016-0.007c-0.023-0.015-0.046-0.029-0.071-0.045  c0.013-0.008,0.022-0.014,0.031-0.019c-0.023-0.008-0.045-0.015-0.056-0.019c0.007-0.033,0.024-0.063,0.016-0.086  c-0.028-0.079-0.003-0.127,0.063-0.144c-0.012-0.053-0.023-0.098-0.039-0.165c-0.174-0.178-0.251-0.419-0.258-0.686  c-0.001-0.023,0.008-0.047,0.014-0.076c-0.009-0.012-0.022-0.03-0.031-0.042c0.022-0.053,0.041-0.098,0.061-0.146  c-0.047-0.053-0.024-0.132,0.051-0.181c0.016-0.011,0.027-0.039,0.029-0.06c0.009-0.075-0.034-0.16,0.048-0.221  c0.021-0.015,0.035-0.04,0.051-0.061c0.024-0.033,0.047-0.066,0.066-0.091c0-0.07-0.001-0.143,0.001-0.217  c0-0.013,0.015-0.029,0.028-0.036c0.09-0.046,0.123-0.129,0.14-0.208c0.052-0.03,0.094-0.054,0.138-0.079  c-0.035-0.105-0.07-0.213-0.106-0.321c0.058-0.047,0.117-0.095,0.175-0.144c0.004-0.003,0-0.015,0.003-0.02  c0.012-0.017,0.023-0.041,0.04-0.049c0.107-0.05,0.133-0.165,0.171-0.254c0.032-0.077-0.004-0.183-0.011-0.276  c0.001-0.019,0.03-0.037,0.033-0.06c0.012-0.074,0.041-0.152-0.022-0.221c-0.012-0.013-0.014-0.037-0.018-0.056  c-0.013-0.053-0.032-0.106-0.037-0.161c-0.008-0.084-0.059-0.171,0.024-0.25c0.044-0.042,0.088-0.086,0.089-0.163  c0.001-0.114-0.056-0.196-0.112-0.278c0.041-0.114,0.126-0.221,0.023-0.347c-0.014-0.017,0.002-0.059,0.006-0.089  c0.002-0.012,0.012-0.024,0.012-0.036c-0.006-0.123,0.05-0.221,0.12-0.315c0.065-0.088,0.034-0.193-0.06-0.213  c-0.108-0.022-0.171-0.096-0.202-0.208c-0.02-0.073-0.068-0.138-0.09-0.21c-0.013-0.041-0.002-0.091,0.003-0.137  c0.003-0.023,0.031-0.049,0.025-0.066c-0.023-0.064-0.057-0.124-0.045-0.196c0.003-0.02,0.005-0.042,0.015-0.059  c0.018-0.034,0.041-0.065,0.062-0.098c-0.006-0.004-0.012-0.009-0.018-0.013c0.014-0.001,0.028-0.002,0.049-0.003  c-0.016-0.014-0.026-0.023-0.038-0.033c0.096-0.068,0.034-0.153,0.027-0.231c0.01,0.01,0.019,0.019,0.029,0.029  c0.022-0.036,0.045-0.072,0.067-0.107c-0.02-0.025-0.032-0.039-0.051-0.063c0.033-0.004,0.054-0.006,0.081-0.01  c-0.022-0.027-0.039-0.048-0.057-0.07c0.024-0.022,0.044-0.039,0.07-0.064c-0.073-0.03-0.1-0.092-0.07-0.146  c0.029-0.052,0.005-0.082-0.009-0.121c-0.025-0.069-0.057-0.133,0.005-0.206c0.036-0.042,0.057-0.1,0.072-0.155  c0.022-0.082,0.03-0.167,0.049-0.25c0.006-0.028,0.036-0.054,0.035-0.081c-0.002-0.122,0.033-0.234,0.062-0.35  c0.01-0.039,0.082-0.091,0.001-0.142c-0.039-0.025-0.064-0.071-0.089-0.1c0.038-0.054,0.074-0.089,0.091-0.132  c0.028-0.068,0.046-0.14,0.063-0.212c0.035-0.143,0.144-0.254,0.163-0.403c0.08-0.051,0.102-0.124,0.077-0.214  c-0.007-0.027,0.001-0.067-0.015-0.082c-0.033-0.032-0.044-0.063-0.041-0.107c0.002-0.025,0.004-0.059-0.011-0.076  c-0.058-0.067-0.101-0.131-0.113-0.228c-0.012-0.1-0.042-0.195-0.014-0.268c-0.036-0.048-0.08-0.083-0.09-0.126  c-0.018-0.081-0.017-0.167-0.024-0.255c-0.114-0.044-0.115-0.051-0.09-0.17c0.004-0.02-0.023-0.05-0.041-0.07  c-0.01-0.011-0.031-0.013-0.025-0.011c0-0.065,0.015-0.123-0.003-0.166C19.652,0.144,19.625,0.076,19.679,0h-6.842  c-0.043,0.082-0.104,0.161-0.044,0.267c0.022,0.039,0.021,0.082,0.006,0.133c-0.011,0.039,0.034,0.093,0.05,0.142  c0.007,0.022,0.008,0.049,0.004,0.072c-0.015,0.096,0.015,0.17,0.099,0.218c-0.035,0.058-0.069,0.117-0.104,0.176  c0.072,0.031,0.153,0.267,0.133,0.366c0.021,0.011,0.043,0.023,0.046,0.024c-0.014,0.053-0.034,0.095-0.035,0.137  c-0.001,0.059,0.012,0.115-0.029,0.17c-0.015,0.02-0.004,0.072,0.013,0.098C13,1.841,13.04,1.869,13.075,1.904  c-0.032,0.017-0.054,0.028-0.09,0.046c0.042,0.021,0.072,0.034,0.099,0.05c0.045,0.027,0.103,0.047,0.13,0.087  c0.034,0.05,0.094,0.087,0.072,0.178c-0.026,0.108-0.003,0.12,0.114,0.169c0.019,0.008,0.04,0.018,0.051,0.034  c0.032,0.048,0.06,0.098,0.091,0.151c-0.087,0.137-0.131,0.281-0.054,0.419c-0.036,0.044-0.061,0.088-0.098,0.117  c-0.067,0.052-0.05,0.083,0.017,0.107c-0.009,0.04-0.02,0.076-0.025,0.113c-0.004,0.029,0.002,0.059,0.002,0.089  c0,0.031-0.017,0.073-0.002,0.09c0.034,0.042-0.001,0.058-0.019,0.076c-0.069,0.068-0.076,0.137-0.014,0.208  c0.035,0.041,0.077,0.075,0.111,0.117c0.016,0.02,0.019,0.051,0.027,0.077c-0.006,0.003-0.012,0.006-0.018,0.009  c0.023,0.015,0.047,0.029,0.07,0.044c-0.007,0.002-0.013,0.004-0.02,0.006c0,0.023,0,0.046,0,0.069c0,0.101,0.063,0.157,0.14,0.204  c0.054,0.033,0.048,0.078,0.027,0.131c-0.028,0.071-0.09,0.166-0.066,0.212c0.045,0.085,0.038,0.136-0.017,0.2  c-0.007,0.009-0.013,0.027-0.009,0.037c0.022,0.054-0.017,0.07-0.052,0.074c-0.1,0.01-0.14,0.089-0.186,0.158  c-0.028,0.043-0.054,0.096-0.013,0.154c0.011,0.015,0,0.058-0.014,0.077c-0.065,0.087-0.067,0.161-0.007,0.251  c0.012,0.018,0.015,0.049,0.008,0.069c-0.017,0.051-0.044,0.098-0.061,0.149c-0.005,0.016,0.002,0.044,0.014,0.057  c0.036,0.039,0.077,0.073,0.112,0.105c-0.016,0.048-0.018,0.09-0.04,0.113c-0.065,0.067-0.128,0.132-0.163,0.22  c-0.003,0.009-0.012,0.017-0.021,0.022C13.065,6.45,13.05,6.549,13.05,6.658c0,0.016-0.021,0.041-0.038,0.048  c-0.049,0.02-0.101,0.03-0.151,0.048c-0.076,0.027-0.073,0.107-0.096,0.164c-0.023,0.059-0.047,0.1-0.108,0.121  c-0.029,0.01-0.074,0.034-0.076,0.055c-0.006,0.059-0.01,0.13,0.017,0.178c0.028,0.049,0.012,0.066-0.021,0.074  c-0.074,0.018-0.084,0.079-0.082,0.132c0.004,0.084-0.019,0.146-0.08,0.205c-0.033,0.032-0.042,0.089-0.062,0.135  c0.019,0.008,0.035,0.015,0.044,0.019c-0.011,0.036-0.017,0.069-0.029,0.099c-0.034,0.088-0.071,0.176-0.107,0.263  c-0.01,0.025-0.027,0.048-0.034,0.073C12.216,8.313,12.209,8.357,12.2,8.4c-0.008,0.041,0,0.098-0.024,0.121  c-0.044,0.042-0.04,0.075-0.013,0.11c-0.066,0.077-0.165,0.128-0.124,0.252c0.003,0.01-0.01,0.025-0.009,0.037  c0.004,0.045,0.008,0.09,0.016,0.135c0.005,0.033,0.02,0.065,0.02,0.097c0,0.036-0.012,0.073-0.018,0.109  c-0.007,0.054-0.022,0.114-0.057,0.155c-0.059,0.068-0.048,0.129-0.001,0.199c-0.039,0.026-0.073,0.048-0.11,0.072  c0.035,0.063,0.081,0.129-0.001,0.194c-0.003,0.003,0.007,0.018,0.006,0.027c-0.006,0.053-0.016,0.106-0.02,0.159  c-0.005,0.06-0.053,0.12-0.003,0.181C11.865,10.255,11.859,10.269,11.859,10.279z" fill="currentColor"></path>
</symbol><use data-v-3b6c6e39="" xlink:href="#httpsc0piktochartcomv2themesbasesvgs190121siconspaper20tearsvg-custom" href="#httpsc0piktochartcomv2themesbasesvgs190121siconspaper20tearsvg-custom"></use></svg>